<?xml version="1.0" encoding="UTF-8"?>
<!DOCTYPE svg PUBLIC "-//W3C//DTD SVG 1.1//EN" "http://www.w3.org/Graphics/SVG/1.1/DTD/svg11.dtd">
<!-- Creator: CorelDRAW X6 -->
<svg xmlns="http://www.w3.org/2000/svg" xml:space="preserve" width="4.06496in" height="3.1693in" version="1.1" style="shape-rendering:geometricPrecision; text-rendering:geometricPrecision; image-rendering:optimizeQuality; fill-rule:evenodd; clip-rule:evenodd"
viewBox="0 0 2378 1854"
 xmlns:xlink="http://www.w3.org/1999/xlink">
 <defs>
  <style type="text/css">
   <![CDATA[
    .str0 {stroke:#D9DADA;stroke-width:1.75496}
    .str3 {stroke:#FFED00;stroke-width:1.75496}
    .str2 {stroke:#FECC00;stroke-width:1.75496}
    .str5 {stroke:#131416;stroke-width:4.06266}
    .str1 {stroke:#131416;stroke-width:38.5906}
    .str4 {stroke:#C5C6C6;stroke-width:16.2506;stroke-dasharray:32.501260 16.250630}
    .fil6 {fill:none}
    .fil2 {fill:#D9DADA}
    .fil5 {fill:#E31E24}
    .fil4 {fill:#EF7F1A}
    .fil1 {fill:#FFED00}
    .fil0 {fill:#131416}
    .fil3 {fill:#FEC20E}
   ]]>
  </style>
 </defs>
 <g id="Layer_x0020_1">
  <metadata id="CorelCorpID_0Corel-Layer"/>
  <rect class="fil0" width="2378" height="1854"/>
  <g id="_221708904">
   <path class="fil1" d="M1522 1682l0 0c3,0 5,0 7,0l1 0c2,0 4,-1 7,-1l0 0 0 0 0 0c2,0 5,0 7,0l1 0c2,0 4,0 6,-1l1 0c2,0 4,0 7,0l0 0 0 0c2,0 5,-1 7,-1l0 0 1 0c2,0 4,-1 6,-1l1 0c2,0 5,0 7,-1l0 0c3,0 5,0 7,-1l1 0c2,0 4,-1 7,-1l0 0c2,-1 5,-1 7,-1l0 0c3,-1 5,-1 8,-2l0 0 0 0c2,0 5,-1 7,-1l0 0c3,-1 5,-1 7,-2l1 0c2,-1 4,-1 7,-2l0 0 0 0c3,-1 5,-1 7,-2l0 0 1 0c2,0 4,-1 6,-2l1 0c2,0 4,-1 7,-2l0 0c3,-1 5,-1 7,-2 262,-83 407,-362 325,-623 -83,-262 -362,-407 -623,-325 -3,1 -5,2 -8,2l0 1c-2,0 -5,1 -7,2l0 0c-2,1 -5,2 -7,2l0 1 0 0c-3,0 -5,1 -7,2l0 0 -1 0c-2,1 -4,2 -6,3l0 0c-3,1 -5,2 -7,3l-1 0c-2,1 -4,2 -6,3l0 0 -1 0c-2,1 -4,2 -6,3l0 0c-3,1 -5,2 -7,3l0 0c-2,1 -5,2 -7,3l0 0c-2,1 -4,3 -6,4l-1 0c-2,1 -4,2 -6,3l0 0c-2,1 -4,2 -6,3l-1 1 0 0c-2,1 -4,2 -6,3l0 0 0 0c-2,2 -4,3 -6,4l-1 0c-2,1 -4,2 -6,4l0 0c-2,1 -4,2 -6,4l0 0 0 0 0 0c-2,1 -4,2 -6,4l-1 0c-1,1 -3,2 -5,4l-1 0 -2 1c-164,102 -193,245 -315,291l-11 3c-140,44 -218,195 -174,335l0 1 16 49 0 1c44,140 195,218 335,174l10 -3c127,-33 233,68 425,57l3 0zm67 -6c2,0 4,-1 7,-1"/>
   <g>
    <rect class="fil2 str0" transform="matrix(-0.300657 -0.953732 -0.66647 0.210099 737.447 1645.38)" width="416" height="111" rx="66" ry="66"/>
    <rect class="fil2 str0" transform="matrix(-0.270592 -0.858362 -0.66647 0.210099 610.39 1663.65)" width="416" height="111" rx="66" ry="66"/>
    <rect class="fil2 str0" transform="matrix(-0.150329 -0.476869 -0.66647 0.210099 464.59 1622.46)" width="416" height="111" rx="66" ry="66"/>
   </g>
   <path class="fil1" d="M1448 959c24,-8 69,-34 91,-17 -2,36 -38,65 -6,112 44,65 163,36 167,-52 2,-54 -61,-61 -69,-89 11,-31 107,-45 139,-53l28 -4 24 -4c3,-11 0,-36 -4,-60 77,60 137,143 169,244 82,261 -63,540 -325,623l-7 2 0 0 -7 2 -1 0 -6 2 -1 0 0 0 -7 2 0 0 0 0 -7 2 -1 0 -7 2 0 0 -7 1 0 0 0 0 -8 2 0 0 -7 1 0 0 -7 1 -1 0 -7 1 0 0 -7 1 -1 0 -6 1 -1 0 0 0 -7 1 0 0 0 0 -7 0 -1 0 -6 1 -1 0 -7 0 0 0 0 0 0 0 -7 1 -1 0 -7 0 0 0 -3 0c-192,11 -298,-90 -425,-57l-10 3c-140,44 -291,-34 -335,-174l0 -1 -16 -49 0 -1c-44,-140 34,-291 174,-335l11 -3c122,-46 151,-189 315,-291l2 -1 1 0 5 -4 1 0 6 -4 0 0 0 0 0 0 6 -4 0 0 6 -4 1 0 6 -4 0 0 0 0 6 -3 0 0 1 -1 6 -3 0 0 6 -3 1 0 6 -4 0 0 7 -3 0 0 7 -3 0 0 6 -3 1 0 0 0 6 -3 1 0 7 -3 0 0 6 -3 1 0 0 0 7 -2 0 0 0 -1 7 -2 0 0 7 -2 0 -1 8 -2c17,-5 35,-10 53,-13 5,14 10,25 13,44 2,33 -14,65 -46,76 -42,15 -60,-22 -96,-13 -42,23 45,187 58,200l19 -8c27,-15 53,-27 83,-38z"/>
   <circle class="fil3" transform="matrix(0.519155 -0.513204 -0.513204 -0.519155 1511.81 1185.41)" r="565"/>
   <rect class="fil3" transform="matrix(-0.228401 -0.766702 -0.750065 0.223446 1619.49 1405.07)" width="587" height="828" rx="267" ry="267"/>
   <path class="fil4" d="M1449 1235l-12 -40c-34,-113 -153,-176 -266,-144l-102 28c-113,32 -177,153 -143,266l12 40c33,113 152,176 265,144l102 -28c113,-32 177,-153 144,-266z"/>
   <path class="fil5" d="M1510 1319c-16,72 -69,135 -145,159l-102 32c-41,-30 -76,-68 -104,-113 -8,-14 -16,-28 -22,-42 -6,-14 -12,-27 -16,-41 -1,-2 -1,-3 -2,-5 -26,-84 -23,-170 3,-247l102 -32c31,-10 62,-12 92,-8 80,11 150,66 176,148l6 20 7 20c11,36 12,74 5,109z"/>
  </g>
  <path class="fil6 str1" d="M943 1459l-43 11c-29,14 -58,45 -48,80 10,36 120,72 39,106 -17,8 -40,15 -58,20 -22,5 -67,21 -87,15l-4 -24 -3 -28c-9,-31 -23,-128 -53,-139 -29,8 -36,71 -89,69 -89,-3 -117,-123 -53,-167 48,-32 77,4 112,6 17,-22 -8,-67 -17,-91 -10,-29 -23,-55 -38,-83l-7 -19c12,-13 154,-100 176,-58 10,36 -28,54 -12,96 11,32 43,48 75,46 24,-3 34,-10 56,-17 26,-18 43,-55 31,-86 -14,-38 -62,-36 -63,-73 13,-39 158,-63 197,-59 12,42 18,171 56,194 22,-9 25,-45 63,-63 36,-16 60,-1 84,17 50,38 40,134 -30,153 -29,3 -50,-12 -76,-19 -33,15 -4,70 6,95 8,18 13,36 22,53 7,16 19,31 22,48 -16,16 -77,41 -101,49 -26,9 -87,38 -100,1 -8,-25 23,-59 16,-89 -7,-31 -43,-45 -73,-44z"/>
  <path class="fil6 str1" d="M1250 1648c-10,-30 -23,-56 -38,-83l-7 -19c12,-13 176,-101 199,-58 10,36 -28,54 -13,96 12,31 43,47 76,46 24,-4 34,-10 55,-18 27,-17 44,-54 32,-85 -14,-38 -63,-36 -64,-73 13,-39 159,-63 198,-59 11,41 17,170 56,194 21,-10 25,-46 63,-63 36,-16 60,-1 84,17 50,37 39,133 -30,152 -42,-57 -468,219 -611,-47z"/>
  <path class="fil6 str1" d="M1909 1156l-42 12c-29,14 -58,45 -48,79 10,36 120,72 39,107 -18,7 -40,15 -58,19 -22,6 -90,22 -110,16l-4 -25 -3 -28c-9,-31 -23,-128 -53,-139 -29,9 -36,72 -89,70 -89,-4 -117,-124 -53,-167 47,-32 77,3 112,5 17,-21 -8,-66 -17,-90 -10,-30 -23,-56 -38,-83l-7 -20c12,-12 176,-100 199,-58 10,37 -28,55 -13,97 12,31 43,47 76,46 24,-4 34,-10 55,-18 27,-17 44,-54 32,-86 -14,-37 -62,-35 -63,-73 12,-38 158,-62 197,-58 12,41 17,170 56,194 21,-10 25,-46 63,-63 36,-16 60,-1 84,17 50,37 39,133 -30,152 -29,3 -51,-11 -76,-19 -33,15 -4,70 6,95 7,18 13,37 22,54 7,16 18,30 22,48 -16,16 -78,40 -101,49 -26,9 -87,38 -100,1 -8,-25 23,-59 16,-89 -7,-32 -44,-46 -74,-45z"/>
  <path class="fil6 str1" d="M1275 826l-43 11c-29,15 -57,46 -48,80 10,36 121,72 40,107 -18,7 -40,15 -59,19 -22,6 -89,22 -109,15l-5 -24 -3 -28c-8,-31 -22,-128 -53,-139 -576,166 501,-300 511,-304 35,-16 60,-1 84,17 50,37 39,133 -30,152 -30,3 -51,-11 -77,-19 -33,15 -3,70 7,95 7,18 13,37 21,54 8,15 19,30 22,47 -15,17 -77,41 -101,49 -25,10 -87,39 -99,1 -9,-25 23,-58 16,-88 -8,-32 -44,-46 -74,-45z"/>
  <path class="fil3 str2" d="M1480 772c101,-7 205,23 288,90 13,11 26,23 38,36 23,24 43,50 59,78 -3,2 -6,5 -10,7 -21,7 -31,13 -55,16 -33,1 -64,-15 -75,-47 -13,-37 15,-55 15,-84 1,-4 0,-8 -1,-12 -22,-43 -188,42 -200,54l-3 1 -2 -4c-2,-17 -14,-32 -21,-48 -8,-17 -13,-36 -20,-54 -4,-8 -9,-20 -13,-33z"/>
  <path class="fil1 str3" d="M1821 795c5,5 11,9 17,14 -6,5 -10,9 -12,14 1,38 49,36 63,74 10,28 -3,60 -24,79 -16,-28 -36,-54 -59,-78 -12,-13 -25,-25 -38,-36 -83,-67 -187,-97 -288,-90 -9,-25 -14,-52 8,-62 25,8 46,23 76,21 21,-6 37,-19 47,-35 77,16 149,50 210,99z"/>
  <path class="fil6 str1" d="M1865 976c-3,2 -6,5 -10,7 -21,7 -31,13 -55,16 -33,1 -64,-15 -75,-47 -13,-37 15,-55 15,-84 1,-4 0,-8 -1,-12 -22,-43 -188,42 -200,54l-3 1 -2 -4c-2,-17 -14,-32 -21,-48 -8,-17 -13,-36 -20,-54 -4,-8 -9,-20 -13,-33 -9,-25 -14,-52 8,-62 25,8 46,23 76,21 21,-6 37,-19 47,-35l59 -106 247 155 -79 64c-6,5 -10,9 -12,14 1,38 49,36 63,74 10,28 -3,60 -24,79z"/>
  <path class="fil6 str4" d="M468 560l-9 -43c-14,-29 -44,-59 -79,-50 -36,8 -75,118 -107,36 -7,-18 -14,-40 -18,-59 -5,-22 -20,-67 -13,-87l24 -4 29 -2c31,-8 128,-19 140,-49 -7,-29 -70,-38 -67,-91 7,-88 127,-113 169,-47 30,48 -6,76 -9,111 21,18 67,-6 91,-14 30,-10 56,-21 84,-36l20 -6c12,12 95,156 52,177 -36,9 -53,-29 -96,-15 -31,11 -48,42 -48,74 3,25 9,35 16,56 17,28 53,46 85,35 38,-14 37,-62 75,-62 38,14 58,160 53,199 -42,10 -171,13 -196,50 9,22 45,27 61,65 15,36 -1,60 -19,84 -39,49 -135,35 -152,-35 -2,-29 13,-50 22,-75 -15,-34 -70,-6 -96,3 -18,7 -37,12 -54,20 -16,7 -31,18 -48,21 -16,-16 -39,-79 -46,-103 -9,-26 -36,-88 1,-99 26,-8 58,24 89,18 31,-6 47,-42 46,-72z"/>
  <path class="fil0 str5" d="M1567 1261c-7,4 -16,6 -26,6 -10,-1 -19,-2 -27,-5 -58,-20 -78,-97 -46,-143 6,-7 12,-14 20,-19 8,-5 15,-9 22,-11 35,-11 61,15 90,16 4,-4 5,-10 6,-16 1,-23 -16,-55 -23,-74 -10,-30 -23,-56 -38,-83l-7 -20c5,-5 34,-22 69,-38 0,0 0,0 0,0 -34,16 -63,32 -68,36l-3 1 -2 -4c-2,-17 -14,-32 -21,-48 -8,-17 -13,-36 -20,-54 -3,-8 -8,-19 -13,-31 -1,1 -2,1 -4,1 5,13 10,25 14,33 7,18 13,37 21,54 8,15 19,30 22,47 -15,17 -77,41 -101,49 -25,10 -87,39 -99,1 -9,-25 23,-58 16,-88 -5,-22 -24,-36 -45,-41 -9,5 -18,10 -26,16 -2,-7 -2,-14 -1,-20 -1,0 -1,0 -2,0l-43 11c-29,15 -57,46 -48,80 1,4 3,7 6,11 24,32 107,64 34,96 -18,7 -40,15 -59,19 -9,2 -26,6 -44,10 -1,4 -2,8 -3,12l3 -1c0,0 0,0 0,1l-4 1 -47 13 -1 0c-3,1 -7,3 -11,4 9,50 18,146 48,172 0,0 0,1 0,1 2,1 3,2 4,2 22,-9 25,-45 63,-63 36,-16 60,-1 84,17 50,38 40,134 -30,153 -29,3 -50,-12 -76,-19 -6,2 -10,7 -13,12 0,0 0,1 0,1 -9,23 11,62 19,82 8,18 13,36 22,53 6,12 14,24 19,37 1,-1 3,-1 5,-2 0,0 0,0 0,0l58 -16 3 -1c2,-1 4,-2 6,-3 4,-2 8,-3 11,-5 25,-11 52,-21 75,-25 4,-1 8,-2 12,-2 4,-1 9,-1 13,-1 11,1 19,4 23,12 9,35 -25,52 -14,91 0,2 1,3 1,5 12,31 43,47 76,46 24,-4 34,-10 55,-18 7,-4 13,-9 18,-15 16,-20 23,-47 14,-70 -14,-38 -63,-36 -64,-73 13,-39 159,-63 198,-59l2 -6 -4 -25 -3 -28c-9,-31 -23,-128 -53,-139 -23,7 -32,49 -63,64z"/>
 </g>
</svg>
