<?xml version="1.0" encoding="UTF-8"?>
<!DOCTYPE svg PUBLIC "-//W3C//DTD SVG 1.1//EN" "http://www.w3.org/Graphics/SVG/1.1/DTD/svg11.dtd">
<!-- Creator: CorelDRAW X6 -->
<svg xmlns="http://www.w3.org/2000/svg" xml:space="preserve" width="4.06796in" height="3.1723in" version="1.1" style="shape-rendering:geometricPrecision; text-rendering:geometricPrecision; image-rendering:optimizeQuality; fill-rule:evenodd; clip-rule:evenodd"
viewBox="0 0 1616 1260"
 xmlns:xlink="http://www.w3.org/1999/xlink">
 <defs>
  <style type="text/css">
   <![CDATA[
    .str1 {stroke:#D9DADA;stroke-width:1.19188}
    .str0 {stroke:#FEFEFE;stroke-width:1.19188}
    .str4 {stroke:#FFED00;stroke-width:1.19188}
    .str3 {stroke:#FECC00;stroke-width:1.19188}
    .str8 {stroke:#5B5B5B;stroke-width:2.75915}
    .str9 {stroke:#EF7F1A;stroke-width:2.75915}
    .str6 {stroke:white;stroke-width:2.75915}
    .str7 {stroke:#FEFEFE;stroke-width:26.2088}
    .str2 {stroke:white;stroke-width:26.2088}
    .str5 {stroke:#727271;stroke-width:8.27744;stroke-dasharray:16.554877 8.277439}
    .fil6 {fill:none}
    .fil2 {fill:#D9DADA}
    .fil5 {fill:#E31E24}
    .fil4 {fill:#EF7F1A}
    .fil0 {fill:#FEFEFE}
    .fil1 {fill:#FFED00}
    .fil3 {fill:#FEC20E}
    .fil7 {fill:white}
   ]]>
  </style>
 </defs>
 <g id="Layer_x0020_1">
  <metadata id="CorelCorpID_0Corel-Layer"/>
  <rect class="fil0 str0" x="1" y="1" width="1615" height="1259"/>
  <g id="_347306368">
   <path class="fil1" d="M1034 1143l0 0c2,0 4,0 5,0l0 0c2,0 4,0 5,-1l0 0 0 0 0 0c2,0 4,0 5,0l1 0c1,0 3,0 4,0l0 0c2,0 4,0 5,-1l0 0 1 0c1,0 3,0 4,0l0 0 1 0c1,0 3,0 4,-1l1 0c1,0 3,0 4,0l1 0c1,-1 3,-1 4,-1l0 0c2,0 4,-1 5,-1l1 0c1,0 3,0 4,-1l1 0c1,0 3,0 4,-1l1 0 0 0c1,0 3,0 4,-1l1 0c1,0 3,-1 4,-1l1 0c1,0 3,-1 4,-1l1 0 0 0c1,-1 3,-1 4,-1l1 0 0 -1c1,0 3,0 4,-1l1 0c1,0 3,-1 4,-1l1 0c1,-1 3,-1 5,-2 177,-56 276,-245 220,-423 -56,-178 -246,-276 -423,-220 -2,0 -4,1 -5,1l0 0c-2,1 -4,1 -5,2l0 0c-2,0 -3,1 -5,2l0 0 0 0c-2,0 -3,1 -5,1l0 0 0 0c-2,1 -3,2 -5,2l0 0c-1,1 -3,2 -4,2l-1 0c-1,1 -3,2 -4,2l0 0 0 0c-2,1 -3,2 -5,2l0 0c-2,1 -3,2 -4,2l-1 1c-1,0 -3,1 -4,2l0 0c-2,0 -3,1 -5,2l0 0c-1,1 -3,1 -4,2l0 0c-2,1 -3,2 -4,3l-1 0 0 0c-1,1 -3,1 -4,2l0 0 0 0c-1,1 -3,2 -4,3l0 0c-2,1 -3,1 -4,2l-1 0c-1,1 -2,2 -4,3l0 0 0 0 0 0c-1,1 -3,2 -4,3l0 0c-2,1 -3,1 -4,2l0 0 -2 2c-111,69 -131,166 -214,197l-7 2c-95,30 -149,132 -119,228l0 0 11 34 0 0c30,95 132,148 228,118l7 -2c86,-22 158,46 288,39l2 0zm45 -4c2,0 4,-1 5,-1"/>
   <g>
    <rect class="fil2 str1" transform="matrix(-0.300657 -0.953732 -0.66647 0.210099 501.432 1118.05)" width="282.257" height="75.6059" rx="45" ry="45"/>
    <rect class="fil2 str1" transform="matrix(-0.270592 -0.858362 -0.66647 0.210099 415.141 1130.46)" width="282.257" height="75.6059" rx="45" ry="45"/>
    <rect class="fil2 str1" transform="matrix(-0.150329 -0.476869 -0.66647 0.210099 316.121 1102.48)" width="282.257" height="75.6059" rx="45" ry="45"/>
   </g>
   <path class="fil1" d="M984 652c16,-6 47,-23 61,-12 -1,24 -25,45 -3,77 29,43 111,24 113,-36 2,-36 -41,-41 -47,-60 8,-21 73,-31 94,-37l20 -2 16 -3c2,-7 0,-24 -3,-40 52,40 94,97 115,165 56,178 -43,367 -220,423l-5 2 -1 0 -4 1 -1 0 -4 1 0 1 -1 0 -4 1 0 0 -1 0 -4 1 -1 0 -4 1 -1 0 -4 1 0 0 -1 0 -4 1 -1 0 -4 1 -1 0 -5 1 0 0 -4 1 -1 0 -4 0 -1 0 -4 1 -1 0 0 0 -4 0 -1 0 0 0 -5 1 0 0 -4 0 -1 0 -5 0 0 0 0 0 0 0 -5 1 0 0 -5 0 0 0 -2 0c-130,7 -202,-61 -288,-39l-7 2c-96,30 -198,-23 -228,-118l0 0 -11 -34 0 0c-30,-96 24,-198 119,-228l7 -2c83,-31 103,-128 214,-197l2 -2 0 0 4 -2 0 0 4 -3 0 0 0 0 0 0 4 -3 1 0 4 -2 0 0 4 -3 0 0 0 0 4 -2 0 0 1 0 4 -3 0 0 4 -2 0 0 5 -2 0 0 4 -2 1 -1 4 -2 0 0 5 -2 0 0 0 0 4 -2 1 0 4 -2 0 0 5 -2 0 0 0 0 5 -1 0 0 0 0 5 -2 0 0 5 -2 0 0 5 -1c12,-4 24,-7 36,-10 4,10 7,17 9,31 1,22 -10,43 -31,51 -29,11 -41,-15 -66,-8 -28,15 31,127 40,135l13 -5c18,-10 36,-19 56,-26z"/>
   <circle class="fil3" transform="matrix(0.519155 -0.513204 -0.513204 -0.519155 1027.34 805.666)" r="383"/>
   <rect class="fil3" transform="matrix(-0.228401 -0.766702 -0.750065 0.223446 1100.47 954.845)" width="398" height="562" rx="181" ry="181"/>
   <path class="fil4" d="M984 839l-8 -27c-22,-77 -103,-119 -180,-98l-69 20c-77,21 -121,104 -98,180l8 27c23,77 104,119 181,98l69 -19c77,-22 120,-104 97,-181z"/>
   <path class="fil5" d="M1026 896c-11,49 -47,92 -98,108l-70 22c-27,-20 -52,-46 -70,-77 -6,-9 -11,-18 -15,-28 -4,-9 -8,-19 -11,-28 -1,-1 -1,-2 -1,-3 -18,-57 -16,-116 1,-168l70 -22c21,-6 42,-8 62,-5 54,7 103,45 120,100l4 14 5 13c7,25 8,50 3,74z"/>
  </g>
  <path class="fil6 str2" d="M641 991l-29 8c-20,10 -39,31 -33,54 7,25 82,49 27,72 -12,5 -27,11 -40,14 -15,3 -45,14 -58,10l-3 -16 -3 -20c-5,-21 -15,-86 -36,-94 -19,6 -24,49 -60,47 -60,-2 -80,-84 -36,-113 32,-22 52,2 76,4 12,-15 -5,-46 -11,-62 -7,-20 -16,-38 -26,-56l-5 -13c8,-9 104,-68 120,-40 6,25 -19,37 -9,66 8,21 29,32 52,31 16,-3 23,-7 37,-12 18,-12 30,-37 22,-58 -10,-26 -43,-24 -43,-50 8,-26 107,-42 134,-40 7,28 11,116 37,132 15,-6 18,-31 43,-43 25,-10 41,0 58,12 33,25 26,91 -21,104 -20,2 -34,-8 -52,-14 -22,11 -2,48 5,65 5,12 8,25 14,36 5,11 13,21 15,33 -10,11 -52,27 -68,33 -18,6 -59,26 -68,1 -6,-17 16,-40 11,-60 -5,-22 -30,-32 -50,-31z"/>
  <path class="fil6 str2" d="M850 1120c-8,-20 -16,-38 -26,-57l-5 -13c8,-8 120,-68 135,-39 7,25 -19,37 -9,65 8,22 30,33 52,32 16,-3 23,-7 37,-12 19,-12 30,-37 22,-59 -10,-25 -42,-24 -43,-49 9,-26 108,-43 134,-40 8,28 12,116 38,132 14,-7 17,-31 43,-43 24,-11 41,-1 57,11 34,26 27,91 -21,104 -28,-39 -317,148 -414,-32z"/>
  <path class="fil6 str2" d="M1297 786l-29 8c-19,9 -39,30 -32,54 6,24 82,49 26,72 -11,5 -27,10 -39,13 -15,4 -61,15 -75,11l-2 -17 -3 -19c-5,-21 -15,-87 -36,-94 -19,5 -24,48 -60,47 -60,-3 -80,-84 -36,-114 32,-21 52,3 76,4 12,-14 -5,-45 -11,-61 -7,-20 -16,-38 -26,-57l-5 -13c8,-8 120,-68 135,-39 7,25 -19,37 -8,65 7,22 29,33 51,32 17,-3 23,-7 38,-12 18,-12 29,-37 21,-59 -9,-25 -42,-24 -43,-49 9,-26 108,-43 134,-40 8,28 12,116 38,132 15,-7 17,-31 43,-43 24,-11 41,-1 57,11 34,26 27,91 -20,104 -20,2 -35,-8 -52,-13 -23,10 -3,48 4,65 5,12 9,24 15,36 5,11 13,21 15,32 -11,11 -53,28 -69,34 -17,6 -59,26 -67,0 -6,-17 15,-39 10,-60 -4,-21 -29,-31 -50,-30z"/>
  <path class="fil6 str2" d="M866 562l-28 7c-20,10 -40,31 -33,54 7,25 82,49 27,73 -12,5 -27,10 -40,13 -15,4 -61,15 -74,10l-3 -16 -2 -19c-6,-21 -16,-87 -37,-94 -391,112 340,-204 347,-207 24,-11 41,-1 57,11 34,26 27,91 -20,104 -20,2 -35,-8 -52,-13 -22,10 -2,47 4,64 5,12 9,25 15,37 5,10 13,21 15,32 -11,11 -53,28 -69,33 -17,7 -59,27 -67,1 -6,-17 15,-40 11,-60 -5,-21 -30,-31 -51,-30z"/>
  <path class="fil3 str3" d="M1005 525c69,-5 140,16 196,61 9,8 18,16 26,25 16,16 29,34 40,52 -2,2 -4,4 -6,5 -15,5 -22,9 -38,11 -22,1 -44,-10 -51,-32 -9,-25 10,-37 11,-57 0,-2 -1,-5 -1,-8 -15,-29 -128,29 -136,37l-2 1 -1 -3c-2,-12 -10,-22 -15,-33 -5,-12 -9,-24 -14,-36 -2,-6 -6,-15 -9,-23z"/>
  <path class="fil1 str4" d="M1237 541c4,3 8,6 12,9 -4,3 -7,6 -8,10 0,25 33,24 42,50 7,19 -1,40 -16,53 -11,-18 -24,-36 -40,-52 -8,-9 -17,-17 -26,-25 -56,-45 -127,-66 -196,-61 -5,-17 -9,-35 6,-42 17,5 32,16 52,14 14,-4 25,-13 32,-24 52,11 101,35 142,68z"/>
  <path class="fil6 str2" d="M1267 663c-2,2 -4,4 -6,5 -15,5 -22,9 -38,11 -22,1 -44,-10 -51,-32 -9,-25 10,-37 11,-57 0,-2 -1,-5 -1,-8 -15,-29 -128,29 -136,37l-2 1 -1 -3c-2,-12 -10,-22 -15,-33 -5,-12 -9,-24 -14,-36 -2,-6 -6,-15 -9,-23 -5,-17 -9,-35 6,-42 17,5 32,16 52,14 14,-4 25,-13 32,-24l40 -72 168 106 -54 43c-4,3 -7,6 -8,10 0,25 33,24 42,50 7,19 -1,40 -16,53z"/>
  <path class="fil6 str5" d="M319 381l-7 -29c-9,-20 -30,-40 -53,-35 -25,6 -51,81 -73,25 -5,-12 -10,-27 -12,-40 -4,-15 -14,-46 -9,-59l16 -2 20 -2c21,-5 87,-13 95,-33 -5,-20 -48,-26 -45,-62 4,-60 86,-77 114,-32 21,32 -4,52 -6,76 14,11 46,-5 62,-10 20,-7 38,-15 57,-24l13 -5c9,9 65,106 36,121 -25,6 -36,-20 -65,-11 -22,8 -33,29 -33,51 2,16 6,23 11,38 11,18 36,31 58,23 25,-9 25,-42 51,-42 25,10 39,109 36,136 -29,7 -117,8 -134,33 7,15 31,19 42,45 10,24 0,41 -13,57 -27,33 -92,23 -103,-24 -2,-20 9,-34 14,-51 -9,-23 -47,-4 -64,2 -12,5 -25,8 -37,13 -11,5 -21,13 -33,15 -11,-11 -26,-54 -31,-70 -6,-18 -25,-60 1,-68 17,-5 39,17 60,13 22,-4 32,-29 32,-49z"/>
  <path class="fil7 str6" d="M1065 857c-5,3 -11,4 -18,4 -7,0 -13,-2 -18,-3 -39,-14 -53,-66 -31,-97 3,-5 8,-10 13,-14 5,-3 10,-5 15,-7 24,-7 41,10 61,11 3,-3 4,-7 4,-11 1,-15 -11,-37 -15,-50 -7,-20 -16,-38 -26,-57l-5 -13c3,-3 23,-15 47,-26 0,0 0,0 0,0 -23,11 -43,22 -46,25l-2 1 -1 -3c-2,-12 -10,-22 -15,-33 -5,-12 -9,-24 -14,-36 -2,-6 -5,-13 -8,-21 -1,0 -2,0 -3,0 3,8 7,17 9,22 5,12 9,25 15,37 5,10 13,21 15,32 -11,11 -53,28 -69,33 -17,7 -59,27 -67,1 -6,-17 15,-40 11,-60 -4,-15 -17,-24 -31,-28 -6,4 -12,7 -18,11 0,-5 -1,-9 0,-13 -1,0 -1,0 -2,0l-28 7c-20,10 -40,31 -33,54 1,3 2,5 4,8 16,22 72,44 23,65 -12,5 -27,10 -40,13 -6,2 -18,4 -30,7 -1,2 -2,5 -2,8l2 -1c0,0 0,1 0,1l-3 0 -32 10 0 0c-3,0 -5,1 -8,2 6,34 12,99 32,117 1,0 1,0 1,1 1,0 2,1 2,1 15,-6 18,-31 43,-43 25,-10 41,0 58,12 33,25 26,91 -21,104 -20,2 -34,-8 -52,-14 -4,2 -7,5 -8,9 0,0 0,0 -1,1 -6,15 8,41 14,55 5,12 8,25 14,36 4,9 10,17 13,25 1,0 3,-1 4,-1 0,0 0,0 0,0l39 -11 2 0c1,-1 3,-2 4,-2 3,-2 5,-3 8,-4 17,-7 35,-14 50,-17 3,-1 6,-1 9,-1 3,-1 6,-1 8,-1 8,1 13,3 16,8 6,24 -17,36 -10,62 1,1 1,2 1,3 8,22 30,33 52,32 16,-3 23,-7 37,-12 5,-3 9,-7 12,-11 11,-13 16,-31 10,-48 -10,-25 -42,-24 -43,-49 9,-26 108,-43 134,-40l1 -4 -2 -17 -3 -19c-5,-21 -15,-87 -36,-94 -15,4 -21,33 -42,43z"/>
  <path class="fil6 str7" d="M641 991l-29 8c-20,10 -39,31 -33,54 7,25 82,49 27,72 -12,5 -27,11 -40,14 -15,3 -45,14 -58,10l-3 -16 -3 -20c-5,-21 -15,-86 -36,-94 -19,6 -24,49 -60,47 -60,-2 -80,-84 -36,-113 32,-22 52,2 76,4 12,-15 -5,-46 -11,-62 -7,-20 -16,-38 -26,-56l-5 -13c8,-9 104,-68 120,-40 6,25 -19,37 -9,66 8,21 29,32 52,31 16,-3 23,-7 37,-12 18,-12 30,-37 22,-58 -10,-26 -43,-24 -43,-50 8,-26 107,-42 134,-40 7,28 11,116 37,132 15,-6 18,-31 43,-43 25,-10 41,0 58,12 33,25 26,91 -21,104 -20,2 -34,-8 -52,-14 -22,11 -2,48 5,65 5,12 8,25 14,36 5,11 13,21 15,33 -10,11 -52,27 -68,33 -18,6 -59,26 -68,1 -6,-17 16,-40 11,-60 -5,-22 -30,-32 -50,-31z"/>
  <path class="fil6 str8" d="M357 946c-7,-22 -12,-60 -44,-51 -10,3 -21,15 -19,29 0,8 52,168 57,183 4,13 6,24 18,30 14,9 29,0 35,-9 9,-12 2,-25 -1,-38 -5,-17 -14,-10 -30,-18 -44,-23 -57,-91 -16,-126zm2 53c0,24 13,44 29,49 0,-3 -17,-65 -23,-71 -3,6 -6,13 -6,22zm73 74c0,7 10,40 14,45 13,15 28,11 42,2 1,-14 -16,-75 -23,-82 -9,7 -14,24 -33,35zm-47 -143c9,2 18,0 27,3 9,2 14,6 23,7 -6,-26 -22,-63 -33,-85 -19,0 -31,12 -30,29 0,9 10,37 13,46zm38 117c20,-22 13,-26 38,-40l3 -2c0,-1 1,-1 1,-1l-11 -35c-15,7 -39,-11 -59,-11 0,4 20,70 25,83 2,5 1,3 3,6zm-177 -71c-31,13 -11,47 -2,78 6,22 14,70 48,57 12,-5 21,-19 16,-36 -5,-14 -9,-28 -14,-42 -4,-13 -8,-29 -13,-41 -4,-10 -19,-23 -35,-16z"/>
  <path class="fil6 str9" d="M588 1088l5 3 7 4c-1,-4 0,-3 -3,-6 -1,-1 -5,-4 -8,-5 -1,-1 -2,-2 -3,-3 -11,-9 -34,-28 -14,-64 14,-25 40,-34 67,-39l14 0c11,2 24,7 30,11 12,7 20,19 22,36 0,22 -13,36 -12,55 21,2 39,-8 56,-14 8,-3 40,-15 46,-22l5 -1c-1,-7 -12,-24 -15,-32 -5,-11 -8,-22 -14,-34 -11,-26 -21,-50 -1,-71 15,-9 15,-6 32,1 10,3 24,10 35,5 19,-9 33,-37 21,-63 -7,-16 -34,-36 -57,-24 -11,6 -15,13 -22,23 -8,12 -9,13 -23,21 -20,-3 -30,-32 -36,-51 -4,-19 -11,-54 -12,-74l-2 -8c-28,0 -93,13 -108,29 2,12 20,13 34,31 3,4 5,10 8,13 0,15 4,21 -1,38 -2,5 -5,10 -7,14 -2,3 -4,5 -5,7 -2,2 -7,8 -12,11 -3,2 -9,5 -24,11 -28,10 -53,8 -74,-13 -16,-15 -13,-25 -18,-32 -11,17 -11,56 -8,78 3,21 12,49 19,68 15,42 41,74 74,95 2,1 3,1 4,2m215 -443c-7,-15 -17,-20 -10,-45 9,-33 37,-43 62,-49 22,-6 32,-1 49,5 7,7 25,15 26,38 2,22 -15,41 -10,56 16,6 96,-28 106,-38 -3,-7 -12,-22 -18,-39 -6,-15 -12,-29 -17,-42 -3,-12 -8,-22 -5,-36 1,-6 4,-11 6,-15 4,-5 8,-5 13,-11 -99,-1 -207,71 -262,141 -31,40 -28,22 -19,67 2,9 3,19 5,30 5,0 22,-2 34,-5 10,-2 24,-5 34,-8 16,-4 34,-12 40,-17 -1,-7 -9,-12 -15,-17 -8,-6 -13,-12 -19,-15zm465 -79c-4,-3 -7,-7 -12,-6 -1,5 4,9 11,13 18,15 23,20 29,34 6,11 2,29 -2,39 -7,18 -15,21 -21,30 -14,3 -51,32 -93,3 -44,-31 -13,-77 -12,-92 -30,-1 -97,28 -106,39 2,8 11,21 15,31 5,11 9,21 14,34 4,10 10,23 12,35 2,7 2,14 0,21 -2,8 -5,10 -8,17 -26,0 -33,-10 -52,-13 -18,-2 -33,11 -39,25 -10,27 5,58 23,65 24,16 39,1 50,-16 39,-55 59,-6 70,38l14 67c25,1 96,-17 107,-30 -8,-20 -57,-30 -45,-74 4,-16 16,-28 26,-36 16,-12 23,-10 43,-17 43,-4 81,24 65,70 -7,19 -15,32 1,32 7,-10 8,-62 8,-77 0,-48 -13,-99 -34,-142l-32 -54c-1,-1 -1,-2 -2,-3 -6,-10 -20,-24 -30,-33zm-192 -94c-11,-6 -48,-5 -62,-4 4,4 51,29 62,4zm-376 220c0,-8 -2,-15 -4,-22 -5,3 -3,2 -8,6l-21 21c-9,8 -20,15 -32,21 5,3 30,-6 47,-6l20 -2c1,-5 1,-6 0,-10 0,-1 0,-4 -1,-5 -1,-3 0,-1 -1,-3zm476 -130c17,7 22,14 19,37 -6,23 -24,41 1,59 9,6 21,9 33,6 9,-2 25,-6 29,-12 10,-5 15,-19 15,-30 -1,-13 -9,-18 -19,-25 -9,-7 -18,-12 -22,-23 -8,-16 -2,-23 6,-33 -12,-18 -97,-62 -129,-65 -12,12 -15,24 -38,31 -25,9 -42,-8 -57,-8 0,5 0,8 1,12 0,2 1,3 1,4 1,4 3,11 5,17 3,8 8,17 11,26 7,17 16,36 19,41 7,-2 20,-10 27,-13 22,-10 54,-24 82,-25 5,-1 8,-1 10,0 3,0 4,0 6,1zm-596 180c-10,3 -27,18 -34,24 -20,18 -2,16 -10,43 -5,15 -15,27 -6,43 18,29 64,15 77,-2 29,-38 -21,-51 -31,-67 -4,-5 -7,-14 -6,-22 0,-5 3,-9 6,-13l2 -2c2,-2 0,0 2,-4zm250 364c-3,-12 -14,-29 -18,-39 -10,4 -20,10 -32,15 -30,13 -85,39 -106,14 -22,-25 10,-54 3,-74 -3,-10 -17,-17 -29,-18 -22,0 -56,14 -56,39 -1,19 31,27 43,50 11,19 -5,17 28,20 36,4 52,-2 83,-10 30,-7 55,-2 84,3zm323 -53l-16 -92c-22,-4 -99,16 -110,29 6,15 42,18 45,58 1,14 -4,21 -5,30 -4,3 -9,13 -14,18 -13,15 -46,26 -68,24 -33,-4 -58,-30 -54,-68 3,-12 11,-24 11,-35 -18,-4 -57,12 -69,18 -10,4 -30,14 -37,19 0,8 8,20 12,27 19,41 5,31 36,40 93,29 197,33 287,-10 12,-5 86,-47 90,-64 -39,-8 -41,16 -60,36 -28,30 -41,-22 -48,-30zm155 -253c3,0 4,0 7,1 29,10 20,26 11,51 -13,41 18,46 25,50 -1,29 -46,103 -69,126 -10,-2 -15,-7 -28,-9 -44,-4 -62,36 -68,40 -5,-5 -8,-15 -9,-24 -4,-9 -13,-65 -13,-77 3,-1 62,-11 86,-20 4,-1 11,-4 17,-6 10,-5 6,-4 15,-9 8,-6 17,-11 11,-34 -1,-2 -3,-5 -3,-5 -3,-4 -6,-8 -9,-11 -18,-15 -37,-24 -32,-42 6,-22 32,-32 59,-31z"/>
 </g>
</svg>
