<svg width="3205" height="1797" xmlns="http://www.w3.org/2000/svg" xmlns:xlink="http://www.w3.org/1999/xlink" xml:space="preserve" overflow="hidden"><defs><clipPath id="clip0"><rect x="1662" y="688" width="3205" height="1797"/></clipPath></defs><g clip-path="url(#clip0)" transform="translate(-1662 -688)"><path d="M3814.5 1889.5 3934.94 2110.65" stroke="#7F7F7F" stroke-width="6.875" stroke-linecap="square" stroke-miterlimit="8" stroke-dasharray="20.625 6.875" fill="none" fill-rule="evenodd"/><path d="M0 0 152.508 276.391" stroke="#7F7F7F" stroke-width="6.875" stroke-linecap="square" stroke-miterlimit="8" stroke-dasharray="20.625 6.875" fill="none" fill-rule="evenodd" transform="matrix(-1 0 0 1 3935.01 1042.5)"/><rect x="2905" y="1212" width="88" height="729" stroke="#404040" stroke-width="10.3125" stroke-miterlimit="8" fill="#BFBFBF"/><rect x="2925" y="1232" width="45" height="128" stroke="#404040" stroke-width="10.3125" stroke-miterlimit="8" fill="#D9D9D9"/><rect x="2926" y="1637" width="45" height="128" stroke="#404040" stroke-width="10.3125" stroke-miterlimit="8" fill="#D9D9D9"/><rect x="2926" y="1789" width="45" height="128" stroke="#404040" stroke-width="10.3125" stroke-miterlimit="8" fill="#D9D9D9"/><path d="M5.15625-2.51828e-05 5.1563 10.3125-5.1562 10.3125-5.15625 2.51828e-05ZM5.15635 20.625 5.1564 30.9375-5.1561 30.9375-5.15615 20.625ZM5.15645 41.25 5.1565 51.5625-5.156 51.5625-5.15605 41.25ZM5.15655 61.875 5.1566 72.1875-5.1559 72.1875-5.15595 61.875ZM5.15665 82.5 5.1567 92.8125-5.1558 92.8125-5.15585 82.5ZM5.15675 103.125 5.1568 113.437-5.1557 113.438-5.15575 103.125ZM15.4693 116.85 0.000721785 147.787-15.4682 116.85Z" fill="#BF9000" transform="matrix(-1 0 0 1 2949 1029)"/><path d="M5.15609-0.0401947 5.23648 10.272-5.0757 10.3524-5.15609 0.0401947ZM5.31687 20.5842 5.39726 30.8964-4.91492 30.9768-4.99531 20.6646ZM5.47765 41.2086 5.55804 51.5207-4.75415 51.6011-4.83454 41.2889ZM5.63843 61.8329 5.71882 72.1451-4.59337 72.2255-4.67376 61.9133ZM5.79921 82.4573 5.8796 92.7695-4.43259 92.8499-4.51298 82.5377ZM5.95999 103.082 6.04038 113.394-4.27181 113.474-4.3522 103.162ZM16.3791 116.715 1.15197 147.772-14.5575 116.956Z" fill="#BF9000" transform="matrix(-1 0 0 1 2949.15 1975)"/><rect x="2522" y="1440" width="88" height="270" stroke="#548235" stroke-width="10.3125" stroke-miterlimit="8" fill="#A9D18E"/><rect x="2389" y="1438" width="88" height="271" stroke="#548235" stroke-width="10.3125" stroke-miterlimit="8" fill="#A9D18E"/><rect x="2628" y="1440" width="87" height="270" stroke="#548235" stroke-width="10.3125" stroke-miterlimit="8" fill="#A9D18E"/><text fill="#548235" font-family="Calibri,Calibri_MSFontService,sans-serif" font-weight="400" font-size="83" transform="matrix(6.12323e-17 1 -1 6.12323e-17 2494.96 1545)">…</text><rect x="2926" y="1485" width="45" height="128" stroke="#404040" stroke-width="10.3125" stroke-miterlimit="8" fill="#D9D9D9"/><text fill="#404040" font-family="Calibri,Calibri_MSFontService,sans-serif" font-weight="400" font-size="83" transform="matrix(6.12323e-17 1 -1 6.12323e-17 2942.84 1394)">…</text><rect x="2814" y="908" width="270" height="87.0003" stroke="#BF9000" stroke-width="10.3125" stroke-miterlimit="8" fill="#FFE699"/><rect x="2813" y="2157" width="270" height="88" stroke="#BF9000" stroke-width="10.3125" stroke-miterlimit="8" fill="#FFE699"/><text fill="#70AD47" font-family="Arial,Arial_MSFontService,sans-serif" font-weight="700" font-size="64" transform="matrix(1 0 0 1 1701.2 1601)">states</text><path d="M2059 1574.84 2069.31 1574.84 2069.31 1585.16 2059 1585.16ZM2079.62 1574.84 2089.94 1574.84 2089.94 1585.16 2079.62 1585.16ZM2100.25 1574.84 2110.56 1574.84 2110.56 1585.16 2100.25 1585.16ZM2120.88 1574.84 2131.19 1574.84 2131.19 1585.16 2120.88 1585.16ZM2141.5 1574.84 2151.81 1574.84 2151.81 1585.16 2141.5 1585.16ZM2162.12 1574.84 2172.44 1574.84 2172.44 1585.16 2162.12 1585.16ZM2182.75 1574.84 2193.06 1574.84 2193.06 1585.16 2182.75 1585.16ZM2203.38 1574.84 2213.69 1574.84 2213.69 1585.16 2203.38 1585.16ZM2224 1574.84 2234.31 1574.84 2234.31 1585.16 2224 1585.16ZM2244.62 1574.84 2254.94 1574.84 2254.94 1585.16 2244.62 1585.16ZM2265.25 1574.84 2275.56 1574.84 2275.56 1585.16 2265.25 1585.16ZM2285.88 1574.84 2296.19 1574.84 2296.19 1585.16 2285.88 1585.16ZM2306.5 1574.84 2316.81 1574.84 2316.81 1585.16 2306.5 1585.16ZM2318.4 1564.53 2349.33 1580 2318.4 1595.47Z" fill="#595959"/><text fill="#595959" font-family="Arial,Arial_MSFontService,sans-serif" font-weight="400" font-size="64" transform="matrix(1 0 0 1 2081.94 1526)">reshape</text><text fill="#595959" font-family="Arial,Arial_MSFontService,sans-serif" font-weight="400" font-size="64" transform="matrix(1 0 0 1 2112.03 1680)">(</text><text fill="#595959" font-family="Arial,Arial_MSFontService,sans-serif" font-weight="400" font-size="64" transform="matrix(1 0 0 1 2133.23 1680)">view</text><text fill="#595959" font-family="Arial,Arial_MSFontService,sans-serif" font-weight="400" font-size="64" transform="matrix(1 0 0 1 2261.56 1680)">)</text><rect x="1926" y="1444" width="87" height="270" stroke="#548235" stroke-width="10.3125" stroke-miterlimit="8" fill="#A9D18E"/><text fill="#595959" font-family="Arial,Arial_MSFontService,sans-serif" font-style="italic" font-weight="400" font-size="55" transform="matrix(1 0 0 1 1849.13 1406)">(N*L, </text><text fill="#595959" font-family="Arial,Arial_MSFontService,sans-serif" font-style="italic" font-weight="400" font-size="55" transform="matrix(1 0 0 1 1989.5 1406)">Hin</text><text fill="#595959" font-family="Arial,Arial_MSFontService,sans-serif" font-style="italic" font-weight="400" font-size="55" transform="matrix(1 0 0 1 2071.42 1406)">)</text><text fill="#595959" font-family="Arial,Arial_MSFontService,sans-serif" font-style="italic" font-weight="400" font-size="55" transform="matrix(1 0 0 1 2428.52 1406)">(N, L, </text><text fill="#595959" font-family="Arial,Arial_MSFontService,sans-serif" font-style="italic" font-weight="400" font-size="55" transform="matrix(1 0 0 1 2578.62 1406)">Hin</text><text fill="#595959" font-family="Arial,Arial_MSFontService,sans-serif" font-style="italic" font-weight="400" font-size="55" transform="matrix(1 0 0 1 2660.55 1406)">)</text><text fill="#BF9000" font-family="Arial,Arial_MSFontService,sans-serif" font-weight="700" font-size="64" transform="matrix(1 0 0 1 2882.26 2354)">final</text><text fill="#BF9000" font-family="Arial,Arial_MSFontService,sans-serif" font-weight="700" font-size="64" transform="matrix(1 0 0 1 2855.63 2431)">states</text><text fill="#BF9000" font-family="Arial,Arial_MSFontService,sans-serif" font-weight="700" font-size="64" transform="matrix(1 0 0 1 2864.5 769)">initial</text><text fill="#BF9000" font-family="Arial,Arial_MSFontService,sans-serif" font-weight="700" font-size="64" transform="matrix(1 0 0 1 2855.63 846)">states</text><rect x="3310" y="1440" width="87" height="271" stroke="#404040" stroke-width="10.3125" stroke-linecap="square" stroke-miterlimit="8" stroke-dasharray="30.9375 10.3125" fill="#BFBFBF"/><rect x="3177" y="1439" width="88" height="270" stroke="#404040" stroke-width="10.3125" stroke-linecap="square" stroke-miterlimit="8" stroke-dasharray="30.9375 10.3125" fill="#BFBFBF"/><rect x="3416" y="1440" width="87.0002" height="271" stroke="#404040" stroke-width="10.3125" stroke-linecap="square" stroke-miterlimit="8" stroke-dasharray="30.9375 10.3125" fill="#BFBFBF"/><text fill="#404040" font-family="Calibri,Calibri_MSFontService,sans-serif" font-weight="400" font-size="83" transform="matrix(6.12323e-17 1 -1 6.12323e-17 3282.86 1546)">…</text><text fill="#595959" font-family="Arial,Arial_MSFontService,sans-serif" font-style="italic" font-weight="400" font-size="55" transform="matrix(1 0 0 1 3169.15 1407)">(N, L, D*</text><text fill="#595959" font-family="Arial,Arial_MSFontService,sans-serif" font-style="italic" font-weight="400" font-size="55" transform="matrix(1 0 0 1 3379.99 1407)">Hout</text><text fill="#595959" font-family="Arial,Arial_MSFontService,sans-serif" font-style="italic" font-weight="400" font-size="55" transform="matrix(1 0 0 1 3495.72 1407)">)</text><path d="M3025 1571.84 3035.31 1571.84 3035.31 1582.16 3025 1582.16ZM3045.62 1571.84 3055.94 1571.84 3055.94 1582.16 3045.62 1582.16ZM3066.25 1571.84 3076.56 1571.84 3076.56 1582.16 3066.25 1582.16ZM3086.88 1571.84 3097.19 1571.84 3097.19 1582.16 3086.88 1582.16ZM3107.5 1571.84 3117.81 1571.84 3117.81 1582.16 3107.5 1582.16ZM3116.55 1561.53 3147.49 1577 3116.55 1592.47Z" fill="#595959"/><path d="M3537 1570.84 3547.31 1570.84 3547.31 1581.16 3537 1581.16ZM3557.62 1570.84 3567.94 1570.84 3567.94 1581.16 3557.62 1581.16ZM3578.25 1570.84 3588.56 1570.84 3588.56 1581.16 3578.25 1581.16ZM3598.87 1570.84 3609.19 1570.84 3609.19 1581.16 3598.87 1581.16ZM3619.5 1570.84 3629.81 1570.84 3629.81 1581.16 3619.5 1581.16ZM3640.12 1570.84 3650.44 1570.84 3650.44 1581.16 3640.12 1581.16ZM3660.75 1570.84 3671.06 1570.84 3671.06 1581.16 3660.75 1581.16ZM3669.95 1560.53 3700.89 1576 3669.95 1591.47Z" fill="#595959"/><text fill="#595959" font-family="Arial,Arial_MSFontService,sans-serif" font-weight="700" font-size="64" transform="matrix(1 0 0 1 3638.87 1871)">flatten</text><rect x="3728" y="1406" width="16.0002" height="341" stroke="#404040" stroke-width="10.3125" stroke-miterlimit="8" fill="#404040"/><text fill="#595959" font-family="Arial,Arial_MSFontService,sans-serif" font-weight="700" font-size="64" transform="matrix(1 0 0 1 3034.04 1945)">RNN</text><text fill="#595959" font-family="Arial,Arial_MSFontService,sans-serif" font-style="italic" font-weight="400" font-size="55" transform="matrix(1 0 0 1 3676.13 1373)">Hout</text><path d="M3025 1647.84 3035.31 1647.84 3035.31 1658.16 3025 1658.16ZM3045.62 1647.84 3055.94 1647.84 3055.94 1658.16 3045.62 1658.16ZM3066.25 1647.84 3076.56 1647.84 3076.56 1658.16 3066.25 1658.16ZM3086.88 1647.84 3097.19 1647.84 3097.19 1658.16 3086.88 1658.16ZM3107.5 1647.84 3117.81 1647.84 3117.81 1658.16 3107.5 1658.16ZM3116.55 1637.53 3147.49 1653 3116.55 1668.47Z" fill="#595959"/><path d="M3025 1501.84 3035.31 1501.84 3035.31 1512.16 3025 1512.16ZM3045.62 1501.84 3055.94 1501.84 3055.94 1512.16 3045.62 1512.16ZM3066.25 1501.84 3076.56 1501.84 3076.56 1512.16 3066.25 1512.16ZM3086.88 1501.84 3097.19 1501.84 3097.19 1512.16 3086.88 1512.16ZM3107.5 1501.84 3117.81 1501.84 3117.81 1512.16 3107.5 1512.16ZM3116.55 1491.53 3147.49 1507 3116.55 1522.47Z" fill="#595959"/><path d="M2751 1570.84 2761.31 1570.84 2761.31 1581.16 2751 1581.16ZM2771.62 1570.84 2781.94 1570.84 2781.94 1581.16 2771.62 1581.16ZM2792.25 1570.84 2802.56 1570.84 2802.56 1581.16 2792.25 1581.16ZM2812.88 1570.84 2823.19 1570.84 2823.19 1581.16 2812.88 1581.16ZM2833.5 1570.84 2843.81 1570.84 2843.81 1581.16 2833.5 1581.16ZM2842.55 1560.53 2873.49 1576 2842.55 1591.47Z" fill="#595959"/><path d="M2751 1647.84 2761.31 1647.84 2761.31 1658.16 2751 1658.16ZM2771.62 1647.84 2781.94 1647.84 2781.94 1658.16 2771.62 1658.16ZM2792.25 1647.84 2802.56 1647.84 2802.56 1658.16 2792.25 1658.16ZM2812.88 1647.84 2823.19 1647.84 2823.19 1658.16 2812.88 1658.16ZM2833.5 1647.84 2843.81 1647.84 2843.81 1658.16 2833.5 1658.16ZM2842.55 1637.53 2873.49 1653 2842.55 1668.47Z" fill="#595959"/><path d="M2751 1500.84 2761.31 1500.84 2761.31 1511.16 2751 1511.16ZM2771.62 1500.84 2781.94 1500.84 2781.94 1511.16 2771.62 1511.16ZM2792.25 1500.84 2802.56 1500.84 2802.56 1511.16 2792.25 1511.16ZM2812.88 1500.84 2823.19 1500.84 2823.19 1511.16 2812.88 1511.16ZM2833.5 1500.84 2843.81 1500.84 2843.81 1511.16 2833.5 1511.16ZM2842.55 1490.53 2873.49 1506 2842.55 1521.47Z" fill="#595959"/><path d="M4295.5 1251.5 4426.35 1385.21" stroke="#7F7F7F" stroke-width="6.875" stroke-linecap="square" stroke-miterlimit="8" stroke-dasharray="20.625 6.875" fill="none" fill-rule="evenodd"/><path d="M0 0 185.262 188.191" stroke="#7F7F7F" stroke-width="6.875" stroke-linecap="square" stroke-miterlimit="8" stroke-dasharray="20.625 6.875" fill="none" fill-rule="evenodd" transform="matrix(-1 0 0 1 4480.76 1711.5)"/><path d="M0 0 185.263 210.592" stroke="#7F7F7F" stroke-width="6.875" stroke-linecap="square" stroke-miterlimit="8" stroke-dasharray="20.625 6.875" fill="none" fill-rule="evenodd" transform="matrix(-1 0 0 1 4207.76 1899.5)"/><path d="M4462.5 1423.5 4480.48 1440.73" stroke="#7F7F7F" stroke-width="6.875" stroke-linecap="square" stroke-miterlimit="8" stroke-dasharray="20.625 6.875" fill="none" fill-rule="evenodd"/><path d="M4022.5 1042.5 4207.76 1253.09" stroke="#7F7F7F" stroke-width="6.875" stroke-linecap="square" stroke-miterlimit="8" stroke-dasharray="20.625 6.875" fill="none" fill-rule="evenodd"/><rect x="3934" y="1042" width="88" height="1068" stroke="#404040" stroke-width="10.3125" stroke-miterlimit="8" fill="#BFBFBF"/><rect x="4207" y="1252" width="88" height="647" stroke="#404040" stroke-width="10.3125" stroke-miterlimit="8" fill="#BFBFBF"/><text fill="#595959" font-family="Arial,Arial_MSFontService,sans-serif" font-weight="700" font-size="64" transform="matrix(1 0 0 1 3917.66 2234)">FC1</text><text fill="#595959" font-family="Arial,Arial_MSFontService,sans-serif" font-weight="700" font-size="64" transform="matrix(1 0 0 1 3959.48 2311)">+ </text><text fill="#595959" font-family="Arial,Arial_MSFontService,sans-serif" font-weight="700" font-size="64" transform="matrix(1 0 0 1 3894.45 2388)">ReLU</text><text fill="#595959" font-family="Arial,Arial_MSFontService,sans-serif" font-weight="700" font-size="64" transform="matrix(1 0 0 1 4190.48 2024)">FC2</text><text fill="#595959" font-family="Arial,Arial_MSFontService,sans-serif" font-weight="700" font-size="64" transform="matrix(1 0 0 1 4232.3 2101)">+</text><text fill="#595959" font-family="Arial,Arial_MSFontService,sans-serif" font-weight="700" font-size="64" transform="matrix(1 0 0 1 4167.27 2178)">ReLU</text><text fill="#595959" font-family="Arial,Arial_MSFontService,sans-serif" font-weight="700" font-size="64" transform="matrix(1 0 0 1 4463.3 1834)">FC3</text><text fill="#595959" font-family="Arial,Arial_MSFontService,sans-serif" font-weight="700" font-size="64" transform="matrix(1 0 0 1 4505.12 1911)">+</text><text fill="#595959" font-family="Arial,Arial_MSFontService,sans-serif" font-weight="700" font-size="64" transform="matrix(1 0 0 1 4449.92 1988)">Tanh</text><rect x="4480" y="1440" width="88" height="271" stroke="#7030A0" stroke-width="10.3125" stroke-miterlimit="8" fill="#CC99FF"/><text fill="#7030A0" font-family="Arial,Arial_MSFontService,sans-serif" font-weight="700" font-size="64" transform="matrix(1 0 0 1 4633.75 1558)">mean</text><text fill="#7030A0" font-family="Arial,Arial_MSFontService,sans-serif" font-weight="700" font-size="64" transform="matrix(1 0 0 1 4604.53 1635)">actions</text><text fill="#595959" font-family="Arial,Arial_MSFontService,sans-serif" font-weight="400" font-size="55" transform="matrix(1 0 0 1 3947.73 1011)">64</text><text fill="#595959" font-family="Arial,Arial_MSFontService,sans-serif" font-weight="400" font-size="55" transform="matrix(1 0 0 1 4220.55 1222)">32</text><text fill="#595959" font-family="Arial,Arial_MSFontService,sans-serif" font-weight="400" font-size="55" transform="matrix(1 0 0 1 4470.44 1342)">num</text><text fill="#595959" font-family="Arial,Arial_MSFontService,sans-serif" font-weight="400" font-size="55" transform="matrix(1 0 0 1 4436.93 1408)">actions</text><path d="M3736.5 1747.5 3773.34 1813.93" stroke="#7F7F7F" stroke-width="6.875" stroke-linecap="square" stroke-miterlimit="8" stroke-dasharray="20.625 6.875" fill="none" fill-rule="evenodd"/></g></svg>
