<svg width="2373" height="1251" xmlns="http://www.w3.org/2000/svg" xmlns:xlink="http://www.w3.org/1999/xlink" xml:space="preserve" overflow="hidden"><g transform="translate(-4091 -67)"><path d="M4753 583C4753 558.699 4772.7 539 4797 539 4821.3 539 4841 558.699 4841 583 4841 607.301 4821.3 627 4797 627 4772.7 627 4753 607.301 4753 583Z" fill="#5B9BD5" fill-rule="evenodd"/><path d="M4753 735.5C4753 711.476 4772.7 692 4797 692 4821.3 692 4841 711.476 4841 735.5 4841 759.524 4821.3 779 4797 779 4772.7 779 4753 759.524 4753 735.5Z" fill="#5B9BD5" fill-rule="evenodd"/><path d="M4753 888C4753 863.699 4772.7 844 4797 844 4821.3 844 4841 863.699 4841 888 4841 912.3 4821.3 932 4797 932 4772.7 932 4753 912.3 4753 888Z" fill="#5B9BD5" fill-rule="evenodd"/><path d="M4753 1041C4753 1016.7 4772.7 997 4797 997 4821.3 997 4841 1016.7 4841 1041 4841 1065.3 4821.3 1085 4797 1085 4772.7 1085 4753 1065.3 4753 1041Z" fill="#5B9BD5" fill-rule="evenodd"/><path d="M4753 1193C4753 1168.7 4772.7 1149 4797 1149 4821.3 1149 4841 1168.7 4841 1193 4841 1217.3 4821.3 1237 4797 1237 4772.7 1237 4753 1217.3 4753 1193Z" fill="#5B9BD5" fill-rule="evenodd"/><path d="M4983 583C4983 558.699 5002.7 539 5027 539 5051.3 539 5071 558.699 5071 583 5071 607.301 5051.3 627 5027 627 5002.7 627 4983 607.301 4983 583Z" fill="#5B9BD5" fill-rule="evenodd"/><path d="M4983 735.5C4983 711.476 5002.7 692 5027 692 5051.3 692 5071 711.476 5071 735.5 5071 759.524 5051.3 779 5027 779 5002.7 779 4983 759.524 4983 735.5Z" fill="#5B9BD5" fill-rule="evenodd"/><path d="M4983 888C4983 863.699 5002.7 844 5027 844 5051.3 844 5071 863.699 5071 888 5071 912.3 5051.3 932 5027 932 5002.7 932 4983 912.3 4983 888Z" fill="#5B9BD5" fill-rule="evenodd"/><path d="M4983 1041C4983 1016.7 5002.7 997 5027 997 5051.3 997 5071 1016.7 5071 1041 5071 1065.3 5051.3 1085 5027 1085 5002.7 1085 4983 1065.3 4983 1041Z" fill="#5B9BD5" fill-rule="evenodd"/><path d="M4983 1193C4983 1168.7 5002.7 1149 5027 1149 5051.3 1149 5071 1168.7 5071 1193 5071 1217.3 5051.3 1237 5027 1237 5002.7 1237 4983 1217.3 4983 1193Z" fill="#5B9BD5" fill-rule="evenodd"/><path d="M5213 735.5C5213 711.476 5232.7 692 5257 692 5281.3 692 5301 711.476 5301 735.5 5301 759.524 5281.3 779 5257 779 5232.7 779 5213 759.524 5213 735.5Z" fill="#ED7D31" fill-rule="evenodd"/><path d="M5213 888C5213 863.699 5232.7 844 5257 844 5281.3 844 5301 863.699 5301 888 5301 912.3 5281.3 932 5257 932 5232.7 932 5213 912.3 5213 888Z" fill="#ED7D31" fill-rule="evenodd"/><path d="M5213 1041C5213 1016.7 5232.7 997 5257 997 5281.3 997 5301 1016.7 5301 1041 5301 1065.3 5281.3 1085 5257 1085 5232.7 1085 5213 1065.3 5213 1041Z" fill="#ED7D31" fill-rule="evenodd"/><path d="M4523 735.5C4523 711.476 4542.7 692 4567 692 4591.3 692 4611 711.476 4611 735.5 4611 759.524 4591.3 779 4567 779 4542.7 779 4523 759.524 4523 735.5Z" fill="#70AD47" fill-rule="evenodd"/><path d="M4523 888C4523 863.699 4542.7 844 4567 844 4591.3 844 4611 863.699 4611 888 4611 912.3 4591.3 932 4567 932 4542.7 932 4523 912.3 4523 888Z" fill="#70AD47" fill-rule="evenodd"/><path d="M4523 1041C4523 1016.7 4542.7 997 4567 997 4591.3 997 4611 1016.7 4611 1041 4611 1065.3 4591.3 1085 4567 1085 4542.7 1085 4523 1065.3 4523 1041Z" fill="#70AD47" fill-rule="evenodd"/><path d="M5087.5 583.5 5197.84 735.808" stroke="#D9D9D9" stroke-width="4.58333" stroke-linecap="round" stroke-linejoin="round" stroke-miterlimit="10" fill="none" fill-rule="evenodd"/><path d="M5087.5 735.5 5197.84 735.5" stroke="#D9D9D9" stroke-width="4.58333" stroke-linecap="round" stroke-linejoin="round" stroke-miterlimit="10" fill="none" fill-rule="evenodd"/><path d="M0 0 110.337 152.309" stroke="#D9D9D9" stroke-width="4.58333" stroke-linecap="round" stroke-linejoin="round" stroke-miterlimit="10" fill="none" fill-rule="evenodd" transform="matrix(1 0 0 -1 5087.5 887.809)"/><path d="M0 0 110.337 304.617" stroke="#D9D9D9" stroke-width="4.58333" stroke-linecap="round" stroke-linejoin="round" stroke-miterlimit="10" fill="none" fill-rule="evenodd" transform="matrix(1 0 0 -1 5087.5 1040.12)"/><path d="M0 0 110.337 456.925" stroke="#D9D9D9" stroke-width="4.58333" stroke-linecap="round" stroke-linejoin="round" stroke-miterlimit="10" fill="none" fill-rule="evenodd" transform="matrix(1 0 0 -1 5087.5 1192.43)"/><path d="M5197.84 887.809 5087.5 735.5" stroke="#D9D9D9" stroke-width="4.58333" stroke-linecap="round" stroke-linejoin="round" stroke-miterlimit="10" fill="none" fill-rule="evenodd"/><path d="M5087.5 888.5 5197.84 888.5" stroke="#D9D9D9" stroke-width="4.58333" stroke-linecap="round" stroke-linejoin="round" stroke-miterlimit="10" fill="none" fill-rule="evenodd"/><path d="M0 0 110.337 152.309" stroke="#D9D9D9" stroke-width="4.58333" stroke-linecap="round" stroke-linejoin="round" stroke-miterlimit="10" fill="none" fill-rule="evenodd" transform="matrix(1 0 0 -1 5087.5 1040.81)"/><path d="M0 0 110.337 304.617" stroke="#D9D9D9" stroke-width="4.58333" stroke-linecap="round" stroke-linejoin="round" stroke-miterlimit="10" fill="none" fill-rule="evenodd" transform="matrix(1 0 0 -1 5087.5 1193.12)"/><path d="M0 0 110.337 152.309" stroke="#D9D9D9" stroke-width="4.58333" stroke-linecap="round" stroke-linejoin="round" stroke-miterlimit="10" fill="none" fill-rule="evenodd" transform="matrix(1 0 0 -1 5087.5 1192.81)"/><path d="M5087.5 1040.5 5197.84 1040.5" stroke="#D9D9D9" stroke-width="4.58333" stroke-linecap="round" stroke-linejoin="round" stroke-miterlimit="10" fill="none" fill-rule="evenodd"/><path d="M5087.5 888.5 5197.84 1040.81" stroke="#D9D9D9" stroke-width="4.58333" stroke-linecap="round" stroke-linejoin="round" stroke-miterlimit="10" fill="none" fill-rule="evenodd"/><path d="M5087.5 735.5 5197.84 1040.12" stroke="#D9D9D9" stroke-width="4.58333" stroke-linecap="round" stroke-linejoin="round" stroke-miterlimit="10" fill="none" fill-rule="evenodd"/><path d="M5087.5 583.5 5197.84 1040.43" stroke="#D9D9D9" stroke-width="4.58333" stroke-linecap="round" stroke-linejoin="round" stroke-miterlimit="10" fill="none" fill-rule="evenodd"/><path d="M4857.5 583.5 4967.84 583.5" stroke="#D9D9D9" stroke-width="4.58333" stroke-linecap="round" stroke-linejoin="round" stroke-miterlimit="10" fill="none" fill-rule="evenodd"/><path d="M0 0 110.337 152.309" stroke="#D9D9D9" stroke-width="4.58333" stroke-linecap="round" stroke-linejoin="round" stroke-miterlimit="10" fill="none" fill-rule="evenodd" transform="matrix(1 0 0 -1 4857.5 735.808)"/><path d="M0 0 110.337 304.617" stroke="#D9D9D9" stroke-width="4.58333" stroke-linecap="round" stroke-linejoin="round" stroke-miterlimit="10" fill="none" fill-rule="evenodd" transform="matrix(1 0 0 -1 4857.5 888.117)"/><path d="M0 0 110.337 456.925" stroke="#D9D9D9" stroke-width="4.58333" stroke-linecap="round" stroke-linejoin="round" stroke-miterlimit="10" fill="none" fill-rule="evenodd" transform="matrix(1 0 0 -1 4857.5 1040.43)"/><path d="M0 0 110.337 609.234" stroke="#D9D9D9" stroke-width="4.58333" stroke-linecap="round" stroke-linejoin="round" stroke-miterlimit="10" fill="none" fill-rule="evenodd" transform="matrix(1 0 0 -1 4857.5 1192.73)"/><path d="M4857.5 583.5 4967.84 735.808" stroke="#D9D9D9" stroke-width="4.58333" stroke-linecap="round" stroke-linejoin="round" stroke-miterlimit="10" fill="none" fill-rule="evenodd"/><path d="M4857.5 735.5 4967.84 735.5" stroke="#D9D9D9" stroke-width="4.58333" stroke-linecap="round" stroke-linejoin="round" stroke-miterlimit="10" fill="none" fill-rule="evenodd"/><path d="M0 0 110.337 152.309" stroke="#D9D9D9" stroke-width="4.58333" stroke-linecap="round" stroke-linejoin="round" stroke-miterlimit="10" fill="none" fill-rule="evenodd" transform="matrix(1 0 0 -1 4857.5 887.809)"/><path d="M0 0 110.337 304.617" stroke="#D9D9D9" stroke-width="4.58333" stroke-linecap="round" stroke-linejoin="round" stroke-miterlimit="10" fill="none" fill-rule="evenodd" transform="matrix(1 0 0 -1 4857.5 1040.12)"/><path d="M0 0 110.337 456.925" stroke="#D9D9D9" stroke-width="4.58333" stroke-linecap="round" stroke-linejoin="round" stroke-miterlimit="10" fill="none" fill-rule="evenodd" transform="matrix(1 0 0 -1 4857.5 1192.43)"/><path d="M4857.5 583.5 4967.84 888.117" stroke="#D9D9D9" stroke-width="4.58333" stroke-linecap="round" stroke-linejoin="round" stroke-miterlimit="10" fill="none" fill-rule="evenodd"/><path d="M4857.5 735.5 4967.84 887.809" stroke="#D9D9D9" stroke-width="4.58333" stroke-linecap="round" stroke-linejoin="round" stroke-miterlimit="10" fill="none" fill-rule="evenodd"/><path d="M4857.5 888.5 4967.84 888.5" stroke="#D9D9D9" stroke-width="4.58333" stroke-linecap="round" stroke-linejoin="round" stroke-miterlimit="10" fill="none" fill-rule="evenodd"/><path d="M0 0 110.337 152.309" stroke="#D9D9D9" stroke-width="4.58333" stroke-linecap="round" stroke-linejoin="round" stroke-miterlimit="10" fill="none" fill-rule="evenodd" transform="matrix(1 0 0 -1 4857.5 1040.81)"/><path d="M0 0 110.337 304.617" stroke="#D9D9D9" stroke-width="4.58333" stroke-linecap="round" stroke-linejoin="round" stroke-miterlimit="10" fill="none" fill-rule="evenodd" transform="matrix(1 0 0 -1 4857.5 1193.12)"/><path d="M4857.5 1192.5 4967.84 1192.5" stroke="#D9D9D9" stroke-width="4.58333" stroke-linecap="round" stroke-linejoin="round" stroke-miterlimit="10" fill="none" fill-rule="evenodd"/><path d="M4857.5 1040.5 4967.84 1192.81" stroke="#D9D9D9" stroke-width="4.58333" stroke-linecap="round" stroke-linejoin="round" stroke-miterlimit="10" fill="none" fill-rule="evenodd"/><path d="M4857.5 888.5 4967.84 1193.12" stroke="#D9D9D9" stroke-width="4.58333" stroke-linecap="round" stroke-linejoin="round" stroke-miterlimit="10" fill="none" fill-rule="evenodd"/><path d="M4857.5 735.5 4967.84 1192.43" stroke="#D9D9D9" stroke-width="4.58333" stroke-linecap="round" stroke-linejoin="round" stroke-miterlimit="10" fill="none" fill-rule="evenodd"/><path d="M4857.5 583.5 4967.84 1192.73" stroke="#D9D9D9" stroke-width="4.58333" stroke-linecap="round" stroke-linejoin="round" stroke-miterlimit="10" fill="none" fill-rule="evenodd"/><path d="M0 0 110.337 152.309" stroke="#D9D9D9" stroke-width="4.58333" stroke-linecap="round" stroke-linejoin="round" stroke-miterlimit="10" fill="none" fill-rule="evenodd" transform="matrix(1 0 0 -1 4857.5 1192.81)"/><path d="M4857.5 1040.5 4967.84 1040.5" stroke="#D9D9D9" stroke-width="4.58333" stroke-linecap="round" stroke-linejoin="round" stroke-miterlimit="10" fill="none" fill-rule="evenodd"/><path d="M4857.5 888.5 4967.84 1040.81" stroke="#D9D9D9" stroke-width="4.58333" stroke-linecap="round" stroke-linejoin="round" stroke-miterlimit="10" fill="none" fill-rule="evenodd"/><path d="M4857.5 735.5 4967.84 1040.12" stroke="#D9D9D9" stroke-width="4.58333" stroke-linecap="round" stroke-linejoin="round" stroke-miterlimit="10" fill="none" fill-rule="evenodd"/><path d="M4857.5 583.5 4967.84 1040.43" stroke="#D9D9D9" stroke-width="4.58333" stroke-linecap="round" stroke-linejoin="round" stroke-miterlimit="10" fill="none" fill-rule="evenodd"/><path d="M4626.5 1040.5 4736.84 1192.81" stroke="#D9D9D9" stroke-width="4.58333" stroke-linecap="round" stroke-linejoin="round" stroke-miterlimit="10" fill="none" fill-rule="evenodd"/><path d="M0 0 110.337 0.000360892" stroke="#D9D9D9" stroke-width="4.58333" stroke-linecap="round" stroke-linejoin="round" stroke-miterlimit="10" fill="none" fill-rule="evenodd" transform="matrix(-1 0 0 1 4736.84 1040.5)"/><path d="M0 0 110.337 152.309" stroke="#D9D9D9" stroke-width="4.58333" stroke-linecap="round" stroke-linejoin="round" stroke-miterlimit="10" fill="none" fill-rule="evenodd" transform="matrix(-1 0 0 1 4736.84 888.5)"/><path d="M0 0 110.337 0.000360892" stroke="#D9D9D9" stroke-width="4.58333" stroke-linecap="round" stroke-linejoin="round" stroke-miterlimit="10" fill="none" fill-rule="evenodd" transform="matrix(-1 0 0 1 4736.84 888.5)"/><path d="M4736.84 887.809 4626.5 735.5" stroke="#D9D9D9" stroke-width="4.58333" stroke-linecap="round" stroke-linejoin="round" stroke-miterlimit="10" fill="none" fill-rule="evenodd"/><path d="M0 0 110.337 152.309" stroke="#D9D9D9" stroke-width="4.58333" stroke-linecap="round" stroke-linejoin="round" stroke-miterlimit="10" fill="none" fill-rule="evenodd" transform="matrix(-1 0 0 1 4736.84 583.5)"/><path d="M0 0 110.337 0.000360892" stroke="#D9D9D9" stroke-width="4.58333" stroke-linecap="round" stroke-linejoin="round" stroke-miterlimit="10" fill="none" fill-rule="evenodd" transform="matrix(-1 0 0 1 4736.84 735.5)"/><path d="M4736.84 1040.12 4626.5 735.5" stroke="#D9D9D9" stroke-width="4.58333" stroke-linecap="round" stroke-linejoin="round" stroke-miterlimit="10" fill="none" fill-rule="evenodd"/><path d="M4736.84 1192.43 4626.5 735.5" stroke="#D9D9D9" stroke-width="4.58333" stroke-linecap="round" stroke-linejoin="round" stroke-miterlimit="10" fill="none" fill-rule="evenodd"/><path d="M0 0 110.337 304.617" stroke="#D9D9D9" stroke-width="4.58333" stroke-linecap="round" stroke-linejoin="round" stroke-miterlimit="10" fill="none" fill-rule="evenodd" transform="matrix(-1 0 0 1 4736.84 583.5)"/><path d="M0 0 110.337 152.309" stroke="#D9D9D9" stroke-width="4.58333" stroke-linecap="round" stroke-linejoin="round" stroke-miterlimit="10" fill="none" fill-rule="evenodd" transform="matrix(-1 0 0 1 4736.84 735.5)"/><path d="M4736.84 1040.81 4626.5 888.5" stroke="#D9D9D9" stroke-width="4.58333" stroke-linecap="round" stroke-linejoin="round" stroke-miterlimit="10" fill="none" fill-rule="evenodd"/><path d="M4736.84 1193.12 4626.5 888.5" stroke="#D9D9D9" stroke-width="4.58333" stroke-linecap="round" stroke-linejoin="round" stroke-miterlimit="10" fill="none" fill-rule="evenodd"/><path d="M0 0 110.337 304.617" stroke="#D9D9D9" stroke-width="4.58333" stroke-linecap="round" stroke-linejoin="round" stroke-miterlimit="10" fill="none" fill-rule="evenodd" transform="matrix(1 0 0 -1 4626.5 1040.12)"/><path d="M0 0 110.337 456.925" stroke="#D9D9D9" stroke-width="4.58333" stroke-linecap="round" stroke-linejoin="round" stroke-miterlimit="10" fill="none" fill-rule="evenodd" transform="matrix(1 0 0 -1 4626.5 1040.43)"/><path d="M5087.5 583.5 5197.84 888.117" stroke="#D9D9D9" stroke-width="4.58333" stroke-linecap="round" stroke-linejoin="round" stroke-miterlimit="10" fill="none" fill-rule="evenodd"/><text fill="#70AD47" font-family="Arial,Arial_MSFontService,sans-serif" font-weight="400" font-size="64" transform="matrix(1 0 0 1 4510.9 590)">input</text><text fill="#5B9BD5" font-family="Arial,Arial_MSFontService,sans-serif" font-weight="400" font-size="64" transform="matrix(1 0 0 1 4813.92 500)">hidden</text><text fill="#ED7D31" font-family="Arial,Arial_MSFontService,sans-serif" font-weight="400" font-size="64" transform="matrix(1 0 0 1 5157.99 591)">output</text><text fill="#595959" font-family="Arial,Arial_MSFontService,sans-serif" font-weight="700" font-size="73" transform="matrix(1 0 0 1 4583.61 354)">compute / __call__</text><path d="M0 0 81.1221 0.000360892" stroke="#D9D9D9" stroke-width="4.58333" stroke-linecap="round" stroke-linejoin="round" stroke-miterlimit="10" fill="none" fill-rule="evenodd" transform="matrix(-1 0 0 1 4506.62 735.5)"/><path d="M4506.62 888.5 4425.5 888.5" stroke="#D9D9D9" stroke-width="4.58333" stroke-linecap="round" stroke-linejoin="round" stroke-miterlimit="10" fill="none" fill-rule="evenodd"/><path d="M0 0 81.1221 0.000360892" stroke="#D9D9D9" stroke-width="4.58333" stroke-linecap="round" stroke-linejoin="round" stroke-miterlimit="10" fill="none" fill-rule="evenodd" transform="matrix(-1 0 0 1 4506.62 1040.5)"/><path d="M0 0 81.1214 0.000360892" stroke="#D9D9D9" stroke-width="4.58333" stroke-linecap="round" stroke-linejoin="round" stroke-miterlimit="10" fill="none" fill-rule="evenodd" transform="matrix(-1 0 0 1 5398.62 1040.5)"/><path d="M0 0 81.1214 0.000360892" stroke="#D9D9D9" stroke-width="4.58333" stroke-linecap="round" stroke-linejoin="round" stroke-miterlimit="10" fill="none" fill-rule="evenodd" transform="matrix(-1 0 0 1 5398.62 888.5)"/><path d="M0 0 81.1214 0.000360892" stroke="#D9D9D9" stroke-width="4.58333" stroke-linecap="round" stroke-linejoin="round" stroke-miterlimit="10" fill="none" fill-rule="evenodd" transform="matrix(-1 0 0 1 5398.62 740.5)"/><rect x="4462" y="400" width="900" height="871" stroke="#BFBFBF" stroke-width="10.3125" stroke-linecap="square" stroke-miterlimit="8" stroke-dasharray="30.9375 10.3125" fill="none"/><path d="M5430 622C5442.15 622 5452 623.641 5452 625.666L5452 883.334C5452 885.359 5461.84 887 5473.99 887 5461.84 887 5452 888.641 5452 890.666L5452 1148.33C5452 1150.36 5442.15 1152 5430 1152" stroke="#595959" stroke-width="2.29167" stroke-miterlimit="8" fill="none" fill-rule="evenodd"/><text fill="#7030A0" font-family="Arial,Arial_MSFontService,sans-serif" font-weight="400" font-size="64" transform="matrix(1 0 0 1 5566.65 905)">actions (</text><path d="M5828.45 877.296C5826.3 877.296 5824.38 878.16 5822.67 879.889 5820.96 881.618 5819.63 883.936 5818.67 886.842 5817.71 889.749 5817.23 892.65 5817.23 895.546 5817.23 897.712 5817.53 899.332 5818.12 900.405 5818.71 901.478 5819.71 902.014 5821.11 902.014 5822.48 902.014 5823.83 901.421 5825.15 900.233 5826.48 899.046 5827.84 897.353 5829.25 895.155 5830.65 892.957 5831.65 890.421 5832.23 887.546L5832.51 886.202C5832.7 885.348 5832.82 884.608 5832.89 883.983 5832.95 883.358 5832.98 882.681 5832.98 881.952 5832.98 880.348 5832.64 879.171 5831.95 878.421 5831.26 877.671 5830.1 877.296 5828.45 877.296ZM5827.82 874.827C5829.18 874.827 5830.44 874.978 5831.62 875.28 5832.8 875.582 5834.01 876.118 5835.26 876.889L5838.14 874.827 5840.14 875.327 5835.54 895.139C5835.08 897.118 5834.86 898.66 5834.86 899.764 5834.86 900.598 5834.99 901.202 5835.26 901.577 5835.53 901.952 5835.96 902.139 5836.54 902.139 5837.17 902.139 5837.83 901.884 5838.54 901.374 5839.25 900.863 5840.25 899.889 5841.54 898.452L5843.32 900.202C5841.45 902.202 5839.85 903.624 5838.53 904.467 5837.2 905.311 5835.77 905.733 5834.23 905.733 5832.94 905.733 5831.91 905.306 5831.14 904.452 5830.37 903.598 5829.98 902.462 5829.98 901.046 5829.98 899.9 5830.22 898.681 5830.7 897.389L5830.29 897.264C5828.29 900.181 5826.4 902.316 5824.61 903.671 5822.81 905.025 5820.92 905.702 5818.92 905.702 5816.63 905.702 5814.85 904.837 5813.59 903.108 5812.33 901.379 5811.7 898.952 5811.7 895.827 5811.7 892.243 5812.4 888.801 5813.81 885.499 5815.21 882.197 5817.15 879.592 5819.61 877.686 5822.06 875.78 5824.8 874.827 5827.82 874.827Z" fill="#7030A0" fill-rule="evenodd"/><text fill="#000000" fill-opacity="0" font-family="Arial,Arial_MSFontService,sans-serif" font-size="30.9062" x="5811.7" y="901.87">𝑎</text><path d="M5853.81 889.54 5857.39 889.54 5856.08 895.369 5863.88 895.369 5863.35 897.917 5855.57 897.917 5853.23 907.532C5853.08 908.175 5852.95 908.752 5852.85 909.265 5852.76 909.777 5852.67 910.24 5852.61 910.653 5852.55 911.066 5852.51 911.441 5852.49 911.778 5852.46 912.115 5852.45 912.428 5852.45 912.719 5852.45 913.637 5852.64 914.356 5853.03 914.876 5853.41 915.396 5854.04 915.656 5854.91 915.656 5855.64 915.656 5856.42 915.385 5857.25 914.842 5858.08 914.298 5859.02 913.446 5860.07 912.283L5861.66 913.889C5860.88 914.761 5860.13 915.503 5859.43 916.115 5858.73 916.727 5858.04 917.228 5857.36 917.618 5856.69 918.009 5856.03 918.292 5855.37 918.468 5854.71 918.644 5854.04 918.732 5853.35 918.732 5851.53 918.732 5850.17 918.303 5849.27 917.446 5848.38 916.59 5847.93 915.327 5847.93 913.66 5847.93 913.094 5847.97 912.47 5848.06 911.789 5848.14 911.109 5848.26 910.447 5848.41 909.804L5851.15 897.917 5847.2 897.917 5847.66 896.149C5848.57 896.149 5849.29 896.062 5849.8 895.886 5850.31 895.71 5850.75 895.469 5851.1 895.163 5851.33 894.948 5851.55 894.685 5851.76 894.371 5851.98 894.057 5852.19 893.679 5852.41 893.235 5852.62 892.791 5852.84 892.267 5853.06 891.663 5853.28 891.059 5853.53 890.351 5853.81 889.54Z" fill="#7030A0" fill-rule="evenodd"/><text fill="#000000" fill-opacity="0" font-family="Arial,Arial_MSFontService,sans-serif" font-size="29.1914" x="5847.2" y="915.083">𝑡</text><text fill="#7030A0" font-family="Arial,Arial_MSFontService,sans-serif" font-weight="400" font-size="64" transform="matrix(1 0 0 1 5868.48 905)">)</text><path d="M5781 476C5781 500.301 5761.3 520 5737 520 5712.7 520 5693 500.301 5693 476 5693 451.7 5712.7 432 5737 432 5761.3 432 5781 451.7 5781 476Z" stroke="#7030A0" stroke-width="10.3125" stroke-miterlimit="8" fill="none" fill-rule="evenodd"/><path d="M5763 476.5C5763 491.135 5751.14 503 5736.5 503 5721.86 503 5710 491.135 5710 476.5 5710 461.864 5721.86 450 5736.5 450 5751.14 450 5763 461.864 5763 476.5Z" stroke="#7030A0" stroke-width="10.3125" stroke-miterlimit="8" fill="none" fill-rule="evenodd"/><path d="M5631 944 5844.19 944" stroke="#7030A0" stroke-width="10.3125" stroke-linecap="round" stroke-linejoin="round" stroke-miterlimit="10" fill="none" fill-rule="evenodd"/><path d="M5631 821 5844.19 821" stroke="#7030A0" stroke-width="10.3125" stroke-linecap="round" stroke-linejoin="round" stroke-miterlimit="10" fill="none" fill-rule="evenodd"/><path d="M0 0 0.236385 286.495" stroke="#7030A0" stroke-width="10.3125" stroke-linecap="round" stroke-linejoin="round" stroke-miterlimit="10" fill="none" fill-rule="evenodd" transform="matrix(-1 0 0 1 5737.24 520)"/><path d="M5750 820C5750 827.18 5744.18 833 5737 833 5729.82 833 5724 827.18 5724 820 5724 812.82 5729.82 807 5737 807 5744.18 807 5750 812.82 5750 820Z" fill="#7030A0" fill-rule="evenodd"/><text fill="#7F6000" font-family="Arial,Arial_MSFontService,sans-serif" font-weight="700" font-size="64" transform="matrix(1 0 0 1 5552.42 373)">clip_actions</text><text fill="#70AD47" font-family="Arial,Arial_MSFontService,sans-serif" font-weight="700" font-size="64" transform="matrix(1 0 0 1 4131.19 874)">inputs</text><text fill="#70AD47" font-family="Arial,Arial_MSFontService,sans-serif" font-weight="700" font-size="64" transform="matrix(1 0 0 1 4129.77 951)">(</text><path d="M4172.06 922.314C4170.31 922.314 4168.79 923.163 4167.51 924.861 4166.23 926.559 4165.13 929.184 4164.2 932.736 4163.27 936.288 4162.81 939.366 4162.81 941.971 4162.81 943.929 4163.13 945.392 4163.76 946.361 4164.4 947.33 4165.4 947.814 4166.78 947.814 4168.55 947.814 4170.09 946.955 4171.39 945.236 4172.69 943.517 4173.78 940.919 4174.65 937.439 4175.53 933.96 4175.97 930.939 4175.97 928.377 4175.97 926.294 4175.65 924.762 4175.01 923.783 4174.38 922.804 4173.39 922.314 4172.06 922.314ZM4172.78 919.064C4175.36 919.064 4177.53 919.538 4179.28 920.486 4181.03 921.434 4182.33 922.752 4183.17 924.439 4184.01 926.127 4184.43 928.085 4184.43 930.314 4184.43 933.064 4183.98 935.825 4183.06 938.596 4182.14 941.366 4180.88 943.689 4179.26 945.564 4177.65 947.439 4175.74 948.825 4173.53 949.721 4171.32 950.616 4168.82 951.064 4166.03 951.064 4163.74 951.064 4161.72 950.653 4159.98 949.83 4158.24 949.007 4156.88 947.757 4155.89 946.08 4154.9 944.403 4154.4 942.356 4154.4 939.939 4154.4 937.481 4154.79 934.903 4155.56 932.205 4156.33 929.507 4157.53 927.132 4159.15 925.08 4160.78 923.028 4162.74 921.512 4165.04 920.533 4167.35 919.554 4169.92 919.064 4172.78 919.064Z" fill="#70AD47" fill-rule="evenodd"/><text fill="#000000" fill-opacity="0" font-family="Arial,Arial_MSFontService,sans-serif" font-size="32" x="4154.4" y="947.064">𝒐</text><path d="M4197.48 935.147 4202.98 935.147 4201.65 940.884 4207.23 940.884 4206.61 943.753 4200.99 943.753 4198.76 952.932C4198.38 954.508 4198.12 955.706 4197.97 956.524 4197.83 957.343 4197.75 958.035 4197.75 958.601 4197.75 959.32 4197.88 959.844 4198.14 960.173 4198.4 960.502 4198.79 960.666 4199.29 960.666 4199.98 960.666 4200.69 960.422 4201.41 959.932 4202.14 959.442 4202.92 958.685 4203.77 957.66L4205.53 959.473C4203.99 961.171 4202.57 962.353 4201.27 963.019 4199.98 963.684 4198.46 964.017 4196.7 964.017 4194.95 964.017 4193.61 963.569 4192.68 962.674 4191.75 961.779 4191.28 960.544 4191.28 958.968 4191.28 958.249 4191.33 957.564 4191.44 956.914 4191.55 956.264 4191.77 955.197 4192.11 953.713L4194.47 943.753 4190.89 943.753 4191.33 941.894C4192.4 941.894 4193.21 941.794 4193.76 941.596 4194.31 941.397 4194.77 941.098 4195.15 940.701 4195.52 940.303 4195.89 939.698 4196.24 938.888 4196.59 938.077 4197 936.83 4197.48 935.147Z" fill="#70AD47" fill-rule="evenodd"/><text fill="#000000" fill-opacity="0" font-family="Arial,Arial_MSFontService,sans-serif" font-size="28.8701" x="4190.89" y="960.408">𝒕</text><path d="M4228.85 943.314 4234.32 943.314C4234.61 944.773 4234.76 946.21 4234.76 947.627 4234.76 949.085 4234.51 950.419 4234.01 951.627 4233.51 952.835 4232.71 954.038 4231.62 955.236 4230.53 956.434 4229.02 957.752 4227.1 959.189L4225.42 957.283C4226.48 956.283 4227.25 955.382 4227.73 954.58 4228.21 953.778 4228.55 952.866 4228.76 951.846 4228.97 950.825 4229.07 949.544 4229.07 948.002 4229.07 946.419 4229 944.856 4228.85 943.314Z" fill="#70AD47" fill-rule="evenodd"/><text fill="#000000" fill-opacity="0" font-family="Arial,Arial_MSFontService,sans-serif" font-size="15.875" x="4225.42" y="957.205">,</text><path d="M4268.39 919.064C4269.99 919.064 4271.72 919.195 4273.56 919.455 4275.4 919.715 4277.09 920.064 4278.61 920.502L4276.98 927.971 4273.01 927.971C4272.83 926.033 4272.33 924.606 4271.53 923.689 4270.73 922.773 4269.58 922.314 4268.08 922.314 4266.68 922.314 4265.56 922.674 4264.72 923.392 4263.87 924.111 4263.45 925.085 4263.45 926.314 4263.45 927.398 4263.81 928.346 4264.51 929.158 4265.22 929.971 4266.6 930.991 4268.64 932.221 4270.85 933.533 4272.43 934.887 4273.39 936.283 4274.35 937.679 4274.83 939.314 4274.83 941.189 4274.83 943.314 4274.26 945.127 4273.12 946.627 4271.99 948.127 4270.44 949.241 4268.47 949.971 4266.5 950.7 4264.25 951.064 4261.73 951.064 4257.69 951.064 4253.82 950.564 4250.11 949.564L4251.86 941.814 4255.83 941.814C4255.93 943.689 4256.41 945.158 4257.28 946.221 4258.14 947.283 4259.47 947.814 4261.26 947.814 4262.91 947.814 4264.18 947.413 4265.08 946.611 4265.97 945.809 4266.42 944.679 4266.42 943.221 4266.42 942.346 4266.27 941.606 4265.98 941.002 4265.69 940.398 4265.21 939.809 4264.54 939.236 4263.88 938.663 4262.79 937.919 4261.29 937.002 4259.21 935.752 4257.7 934.455 4256.75 933.111 4255.8 931.767 4255.33 930.262 4255.33 928.596 4255.33 925.533 4256.47 923.179 4258.76 921.533 4261.06 919.887 4264.26 919.064 4268.39 919.064Z" fill="#70AD47" fill-rule="evenodd"/><text fill="#000000" fill-opacity="0" font-family="Arial,Arial_MSFontService,sans-serif" font-size="32" x="4250.11" y="947.064">𝒔</text><path d="M4289.9 935.147 4295.41 935.147 4294.08 940.884 4299.65 940.884 4299.03 943.753 4293.41 943.753 4291.19 952.932C4290.8 954.508 4290.54 955.706 4290.39 956.524 4290.25 957.343 4290.18 958.035 4290.18 958.601 4290.18 959.32 4290.31 959.844 4290.57 960.173 4290.83 960.502 4291.21 960.666 4291.71 960.666 4292.4 960.666 4293.11 960.422 4293.84 959.932 4294.56 959.442 4295.35 958.685 4296.19 957.66L4297.96 959.473C4296.41 961.171 4294.99 962.353 4293.7 963.019 4292.41 963.684 4290.88 964.017 4289.12 964.017 4287.38 964.017 4286.04 963.569 4285.1 962.674 4284.17 961.779 4283.7 960.544 4283.7 958.968 4283.7 958.249 4283.76 957.564 4283.86 956.914 4283.97 956.264 4284.19 955.197 4284.53 953.713L4286.89 943.753 4283.31 943.753 4283.75 941.894C4284.82 941.894 4285.63 941.794 4286.18 941.596 4286.73 941.397 4287.2 941.098 4287.57 940.701 4287.95 940.303 4288.31 939.698 4288.66 938.888 4289.01 938.077 4289.43 936.83 4289.9 935.147Z" fill="#70AD47" fill-rule="evenodd"/><text fill="#000000" fill-opacity="0" font-family="Arial,Arial_MSFontService,sans-serif" font-size="28.8701" x="4283.31" y="960.408">𝒕</text><text fill="#70AD47" font-family="Arial,Arial_MSFontService,sans-serif" font-weight="700" font-size="64" transform="matrix(1 0 0 1 4302.77 951)">)</text><rect x="4426" y="208" width="1565" height="1105" stroke="#BFBFBF" stroke-width="10.3125" stroke-linecap="square" stroke-miterlimit="8" stroke-dasharray="30.9375 10.3125" fill="none"/><text fill="#595959" font-family="Arial,Arial_MSFontService,sans-serif" font-weight="700" font-size="83" transform="matrix(1 0 0 1 5150.7 172)">act</text><text fill="#7030A0" font-family="Arial,Arial_MSFontService,sans-serif" font-weight="700" font-size="64" transform="matrix(1 0 0 1 6072.14 799)">actions (</text><path d="M6356.47 770.518C6354.53 770.518 6352.81 771.492 6351.31 773.439 6349.81 775.387 6348.6 778.007 6347.69 781.299 6346.77 784.591 6346.31 787.538 6346.31 790.143 6346.31 791.663 6346.54 792.799 6346.98 793.549 6347.43 794.299 6348.12 794.674 6349.06 794.674 6350.44 794.674 6351.84 794.002 6353.27 792.658 6354.69 791.314 6355.84 789.736 6356.72 787.924 6357.59 786.111 6358.37 783.632 6359.06 780.486L6359.31 779.33C6359.65 777.788 6359.81 776.247 6359.81 774.705 6359.81 773.33 6359.55 772.288 6359.03 771.58 6358.51 770.872 6357.66 770.518 6356.47 770.518ZM6356.09 767.268C6359.2 767.268 6361.84 768.018 6364.03 769.518L6367.06 767.268 6370.56 767.768 6365.5 789.018C6365.19 790.33 6365.03 791.518 6365.03 792.58 6365.03 793.268 6365.15 793.799 6365.37 794.174 6365.6 794.549 6366 794.736 6366.56 794.736 6367.21 794.736 6367.91 794.445 6368.66 793.861 6369.41 793.278 6370.28 792.413 6371.28 791.268L6373.53 793.518C6371.34 795.705 6369.46 797.21 6367.87 798.033 6366.29 798.856 6364.62 799.268 6362.87 799.268 6361.12 799.268 6359.74 798.783 6358.72 797.814 6357.7 796.846 6357.19 795.57 6357.19 793.986 6357.19 793.466 6357.25 792.966 6357.37 792.486L6356.94 792.424C6355.42 794.216 6354.11 795.564 6353.02 796.471 6351.92 797.377 6350.76 798.07 6349.53 798.549 6348.3 799.028 6346.94 799.268 6345.44 799.268 6342.94 799.268 6341.04 798.419 6339.75 796.721 6338.46 795.023 6337.81 792.549 6337.81 789.299 6337.81 786.486 6338.22 783.695 6339.03 780.924 6339.84 778.153 6341.01 775.762 6342.53 773.752 6344.05 771.742 6345.96 770.158 6348.27 769.002 6350.57 767.846 6353.18 767.268 6356.09 767.268Z" fill="#7030A0" fill-rule="evenodd"/><text fill="#000000" fill-opacity="0" font-family="Arial,Arial_MSFontService,sans-serif" font-size="32" x="6337.81" y="795.268">𝒂</text><path d="M6383.91 783.35 6389.41 783.35 6388.08 789.087 6393.66 789.087 6393.04 791.956 6387.42 791.956 6385.19 801.136C6384.81 802.712 6384.55 803.909 6384.4 804.727 6384.25 805.546 6384.18 806.238 6384.18 806.804 6384.18 807.523 6384.31 808.047 6384.57 808.376 6384.83 808.705 6385.21 808.87 6385.72 808.87 6386.41 808.87 6387.12 808.625 6387.84 808.135 6388.57 807.646 6389.35 806.888 6390.19 805.863L6391.96 807.676C6390.42 809.375 6389 810.556 6387.7 811.222 6386.41 811.887 6384.89 812.22 6383.13 812.22 6381.38 812.22 6380.04 811.773 6379.11 810.878 6378.18 809.983 6377.71 808.747 6377.71 807.171 6377.71 806.452 6377.76 805.768 6377.87 805.117 6377.98 804.467 6378.2 803.4 6378.54 801.916L6380.9 791.956 6377.32 791.956 6377.76 790.097C6378.83 790.097 6379.64 789.998 6380.19 789.799 6380.74 789.6 6381.2 789.302 6381.58 788.904 6381.95 788.506 6382.32 787.902 6382.67 787.091 6383.02 786.28 6383.43 785.033 6383.91 783.35Z" fill="#7030A0" fill-rule="evenodd"/><text fill="#000000" fill-opacity="0" font-family="Arial,Arial_MSFontService,sans-serif" font-size="28.8701" x="6377.32" y="808.611">𝒕</text><text fill="#7030A0" font-family="Arial,Arial_MSFontService,sans-serif" font-weight="700" font-size="64" transform="matrix(1 0 0 1 6396.77 799)">)</text><text fill="#7030A0" font-family="Arial,Arial_MSFontService,sans-serif" font-weight="700" font-size="64" transform="matrix(1 0 0 1 6128.18 978)">outputs</text></g></svg>
