<svg width="3426" height="1394" xmlns="http://www.w3.org/2000/svg" xmlns:xlink="http://www.w3.org/1999/xlink" xml:space="preserve" overflow="hidden"><g transform="translate(-397 -70)"><path d="M1056 583C1056 558.699 1075.7 539 1100 539 1124.3 539 1144 558.699 1144 583 1144 607.301 1124.3 627 1100 627 1075.7 627 1056 607.301 1056 583Z" fill="#5B9BD5" fill-rule="evenodd"/><path d="M1056 735.5C1056 711.476 1075.7 692 1100 692 1124.3 692 1144 711.476 1144 735.5 1144 759.524 1124.3 779 1100 779 1075.7 779 1056 759.524 1056 735.5Z" fill="#5B9BD5" fill-rule="evenodd"/><path d="M1056 888C1056 863.699 1075.7 844 1100 844 1124.3 844 1144 863.699 1144 888 1144 912.3 1124.3 932 1100 932 1075.7 932 1056 912.3 1056 888Z" fill="#5B9BD5" fill-rule="evenodd"/><path d="M1056 1041C1056 1016.7 1075.7 997 1100 997 1124.3 997 1144 1016.7 1144 1041 1144 1065.3 1124.3 1085 1100 1085 1075.7 1085 1056 1065.3 1056 1041Z" fill="#5B9BD5" fill-rule="evenodd"/><path d="M1056 1193C1056 1168.7 1075.7 1149 1100 1149 1124.3 1149 1144 1168.7 1144 1193 1144 1217.3 1124.3 1237 1100 1237 1075.7 1237 1056 1217.3 1056 1193Z" fill="#5B9BD5" fill-rule="evenodd"/><path d="M1286 583C1286 558.699 1305.7 539 1330 539 1354.3 539 1374 558.699 1374 583 1374 607.301 1354.3 627 1330 627 1305.7 627 1286 607.301 1286 583Z" fill="#5B9BD5" fill-rule="evenodd"/><path d="M1286 735.5C1286 711.476 1305.7 692 1330 692 1354.3 692 1374 711.476 1374 735.5 1374 759.524 1354.3 779 1330 779 1305.7 779 1286 759.524 1286 735.5Z" fill="#5B9BD5" fill-rule="evenodd"/><path d="M1286 888C1286 863.699 1305.7 844 1330 844 1354.3 844 1374 863.699 1374 888 1374 912.3 1354.3 932 1330 932 1305.7 932 1286 912.3 1286 888Z" fill="#5B9BD5" fill-rule="evenodd"/><path d="M1286 1041C1286 1016.7 1305.7 997 1330 997 1354.3 997 1374 1016.7 1374 1041 1374 1065.3 1354.3 1085 1330 1085 1305.7 1085 1286 1065.3 1286 1041Z" fill="#5B9BD5" fill-rule="evenodd"/><path d="M1286 1193C1286 1168.7 1305.7 1149 1330 1149 1354.3 1149 1374 1168.7 1374 1193 1374 1217.3 1354.3 1237 1330 1237 1305.7 1237 1286 1217.3 1286 1193Z" fill="#5B9BD5" fill-rule="evenodd"/><path d="M1516 735.5C1516 711.476 1535.7 692 1560 692 1584.3 692 1604 711.476 1604 735.5 1604 759.524 1584.3 779 1560 779 1535.7 779 1516 759.524 1516 735.5Z" fill="#ED7D31" fill-rule="evenodd"/><path d="M1516 888C1516 863.699 1535.7 844 1560 844 1584.3 844 1604 863.699 1604 888 1604 912.3 1584.3 932 1560 932 1535.7 932 1516 912.3 1516 888Z" fill="#ED7D31" fill-rule="evenodd"/><path d="M1516 1041C1516 1016.7 1535.7 997 1560 997 1584.3 997 1604 1016.7 1604 1041 1604 1065.3 1584.3 1085 1560 1085 1535.7 1085 1516 1065.3 1516 1041Z" fill="#ED7D31" fill-rule="evenodd"/><path d="M826 735.5C826 711.476 845.7 692 870 692 894.301 692 914 711.476 914 735.5 914 759.524 894.301 779 870 779 845.7 779 826 759.524 826 735.5Z" fill="#70AD47" fill-rule="evenodd"/><path d="M826 888C826 863.699 845.7 844 870 844 894.301 844 914 863.699 914 888 914 912.3 894.301 932 870 932 845.7 932 826 912.3 826 888Z" fill="#70AD47" fill-rule="evenodd"/><path d="M826 1041C826 1016.7 845.7 997 870 997 894.301 997 914 1016.7 914 1041 914 1065.3 894.301 1085 870 1085 845.7 1085 826 1065.3 826 1041Z" fill="#70AD47" fill-rule="evenodd"/><path d="M1390.5 583.5 1500.84 735.808" stroke="#D9D9D9" stroke-width="4.58333" stroke-linecap="round" stroke-linejoin="round" stroke-miterlimit="10" fill="none" fill-rule="evenodd"/><path d="M1390.5 735.5 1500.84 735.5" stroke="#D9D9D9" stroke-width="4.58333" stroke-linecap="round" stroke-linejoin="round" stroke-miterlimit="10" fill="none" fill-rule="evenodd"/><path d="M0 0 110.337 152.309" stroke="#D9D9D9" stroke-width="4.58333" stroke-linecap="round" stroke-linejoin="round" stroke-miterlimit="10" fill="none" fill-rule="evenodd" transform="matrix(1 0 0 -1 1390.5 887.809)"/><path d="M0 0 110.337 304.617" stroke="#D9D9D9" stroke-width="4.58333" stroke-linecap="round" stroke-linejoin="round" stroke-miterlimit="10" fill="none" fill-rule="evenodd" transform="matrix(1 0 0 -1 1390.5 1040.12)"/><path d="M0 0 110.337 456.925" stroke="#D9D9D9" stroke-width="4.58333" stroke-linecap="round" stroke-linejoin="round" stroke-miterlimit="10" fill="none" fill-rule="evenodd" transform="matrix(1 0 0 -1 1390.5 1192.43)"/><path d="M1500.84 887.809 1390.5 735.5" stroke="#D9D9D9" stroke-width="4.58333" stroke-linecap="round" stroke-linejoin="round" stroke-miterlimit="10" fill="none" fill-rule="evenodd"/><path d="M1390.5 888.5 1500.84 888.5" stroke="#D9D9D9" stroke-width="4.58333" stroke-linecap="round" stroke-linejoin="round" stroke-miterlimit="10" fill="none" fill-rule="evenodd"/><path d="M0 0 110.337 152.309" stroke="#D9D9D9" stroke-width="4.58333" stroke-linecap="round" stroke-linejoin="round" stroke-miterlimit="10" fill="none" fill-rule="evenodd" transform="matrix(1 0 0 -1 1390.5 1040.81)"/><path d="M0 0 110.337 304.617" stroke="#D9D9D9" stroke-width="4.58333" stroke-linecap="round" stroke-linejoin="round" stroke-miterlimit="10" fill="none" fill-rule="evenodd" transform="matrix(1 0 0 -1 1390.5 1193.12)"/><path d="M0 0 110.337 152.309" stroke="#D9D9D9" stroke-width="4.58333" stroke-linecap="round" stroke-linejoin="round" stroke-miterlimit="10" fill="none" fill-rule="evenodd" transform="matrix(1 0 0 -1 1390.5 1192.81)"/><path d="M1390.5 1040.5 1500.84 1040.5" stroke="#D9D9D9" stroke-width="4.58333" stroke-linecap="round" stroke-linejoin="round" stroke-miterlimit="10" fill="none" fill-rule="evenodd"/><path d="M1390.5 888.5 1500.84 1040.81" stroke="#D9D9D9" stroke-width="4.58333" stroke-linecap="round" stroke-linejoin="round" stroke-miterlimit="10" fill="none" fill-rule="evenodd"/><path d="M1390.5 735.5 1500.84 1040.12" stroke="#D9D9D9" stroke-width="4.58333" stroke-linecap="round" stroke-linejoin="round" stroke-miterlimit="10" fill="none" fill-rule="evenodd"/><path d="M1390.5 583.5 1500.84 1040.43" stroke="#D9D9D9" stroke-width="4.58333" stroke-linecap="round" stroke-linejoin="round" stroke-miterlimit="10" fill="none" fill-rule="evenodd"/><path d="M1160.5 583.5 1270.84 583.5" stroke="#D9D9D9" stroke-width="4.58333" stroke-linecap="round" stroke-linejoin="round" stroke-miterlimit="10" fill="none" fill-rule="evenodd"/><path d="M0 0 110.337 152.309" stroke="#D9D9D9" stroke-width="4.58333" stroke-linecap="round" stroke-linejoin="round" stroke-miterlimit="10" fill="none" fill-rule="evenodd" transform="matrix(1 0 0 -1 1160.5 735.808)"/><path d="M0 0 110.337 304.617" stroke="#D9D9D9" stroke-width="4.58333" stroke-linecap="round" stroke-linejoin="round" stroke-miterlimit="10" fill="none" fill-rule="evenodd" transform="matrix(1 0 0 -1 1160.5 888.117)"/><path d="M0 0 110.337 456.925" stroke="#D9D9D9" stroke-width="4.58333" stroke-linecap="round" stroke-linejoin="round" stroke-miterlimit="10" fill="none" fill-rule="evenodd" transform="matrix(1 0 0 -1 1160.5 1040.43)"/><path d="M0 0 110.337 609.234" stroke="#D9D9D9" stroke-width="4.58333" stroke-linecap="round" stroke-linejoin="round" stroke-miterlimit="10" fill="none" fill-rule="evenodd" transform="matrix(1 0 0 -1 1160.5 1192.73)"/><path d="M1160.5 583.5 1270.84 735.808" stroke="#D9D9D9" stroke-width="4.58333" stroke-linecap="round" stroke-linejoin="round" stroke-miterlimit="10" fill="none" fill-rule="evenodd"/><path d="M1160.5 735.5 1270.84 735.5" stroke="#D9D9D9" stroke-width="4.58333" stroke-linecap="round" stroke-linejoin="round" stroke-miterlimit="10" fill="none" fill-rule="evenodd"/><path d="M0 0 110.337 152.309" stroke="#D9D9D9" stroke-width="4.58333" stroke-linecap="round" stroke-linejoin="round" stroke-miterlimit="10" fill="none" fill-rule="evenodd" transform="matrix(1 0 0 -1 1160.5 887.809)"/><path d="M0 0 110.337 304.617" stroke="#D9D9D9" stroke-width="4.58333" stroke-linecap="round" stroke-linejoin="round" stroke-miterlimit="10" fill="none" fill-rule="evenodd" transform="matrix(1 0 0 -1 1160.5 1040.12)"/><path d="M0 0 110.337 456.925" stroke="#D9D9D9" stroke-width="4.58333" stroke-linecap="round" stroke-linejoin="round" stroke-miterlimit="10" fill="none" fill-rule="evenodd" transform="matrix(1 0 0 -1 1160.5 1192.43)"/><path d="M1160.5 583.5 1270.84 888.117" stroke="#D9D9D9" stroke-width="4.58333" stroke-linecap="round" stroke-linejoin="round" stroke-miterlimit="10" fill="none" fill-rule="evenodd"/><path d="M1160.5 735.5 1270.84 887.809" stroke="#D9D9D9" stroke-width="4.58333" stroke-linecap="round" stroke-linejoin="round" stroke-miterlimit="10" fill="none" fill-rule="evenodd"/><path d="M1160.5 888.5 1270.84 888.5" stroke="#D9D9D9" stroke-width="4.58333" stroke-linecap="round" stroke-linejoin="round" stroke-miterlimit="10" fill="none" fill-rule="evenodd"/><path d="M0 0 110.337 152.309" stroke="#D9D9D9" stroke-width="4.58333" stroke-linecap="round" stroke-linejoin="round" stroke-miterlimit="10" fill="none" fill-rule="evenodd" transform="matrix(1 0 0 -1 1160.5 1040.81)"/><path d="M0 0 110.337 304.617" stroke="#D9D9D9" stroke-width="4.58333" stroke-linecap="round" stroke-linejoin="round" stroke-miterlimit="10" fill="none" fill-rule="evenodd" transform="matrix(1 0 0 -1 1160.5 1193.12)"/><path d="M1160.5 1192.5 1270.84 1192.5" stroke="#D9D9D9" stroke-width="4.58333" stroke-linecap="round" stroke-linejoin="round" stroke-miterlimit="10" fill="none" fill-rule="evenodd"/><path d="M1160.5 1040.5 1270.84 1192.81" stroke="#D9D9D9" stroke-width="4.58333" stroke-linecap="round" stroke-linejoin="round" stroke-miterlimit="10" fill="none" fill-rule="evenodd"/><path d="M1160.5 888.5 1270.84 1193.12" stroke="#D9D9D9" stroke-width="4.58333" stroke-linecap="round" stroke-linejoin="round" stroke-miterlimit="10" fill="none" fill-rule="evenodd"/><path d="M1160.5 735.5 1270.84 1192.43" stroke="#D9D9D9" stroke-width="4.58333" stroke-linecap="round" stroke-linejoin="round" stroke-miterlimit="10" fill="none" fill-rule="evenodd"/><path d="M1160.5 583.5 1270.84 1192.73" stroke="#D9D9D9" stroke-width="4.58333" stroke-linecap="round" stroke-linejoin="round" stroke-miterlimit="10" fill="none" fill-rule="evenodd"/><path d="M0 0 110.337 152.309" stroke="#D9D9D9" stroke-width="4.58333" stroke-linecap="round" stroke-linejoin="round" stroke-miterlimit="10" fill="none" fill-rule="evenodd" transform="matrix(1 0 0 -1 1160.5 1192.81)"/><path d="M1160.5 1040.5 1270.84 1040.5" stroke="#D9D9D9" stroke-width="4.58333" stroke-linecap="round" stroke-linejoin="round" stroke-miterlimit="10" fill="none" fill-rule="evenodd"/><path d="M1160.5 888.5 1270.84 1040.81" stroke="#D9D9D9" stroke-width="4.58333" stroke-linecap="round" stroke-linejoin="round" stroke-miterlimit="10" fill="none" fill-rule="evenodd"/><path d="M1160.5 735.5 1270.84 1040.12" stroke="#D9D9D9" stroke-width="4.58333" stroke-linecap="round" stroke-linejoin="round" stroke-miterlimit="10" fill="none" fill-rule="evenodd"/><path d="M1160.5 583.5 1270.84 1040.43" stroke="#D9D9D9" stroke-width="4.58333" stroke-linecap="round" stroke-linejoin="round" stroke-miterlimit="10" fill="none" fill-rule="evenodd"/><path d="M929.5 1040.5 1039.84 1192.81" stroke="#D9D9D9" stroke-width="4.58333" stroke-linecap="round" stroke-linejoin="round" stroke-miterlimit="10" fill="none" fill-rule="evenodd"/><path d="M0 0 110.337 0.000360892" stroke="#D9D9D9" stroke-width="4.58333" stroke-linecap="round" stroke-linejoin="round" stroke-miterlimit="10" fill="none" fill-rule="evenodd" transform="matrix(-1 0 0 1 1039.84 1040.5)"/><path d="M0 0 110.337 152.309" stroke="#D9D9D9" stroke-width="4.58333" stroke-linecap="round" stroke-linejoin="round" stroke-miterlimit="10" fill="none" fill-rule="evenodd" transform="matrix(-1 0 0 1 1039.84 888.5)"/><path d="M0 0 110.337 0.000360892" stroke="#D9D9D9" stroke-width="4.58333" stroke-linecap="round" stroke-linejoin="round" stroke-miterlimit="10" fill="none" fill-rule="evenodd" transform="matrix(-1 0 0 1 1039.84 888.5)"/><path d="M1039.84 887.809 929.5 735.5" stroke="#D9D9D9" stroke-width="4.58333" stroke-linecap="round" stroke-linejoin="round" stroke-miterlimit="10" fill="none" fill-rule="evenodd"/><path d="M0 0 110.337 152.309" stroke="#D9D9D9" stroke-width="4.58333" stroke-linecap="round" stroke-linejoin="round" stroke-miterlimit="10" fill="none" fill-rule="evenodd" transform="matrix(-1 0 0 1 1039.84 583.5)"/><path d="M0 0 110.337 0.000360892" stroke="#D9D9D9" stroke-width="4.58333" stroke-linecap="round" stroke-linejoin="round" stroke-miterlimit="10" fill="none" fill-rule="evenodd" transform="matrix(-1 0 0 1 1039.84 735.5)"/><path d="M1039.84 1040.12 929.5 735.5" stroke="#D9D9D9" stroke-width="4.58333" stroke-linecap="round" stroke-linejoin="round" stroke-miterlimit="10" fill="none" fill-rule="evenodd"/><path d="M1039.84 1192.43 929.5 735.5" stroke="#D9D9D9" stroke-width="4.58333" stroke-linecap="round" stroke-linejoin="round" stroke-miterlimit="10" fill="none" fill-rule="evenodd"/><path d="M0 0 110.337 304.617" stroke="#D9D9D9" stroke-width="4.58333" stroke-linecap="round" stroke-linejoin="round" stroke-miterlimit="10" fill="none" fill-rule="evenodd" transform="matrix(-1 0 0 1 1039.84 583.5)"/><path d="M0 0 110.337 152.309" stroke="#D9D9D9" stroke-width="4.58333" stroke-linecap="round" stroke-linejoin="round" stroke-miterlimit="10" fill="none" fill-rule="evenodd" transform="matrix(-1 0 0 1 1039.84 735.5)"/><path d="M1039.84 1040.81 929.5 888.5" stroke="#D9D9D9" stroke-width="4.58333" stroke-linecap="round" stroke-linejoin="round" stroke-miterlimit="10" fill="none" fill-rule="evenodd"/><path d="M1039.84 1193.12 929.5 888.5" stroke="#D9D9D9" stroke-width="4.58333" stroke-linecap="round" stroke-linejoin="round" stroke-miterlimit="10" fill="none" fill-rule="evenodd"/><path d="M0 0 110.337 304.617" stroke="#D9D9D9" stroke-width="4.58333" stroke-linecap="round" stroke-linejoin="round" stroke-miterlimit="10" fill="none" fill-rule="evenodd" transform="matrix(1 0 0 -1 929.5 1040.12)"/><path d="M0 0 110.337 456.925" stroke="#D9D9D9" stroke-width="4.58333" stroke-linecap="round" stroke-linejoin="round" stroke-miterlimit="10" fill="none" fill-rule="evenodd" transform="matrix(1 0 0 -1 929.5 1040.43)"/><path d="M1390.5 583.5 1500.84 888.117" stroke="#D9D9D9" stroke-width="4.58333" stroke-linecap="round" stroke-linejoin="round" stroke-miterlimit="10" fill="none" fill-rule="evenodd"/><text fill="#70AD47" font-family="Arial,Arial_MSFontService,sans-serif" font-weight="400" font-size="64" transform="matrix(1 0 0 1 813.962 590)">input</text><text fill="#5B9BD5" font-family="Arial,Arial_MSFontService,sans-serif" font-weight="400" font-size="64" transform="matrix(1 0 0 1 1116.98 500)">hidden</text><text fill="#ED7D31" font-family="Arial,Arial_MSFontService,sans-serif" font-weight="400" font-size="64" transform="matrix(1 0 0 1 1461.05 591)">output</text><text fill="#595959" font-family="Arial,Arial_MSFontService,sans-serif" font-weight="700" font-size="73" transform="matrix(1 0 0 1 886.675 354)">compute / __call__</text><path d="M0 0 81.1221 0.000360892" stroke="#D9D9D9" stroke-width="4.58333" stroke-linecap="round" stroke-linejoin="round" stroke-miterlimit="10" fill="none" fill-rule="evenodd" transform="matrix(-1 0 0 1 809.622 735.5)"/><path d="M809.622 888.5 728.5 888.5" stroke="#D9D9D9" stroke-width="4.58333" stroke-linecap="round" stroke-linejoin="round" stroke-miterlimit="10" fill="none" fill-rule="evenodd"/><path d="M0 0 81.1221 0.000360892" stroke="#D9D9D9" stroke-width="4.58333" stroke-linecap="round" stroke-linejoin="round" stroke-miterlimit="10" fill="none" fill-rule="evenodd" transform="matrix(-1 0 0 1 809.622 1040.5)"/><path d="M0 0 81.1214 0.000360892" stroke="#D9D9D9" stroke-width="4.58333" stroke-linecap="round" stroke-linejoin="round" stroke-miterlimit="10" fill="none" fill-rule="evenodd" transform="matrix(-1 0 0 1 1701.62 1040.5)"/><path d="M0 0 81.1214 0.000360892" stroke="#D9D9D9" stroke-width="4.58333" stroke-linecap="round" stroke-linejoin="round" stroke-miterlimit="10" fill="none" fill-rule="evenodd" transform="matrix(-1 0 0 1 1701.62 888.5)"/><path d="M0 0 81.1214 0.000360892" stroke="#D9D9D9" stroke-width="4.58333" stroke-linecap="round" stroke-linejoin="round" stroke-miterlimit="10" fill="none" fill-rule="evenodd" transform="matrix(-1 0 0 1 1701.62 735.5)"/><rect x="765" y="400" width="900" height="871" stroke="#BFBFBF" stroke-width="10.3125" stroke-linecap="square" stroke-miterlimit="8" stroke-dasharray="30.9375 10.3125" fill="none"/><text fill="#70AD47" font-family="Arial,Arial_MSFontService,sans-serif" font-weight="700" font-size="64" transform="matrix(1 0 0 1 437.658 868)">inputs</text><text fill="#70AD47" font-family="Arial,Arial_MSFontService,sans-serif" font-weight="700" font-size="64" transform="matrix(1 0 0 1 436.237 945)">(</text><path d="M478.528 917.045C476.778 917.045 475.263 917.894 473.982 919.592 472.7 921.29 471.596 923.915 470.669 927.467 469.742 931.019 469.278 934.097 469.278 936.701 469.278 938.659 469.596 940.123 470.232 941.092 470.867 942.061 471.872 942.545 473.247 942.545 475.018 942.545 476.554 941.686 477.857 939.967 479.159 938.248 480.247 935.649 481.122 932.17 481.997 928.691 482.435 925.67 482.435 923.107 482.435 921.024 482.117 919.493 481.482 918.514 480.846 917.534 479.862 917.045 478.528 917.045ZM479.247 913.795C481.831 913.795 483.997 914.269 485.747 915.217 487.497 916.165 488.794 917.482 489.638 919.17 490.482 920.857 490.903 922.816 490.903 925.045 490.903 927.795 490.445 930.555 489.528 933.326 488.612 936.097 487.346 938.42 485.732 940.295 484.117 942.17 482.206 943.555 479.997 944.451 477.789 945.347 475.289 945.795 472.497 945.795 470.206 945.795 468.19 945.383 466.45 944.561 464.711 943.738 463.346 942.488 462.357 940.811 461.367 939.133 460.872 937.087 460.872 934.67 460.872 932.212 461.258 929.633 462.028 926.936 462.799 924.238 463.997 921.863 465.622 919.811 467.247 917.758 469.211 916.243 471.513 915.264 473.815 914.284 476.393 913.795 479.247 913.795Z" fill="#70AD47" fill-rule="evenodd"/><text fill="#000000" fill-opacity="0" font-family="Arial,Arial_MSFontService,sans-serif" font-size="32" x="460.872" y="941.795">𝒐</text><path d="M503.946 929.877 509.454 929.877 508.122 935.615 513.699 935.615 513.08 938.483 507.457 938.483 505.231 947.663C504.848 949.239 504.585 950.436 504.439 951.255 504.294 952.073 504.221 952.765 504.221 953.332 504.221 954.051 504.351 954.575 504.611 954.904 504.871 955.232 505.254 955.397 505.759 955.397 506.447 955.397 507.155 955.152 507.882 954.663 508.608 954.173 509.392 953.416 510.234 952.391L512.001 954.204C510.456 955.902 509.037 957.084 507.744 957.749 506.451 958.415 504.925 958.748 503.165 958.748 501.421 958.748 500.083 958.3 499.149 957.405 498.216 956.51 497.749 955.275 497.749 953.699 497.749 952.98 497.803 952.295 497.91 951.645 498.017 950.995 498.239 949.927 498.576 948.443L500.939 938.483 497.359 938.483 497.795 936.625C498.866 936.625 499.677 936.525 500.228 936.326 500.779 936.127 501.242 935.829 501.616 935.431 501.991 935.033 502.355 934.429 502.706 933.618 503.058 932.807 503.471 931.56 503.946 929.877Z" fill="#70AD47" fill-rule="evenodd"/><text fill="#000000" fill-opacity="0" font-family="Arial,Arial_MSFontService,sans-serif" font-size="28.8701" x="497.359" y="955.139">𝒕</text><path d="M535.322 938.045 540.791 938.045C541.083 939.503 541.228 940.941 541.228 942.357 541.228 943.816 540.978 945.149 540.478 946.357 539.978 947.566 539.182 948.769 538.088 949.967 536.994 951.165 535.489 952.482 533.572 953.92L531.885 952.014C532.947 951.014 533.718 950.113 534.197 949.311 534.676 948.508 535.02 947.597 535.228 946.576 535.437 945.555 535.541 944.274 535.541 942.732 535.541 941.149 535.468 939.587 535.322 938.045Z" fill="#70AD47" fill-rule="evenodd"/><text fill="#000000" fill-opacity="0" font-family="Arial,Arial_MSFontService,sans-serif" font-size="15.875" x="531.885" y="951.936">,</text><path d="M574.858 913.795C576.462 913.795 578.186 913.925 580.029 914.186 581.873 914.446 583.556 914.795 585.076 915.232L583.451 922.701 579.483 922.701C579.295 920.764 578.8 919.337 577.998 918.42 577.196 917.503 576.045 917.045 574.545 917.045 573.149 917.045 572.029 917.404 571.186 918.123 570.342 918.842 569.92 919.816 569.92 921.045 569.92 922.128 570.274 923.076 570.983 923.889 571.691 924.701 573.066 925.722 575.108 926.951 577.316 928.264 578.899 929.618 579.858 931.014 580.816 932.409 581.295 934.045 581.295 935.92 581.295 938.045 580.727 939.857 579.592 941.357 578.457 942.857 576.904 943.972 574.936 944.701 572.967 945.43 570.722 945.795 568.201 945.795 564.16 945.795 560.285 945.295 556.576 944.295L558.326 936.545 562.295 936.545C562.399 938.42 562.884 939.889 563.748 940.951 564.613 942.014 565.941 942.545 567.733 942.545 569.378 942.545 570.649 942.144 571.545 941.342 572.441 940.54 572.889 939.409 572.889 937.951 572.889 937.076 572.743 936.337 572.451 935.732 572.16 935.128 571.681 934.54 571.014 933.967 570.347 933.394 569.264 932.649 567.764 931.732 565.681 930.482 564.165 929.186 563.217 927.842 562.269 926.498 561.795 924.993 561.795 923.326 561.795 920.264 562.941 917.909 565.233 916.264 567.524 914.618 570.733 913.795 574.858 913.795Z" fill="#70AD47" fill-rule="evenodd"/><text fill="#000000" fill-opacity="0" font-family="Arial,Arial_MSFontService,sans-serif" font-size="32" x="556.576" y="941.795">𝒔</text><path d="M596.369 929.877 601.876 929.877 600.545 935.615 606.122 935.615 605.502 938.483 599.88 938.483 597.654 947.663C597.271 949.239 597.007 950.436 596.862 951.255 596.717 952.073 596.644 952.765 596.644 953.332 596.644 954.051 596.774 954.575 597.034 954.904 597.294 955.232 597.677 955.397 598.182 955.397 598.87 955.397 599.578 955.152 600.304 954.663 601.031 954.173 601.815 953.416 602.657 952.391L604.424 954.204C602.879 955.902 601.46 957.084 600.167 957.749 598.874 958.415 597.348 958.748 595.588 958.748 593.844 958.748 592.506 958.3 591.572 957.405 590.639 956.51 590.172 955.275 590.172 953.699 590.172 952.98 590.226 952.295 590.333 951.645 590.44 950.995 590.662 949.927 590.999 948.443L593.362 938.483 589.782 938.483 590.218 936.625C591.289 936.625 592.1 936.525 592.651 936.326 593.202 936.127 593.664 935.829 594.039 935.431 594.414 935.033 594.778 934.429 595.129 933.618 595.481 932.807 595.894 931.56 596.369 929.877Z" fill="#70AD47" fill-rule="evenodd"/><text fill="#000000" fill-opacity="0" font-family="Arial,Arial_MSFontService,sans-serif" font-size="28.8701" x="589.782" y="955.139">𝒕</text><text fill="#70AD47" font-family="Arial,Arial_MSFontService,sans-serif" font-weight="700" font-size="64" transform="matrix(1 0 0 1 609.235 945)">)</text><path d="M1733 705C1745.15 705 1755 706.642 1755 708.666L1755 884.334C1755 886.359 1764.85 888 1777 888 1764.85 888 1755 889.642 1755 891.667L1755 1067.33C1755 1069.36 1745.15 1071 1733 1071" stroke="#ED7D31" stroke-width="2.29167" stroke-miterlimit="8" fill="none" fill-rule="evenodd"/><path d="M1841 888C1841 880.82 1846.82 875 1854 875 1861.18 875 1867 880.82 1867 888 1867 895.18 1861.18 901 1854 901 1846.82 901 1841 895.18 1841 888Z" fill="#ED7D31" fill-rule="evenodd"/><path d="M1985 759C1985 751.82 1990.82 746 1998 746 2005.18 746 2011 751.82 2011 759 2011 766.18 2005.18 772 1998 772 1990.82 772 1985 766.18 1985 759Z" fill="#C00000" fill-rule="evenodd"/><path d="M1981 1016.5C1981 1009.04 1987.04 1003 1994.5 1003 2001.96 1003 2008 1009.04 2008 1016.5 2008 1023.96 2001.96 1030 1994.5 1030 1987.04 1030 1981 1023.96 1981 1016.5Z" fill="#ED7D31" fill-rule="evenodd"/><path d="M1984.52 1006.9 1863 897" stroke="#ED7D31" stroke-width="10.3125" stroke-linecap="round" stroke-linejoin="round" stroke-miterlimit="10" fill="none" fill-rule="evenodd"/><path d="M0 0 35.1538 0.000360892" stroke="#ED7D31" stroke-width="4.58333" stroke-linecap="round" stroke-linejoin="round" stroke-miterlimit="10" fill="none" fill-rule="evenodd" transform="matrix(-1 0 0 1 1841.65 888.5)"/><path d="M0 0 30.3752 0.000360892" stroke="#C00000" stroke-width="4.58333" stroke-linecap="round" stroke-linejoin="round" stroke-miterlimit="10" fill="none" fill-rule="evenodd" transform="matrix(-1 0 0 1 2041.88 759.5)"/><path d="M0 0 34.2415 0.000360892" stroke="#ED7D31" stroke-width="4.58333" stroke-linecap="round" stroke-linejoin="round" stroke-miterlimit="10" fill="none" fill-rule="evenodd" transform="matrix(-1 0 0 1 2042.74 1016.5)"/><path d="M1924 965 1924 1233.34" stroke="#ED7D31" stroke-width="10.3125" stroke-linecap="round" stroke-linejoin="round" stroke-miterlimit="10" fill="none" fill-rule="evenodd"/><path d="M1911 952C1911 944.82 1916.82 939 1924 939 1931.18 939 1937 944.82 1937 952 1937 959.18 1931.18 965 1924 965 1916.82 965 1911 959.18 1911 952Z" fill="#ED7D31" fill-rule="evenodd"/><path d="M1880 1277.5C1880 1253.48 1899.7 1234 1924 1234 1948.3 1234 1968 1253.48 1968 1277.5 1968 1301.52 1948.3 1321 1924 1321 1899.7 1321 1880 1301.52 1880 1277.5Z" stroke="#ED7D31" stroke-width="10.3125" stroke-miterlimit="8" fill="none" fill-rule="evenodd"/><path d="M1898 1277.5C1898 1262.86 1909.86 1251 1924.5 1251 1939.14 1251 1951 1262.86 1951 1277.5 1951 1292.14 1939.14 1304 1924.5 1304 1909.86 1304 1898 1292.14 1898 1277.5Z" fill="#ED7D31" fill-rule="evenodd"/><text fill="#7F6000" font-family="Arial,Arial_MSFontService,sans-serif" font-weight="700" font-size="64" transform="matrix(1 0 0 1 1561.87 1410)">unnormalized_log_prob</text><text fill="#ED7D31" font-family="Arial,Arial_MSFontService,sans-serif" font-weight="400" font-size="64" transform="matrix(1 0 0 1 2105.84 1003)">log probabilities</text><text fill="#ED7D31" font-family="Arial,Arial_MSFontService,sans-serif" font-weight="400" font-size="64" transform="matrix(1 0 0 1 2248.2 1080)">(logit)</text><text fill="#C00000" font-family="Arial,Arial_MSFontService,sans-serif" font-weight="400" font-size="64" transform="matrix(1 0 0 1 2152.74 743)">probabilities</text><text fill="#C00000" font-family="Arial,Arial_MSFontService,sans-serif" font-weight="400" font-size="64" transform="matrix(1 0 0 1 2238.38 820)">(prob)</text><path d="M2570 667C2582.15 667 2592 668.641 2592 670.666L2592 884.833C2592 886.858 2601.85 888.5 2614 888.5 2601.85 888.5 2592 890.141 2592 892.166L2592 1106.33C2592 1108.36 2582.15 1110 2570 1110" stroke="#595959" stroke-width="2.29167" stroke-miterlimit="8" fill="none" fill-rule="evenodd"/><text fill="#595959" font-family="Arial,Arial_MSFontService,sans-serif" font-weight="400" font-size="64" transform="matrix(1 0 0 1 2717.76 685)">categorical</text><text fill="#595959" font-family="Arial,Arial_MSFontService,sans-serif" font-weight="400" font-size="64" transform="matrix(1 0 0 1 2717.76 762)">distribution</text><rect x="2737" y="934" width="55" height="154" fill="#595959"/><rect x="2792" y="976" width="54" height="112" fill="#7F7F7F"/><rect x="2846" y="883" width="55" height="205" fill="#595959"/><rect x="2901" y="917" width="54" height="171" fill="#7F7F7F"/><rect x="2955" y="1008" width="55" height="78" fill="#595959"/><path d="M0 0 338.815 0.000360892" stroke="#595959" stroke-width="6.875" stroke-linecap="round" stroke-linejoin="round" stroke-miterlimit="10" fill="none" fill-rule="evenodd" transform="matrix(-1 0 0 1 3042.31 1089.5)"/><text fill="#595959" font-family="Arial,Arial_MSFontService,sans-serif" font-weight="400" font-size="48" transform="matrix(1 0 0 1 2758.36 1150)">1  2  3 … n</text><text fill="#595959" font-family="Cambria Math,Cambria Math_MSFontService,sans-serif" font-weight="400" font-size="48" transform="matrix(1 0 0 1 2708.59 876)">𝑃</text><text fill="#595959" font-family="Cambria Math,Cambria Math_MSFontService,sans-serif" font-weight="400" font-size="48" transform="matrix(1 0 0 1 2739.55 876)">(</text><text fill="#595959" font-family="Cambria Math,Cambria Math_MSFontService,sans-serif" font-weight="400" font-size="48" transform="matrix(1 0 0 1 2759.61 876)">𝑥</text><text fill="#595959" font-family="Cambria Math,Cambria Math_MSFontService,sans-serif" font-weight="400" font-size="48" transform="matrix(1 0 0 1 2786.85 876)">)</text><path d="M3123 667C3135.43 667 3145.5 668.679 3145.5 670.75L3145.5 884.75C3145.5 886.821 3155.57 888.5 3168 888.5 3155.57 888.5 3145.5 890.179 3145.5 892.25L3145.5 1106.25C3145.5 1108.32 3135.43 1110 3123 1110" stroke="#595959" stroke-width="2.29167" stroke-miterlimit="8" fill="none" fill-rule="evenodd"/><text fill="#7030A0" font-family="Arial,Arial_MSFontService,sans-serif" font-weight="700" font-size="64" transform="matrix(1 0 0 1 3329.52 815)">actions (</text><path d="M3613.85 786.777C3611.92 786.777 3610.2 787.751 3608.7 789.699 3607.2 791.647 3605.99 794.266 3605.07 797.558 3604.16 800.85 3603.7 803.798 3603.7 806.402 3603.7 807.923 3603.92 809.058 3604.37 809.808 3604.82 810.558 3605.51 810.933 3606.45 810.933 3607.82 810.933 3609.22 810.261 3610.65 808.917 3612.08 807.574 3613.23 805.996 3614.1 804.183 3614.98 802.371 3615.76 799.891 3616.45 796.746L3616.7 795.589C3617.03 794.048 3617.2 792.506 3617.2 790.964 3617.2 789.589 3616.94 788.548 3616.42 787.839 3615.9 787.131 3615.04 786.777 3613.85 786.777ZM3613.48 783.527C3616.58 783.527 3619.23 784.277 3621.42 785.777L3624.45 783.527 3627.95 784.027 3622.89 805.277C3622.57 806.589 3622.42 807.777 3622.42 808.839 3622.42 809.527 3622.53 810.058 3622.76 810.433 3622.99 810.808 3623.39 810.996 3623.95 810.996 3624.59 810.996 3625.29 810.704 3626.04 810.121 3626.79 809.537 3627.67 808.673 3628.67 807.527L3630.92 809.777C3628.73 811.964 3626.84 813.47 3625.26 814.292 3623.68 815.115 3622.01 815.527 3620.26 815.527 3618.51 815.527 3617.13 815.042 3616.1 814.074 3615.08 813.105 3614.57 811.829 3614.57 810.246 3614.57 809.725 3614.64 809.225 3614.76 808.746L3614.32 808.683C3612.8 810.475 3611.5 811.824 3610.4 812.73 3609.31 813.636 3608.15 814.329 3606.92 814.808 3605.69 815.287 3604.32 815.527 3602.82 815.527 3600.32 815.527 3598.43 814.678 3597.14 812.98 3595.84 811.282 3595.2 808.808 3595.2 805.558 3595.2 802.746 3595.6 799.954 3596.42 797.183 3597.23 794.412 3598.4 792.022 3599.92 790.011 3601.44 788.001 3603.35 786.417 3605.65 785.261 3607.95 784.105 3610.56 783.527 3613.48 783.527Z" fill="#7030A0" fill-rule="evenodd"/><text fill="#000000" fill-opacity="0" font-family="Arial,Arial_MSFontService,sans-serif" font-size="32" x="3595.2" y="811.527">𝒂</text><path d="M3641.29 799.609 3646.8 799.609 3645.47 805.347 3651.05 805.347 3650.43 808.215 3644.8 808.215 3642.58 817.395C3642.2 818.971 3641.93 820.168 3641.79 820.987 3641.64 821.805 3641.57 822.497 3641.57 823.063 3641.57 823.783 3641.7 824.307 3641.96 824.635 3642.22 824.964 3642.6 825.129 3643.11 825.129 3643.79 825.129 3644.5 824.884 3645.23 824.395 3645.96 823.905 3646.74 823.148 3647.58 822.123L3649.35 823.936C3647.8 825.634 3646.38 826.816 3645.09 827.481 3643.8 828.147 3642.27 828.479 3640.51 828.479 3638.77 828.479 3637.43 828.032 3636.5 827.137 3635.56 826.242 3635.1 825.007 3635.1 823.431 3635.1 822.712 3635.15 822.027 3635.26 821.377 3635.36 820.727 3635.59 819.659 3635.92 818.175L3638.29 808.215 3634.71 808.215 3635.14 806.356C3636.21 806.356 3637.02 806.257 3637.57 806.058 3638.13 805.859 3638.59 805.561 3638.96 805.163 3639.34 804.765 3639.7 804.161 3640.05 803.35 3640.41 802.539 3640.82 801.292 3641.29 799.609Z" fill="#7030A0" fill-rule="evenodd"/><text fill="#000000" fill-opacity="0" font-family="Arial,Arial_MSFontService,sans-serif" font-size="28.8701" x="3634.71" y="824.871">𝒕</text><text fill="#7030A0" font-family="Arial,Arial_MSFontService,sans-serif" font-weight="700" font-size="64" transform="matrix(1 0 0 1 3654.16 815)">)</text><rect x="729" y="208" width="2473" height="1243" stroke="#BFBFBF" stroke-width="10.3125" stroke-linecap="square" stroke-miterlimit="8" stroke-dasharray="30.9375 10.3125" fill="none"/><text fill="#595959" font-family="Arial,Arial_MSFontService,sans-serif" font-weight="700" font-size="83" transform="matrix(1 0 0 1 1909.83 175)">act</text><text fill="#7030A0" font-family="Arial,Arial_MSFontService,sans-serif" font-weight="700" font-size="64" transform="matrix(1 0 0 1 3385.57 1006)">outputs</text><text fill="#7030A0" font-family="Arial,Arial_MSFontService,sans-serif" font-weight="700" font-size="64" transform="matrix(1 0 0 1 3240.33 1083)">(</text><text fill="#C00000" font-family="Arial,Arial_MSFontService,sans-serif" font-weight="400" font-size="64" transform="matrix(1 0 0 1 3261.53 1083)">prob</text><text fill="#7030A0" font-family="Arial,Arial_MSFontService,sans-serif" font-weight="400" font-size="64" transform="matrix(1 0 0 1 3389.29 1083)">/</text><text fill="#ED7D31" font-family="Arial,Arial_MSFontService,sans-serif" font-weight="400" font-size="64" transform="matrix(1 0 0 1 3407.05 1083)">logit</text><text fill="#7030A0" font-family="Arial,Arial_MSFontService,sans-serif" font-weight="700" font-size="64" transform="matrix(1 0 0 1 3524.5 1083)">,</text><text fill="#7030A0" font-family="Cambria Math,Cambria Math_MSFontService,sans-serif" font-weight="400" font-size="64" transform="matrix(1 0 0 1 3560.02 1083)">𝑙</text><text fill="#7030A0" font-family="Cambria Math,Cambria Math_MSFontService,sans-serif" font-weight="400" font-size="64" transform="matrix(1 0 0 1 3580.07 1083)">𝑜</text><text fill="#7030A0" font-family="Cambria Math,Cambria Math_MSFontService,sans-serif" font-weight="400" font-size="64" transform="matrix(1 0 0 1 3614.44 1083)">𝑔</text><text fill="#7030A0" font-family="Cambria Math,Cambria Math_MSFontService,sans-serif" font-weight="400" font-size="64" transform="matrix(1 0 0 1 3653.97 1083)">(P</text><text fill="#7030A0" font-family="Cambria Math,Cambria Math_MSFontService,sans-serif" font-weight="400" font-size="64" transform="matrix(1 0 0 1 3717 1083)">)</text><text fill="#7030A0" font-family="Arial,Arial_MSFontService,sans-serif" font-weight="700" font-size="64" transform="matrix(1 0 0 1 3743.35 1083)">)</text></g></svg>
