<svg width="3931" height="1394" xmlns="http://www.w3.org/2000/svg" xmlns:xlink="http://www.w3.org/1999/xlink" xml:space="preserve" overflow="hidden"><g transform="translate(-397 -70)"><path d="M1056 583C1056 558.699 1075.7 539 1100 539 1124.3 539 1144 558.699 1144 583 1144 607.301 1124.3 627 1100 627 1075.7 627 1056 607.301 1056 583Z" fill="#5B9BD5" fill-rule="evenodd"/><path d="M1056 735.5C1056 711.476 1075.7 692 1100 692 1124.3 692 1144 711.476 1144 735.5 1144 759.524 1124.3 779 1100 779 1075.7 779 1056 759.524 1056 735.5Z" fill="#5B9BD5" fill-rule="evenodd"/><path d="M1056 888C1056 863.699 1075.7 844 1100 844 1124.3 844 1144 863.699 1144 888 1144 912.3 1124.3 932 1100 932 1075.7 932 1056 912.3 1056 888Z" fill="#5B9BD5" fill-rule="evenodd"/><path d="M1056 1041C1056 1016.7 1075.7 997 1100 997 1124.3 997 1144 1016.7 1144 1041 1144 1065.3 1124.3 1085 1100 1085 1075.7 1085 1056 1065.3 1056 1041Z" fill="#5B9BD5" fill-rule="evenodd"/><path d="M1056 1193C1056 1168.7 1075.7 1149 1100 1149 1124.3 1149 1144 1168.7 1144 1193 1144 1217.3 1124.3 1237 1100 1237 1075.7 1237 1056 1217.3 1056 1193Z" fill="#5B9BD5" fill-rule="evenodd"/><path d="M1286 583C1286 558.699 1305.7 539 1330 539 1354.3 539 1374 558.699 1374 583 1374 607.301 1354.3 627 1330 627 1305.7 627 1286 607.301 1286 583Z" fill="#5B9BD5" fill-rule="evenodd"/><path d="M1286 735.5C1286 711.476 1305.7 692 1330 692 1354.3 692 1374 711.476 1374 735.5 1374 759.524 1354.3 779 1330 779 1305.7 779 1286 759.524 1286 735.5Z" fill="#5B9BD5" fill-rule="evenodd"/><path d="M1286 888C1286 863.699 1305.7 844 1330 844 1354.3 844 1374 863.699 1374 888 1374 912.3 1354.3 932 1330 932 1305.7 932 1286 912.3 1286 888Z" fill="#5B9BD5" fill-rule="evenodd"/><path d="M1286 1041C1286 1016.7 1305.7 997 1330 997 1354.3 997 1374 1016.7 1374 1041 1374 1065.3 1354.3 1085 1330 1085 1305.7 1085 1286 1065.3 1286 1041Z" fill="#5B9BD5" fill-rule="evenodd"/><path d="M1286 1193C1286 1168.7 1305.7 1149 1330 1149 1354.3 1149 1374 1168.7 1374 1193 1374 1217.3 1354.3 1237 1330 1237 1305.7 1237 1286 1217.3 1286 1193Z" fill="#5B9BD5" fill-rule="evenodd"/><path d="M1516 735.5C1516 711.476 1535.7 692 1560 692 1584.3 692 1604 711.476 1604 735.5 1604 759.524 1584.3 779 1560 779 1535.7 779 1516 759.524 1516 735.5Z" fill="#ED7D31" fill-rule="evenodd"/><path d="M1516 888C1516 863.699 1535.7 844 1560 844 1584.3 844 1604 863.699 1604 888 1604 912.3 1584.3 932 1560 932 1535.7 932 1516 912.3 1516 888Z" fill="#ED7D31" fill-rule="evenodd"/><path d="M1516 1041C1516 1016.7 1535.7 997 1560 997 1584.3 997 1604 1016.7 1604 1041 1604 1065.3 1584.3 1085 1560 1085 1535.7 1085 1516 1065.3 1516 1041Z" fill="#ED7D31" fill-rule="evenodd"/><path d="M826 735.5C826 711.476 845.7 692 870 692 894.301 692 914 711.476 914 735.5 914 759.524 894.301 779 870 779 845.7 779 826 759.524 826 735.5Z" fill="#70AD47" fill-rule="evenodd"/><path d="M826 888C826 863.699 845.7 844 870 844 894.301 844 914 863.699 914 888 914 912.3 894.301 932 870 932 845.7 932 826 912.3 826 888Z" fill="#70AD47" fill-rule="evenodd"/><path d="M826 1041C826 1016.7 845.7 997 870 997 894.301 997 914 1016.7 914 1041 914 1065.3 894.301 1085 870 1085 845.7 1085 826 1065.3 826 1041Z" fill="#70AD47" fill-rule="evenodd"/><path d="M1390.5 583.5 1500.84 735.808" stroke="#D9D9D9" stroke-width="4.58333" stroke-linecap="round" stroke-linejoin="round" stroke-miterlimit="10" fill="none" fill-rule="evenodd"/><path d="M1390.5 735.5 1500.84 735.5" stroke="#D9D9D9" stroke-width="4.58333" stroke-linecap="round" stroke-linejoin="round" stroke-miterlimit="10" fill="none" fill-rule="evenodd"/><path d="M0 0 110.337 152.309" stroke="#D9D9D9" stroke-width="4.58333" stroke-linecap="round" stroke-linejoin="round" stroke-miterlimit="10" fill="none" fill-rule="evenodd" transform="matrix(1 0 0 -1 1390.5 887.809)"/><path d="M0 0 110.337 304.617" stroke="#D9D9D9" stroke-width="4.58333" stroke-linecap="round" stroke-linejoin="round" stroke-miterlimit="10" fill="none" fill-rule="evenodd" transform="matrix(1 0 0 -1 1390.5 1040.12)"/><path d="M0 0 110.337 456.925" stroke="#D9D9D9" stroke-width="4.58333" stroke-linecap="round" stroke-linejoin="round" stroke-miterlimit="10" fill="none" fill-rule="evenodd" transform="matrix(1 0 0 -1 1390.5 1192.43)"/><path d="M1500.84 887.809 1390.5 735.5" stroke="#D9D9D9" stroke-width="4.58333" stroke-linecap="round" stroke-linejoin="round" stroke-miterlimit="10" fill="none" fill-rule="evenodd"/><path d="M1390.5 888.5 1500.84 888.5" stroke="#D9D9D9" stroke-width="4.58333" stroke-linecap="round" stroke-linejoin="round" stroke-miterlimit="10" fill="none" fill-rule="evenodd"/><path d="M0 0 110.337 152.309" stroke="#D9D9D9" stroke-width="4.58333" stroke-linecap="round" stroke-linejoin="round" stroke-miterlimit="10" fill="none" fill-rule="evenodd" transform="matrix(1 0 0 -1 1390.5 1040.81)"/><path d="M0 0 110.337 304.617" stroke="#D9D9D9" stroke-width="4.58333" stroke-linecap="round" stroke-linejoin="round" stroke-miterlimit="10" fill="none" fill-rule="evenodd" transform="matrix(1 0 0 -1 1390.5 1193.12)"/><path d="M0 0 110.337 152.309" stroke="#D9D9D9" stroke-width="4.58333" stroke-linecap="round" stroke-linejoin="round" stroke-miterlimit="10" fill="none" fill-rule="evenodd" transform="matrix(1 0 0 -1 1390.5 1192.81)"/><path d="M1390.5 1040.5 1500.84 1040.5" stroke="#D9D9D9" stroke-width="4.58333" stroke-linecap="round" stroke-linejoin="round" stroke-miterlimit="10" fill="none" fill-rule="evenodd"/><path d="M1390.5 888.5 1500.84 1040.81" stroke="#D9D9D9" stroke-width="4.58333" stroke-linecap="round" stroke-linejoin="round" stroke-miterlimit="10" fill="none" fill-rule="evenodd"/><path d="M1390.5 735.5 1500.84 1040.12" stroke="#D9D9D9" stroke-width="4.58333" stroke-linecap="round" stroke-linejoin="round" stroke-miterlimit="10" fill="none" fill-rule="evenodd"/><path d="M1390.5 583.5 1500.84 1040.43" stroke="#D9D9D9" stroke-width="4.58333" stroke-linecap="round" stroke-linejoin="round" stroke-miterlimit="10" fill="none" fill-rule="evenodd"/><path d="M1160.5 583.5 1270.84 583.5" stroke="#D9D9D9" stroke-width="4.58333" stroke-linecap="round" stroke-linejoin="round" stroke-miterlimit="10" fill="none" fill-rule="evenodd"/><path d="M0 0 110.337 152.309" stroke="#D9D9D9" stroke-width="4.58333" stroke-linecap="round" stroke-linejoin="round" stroke-miterlimit="10" fill="none" fill-rule="evenodd" transform="matrix(1 0 0 -1 1160.5 735.808)"/><path d="M0 0 110.337 304.617" stroke="#D9D9D9" stroke-width="4.58333" stroke-linecap="round" stroke-linejoin="round" stroke-miterlimit="10" fill="none" fill-rule="evenodd" transform="matrix(1 0 0 -1 1160.5 888.117)"/><path d="M0 0 110.337 456.925" stroke="#D9D9D9" stroke-width="4.58333" stroke-linecap="round" stroke-linejoin="round" stroke-miterlimit="10" fill="none" fill-rule="evenodd" transform="matrix(1 0 0 -1 1160.5 1040.43)"/><path d="M0 0 110.337 609.234" stroke="#D9D9D9" stroke-width="4.58333" stroke-linecap="round" stroke-linejoin="round" stroke-miterlimit="10" fill="none" fill-rule="evenodd" transform="matrix(1 0 0 -1 1160.5 1192.73)"/><path d="M1160.5 583.5 1270.84 735.808" stroke="#D9D9D9" stroke-width="4.58333" stroke-linecap="round" stroke-linejoin="round" stroke-miterlimit="10" fill="none" fill-rule="evenodd"/><path d="M1160.5 735.5 1270.84 735.5" stroke="#D9D9D9" stroke-width="4.58333" stroke-linecap="round" stroke-linejoin="round" stroke-miterlimit="10" fill="none" fill-rule="evenodd"/><path d="M0 0 110.337 152.309" stroke="#D9D9D9" stroke-width="4.58333" stroke-linecap="round" stroke-linejoin="round" stroke-miterlimit="10" fill="none" fill-rule="evenodd" transform="matrix(1 0 0 -1 1160.5 887.809)"/><path d="M0 0 110.337 304.617" stroke="#D9D9D9" stroke-width="4.58333" stroke-linecap="round" stroke-linejoin="round" stroke-miterlimit="10" fill="none" fill-rule="evenodd" transform="matrix(1 0 0 -1 1160.5 1040.12)"/><path d="M0 0 110.337 456.925" stroke="#D9D9D9" stroke-width="4.58333" stroke-linecap="round" stroke-linejoin="round" stroke-miterlimit="10" fill="none" fill-rule="evenodd" transform="matrix(1 0 0 -1 1160.5 1192.43)"/><path d="M1160.5 583.5 1270.84 888.117" stroke="#D9D9D9" stroke-width="4.58333" stroke-linecap="round" stroke-linejoin="round" stroke-miterlimit="10" fill="none" fill-rule="evenodd"/><path d="M1160.5 735.5 1270.84 887.809" stroke="#D9D9D9" stroke-width="4.58333" stroke-linecap="round" stroke-linejoin="round" stroke-miterlimit="10" fill="none" fill-rule="evenodd"/><path d="M1160.5 888.5 1270.84 888.5" stroke="#D9D9D9" stroke-width="4.58333" stroke-linecap="round" stroke-linejoin="round" stroke-miterlimit="10" fill="none" fill-rule="evenodd"/><path d="M0 0 110.337 152.309" stroke="#D9D9D9" stroke-width="4.58333" stroke-linecap="round" stroke-linejoin="round" stroke-miterlimit="10" fill="none" fill-rule="evenodd" transform="matrix(1 0 0 -1 1160.5 1040.81)"/><path d="M0 0 110.337 304.617" stroke="#D9D9D9" stroke-width="4.58333" stroke-linecap="round" stroke-linejoin="round" stroke-miterlimit="10" fill="none" fill-rule="evenodd" transform="matrix(1 0 0 -1 1160.5 1193.12)"/><path d="M1160.5 1192.5 1270.84 1192.5" stroke="#D9D9D9" stroke-width="4.58333" stroke-linecap="round" stroke-linejoin="round" stroke-miterlimit="10" fill="none" fill-rule="evenodd"/><path d="M1160.5 1040.5 1270.84 1192.81" stroke="#D9D9D9" stroke-width="4.58333" stroke-linecap="round" stroke-linejoin="round" stroke-miterlimit="10" fill="none" fill-rule="evenodd"/><path d="M1160.5 888.5 1270.84 1193.12" stroke="#D9D9D9" stroke-width="4.58333" stroke-linecap="round" stroke-linejoin="round" stroke-miterlimit="10" fill="none" fill-rule="evenodd"/><path d="M1160.5 735.5 1270.84 1192.43" stroke="#D9D9D9" stroke-width="4.58333" stroke-linecap="round" stroke-linejoin="round" stroke-miterlimit="10" fill="none" fill-rule="evenodd"/><path d="M1160.5 583.5 1270.84 1192.73" stroke="#D9D9D9" stroke-width="4.58333" stroke-linecap="round" stroke-linejoin="round" stroke-miterlimit="10" fill="none" fill-rule="evenodd"/><path d="M0 0 110.337 152.309" stroke="#D9D9D9" stroke-width="4.58333" stroke-linecap="round" stroke-linejoin="round" stroke-miterlimit="10" fill="none" fill-rule="evenodd" transform="matrix(1 0 0 -1 1160.5 1192.81)"/><path d="M1160.5 1040.5 1270.84 1040.5" stroke="#D9D9D9" stroke-width="4.58333" stroke-linecap="round" stroke-linejoin="round" stroke-miterlimit="10" fill="none" fill-rule="evenodd"/><path d="M1160.5 888.5 1270.84 1040.81" stroke="#D9D9D9" stroke-width="4.58333" stroke-linecap="round" stroke-linejoin="round" stroke-miterlimit="10" fill="none" fill-rule="evenodd"/><path d="M1160.5 735.5 1270.84 1040.12" stroke="#D9D9D9" stroke-width="4.58333" stroke-linecap="round" stroke-linejoin="round" stroke-miterlimit="10" fill="none" fill-rule="evenodd"/><path d="M1160.5 583.5 1270.84 1040.43" stroke="#D9D9D9" stroke-width="4.58333" stroke-linecap="round" stroke-linejoin="round" stroke-miterlimit="10" fill="none" fill-rule="evenodd"/><path d="M929.5 1040.5 1039.84 1192.81" stroke="#D9D9D9" stroke-width="4.58333" stroke-linecap="round" stroke-linejoin="round" stroke-miterlimit="10" fill="none" fill-rule="evenodd"/><path d="M0 0 110.337 0.000360892" stroke="#D9D9D9" stroke-width="4.58333" stroke-linecap="round" stroke-linejoin="round" stroke-miterlimit="10" fill="none" fill-rule="evenodd" transform="matrix(-1 0 0 1 1039.84 1040.5)"/><path d="M0 0 110.337 152.309" stroke="#D9D9D9" stroke-width="4.58333" stroke-linecap="round" stroke-linejoin="round" stroke-miterlimit="10" fill="none" fill-rule="evenodd" transform="matrix(-1 0 0 1 1039.84 888.5)"/><path d="M0 0 110.337 0.000360892" stroke="#D9D9D9" stroke-width="4.58333" stroke-linecap="round" stroke-linejoin="round" stroke-miterlimit="10" fill="none" fill-rule="evenodd" transform="matrix(-1 0 0 1 1039.84 888.5)"/><path d="M1039.84 887.809 929.5 735.5" stroke="#D9D9D9" stroke-width="4.58333" stroke-linecap="round" stroke-linejoin="round" stroke-miterlimit="10" fill="none" fill-rule="evenodd"/><path d="M0 0 110.337 152.309" stroke="#D9D9D9" stroke-width="4.58333" stroke-linecap="round" stroke-linejoin="round" stroke-miterlimit="10" fill="none" fill-rule="evenodd" transform="matrix(-1 0 0 1 1039.84 583.5)"/><path d="M0 0 110.337 0.000360892" stroke="#D9D9D9" stroke-width="4.58333" stroke-linecap="round" stroke-linejoin="round" stroke-miterlimit="10" fill="none" fill-rule="evenodd" transform="matrix(-1 0 0 1 1039.84 735.5)"/><path d="M1039.84 1040.12 929.5 735.5" stroke="#D9D9D9" stroke-width="4.58333" stroke-linecap="round" stroke-linejoin="round" stroke-miterlimit="10" fill="none" fill-rule="evenodd"/><path d="M1039.84 1192.43 929.5 735.5" stroke="#D9D9D9" stroke-width="4.58333" stroke-linecap="round" stroke-linejoin="round" stroke-miterlimit="10" fill="none" fill-rule="evenodd"/><path d="M0 0 110.337 304.617" stroke="#D9D9D9" stroke-width="4.58333" stroke-linecap="round" stroke-linejoin="round" stroke-miterlimit="10" fill="none" fill-rule="evenodd" transform="matrix(-1 0 0 1 1039.84 583.5)"/><path d="M0 0 110.337 152.309" stroke="#D9D9D9" stroke-width="4.58333" stroke-linecap="round" stroke-linejoin="round" stroke-miterlimit="10" fill="none" fill-rule="evenodd" transform="matrix(-1 0 0 1 1039.84 735.5)"/><path d="M1039.84 1040.81 929.5 888.5" stroke="#D9D9D9" stroke-width="4.58333" stroke-linecap="round" stroke-linejoin="round" stroke-miterlimit="10" fill="none" fill-rule="evenodd"/><path d="M1039.84 1193.12 929.5 888.5" stroke="#D9D9D9" stroke-width="4.58333" stroke-linecap="round" stroke-linejoin="round" stroke-miterlimit="10" fill="none" fill-rule="evenodd"/><path d="M0 0 110.337 304.617" stroke="#D9D9D9" stroke-width="4.58333" stroke-linecap="round" stroke-linejoin="round" stroke-miterlimit="10" fill="none" fill-rule="evenodd" transform="matrix(1 0 0 -1 929.5 1040.12)"/><path d="M0 0 110.337 456.925" stroke="#D9D9D9" stroke-width="4.58333" stroke-linecap="round" stroke-linejoin="round" stroke-miterlimit="10" fill="none" fill-rule="evenodd" transform="matrix(1 0 0 -1 929.5 1040.43)"/><path d="M1390.5 583.5 1500.84 888.117" stroke="#D9D9D9" stroke-width="4.58333" stroke-linecap="round" stroke-linejoin="round" stroke-miterlimit="10" fill="none" fill-rule="evenodd"/><text fill="#70AD47" font-family="Arial,Arial_MSFontService,sans-serif" font-weight="400" font-size="64" transform="matrix(1 0 0 1 813.962 590)">input</text><text fill="#5B9BD5" font-family="Arial,Arial_MSFontService,sans-serif" font-weight="400" font-size="64" transform="matrix(1 0 0 1 1116.98 500)">hidden</text><text fill="#ED7D31" font-family="Arial,Arial_MSFontService,sans-serif" font-weight="400" font-size="64" transform="matrix(1 0 0 1 1461.05 591)">output</text><path d="M0 0 81.1221 0.000360892" stroke="#D9D9D9" stroke-width="4.58333" stroke-linecap="round" stroke-linejoin="round" stroke-miterlimit="10" fill="none" fill-rule="evenodd" transform="matrix(-1 0 0 1 809.622 735.5)"/><path d="M809.622 888.5 728.5 888.5" stroke="#D9D9D9" stroke-width="4.58333" stroke-linecap="round" stroke-linejoin="round" stroke-miterlimit="10" fill="none" fill-rule="evenodd"/><path d="M0 0 81.1221 0.000360892" stroke="#D9D9D9" stroke-width="4.58333" stroke-linecap="round" stroke-linejoin="round" stroke-miterlimit="10" fill="none" fill-rule="evenodd" transform="matrix(-1 0 0 1 809.622 1040.5)"/><path d="M0 0 81.1214 0.000360892" stroke="#D9D9D9" stroke-width="4.58333" stroke-linecap="round" stroke-linejoin="round" stroke-miterlimit="10" fill="none" fill-rule="evenodd" transform="matrix(-1 0 0 1 1701.62 1040.5)"/><path d="M0 0 81.1214 0.000360892" stroke="#D9D9D9" stroke-width="4.58333" stroke-linecap="round" stroke-linejoin="round" stroke-miterlimit="10" fill="none" fill-rule="evenodd" transform="matrix(-1 0 0 1 1701.62 888.5)"/><path d="M0 0 81.1214 0.000360892" stroke="#D9D9D9" stroke-width="4.58333" stroke-linecap="round" stroke-linejoin="round" stroke-miterlimit="10" fill="none" fill-rule="evenodd" transform="matrix(-1 0 0 1 1701.62 735.5)"/><rect x="765" y="400" width="900" height="871" stroke="#BFBFBF" stroke-width="10.3125" stroke-linecap="square" stroke-miterlimit="8" stroke-dasharray="30.9375 10.3125" fill="none"/><path d="M1733 705C1745.15 705 1755 706.642 1755 708.666L1755 884.334C1755 886.359 1764.85 888 1777 888 1764.85 888 1755 889.642 1755 891.667L1755 1067.33C1755 1069.36 1745.15 1071 1733 1071" stroke="#ED7D31" stroke-width="2.29167" stroke-miterlimit="8" fill="none" fill-rule="evenodd"/><path d="M1841 888C1841 880.82 1846.82 875 1854 875 1861.18 875 1867 880.82 1867 888 1867 895.18 1861.18 901 1854 901 1846.82 901 1841 895.18 1841 888Z" fill="#ED7D31" fill-rule="evenodd"/><path d="M1985 759C1985 751.82 1990.82 746 1998 746 2005.18 746 2011 751.82 2011 759 2011 766.18 2005.18 772 1998 772 1990.82 772 1985 766.18 1985 759Z" fill="#C00000" fill-rule="evenodd"/><path d="M1981 1016.5C1981 1009.04 1987.04 1003 1994.5 1003 2001.96 1003 2008 1009.04 2008 1016.5 2008 1023.96 2001.96 1030 1994.5 1030 1987.04 1030 1981 1023.96 1981 1016.5Z" fill="#ED7D31" fill-rule="evenodd"/><path d="M1984.52 1006.9 1863 897" stroke="#ED7D31" stroke-width="10.3125" stroke-linecap="round" stroke-linejoin="round" stroke-miterlimit="10" fill="none" fill-rule="evenodd"/><path d="M0 0 35.1538 0.000360892" stroke="#ED7D31" stroke-width="4.58333" stroke-linecap="round" stroke-linejoin="round" stroke-miterlimit="10" fill="none" fill-rule="evenodd" transform="matrix(-1 0 0 1 1841.65 888.5)"/><path d="M0 0 30.3752 0.000360892" stroke="#C00000" stroke-width="4.58333" stroke-linecap="round" stroke-linejoin="round" stroke-miterlimit="10" fill="none" fill-rule="evenodd" transform="matrix(-1 0 0 1 2041.88 759.5)"/><path d="M0 0 34.2415 0.000360892" stroke="#ED7D31" stroke-width="4.58333" stroke-linecap="round" stroke-linejoin="round" stroke-miterlimit="10" fill="none" fill-rule="evenodd" transform="matrix(-1 0 0 1 2042.74 1016.5)"/><path d="M1924 965 1924 1233.34" stroke="#ED7D31" stroke-width="10.3125" stroke-linecap="round" stroke-linejoin="round" stroke-miterlimit="10" fill="none" fill-rule="evenodd"/><path d="M1911 952C1911 944.82 1916.82 939 1924 939 1931.18 939 1937 944.82 1937 952 1937 959.18 1931.18 965 1924 965 1916.82 965 1911 959.18 1911 952Z" fill="#ED7D31" fill-rule="evenodd"/><path d="M1880 1277.5C1880 1253.48 1899.7 1234 1924 1234 1948.3 1234 1968 1253.48 1968 1277.5 1968 1301.52 1948.3 1321 1924 1321 1899.7 1321 1880 1301.52 1880 1277.5Z" stroke="#ED7D31" stroke-width="10.3125" stroke-miterlimit="8" fill="none" fill-rule="evenodd"/><path d="M1898 1277.5C1898 1262.86 1909.86 1251 1924.5 1251 1939.14 1251 1951 1262.86 1951 1277.5 1951 1292.14 1939.14 1304 1924.5 1304 1909.86 1304 1898 1292.14 1898 1277.5Z" fill="#ED7D31" fill-rule="evenodd"/><text fill="#7F6000" font-family="Arial,Arial_MSFontService,sans-serif" font-weight="700" font-size="64" transform="matrix(1 0 0 1 1561.87 1410)">unnormalized_log_prob</text><text fill="#ED7D31" font-family="Arial,Arial_MSFontService,sans-serif" font-weight="400" font-size="64" transform="matrix(1 0 0 1 2105.84 1003)">log probabilities</text><text fill="#ED7D31" font-family="Arial,Arial_MSFontService,sans-serif" font-weight="400" font-size="64" transform="matrix(1 0 0 1 2248.2 1080)">(logit)</text><text fill="#C00000" font-family="Arial,Arial_MSFontService,sans-serif" font-weight="400" font-size="64" transform="matrix(1 0 0 1 2152.74 743)">probabilities</text><text fill="#C00000" font-family="Arial,Arial_MSFontService,sans-serif" font-weight="400" font-size="64" transform="matrix(1 0 0 1 2238.38 820)">(prob)</text><text fill="#70AD47" font-family="Arial,Arial_MSFontService,sans-serif" font-weight="700" font-size="64" transform="matrix(1 0 0 1 437.657 873)">inputs</text><text fill="#70AD47" font-family="Arial,Arial_MSFontService,sans-serif" font-weight="700" font-size="64" transform="matrix(1 0 0 1 436.236 950)">(</text><path d="M478.528 921.628C476.778 921.628 475.262 922.477 473.981 924.175 472.7 925.873 471.596 928.498 470.669 932.05 469.742 935.602 469.278 938.68 469.278 941.285 469.278 943.243 469.596 944.706 470.231 945.675 470.867 946.644 471.872 947.128 473.247 947.128 475.018 947.128 476.554 946.269 477.856 944.55 479.158 942.831 480.247 940.232 481.122 936.753 481.997 933.274 482.434 930.253 482.434 927.691 482.434 925.607 482.117 924.076 481.481 923.097 480.846 922.118 479.861 921.628 478.528 921.628ZM479.247 918.378C481.83 918.378 483.997 918.852 485.747 919.8 487.497 920.748 488.794 922.066 489.637 923.753 490.481 925.441 490.903 927.399 490.903 929.628 490.903 932.378 490.445 935.139 489.528 937.91 488.611 940.68 487.346 943.003 485.731 944.878 484.117 946.753 482.205 948.139 479.997 949.035 477.788 949.93 475.288 950.378 472.497 950.378 470.205 950.378 468.19 949.967 466.45 949.144 464.71 948.321 463.346 947.071 462.356 945.394 461.367 943.717 460.872 941.67 460.872 939.253 460.872 936.795 461.257 934.217 462.028 931.519 462.799 928.821 463.997 926.446 465.622 924.394 467.247 922.342 469.21 920.826 471.512 919.847 473.815 918.868 476.393 918.378 479.247 918.378Z" fill="#70AD47" fill-rule="evenodd"/><text fill="#000000" fill-opacity="0" font-family="Arial,Arial_MSFontService,sans-serif" font-size="32" x="460.872" y="946.378">𝒐</text><path d="M503.945 934.461 509.453 934.461 508.122 940.198 513.699 940.198 513.079 943.067 507.457 943.067 505.231 952.246C504.848 953.822 504.584 955.019 504.439 955.838 504.293 956.656 504.221 957.349 504.221 957.915 504.221 958.634 504.351 959.158 504.611 959.487 504.871 959.816 505.254 959.98 505.758 959.98 506.447 959.98 507.154 959.735 507.881 959.246 508.608 958.756 509.392 957.999 510.233 956.974L512.001 958.787C510.455 960.485 509.036 961.667 507.743 962.333 506.451 962.998 504.925 963.331 503.165 963.331 501.421 963.331 500.082 962.883 499.149 961.988 498.216 961.093 497.749 959.858 497.749 958.282 497.749 957.563 497.803 956.878 497.91 956.228 498.017 955.578 498.239 954.511 498.575 953.027L500.939 943.067 497.359 943.067 497.795 941.208C498.866 941.208 499.677 941.108 500.228 940.909 500.778 940.711 501.241 940.412 501.616 940.014 501.991 939.617 502.354 939.012 502.706 938.201 503.058 937.391 503.471 936.144 503.945 934.461Z" fill="#70AD47" fill-rule="evenodd"/><text fill="#000000" fill-opacity="0" font-family="Arial,Arial_MSFontService,sans-serif" font-size="28.8701" x="497.359" y="959.722">𝒕</text><path d="M535.322 942.628 540.791 942.628C541.082 944.087 541.228 945.524 541.228 946.941 541.228 948.399 540.978 949.732 540.478 950.941 539.978 952.149 539.181 953.352 538.087 954.55 536.994 955.748 535.489 957.066 533.572 958.503L531.884 956.597C532.947 955.597 533.718 954.696 534.197 953.894 534.676 953.092 535.02 952.18 535.228 951.16 535.436 950.139 535.541 948.857 535.541 947.316 535.541 945.732 535.468 944.17 535.322 942.628Z" fill="#70AD47" fill-rule="evenodd"/><text fill="#000000" fill-opacity="0" font-family="Arial,Arial_MSFontService,sans-serif" font-size="15.875" x="531.884" y="956.519">,</text><path d="M574.857 918.378C576.461 918.378 578.185 918.508 580.029 918.769 581.873 919.029 583.555 919.378 585.076 919.816L583.451 927.285 579.482 927.285C579.295 925.347 578.8 923.92 577.998 923.003 577.196 922.087 576.045 921.628 574.545 921.628 573.149 921.628 572.029 921.988 571.185 922.706 570.342 923.425 569.92 924.399 569.92 925.628 569.92 926.712 570.274 927.66 570.982 928.472 571.691 929.285 573.066 930.305 575.107 931.535 577.316 932.847 578.899 934.201 579.857 935.597 580.816 936.993 581.295 938.628 581.295 940.503 581.295 942.628 580.727 944.441 579.592 945.941 578.456 947.441 576.904 948.555 574.935 949.285 572.967 950.014 570.722 950.378 568.201 950.378 564.159 950.378 560.284 949.878 556.576 948.878L558.326 941.128 562.295 941.128C562.399 943.003 562.883 944.472 563.748 945.535 564.612 946.597 565.941 947.128 567.732 947.128 569.378 947.128 570.649 946.727 571.545 945.925 572.441 945.123 572.888 943.993 572.888 942.535 572.888 941.66 572.743 940.92 572.451 940.316 572.159 939.712 571.68 939.123 571.013 938.55 570.347 937.977 569.263 937.232 567.763 936.316 565.68 935.066 564.165 933.769 563.217 932.425 562.269 931.081 561.795 929.576 561.795 927.91 561.795 924.847 562.941 922.493 565.232 920.847 567.524 919.201 570.732 918.378 574.857 918.378Z" fill="#70AD47" fill-rule="evenodd"/><text fill="#000000" fill-opacity="0" font-family="Arial,Arial_MSFontService,sans-serif" font-size="32" x="556.576" y="946.378">𝒔</text><path d="M596.368 934.461 601.876 934.461 600.545 940.198 606.122 940.198 605.502 943.067 599.88 943.067 597.653 952.246C597.271 953.822 597.007 955.019 596.862 955.838 596.716 956.656 596.644 957.349 596.644 957.915 596.644 958.634 596.774 959.158 597.034 959.487 597.294 959.816 597.676 959.98 598.181 959.98 598.87 959.98 599.577 959.735 600.304 959.246 601.031 958.756 601.815 957.999 602.656 956.974L604.423 958.787C602.878 960.485 601.459 961.667 600.166 962.333 598.874 962.998 597.347 963.331 595.588 963.331 593.844 963.331 592.505 962.883 591.572 961.988 590.639 961.093 590.172 959.858 590.172 958.282 590.172 957.563 590.226 956.878 590.333 956.228 590.44 955.578 590.662 954.511 590.998 953.027L593.362 943.067 589.782 943.067 590.218 941.208C591.289 941.208 592.1 941.108 592.651 940.909 593.201 940.711 593.664 940.412 594.039 940.014 594.414 939.617 594.777 939.012 595.129 938.201 595.481 937.391 595.894 936.144 596.368 934.461Z" fill="#70AD47" fill-rule="evenodd"/><text fill="#000000" fill-opacity="0" font-family="Arial,Arial_MSFontService,sans-serif" font-size="28.8701" x="589.782" y="959.722">𝒕</text><text fill="#70AD47" font-family="Arial,Arial_MSFontService,sans-serif" font-weight="700" font-size="64" transform="matrix(1 0 0 1 609.234 950)">)</text><rect x="729" y="208" width="2956" height="1243" stroke="#BFBFBF" stroke-width="10.3125" stroke-linecap="square" stroke-miterlimit="8" stroke-dasharray="30.9375 10.3125" fill="none"/><path d="M2570 667C2582.16 667 2592.01 668.642 2592.01 670.668L2592.01 884.831C2592.01 886.858 2601.87 888.5 2614.02 888.5 2601.87 888.5 2592.01 890.142 2592.01 892.168L2592.01 1106.33C2592.01 1108.36 2582.16 1110 2570 1110" stroke="#595959" stroke-width="2.29167" stroke-miterlimit="8" fill="none" fill-rule="evenodd"/><text fill="#595959" font-family="Arial,Arial_MSFontService,sans-serif" font-weight="400" font-size="64" transform="matrix(1 0 0 1 2679.26 499)">categorical</text><text fill="#595959" font-family="Arial,Arial_MSFontService,sans-serif" font-weight="400" font-size="64" transform="matrix(1 0 0 1 2663.22 576)">distributions</text><rect x="2720" y="673" width="45" height="95.9999" fill="#595959"/><rect x="2765" y="700" width="45" height="69.0001" fill="#7F7F7F"/><rect x="2810" y="642" width="44.9998" height="127" fill="#595959"/><rect x="2855" y="663" width="45" height="106" fill="#7F7F7F"/><rect x="2900" y="719" width="45" height="48.9998" fill="#595959"/><path d="M0 0 280.012 0.000360892" stroke="#595959" stroke-width="6.875" stroke-linecap="round" stroke-linejoin="round" stroke-miterlimit="10" fill="none" fill-rule="evenodd" transform="matrix(-1 0 0 1 2972.51 770.5)"/><path d="M3035 667C3047.43 667 3057.5 668.679 3057.5 670.75L3057.5 884.75C3057.5 886.821 3067.57 888.5 3080 888.5 3067.57 888.5 3057.5 890.179 3057.5 892.25L3057.5 1106.25C3057.5 1108.32 3047.43 1110 3035 1110" stroke="#595959" stroke-width="2.29167" stroke-miterlimit="8" fill="none" fill-rule="evenodd"/><text fill="#595959" font-family="Arial,Arial_MSFontService,sans-serif" font-weight="700" font-size="73" transform="matrix(1 0 0 1 886.675 354)">compute / __call__</text><text fill="#595959" font-family="Arial,Arial_MSFontService,sans-serif" font-weight="700" font-size="83" transform="matrix(1 0 0 1 2201.33 175)">act</text><rect x="2721" y="842" width="45" height="95.0002" fill="#595959"/><rect x="2766" y="868" width="44.9998" height="69.0001" fill="#7F7F7F"/><rect x="2811" y="810" width="45" height="127" fill="#595959"/><rect x="2856" y="831" width="45" height="106" fill="#7F7F7F"/><rect x="2901" y="888" width="45" height="48.0001" fill="#595959"/><path d="M0 0 280.012 0.000360892" stroke="#595959" stroke-width="6.875" stroke-linecap="round" stroke-linejoin="round" stroke-miterlimit="10" fill="none" fill-rule="evenodd" transform="matrix(-1 0 0 1 2973.51 938.5)"/><rect x="2721" y="1089" width="45" height="94.9999" fill="#595959"/><rect x="2766" y="1115" width="44.9998" height="68.9998" fill="#7F7F7F"/><rect x="2811" y="1057" width="46" height="127" fill="#595959"/><rect x="2857" y="1078" width="45" height="106" fill="#7F7F7F"/><rect x="2902" y="1135" width="45" height="47.9998" fill="#595959"/><path d="M0 0 280.012 0.000360892" stroke="#595959" stroke-width="6.875" stroke-linecap="round" stroke-linejoin="round" stroke-miterlimit="10" fill="none" fill-rule="evenodd" transform="matrix(-1 0 0 1 2974.51 1185.5)"/><text fill="#595959" font-family="Arial,Arial_MSFontService,sans-serif" font-weight="400" font-size="41" transform="matrix(1 0 0 1 2730.58 1240)">1  2  3 … n</text><text fill="#595959" font-family="Cambria Math,Cambria Math_MSFontService,sans-serif" font-weight="400" font-size="41" transform="matrix(1 0 0 1 2696.06 1063)">𝑃</text><text fill="#595959" font-family="Cambria Math,Cambria Math_MSFontService,sans-serif" font-weight="400" font-size="41" transform="matrix(1 0 0 1 2722.85 1063)">(</text><text fill="#595959" font-family="Cambria Math,Cambria Math_MSFontService,sans-serif" font-weight="400" font-size="41" transform="matrix(1 0 0 1 2740.04 1063)">𝑥</text><text fill="#595959" font-family="Cambria Math,Cambria Math_MSFontService,sans-serif" font-weight="400" font-size="41" transform="matrix(1 0 0 1 2763.05 1063)">)</text><text fill="#595959" font-family="Arial,Arial_MSFontService,sans-serif" font-weight="700" font-size="48" transform="matrix(1 0 0 1 2809.88 988)">… </text><text fill="#7030A0" font-family="Arial,Arial_MSFontService,sans-serif" font-weight="700" font-size="64" transform="matrix(1 0 0 1 3236.62 776)">actions (</text><path d="M3520.95 747.744C3519.01 747.744 3517.29 748.718 3515.79 750.666 3514.29 752.614 3513.09 755.233 3512.17 758.525 3511.25 761.817 3510.79 764.765 3510.79 767.369 3510.79 768.89 3511.02 770.025 3511.47 770.775 3511.91 771.525 3512.61 771.9 3513.54 771.9 3514.92 771.9 3516.32 771.228 3517.75 769.884 3519.17 768.541 3520.33 766.963 3521.2 765.15 3522.08 763.338 3522.86 760.858 3523.54 757.713L3523.79 756.556C3524.13 755.015 3524.29 753.473 3524.29 751.931 3524.29 750.556 3524.03 749.515 3523.51 748.806 3522.99 748.098 3522.14 747.744 3520.95 747.744ZM3520.58 744.494C3523.68 744.494 3526.33 745.244 3528.51 746.744L3531.54 744.494 3535.04 744.994 3529.98 766.244C3529.67 767.556 3529.51 768.744 3529.51 769.806 3529.51 770.494 3529.63 771.025 3529.86 771.4 3530.09 771.775 3530.48 771.963 3531.04 771.963 3531.69 771.963 3532.39 771.671 3533.14 771.088 3533.89 770.504 3534.76 769.64 3535.76 768.494L3538.01 770.744C3535.83 772.931 3533.94 774.437 3532.36 775.259 3530.77 776.082 3529.11 776.494 3527.36 776.494 3525.61 776.494 3524.22 776.009 3523.2 775.041 3522.18 774.072 3521.67 772.796 3521.67 771.213 3521.67 770.692 3521.73 770.192 3521.86 769.713L3521.42 769.65C3519.9 771.442 3518.59 772.791 3517.5 773.697 3516.4 774.603 3515.24 775.296 3514.01 775.775 3512.78 776.254 3511.42 776.494 3509.92 776.494 3507.42 776.494 3505.52 775.645 3504.23 773.947 3502.94 772.249 3502.29 769.775 3502.29 766.525 3502.29 763.713 3502.7 760.921 3503.51 758.15 3504.33 755.379 3505.49 752.989 3507.01 750.978 3508.53 748.968 3510.45 747.384 3512.75 746.228 3515.05 745.072 3517.66 744.494 3520.58 744.494Z" fill="#7030A0" fill-rule="evenodd"/><text fill="#000000" fill-opacity="0" font-family="Arial,Arial_MSFontService,sans-serif" font-size="32" x="3502.29" y="772.494">𝒂</text><path d="M3548.39 760.576 3553.9 760.576 3552.56 766.314 3558.14 766.314 3557.52 769.182 3551.9 769.182 3549.67 778.362C3549.29 779.938 3549.03 781.135 3548.88 781.954 3548.74 782.772 3548.66 783.464 3548.66 784.03 3548.66 784.75 3548.79 785.274 3549.05 785.602 3549.31 785.931 3549.7 786.096 3550.2 786.096 3550.89 786.096 3551.6 785.851 3552.32 785.362 3553.05 784.872 3553.83 784.115 3554.68 783.09L3556.44 784.903C3554.9 786.601 3553.48 787.783 3552.19 788.448 3550.89 789.114 3549.37 789.446 3547.61 789.446 3545.86 789.446 3544.53 788.999 3543.59 788.104 3542.66 787.209 3542.19 785.974 3542.19 784.398 3542.19 783.679 3542.25 782.994 3542.35 782.344 3542.46 781.693 3542.68 780.626 3543.02 779.142L3545.38 769.182 3541.8 769.182 3542.24 767.323C3543.31 767.323 3544.12 767.224 3544.67 767.025 3545.22 766.826 3545.68 766.528 3546.06 766.13 3546.43 765.732 3546.8 765.128 3547.15 764.317 3547.5 763.506 3547.91 762.259 3548.39 760.576Z" fill="#7030A0" fill-rule="evenodd"/><text fill="#000000" fill-opacity="0" font-family="Arial,Arial_MSFontService,sans-serif" font-size="28.8701" x="3541.8" y="785.838">𝒕</text><text fill="#7030A0" font-family="Arial,Arial_MSFontService,sans-serif" font-weight="700" font-size="64" transform="matrix(1 0 0 1 3561.25 776)">)</text><text fill="#7030A0" font-family="Arial,Arial_MSFontService,sans-serif" font-weight="400" font-size="64" transform="matrix(1 0 0 1 3186.76 979)">log probabilities</text><text fill="#7030A0" font-family="Arial,Arial_MSFontService,sans-serif" font-weight="400" font-size="64" transform="matrix(1 0 0 1 3221.76 1056)">at</text><path d="M3312.83 1028.28C3310.68 1028.28 3308.76 1029.15 3307.05 1030.88 3305.34 1032.61 3304.01 1034.93 3303.05 1037.83 3302.09 1040.74 3301.61 1043.64 3301.61 1046.53 3301.61 1048.7 3301.91 1050.32 3302.5 1051.39 3303.09 1052.47 3304.09 1053 3305.48 1053 3306.86 1053 3308.21 1052.41 3309.53 1051.22 3310.85 1050.03 3312.22 1048.34 3313.63 1046.14 3315.03 1043.95 3316.03 1041.41 3316.61 1038.53L3316.89 1037.19C3317.08 1036.34 3317.2 1035.6 3317.27 1034.97 3317.33 1034.35 3317.36 1033.67 3317.36 1032.94 3317.36 1031.34 3317.02 1030.16 3316.33 1029.41 3315.64 1028.66 3314.47 1028.28 3312.83 1028.28ZM3312.2 1025.82C3313.56 1025.82 3314.82 1025.97 3316 1026.27 3317.18 1026.57 3318.39 1027.11 3319.64 1027.88L3322.52 1025.82 3324.52 1026.32 3319.92 1046.13C3319.46 1048.11 3319.23 1049.65 3319.23 1050.75 3319.23 1051.59 3319.37 1052.19 3319.64 1052.57 3319.91 1052.94 3320.34 1053.13 3320.92 1053.13 3321.55 1053.13 3322.21 1052.87 3322.92 1052.36 3323.63 1051.85 3324.63 1050.88 3325.92 1049.44L3327.7 1051.19C3325.83 1053.19 3324.23 1054.61 3322.91 1055.46 3321.58 1056.3 3320.15 1056.72 3318.61 1056.72 3317.32 1056.72 3316.29 1056.29 3315.52 1055.44 3314.75 1054.59 3314.36 1053.45 3314.36 1052.03 3314.36 1050.89 3314.6 1049.67 3315.08 1048.38L3314.67 1048.25C3312.67 1051.17 3310.78 1053.31 3308.98 1054.66 3307.19 1056.01 3305.3 1056.69 3303.3 1056.69 3301.01 1056.69 3299.23 1055.83 3297.97 1054.1 3296.71 1052.37 3296.08 1049.94 3296.08 1046.82 3296.08 1043.23 3296.78 1039.79 3298.19 1036.49 3299.59 1033.19 3301.53 1030.58 3303.98 1028.68 3306.44 1026.77 3309.18 1025.82 3312.2 1025.82Z" fill="#7030A0" fill-rule="evenodd"/><text fill="#000000" fill-opacity="0" font-family="Arial,Arial_MSFontService,sans-serif" font-size="30.9062" x="3296.08" y="1052.86">𝑎</text><path d="M3338.19 1040.53 3341.77 1040.53 3340.46 1046.36 3348.26 1046.36 3347.73 1048.91 3339.95 1048.91 3337.61 1058.52C3337.46 1059.16 3337.33 1059.74 3337.23 1060.25 3337.13 1060.77 3337.05 1061.23 3336.99 1061.64 3336.93 1062.06 3336.89 1062.43 3336.87 1062.77 3336.84 1063.1 3336.83 1063.42 3336.83 1063.71 3336.83 1064.63 3337.02 1065.34 3337.41 1065.87 3337.79 1066.39 3338.42 1066.65 3339.29 1066.65 3340.02 1066.65 3340.8 1066.37 3341.63 1065.83 3342.45 1065.29 3343.4 1064.43 3344.45 1063.27L3346.03 1064.88C3345.25 1065.75 3344.51 1066.49 3343.81 1067.1 3343.1 1067.72 3342.42 1068.22 3341.74 1068.61 3341.07 1069 3340.4 1069.28 3339.75 1069.46 3339.09 1069.63 3338.42 1069.72 3337.73 1069.72 3335.91 1069.72 3334.55 1069.29 3333.65 1068.44 3332.76 1067.58 3332.31 1066.32 3332.31 1064.65 3332.31 1064.08 3332.35 1063.46 3332.44 1062.78 3332.52 1062.1 3332.64 1061.44 3332.79 1060.79L3335.52 1048.91 3331.58 1048.91 3332.04 1047.14C3332.95 1047.14 3333.67 1047.05 3334.18 1046.87 3334.69 1046.7 3335.13 1046.46 3335.48 1046.15 3335.71 1045.94 3335.93 1045.67 3336.14 1045.36 3336.36 1045.05 3336.57 1044.67 3336.79 1044.22 3337 1043.78 3337.22 1043.26 3337.44 1042.65 3337.66 1042.05 3337.91 1041.34 3338.19 1040.53Z" fill="#7030A0" fill-rule="evenodd"/><text fill="#000000" fill-opacity="0" font-family="Arial,Arial_MSFontService,sans-serif" font-size="29.1914" x="3331.58" y="1066.07">𝑡</text><text fill="#7030A0" font-family="Arial,Arial_MSFontService,sans-serif" font-weight="400" font-size="64" transform="matrix(1 0 0 1 3370.62 1056)">(</text><text fill="#7030A0" font-family="Cambria Math,Cambria Math_MSFontService,sans-serif" font-weight="400" font-size="64" transform="matrix(1 0 0 1 3391.82 1056)">𝑙</text><text fill="#7030A0" font-family="Cambria Math,Cambria Math_MSFontService,sans-serif" font-weight="400" font-size="64" transform="matrix(1 0 0 1 3411.87 1056)">𝑜</text><text fill="#7030A0" font-family="Cambria Math,Cambria Math_MSFontService,sans-serif" font-weight="400" font-size="64" transform="matrix(1 0 0 1 3446.25 1056)">𝑔</text><text fill="#7030A0" font-family="Cambria Math,Cambria Math_MSFontService,sans-serif" font-weight="400" font-size="64" transform="matrix(1 0 0 1 3485.78 1056)">(P)</text><text fill="#7030A0" font-family="Arial,Arial_MSFontService,sans-serif" font-weight="400" font-size="64" transform="matrix(1 0 0 1 3575.15 1056)">)</text><path d="M3325 1096 3524.99 1096.67" stroke="#7030A0" stroke-width="10.3125" stroke-linecap="round" stroke-linejoin="round" stroke-miterlimit="10" fill="none" fill-rule="evenodd"/><path d="M3312 900 3525.19 900" stroke="#7030A0" stroke-width="10.3125" stroke-linecap="round" stroke-linejoin="round" stroke-miterlimit="10" fill="none" fill-rule="evenodd"/><path d="M0 0 0.000360892 65.6286" stroke="#7030A0" stroke-width="10.3125" stroke-linecap="round" stroke-linejoin="round" stroke-miterlimit="10" stroke-dasharray="20.625 20.625" fill="none" fill-rule="evenodd" transform="matrix(1 0 0 -1 3144 1160.63)"/><path d="M3131 1173.5C3131 1166.04 3136.82 1160 3144 1160 3151.18 1160 3157 1166.04 3157 1173.5 3157 1180.96 3151.18 1187 3144 1187 3136.82 1187 3131 1180.96 3131 1173.5Z" fill="#7030A0" fill-rule="evenodd"/><text fill="#7F6000" font-family="Arial,Arial_MSFontService,sans-serif" font-weight="700" font-size="64" transform="matrix(1 0 0 1 2997.62 1409)">reduction</text><path d="M3299 1095.5C3299 1088.04 3304.82 1082 3312 1082 3319.18 1082 3325 1088.04 3325 1095.5 3325 1102.96 3319.18 1109 3312 1109 3304.82 1109 3299 1102.96 3299 1095.5Z" fill="#7030A0" fill-rule="evenodd"/><path d="M0 0 0.365584 57.671" stroke="#7030A0" stroke-width="10.3125" stroke-linecap="round" stroke-linejoin="round" stroke-miterlimit="10" fill="none" fill-rule="evenodd" transform="matrix(1 0 0 -1 3143 1230.67)"/><path d="M3147 1096 3298.25 1096" stroke="#7030A0" stroke-width="10.3125" stroke-linecap="round" stroke-linejoin="round" stroke-miterlimit="10" stroke-dasharray="20.625 20.625" fill="none" fill-rule="evenodd"/><path d="M3099 1275C3099 1250.7 3118.7 1231 3143 1231 3167.3 1231 3187 1250.7 3187 1275 3187 1299.3 3167.3 1319 3143 1319 3118.7 1319 3099 1299.3 3099 1275Z" stroke="#7030A0" stroke-width="10.3125" stroke-miterlimit="8" fill="none" fill-rule="evenodd"/><path d="M3120.09 1267.83 3135.33 1267.83 3135.33 1252.22 3149.67 1252.22 3149.67 1267.83 3164.91 1267.83 3164.91 1282.17 3149.67 1282.17 3149.67 1297.78 3135.33 1297.78 3135.33 1282.17 3120.09 1282.17Z" fill="#7030A0" fill-rule="evenodd"/><text fill="#7030A0" font-family="Arial,Arial_MSFontService,sans-serif" font-weight="700" font-size="64" transform="matrix(1 0 0 1 3834.84 775)">actions (</text><path d="M4119.17 746.815C4117.23 746.815 4115.51 747.788 4114.01 749.736 4112.51 751.684 4111.31 754.304 4110.39 757.596 4109.47 760.887 4109.01 763.835 4109.01 766.44 4109.01 767.96 4109.24 769.096 4109.69 769.846 4110.13 770.596 4110.83 770.971 4111.76 770.971 4113.14 770.971 4114.54 770.299 4115.97 768.955 4117.39 767.611 4118.54 766.033 4119.42 764.221 4120.29 762.408 4121.08 759.929 4121.76 756.783L4122.01 755.627C4122.35 754.085 4122.51 752.544 4122.51 751.002 4122.51 749.627 4122.25 748.585 4121.73 747.877 4121.21 747.169 4120.36 746.815 4119.17 746.815ZM4118.79 743.565C4121.9 743.565 4124.54 744.315 4126.73 745.815L4129.76 743.565 4133.26 744.065 4128.2 765.315C4127.89 766.627 4127.73 767.815 4127.73 768.877 4127.73 769.565 4127.85 770.096 4128.08 770.471 4128.31 770.846 4128.7 771.033 4129.26 771.033 4129.91 771.033 4130.61 770.742 4131.36 770.158 4132.11 769.575 4132.98 768.71 4133.98 767.565L4136.23 769.815C4134.04 772.002 4132.16 773.507 4130.58 774.33 4128.99 775.153 4127.33 775.565 4125.58 775.565 4123.83 775.565 4122.44 775.08 4121.42 774.111 4120.4 773.143 4119.89 771.867 4119.89 770.283 4119.89 769.762 4119.95 769.262 4120.08 768.783L4119.64 768.721C4118.12 770.512 4116.81 771.861 4115.72 772.768 4114.62 773.674 4113.46 774.367 4112.23 774.846 4111 775.325 4109.64 775.565 4108.14 775.565 4105.64 775.565 4103.74 774.716 4102.45 773.018 4101.16 771.32 4100.51 768.846 4100.51 765.596 4100.51 762.783 4100.92 759.992 4101.73 757.221 4102.54 754.45 4103.71 752.059 4105.23 750.049 4106.75 748.038 4108.66 746.455 4110.97 745.299 4113.27 744.143 4115.88 743.565 4118.79 743.565Z" fill="#7030A0" fill-rule="evenodd"/><text fill="#000000" fill-opacity="0" font-family="Arial,Arial_MSFontService,sans-serif" font-size="32" x="4100.51" y="771.565">𝒂</text><path d="M4146.61 759.647 4152.12 759.647 4150.78 765.384 4156.36 765.384 4155.74 768.253 4150.12 768.253 4147.89 777.433C4147.51 779.009 4147.25 780.206 4147.1 781.024 4146.96 781.843 4146.88 782.535 4146.88 783.101 4146.88 783.82 4147.01 784.344 4147.27 784.673 4147.53 785.002 4147.92 785.167 4148.42 785.167 4149.11 785.167 4149.82 784.922 4150.54 784.432 4151.27 783.943 4152.05 783.185 4152.9 782.16L4154.66 783.973C4153.12 785.671 4151.7 786.853 4150.41 787.519 4149.11 788.184 4147.59 788.517 4145.83 788.517 4144.08 788.517 4142.74 788.07 4141.81 787.175 4140.88 786.28 4140.41 785.044 4140.41 783.468 4140.41 782.749 4140.47 782.065 4140.57 781.414 4140.68 780.764 4140.9 779.697 4141.24 778.213L4143.6 768.253 4140.02 768.253 4140.46 766.394C4141.53 766.394 4142.34 766.295 4142.89 766.096 4143.44 765.897 4143.9 765.599 4144.28 765.201 4144.65 764.803 4145.02 764.199 4145.37 763.388 4145.72 762.577 4146.13 761.33 4146.61 759.647Z" fill="#7030A0" fill-rule="evenodd"/><text fill="#000000" fill-opacity="0" font-family="Arial,Arial_MSFontService,sans-serif" font-size="28.8701" x="4140.02" y="784.908">𝒕</text><text fill="#7030A0" font-family="Arial,Arial_MSFontService,sans-serif" font-weight="700" font-size="64" transform="matrix(1 0 0 1 4159.47 775)">)</text><text fill="#7030A0" font-family="Arial,Arial_MSFontService,sans-serif" font-weight="700" font-size="64" transform="matrix(1 0 0 1 3890.89 979)">outputs</text><text fill="#7030A0" font-family="Arial,Arial_MSFontService,sans-serif" font-weight="700" font-size="64" transform="matrix(1 0 0 1 3745.64 1056)">(</text><text fill="#C00000" font-family="Arial,Arial_MSFontService,sans-serif" font-weight="400" font-size="64" transform="matrix(1 0 0 1 3766.84 1056)">prob</text><text fill="#7030A0" font-family="Arial,Arial_MSFontService,sans-serif" font-weight="400" font-size="64" transform="matrix(1 0 0 1 3894.6 1056)">/</text><text fill="#ED7D31" font-family="Arial,Arial_MSFontService,sans-serif" font-weight="400" font-size="64" transform="matrix(1 0 0 1 3912.36 1056)">logit</text><text fill="#7030A0" font-family="Arial,Arial_MSFontService,sans-serif" font-weight="700" font-size="64" transform="matrix(1 0 0 1 4029.81 1056)">, </text><text fill="#7030A0" font-family="Cambria Math,Cambria Math_MSFontService,sans-serif" font-weight="400" font-size="64" transform="matrix(1 0 0 1 4065.33 1056)">𝑙</text><text fill="#7030A0" font-family="Cambria Math,Cambria Math_MSFontService,sans-serif" font-weight="400" font-size="64" transform="matrix(1 0 0 1 4085.38 1056)">𝑜</text><text fill="#7030A0" font-family="Cambria Math,Cambria Math_MSFontService,sans-serif" font-weight="400" font-size="64" transform="matrix(1 0 0 1 4119.76 1056)">𝑔</text><text fill="#7030A0" font-family="Cambria Math,Cambria Math_MSFontService,sans-serif" font-weight="400" font-size="64" transform="matrix(1 0 0 1 4159.29 1056)">(P)</text><text fill="#7030A0" font-family="Arial,Arial_MSFontService,sans-serif" font-weight="700" font-size="64" transform="matrix(1 0 0 1 4248.67 1056)">)</text></g></svg>
