<svg width="1415" height="1501" xmlns="http://www.w3.org/2000/svg" xmlns:xlink="http://www.w3.org/1999/xlink" xml:space="preserve" overflow="hidden"><defs><clipPath id="clip0"><rect x="4438" y="933" width="1415" height="1501"/></clipPath></defs><g clip-path="url(#clip0)" transform="translate(-4438 -933)"><path d="M5333.5 1243.5 5518.76 1474.88" stroke="#BFBFBF" stroke-width="6.875" stroke-linecap="square" stroke-miterlimit="8" stroke-dasharray="20.625 6.875" fill="none" fill-rule="evenodd"/><path d="M0 0 185.262 231.078" stroke="#BFBFBF" stroke-width="6.875" stroke-linecap="square" stroke-miterlimit="8" stroke-dasharray="20.625 6.875" fill="none" fill-rule="evenodd" transform="matrix(-1 0 0 1 5518.76 1660.5)"/><path d="M0 0 185.263 210.592" stroke="#BFBFBF" stroke-width="6.875" stroke-linecap="square" stroke-miterlimit="8" stroke-dasharray="20.625 6.875" fill="none" fill-rule="evenodd" transform="matrix(-1 0 0 1 5245.76 1891.5)"/><path d="M5060.5 1033.5 5245.76 1244.09" stroke="#BFBFBF" stroke-width="6.875" stroke-linecap="square" stroke-miterlimit="8" stroke-dasharray="20.625 6.875" fill="none" fill-rule="evenodd"/><path d="M0 0 186.511 398.782" stroke="#BFBFBF" stroke-width="6.875" stroke-linecap="square" stroke-miterlimit="8" stroke-dasharray="20.625 6.875" fill="none" fill-rule="evenodd" transform="matrix(-1 0 0 1 4973.01 1033.5)"/><path d="M4786.5 1703.5 4973.01 2102.28" stroke="#BFBFBF" stroke-width="6.875" stroke-linecap="square" stroke-miterlimit="8" stroke-dasharray="20.625 6.875" fill="none" fill-rule="evenodd"/><rect x="4972" y="1033" width="88" height="1068" stroke="#404040" stroke-width="10.3125" stroke-miterlimit="8" fill="#BFBFBF"/><rect x="5245" y="1244" width="88" height="647" stroke="#404040" stroke-width="10.3125" stroke-miterlimit="8" fill="#BFBFBF"/><text fill="#D9D9D9" font-family="Arial,Arial_MSFontService,sans-serif" font-weight="700" font-size="64" transform="matrix(1 0 0 1 4955.7 2226)">FC1</text><text fill="#D9D9D9" font-family="Arial,Arial_MSFontService,sans-serif" font-weight="700" font-size="64" transform="matrix(1 0 0 1 4988.63 2303)">+ </text><text fill="#D9D9D9" font-family="Arial,Arial_MSFontService,sans-serif" font-weight="700" font-size="64" transform="matrix(1 0 0 1 4932.48 2380)">ReLU</text><text fill="#D9D9D9" font-family="Arial,Arial_MSFontService,sans-serif" font-weight="700" font-size="64" transform="matrix(1 0 0 1 5228.52 2016)">FC2</text><text fill="#D9D9D9" font-family="Arial,Arial_MSFontService,sans-serif" font-weight="700" font-size="64" transform="matrix(1 0 0 1 5270.34 2093)">+</text><text fill="#D9D9D9" font-family="Arial,Arial_MSFontService,sans-serif" font-weight="700" font-size="64" transform="matrix(1 0 0 1 5205.3 2170)">ReLU</text><text fill="#D9D9D9" font-family="Arial,Arial_MSFontService,sans-serif" font-weight="700" font-size="64" transform="matrix(1 0 0 1 5501.33 1781)">FC3</text><rect x="4698" y="1432" width="88" height="271" stroke="#548235" stroke-width="10.3125" stroke-miterlimit="8" fill="#A9D18E"/><rect x="5518" y="1475" width="88" height="185" stroke="#ED7D31" stroke-width="10.3125" stroke-miterlimit="8" fill="#F4B183"/><text fill="#70AD47" font-family="Arial,Arial_MSFontService,sans-serif" font-weight="700" font-size="64" transform="matrix(1 0 0 1 4476.63 1590)">states</text><text fill="#ED7D31" font-family="Arial,Arial_MSFontService,sans-serif" font-weight="700" font-size="64" transform="matrix(1 0 0 1 5643.42 1590)">logits</text><text fill="#D9D9D9" font-family="Arial,Arial_MSFontService,sans-serif" font-weight="400" font-size="55" transform="matrix(1 0 0 1 4985.77 1003)">64</text><text fill="#D9D9D9" font-family="Arial,Arial_MSFontService,sans-serif" font-weight="400" font-size="55" transform="matrix(1 0 0 1 5258.58 1214)">32</text><text fill="#D9D9D9" font-family="Arial,Arial_MSFontService,sans-serif" font-weight="400" font-size="55" transform="matrix(1 0 0 1 5546.59 1444)">n</text></g></svg>
