<svg width="1467" height="1501" xmlns="http://www.w3.org/2000/svg" xmlns:xlink="http://www.w3.org/1999/xlink" xml:space="preserve" overflow="hidden"><defs><clipPath id="clip0"><rect x="2449" y="933" width="1467" height="1501"/></clipPath></defs><g clip-path="url(#clip0)" transform="translate(-2449 -933)"><path d="M3344.5 1243.5 3475.35 1377.21" stroke="#7F7F7F" stroke-width="6.875" stroke-linecap="square" stroke-miterlimit="8" stroke-dasharray="20.625 6.875" fill="none" fill-rule="evenodd"/><path d="M0 0 185.262 188.191" stroke="#7F7F7F" stroke-width="6.875" stroke-linecap="square" stroke-miterlimit="8" stroke-dasharray="20.625 6.875" fill="none" fill-rule="evenodd" transform="matrix(-1 0 0 1 3529.76 1703.5)"/><path d="M0 0 185.263 210.592" stroke="#7F7F7F" stroke-width="6.875" stroke-linecap="square" stroke-miterlimit="8" stroke-dasharray="20.625 6.875" fill="none" fill-rule="evenodd" transform="matrix(-1 0 0 1 3256.76 1891.5)"/><path d="M3511.5 1415.5 3529.48 1432.73" stroke="#7F7F7F" stroke-width="6.875" stroke-linecap="square" stroke-miterlimit="8" stroke-dasharray="20.625 6.875" fill="none" fill-rule="evenodd"/><path d="M3071.5 1033.5 3256.76 1244.09" stroke="#7F7F7F" stroke-width="6.875" stroke-linecap="square" stroke-miterlimit="8" stroke-dasharray="20.625 6.875" fill="none" fill-rule="evenodd"/><path d="M0 0 186.511 398.782" stroke="#7F7F7F" stroke-width="6.875" stroke-linecap="square" stroke-miterlimit="8" stroke-dasharray="20.625 6.875" fill="none" fill-rule="evenodd" transform="matrix(-1 0 0 1 2984.01 1033.5)"/><path d="M2797.5 1703.5 2984.01 2102.28" stroke="#7F7F7F" stroke-width="6.875" stroke-linecap="square" stroke-miterlimit="8" stroke-dasharray="20.625 6.875" fill="none" fill-rule="evenodd"/><rect x="2983" y="1033" width="88" height="1068" stroke="#404040" stroke-width="10.3125" stroke-miterlimit="8" fill="#BFBFBF"/><rect x="3256" y="1244" width="88" height="647" stroke="#404040" stroke-width="10.3125" stroke-miterlimit="8" fill="#BFBFBF"/><text fill="#595959" font-family="Arial,Arial_MSFontService,sans-serif" font-weight="700" font-size="64" transform="matrix(1 0 0 1 2966.75 2226)">FC1</text><text fill="#595959" font-family="Arial,Arial_MSFontService,sans-serif" font-weight="700" font-size="64" transform="matrix(1 0 0 1 2999.68 2303)">+ </text><text fill="#595959" font-family="Arial,Arial_MSFontService,sans-serif" font-weight="700" font-size="64" transform="matrix(1 0 0 1 2943.54 2380)">ReLU</text><text fill="#595959" font-family="Arial,Arial_MSFontService,sans-serif" font-weight="700" font-size="64" transform="matrix(1 0 0 1 3239.57 2016)">FC2</text><text fill="#595959" font-family="Arial,Arial_MSFontService,sans-serif" font-weight="700" font-size="64" transform="matrix(1 0 0 1 3281.39 2093)">+</text><text fill="#595959" font-family="Arial,Arial_MSFontService,sans-serif" font-weight="700" font-size="64" transform="matrix(1 0 0 1 3216.35 2170)">ReLU</text><text fill="#595959" font-family="Arial,Arial_MSFontService,sans-serif" font-weight="700" font-size="64" transform="matrix(1 0 0 1 3512.39 1825)">FC3</text><text fill="#595959" font-family="Arial,Arial_MSFontService,sans-serif" font-weight="700" font-size="64" transform="matrix(1 0 0 1 3554.21 1902)">+</text><text fill="#595959" font-family="Arial,Arial_MSFontService,sans-serif" font-weight="700" font-size="64" transform="matrix(1 0 0 1 3499 1979)">Tanh</text><rect x="2709" y="1432" width="88" height="271" stroke="#548235" stroke-width="10.3125" stroke-miterlimit="8" fill="#A9D18E"/><rect x="3529" y="1432" width="88" height="271" stroke="#7030A0" stroke-width="10.3125" stroke-miterlimit="8" fill="#CC99FF"/><text fill="#70AD47" font-family="Arial,Arial_MSFontService,sans-serif" font-weight="700" font-size="64" transform="matrix(1 0 0 1 2487.68 1590)">states</text><text fill="#7030A0" font-family="Arial,Arial_MSFontService,sans-serif" font-weight="700" font-size="64" transform="matrix(1 0 0 1 3682.84 1549)">mean</text><text fill="#7030A0" font-family="Arial,Arial_MSFontService,sans-serif" font-weight="700" font-size="64" transform="matrix(1 0 0 1 3653.62 1626)">actions</text><text fill="#595959" font-family="Arial,Arial_MSFontService,sans-serif" font-weight="400" font-size="55" transform="matrix(1 0 0 1 2996.82 1003)">64</text><text fill="#595959" font-family="Arial,Arial_MSFontService,sans-serif" font-weight="400" font-size="55" transform="matrix(1 0 0 1 3269.64 1214)">32</text><text fill="#595959" font-family="Arial,Arial_MSFontService,sans-serif" font-weight="400" font-size="55" transform="matrix(1 0 0 1 3519.53 1334)">num</text><text fill="#595959" font-family="Arial,Arial_MSFontService,sans-serif" font-weight="400" font-size="55" transform="matrix(1 0 0 1 3486.02 1400)">actions</text></g></svg>
