<svg width="5146" height="2362" xmlns="http://www.w3.org/2000/svg" xmlns:xlink="http://www.w3.org/1999/xlink" xml:space="preserve" overflow="hidden"><defs><clipPath id="clip0"><rect x="677" y="476" width="5146" height="2362"/></clipPath></defs><g clip-path="url(#clip0)" transform="translate(-677 -476)"><path d="M5304.5 1291.5 5489.76 1522.88" stroke="#BFBFBF" stroke-width="6.875" stroke-linecap="square" stroke-miterlimit="8" stroke-dasharray="20.625 6.875" fill="none" fill-rule="evenodd"/><path d="M0 0 185.262 231.078" stroke="#BFBFBF" stroke-width="6.875" stroke-linecap="square" stroke-miterlimit="8" stroke-dasharray="20.625 6.875" fill="none" fill-rule="evenodd" transform="matrix(-1 0 0 1 5489.76 1708.5)"/><path d="M0 0 185.263 210.592" stroke="#BFBFBF" stroke-width="6.875" stroke-linecap="square" stroke-miterlimit="8" stroke-dasharray="20.625 6.875" fill="none" fill-rule="evenodd" transform="matrix(-1 0 0 1 5216.76 1939.5)"/><path d="M5031.5 1082.5 5216.76 1293.09" stroke="#BFBFBF" stroke-width="6.875" stroke-linecap="square" stroke-miterlimit="8" stroke-dasharray="20.625 6.875" fill="none" fill-rule="evenodd"/><text fill="#D9D9D9" font-family="Arial,Arial_MSFontService,sans-serif" font-weight="700" font-size="64" transform="matrix(1 0 0 1 4926.61 2274)">FC3</text><text fill="#D9D9D9" font-family="Arial,Arial_MSFontService,sans-serif" font-weight="700" font-size="64" transform="matrix(1 0 0 1 4959.54 2351)">+ </text><text fill="#D9D9D9" font-family="Arial,Arial_MSFontService,sans-serif" font-weight="700" font-size="64" transform="matrix(1 0 0 1 4913.22 2428)">Tanh</text><text fill="#D9D9D9" font-family="Arial,Arial_MSFontService,sans-serif" font-weight="700" font-size="64" transform="matrix(1 0 0 1 5199.42 2064)">FC4</text><text fill="#D9D9D9" font-family="Arial,Arial_MSFontService,sans-serif" font-weight="700" font-size="64" transform="matrix(1 0 0 1 5241.25 2141)">+</text><text fill="#D9D9D9" font-family="Arial,Arial_MSFontService,sans-serif" font-weight="700" font-size="64" transform="matrix(1 0 0 1 5186.04 2218)">Tanh</text><text fill="#D9D9D9" font-family="Arial,Arial_MSFontService,sans-serif" font-weight="700" font-size="64" transform="matrix(1 0 0 1 5472.23 1830)">FC5</text><text fill="#ED7D31" font-family="Arial,Arial_MSFontService,sans-serif" font-weight="700" font-size="64" transform="matrix(1 0 0 1 5614.33 1639)">logits</text><text fill="#D9D9D9" font-family="Arial,Arial_MSFontService,sans-serif" font-weight="400" font-size="55" transform="matrix(1 0 0 1 4956.67 1051)">64</text><text fill="#D9D9D9" font-family="Arial,Arial_MSFontService,sans-serif" font-weight="400" font-size="55" transform="matrix(1 0 0 1 5229.49 1262)">32</text><text fill="#D9D9D9" font-family="Arial,Arial_MSFontService,sans-serif" font-weight="400" font-size="55" transform="matrix(1 0 0 1 5517.49 1492)">n</text><rect x="3451" y="1536" width="495" height="222" fill="#7F7F7F"/><path d="M3946 1536 4020 1462 4020 1684 3946 1758Z" fill="#666666" fill-rule="evenodd"/><path d="M3451 1536 3525 1462 4020 1462 3946 1536Z" fill="#989898" fill-rule="evenodd"/><path d="M3451 1536 3525 1462 4020 1462 4020 1684 3946 1758 3451 1758ZM3451 1536 3946 1536 4020 1462M3946 1536 3946 1758" stroke="#404040" stroke-width="10.3125" stroke-miterlimit="8" fill="none" fill-rule="evenodd"/><text fill="#D9D9D9" font-family="Arial,Arial_MSFontService,sans-serif" font-weight="400" font-size="55" transform="matrix(1 0 0 1 4679.29 1415)">16</text><text fill="#D9D9D9" font-family="Arial,Arial_MSFontService,sans-serif" font-weight="400" font-size="55" transform="matrix(1 0 0 1 4395.29 803)">512</text><text fill="#D9D9D9" font-family="Arial,Arial_MSFontService,sans-serif" font-weight="400" font-size="55" transform="matrix(1 0 0 1 4128.47 546)">1024</text><rect x="2755" y="1520.5" width="491.5" height="268.5" fill="#7F7F7F"/><path d="M3246.5 1520.5 3336 1431 3336 1699.5 3246.5 1789Z" fill="#666666" fill-rule="evenodd"/><path d="M2755 1520.5 2844.5 1431 3336 1431 3246.5 1520.5Z" fill="#989898" fill-rule="evenodd"/><path d="M2755 1520.5 2844.5 1431 3336 1431 3336 1699.5 3246.5 1789 2755 1789ZM2755 1520.5 3246.5 1520.5 3336 1431M3246.5 1520.5 3246.5 1789" stroke="#404040" stroke-width="10.3125" stroke-miterlimit="8" fill="none" fill-rule="evenodd"/><rect x="2234" y="1401.47" width="248.531" height="596.531" fill="#7F7F7F"/><path d="M2482.53 1401.47 2654 1230 2654 1826.53 2482.53 1998Z" fill="#666666" fill-rule="evenodd"/><path d="M2234 1401.47 2405.47 1230 2654 1230 2482.53 1401.47Z" fill="#989898" fill-rule="evenodd"/><path d="M2234 1401.47 2405.47 1230 2654 1230 2654 1826.53 2482.53 1998 2234 1998ZM2234 1401.47 2482.53 1401.47 2654 1230M2482.53 1401.47 2482.53 1998" stroke="#404040" stroke-width="10.3125" stroke-miterlimit="8" fill="none" fill-rule="evenodd"/><path d="M0 395 395.84 0 1237 0 835.593 395 0 395Z" stroke="#FF3300" stroke-width="13.75" stroke-miterlimit="8" fill="#FF0000" fill-rule="evenodd" fill-opacity="0.2" transform="matrix(6.12323e-17 1 1 -6.12323e-17 1708 981)"/><path d="M0 395 396.16 0 1238 0 836.269 395 0 395Z" stroke="#548235" stroke-width="13.75" stroke-miterlimit="8" fill="#385723" fill-rule="evenodd" fill-opacity="0.2" transform="matrix(6.12323e-17 1 1 -6.12323e-17 1734 995)"/><path d="M0 395 395.84 0 1237 0 835.594 395 0 395Z" stroke="#0070C0" stroke-width="13.75" stroke-miterlimit="8" fill="#0070C0" fill-rule="evenodd" fill-opacity="0.2" transform="matrix(6.12323e-17 1 1 -6.12323e-17 1760 1010)"/><path d="M0 0 185.001 363.904" stroke="#BFBFBF" stroke-width="6.875" stroke-linecap="square" stroke-miterlimit="8" stroke-dasharray="20.625 6.875" fill="none" fill-rule="evenodd" transform="matrix(-1 0 0 1 4943.5 1082.5)"/><path d="M4670.7 1446.27 4486.5 834.5" stroke="#BFBFBF" stroke-width="6.875" stroke-linecap="square" stroke-miterlimit="8" stroke-dasharray="20.625 6.875" fill="none" fill-rule="evenodd"/><path d="M4943.5 2150.41 4758.5 1786.5" stroke="#BFBFBF" stroke-width="6.875" stroke-linecap="square" stroke-miterlimit="8" stroke-dasharray="20.625 6.875" fill="none" fill-rule="evenodd"/><path d="M0 0 184.202 608.225" stroke="#BFBFBF" stroke-width="6.875" stroke-linecap="square" stroke-miterlimit="8" stroke-dasharray="20.625 6.875" fill="none" fill-rule="evenodd" transform="matrix(1 0 0 -1 4486.5 2397.73)"/><path d="M0 0 203.001 260.413" stroke="#BFBFBF" stroke-width="6.875" stroke-linecap="square" stroke-miterlimit="8" stroke-dasharray="20.625 6.875" fill="none" fill-rule="evenodd" transform="matrix(1 0 0 -1 4196.5 2658.91)"/><path d="M4196.5 577.5 4399.5 837.221" stroke="#BFBFBF" stroke-width="6.875" stroke-linecap="square" stroke-miterlimit="8" stroke-dasharray="20.625 6.875" fill="none" fill-rule="evenodd"/><path d="M3997 1610.84 4007.31 1610.84 4007.31 1621.16 3997 1621.16ZM4017.63 1610.84 4027.94 1610.84 4027.94 1621.16 4017.63 1621.16ZM4038.25 1610.84 4048.56 1610.84 4048.56 1621.16 4038.25 1621.16ZM4058.88 1610.84 4069.19 1610.84 4069.19 1621.16 4058.88 1621.16ZM4079.5 1610.84 4089.81 1610.84 4089.81 1621.16 4079.5 1621.16ZM4100.13 1610.84 4110.44 1610.84 4110.44 1621.16 4100.12 1621.16ZM4120.75 1610.84 4131.06 1610.84 4131.06 1621.16 4120.75 1621.16ZM4129.95 1600.53 4160.89 1616 4129.95 1631.47Z" fill="#BFBFBF"/><path d="M3312 1610.84 3322.31 1610.84 3322.31 1621.16 3312 1621.16ZM3332.62 1610.84 3342.94 1610.84 3342.94 1621.16 3332.62 1621.16ZM3353.25 1610.84 3363.56 1610.84 3363.56 1621.16 3353.25 1621.16ZM3373.88 1610.84 3384.19 1610.84 3384.19 1621.16 3373.88 1621.16ZM3394.5 1610.84 3398.16 1610.84 3398.16 1621.16 3394.5 1621.16ZM3393 1600.53 3423.94 1616 3393 1631.47Z" fill="#BFBFBF"/><path d="M2591 1607.84 2601.31 1607.84 2601.31 1618.16 2591 1618.16ZM2611.62 1607.84 2621.94 1607.84 2621.94 1618.16 2611.62 1618.16ZM2632.25 1607.84 2642.56 1607.84 2642.56 1618.16 2632.25 1618.16ZM2652.87 1607.84 2663.19 1607.84 2663.19 1618.16 2652.87 1618.16ZM2673.5 1607.84 2683.81 1607.84 2683.81 1618.16 2673.5 1618.16ZM2688 1597.53 2718.93 1613 2688 1628.47Z" fill="#BFBFBF"/><path d="M1981 1607.84 1991.31 1607.84 1991.31 1618.16 1981 1618.16ZM2001.62 1607.84 2011.94 1607.84 2011.94 1618.16 2001.62 1618.16ZM2022.25 1607.84 2032.56 1607.84 2032.56 1618.16 2022.25 1618.16ZM2042.88 1607.84 2053.19 1607.84 2053.19 1618.16 2042.88 1618.16ZM2063.5 1607.84 2073.81 1607.84 2073.81 1618.16 2063.5 1618.16ZM2084.12 1607.84 2094.44 1607.84 2094.44 1618.16 2084.12 1618.16ZM2104.75 1607.84 2115.06 1607.84 2115.06 1618.16 2104.75 1618.16ZM2125.38 1607.84 2135.69 1607.84 2135.69 1618.16 2125.38 1618.16ZM2146 1607.84 2156.31 1607.84 2156.31 1618.16 2146 1618.16ZM2166.62 1607.84 2173.35 1607.84 2173.35 1618.16 2166.62 1618.16ZM2168.19 1597.53 2199.13 1613 2168.19 1628.47Z" fill="#BFBFBF"/><text fill="#D9D9D9" font-family="Arial,Arial_MSFontService,sans-serif" font-weight="700" font-size="64" transform="matrix(1 0 0 1 4656.57 1913)">FC2</text><text fill="#D9D9D9" font-family="Arial,Arial_MSFontService,sans-serif" font-weight="700" font-size="64" transform="matrix(1 0 0 1 4689.5 1990)">+ </text><text fill="#D9D9D9" font-family="Arial,Arial_MSFontService,sans-serif" font-weight="700" font-size="64" transform="matrix(1 0 0 1 4643.19 2067)">Tanh</text><text fill="#D9D9D9" font-family="Arial,Arial_MSFontService,sans-serif" font-weight="700" font-size="64" transform="matrix(1 0 0 1 4383.88 2524)">FC1</text><text fill="#D9D9D9" font-family="Arial,Arial_MSFontService,sans-serif" font-weight="700" font-size="64" transform="matrix(1 0 0 1 4416.81 2601)">+ </text><text fill="#D9D9D9" font-family="Arial,Arial_MSFontService,sans-serif" font-weight="700" font-size="64" transform="matrix(1 0 0 1 4360.66 2678)">ReLU</text><text fill="#D9D9D9" font-family="Arial,Arial_MSFontService,sans-serif" font-weight="700" font-size="64" transform="matrix(1 0 0 1 4100.26 2784)">flatten</text><text fill="#D9D9D9" font-family="Arial,Arial_MSFontService,sans-serif" font-weight="400" font-size="55" transform="matrix(1 0 0 1 3721.62 1426)">64</text><text fill="#D9D9D9" font-family="Arial,Arial_MSFontService,sans-serif" font-weight="400" font-size="55" transform="matrix(1 0 0 1 3034.76 1401)">64</text><text fill="#D9D9D9" font-family="Arial,Arial_MSFontService,sans-serif" font-weight="400" font-size="55" transform="matrix(1 0 0 1 2495.85 1197)">32</text><text fill="#D9D9D9" font-family="Arial,Arial_MSFontService,sans-serif" font-weight="400" font-size="55" transform="matrix(1 0 0 1 2113.97 922)">3</text><text fill="#D9D9D9" font-family="Arial,Arial_MSFontService,sans-serif" font-weight="400" font-size="55" transform="matrix(1 0 0 1 4002.58 1770)">4</text><text fill="#D9D9D9" font-family="Arial,Arial_MSFontService,sans-serif" font-weight="400" font-size="55" transform="matrix(1 0 0 1 1983.47 2106)">128</text><text fill="#D9D9D9" font-family="Arial,Arial_MSFontService,sans-serif" font-weight="400" font-size="55" transform="matrix(1 0 0 1 3317.02 1798)">6</text><text fill="#D9D9D9" font-family="Arial,Arial_MSFontService,sans-serif" font-weight="400" font-size="55" transform="matrix(1 0 0 1 2605.75 1955)">15</text><text fill="#D9D9D9" font-family="Arial,Arial_MSFontService,sans-serif" font-weight="400" font-size="55" transform="matrix(1 0 0 1 3180.9 1675)">6</text><text fill="#D9D9D9" font-family="Arial,Arial_MSFontService,sans-serif" font-weight="400" font-size="55" transform="matrix(1 0 0 1 3882.97 1661)">4</text><text fill="#D9D9D9" font-family="Arial,Arial_MSFontService,sans-serif" font-weight="400" font-size="55" transform="matrix(1 0 0 1 2386.59 1706)">15</text><text fill="#D9D9D9" font-family="Arial,Arial_MSFontService,sans-serif" font-weight="400" font-size="55" transform="matrix(1 0 0 1 1580.22 1805)">128</text><text fill="#D9D9D9" font-family="Arial,Arial_MSFontService,sans-serif" font-weight="700" font-size="64" transform="matrix(1 0 0 1 3612.23 1879)">Conv3</text><text fill="#D9D9D9" font-family="Arial,Arial_MSFontService,sans-serif" font-weight="700" font-size="64" transform="matrix(1 0 0 1 3682.4 1956)">+ </text><text fill="#D9D9D9" font-family="Arial,Arial_MSFontService,sans-serif" font-weight="700" font-size="64" transform="matrix(1 0 0 1 3626.25 2033)">ReLU</text><text fill="#D9D9D9" font-family="Arial,Arial_MSFontService,sans-serif" font-weight="700" font-size="64" transform="matrix(1 0 0 1 2901.81 1913)">Conv2</text><text fill="#D9D9D9" font-family="Arial,Arial_MSFontService,sans-serif" font-weight="700" font-size="64" transform="matrix(1 0 0 1 2971.98 1990)">+ </text><text fill="#D9D9D9" font-family="Arial,Arial_MSFontService,sans-serif" font-weight="700" font-size="64" transform="matrix(1 0 0 1 2915.83 2067)">ReLU</text><text fill="#D9D9D9" font-family="Arial,Arial_MSFontService,sans-serif" font-weight="700" font-size="64" transform="matrix(1 0 0 1 2260.84 2123)">Conv1</text><text fill="#D9D9D9" font-family="Arial,Arial_MSFontService,sans-serif" font-weight="700" font-size="64" transform="matrix(1 0 0 1 2331.01 2200)">+ </text><text fill="#D9D9D9" font-family="Arial,Arial_MSFontService,sans-serif" font-weight="700" font-size="64" transform="matrix(1 0 0 1 2274.86 2277)">ReLU</text><rect x="937" y="1169" width="87.9999" height="934" stroke="#548235" stroke-width="10.3125" stroke-miterlimit="8" fill="#A9D18E"/><text fill="#70AD47" font-family="Arial,Arial_MSFontService,sans-serif" font-weight="700" font-size="64" transform="matrix(1 0 0 1 715.826 1659)">states</text><path d="M1083 1632.84 1093.31 1632.84 1093.31 1643.16 1083 1643.16ZM1103.63 1632.84 1113.94 1632.84 1113.94 1643.16 1103.63 1643.16ZM1124.25 1632.84 1134.56 1632.84 1134.56 1643.16 1124.25 1643.16ZM1144.88 1632.84 1155.19 1632.84 1155.19 1643.16 1144.88 1643.16ZM1165.5 1632.84 1175.81 1632.84 1175.81 1643.16 1165.5 1643.16ZM1186.13 1632.84 1196.44 1632.84 1196.44 1643.16 1186.13 1643.16ZM1206.75 1632.84 1217.06 1632.84 1217.06 1643.16 1206.75 1643.16ZM1227.38 1632.84 1237.69 1632.84 1237.69 1643.16 1227.38 1643.16ZM1248 1632.84 1258.31 1632.84 1258.31 1643.16 1248 1643.16ZM1268.63 1632.84 1278.94 1632.84 1278.94 1643.16 1268.63 1643.16ZM1289.25 1632.84 1299.56 1632.84 1299.56 1643.16 1289.25 1643.16ZM1309.88 1632.84 1320.19 1632.84 1320.19 1643.16 1309.88 1643.16ZM1330.5 1632.84 1340.81 1632.84 1340.81 1643.16 1330.5 1643.16ZM1351.13 1632.84 1361.44 1632.84 1361.44 1643.16 1351.13 1643.16ZM1371.75 1632.84 1382.06 1632.84 1382.06 1643.16 1371.75 1643.16ZM1392.38 1632.84 1402.69 1632.84 1402.69 1643.16 1392.38 1643.16ZM1413 1632.84 1423.31 1632.84 1423.31 1643.16 1413 1643.16ZM1433.63 1632.84 1443.94 1632.84 1443.94 1643.16 1433.63 1643.16ZM1454.25 1632.84 1464.56 1632.84 1464.56 1643.16 1454.25 1643.16ZM1474.88 1632.84 1485.19 1632.84 1485.19 1643.16 1474.88 1643.16ZM1495.5 1632.84 1505.81 1632.84 1505.81 1643.16 1495.5 1643.16ZM1516.13 1632.84 1526.44 1632.84 1526.44 1643.16 1516.13 1643.16ZM1536.75 1632.84 1547.06 1632.84 1547.06 1643.16 1536.75 1643.16ZM1557.38 1632.84 1567.69 1632.84 1567.69 1643.16 1557.38 1643.16ZM1578 1632.84 1588.31 1632.84 1588.31 1643.16 1578 1643.16ZM1598.63 1632.84 1608.94 1632.84 1608.94 1643.16 1598.63 1643.16ZM1619.25 1632.84 1623 1632.84 1623 1643.16 1619.25 1643.16ZM1617.84 1622.53 1648.78 1638 1617.84 1653.47Z" fill="#BFBFBF"/><text fill="#D9D9D9" font-family="Arial,Arial_MSFontService,sans-serif" font-weight="400" font-size="55" transform="matrix(1 0 0 1 898.792 1139)">12288</text><text fill="#D9D9D9" font-family="Arial,Arial_MSFontService,sans-serif" font-weight="400" font-size="64" transform="matrix(1 0 0 1 1082.92 1581)">reshape (view)</text><text fill="#D9D9D9" font-family="Arial,Arial_MSFontService,sans-serif" font-weight="400" font-size="64" transform="matrix(1 0 0 1 1113.29 1735)">and permute</text><text fill="#D9D9D9" font-family="Arial,Arial_MSFontService,sans-serif" font-weight="400" font-size="64" transform="matrix(1 0 0 1 1082.92 1812)">(channels first)</text><rect x="4943" y="1082" width="88" height="1068" stroke="#404040" stroke-width="10.3125" stroke-miterlimit="8" fill="#BFBFBF"/><rect x="5216" y="1292" width="88" height="647" stroke="#404040" stroke-width="10.3125" stroke-miterlimit="8" fill="#BFBFBF"/><rect x="5489" y="1523" width="87" height="185" stroke="#ED7D31" stroke-width="10.3125" stroke-miterlimit="8" fill="#F4B183"/><rect x="4671" y="1446" width="87" height="340" stroke="#404040" stroke-width="10.3125" stroke-miterlimit="8" fill="#BFBFBF"/><rect x="4399" y="834" width="87" height="1564" stroke="#404040" stroke-width="10.3125" stroke-miterlimit="8" fill="#BFBFBF"/><rect x="4188" y="577" width="16" height="2081" stroke="#595959" stroke-width="10.3125" stroke-miterlimit="8" fill="#595959"/></g></svg>
