<svg width="3233" height="1797" xmlns="http://www.w3.org/2000/svg" xmlns:xlink="http://www.w3.org/1999/xlink" xml:space="preserve" overflow="hidden"><defs><clipPath id="clip0"><rect x="1663" y="686" width="3233" height="1797"/></clipPath></defs><g clip-path="url(#clip0)" transform="translate(-1663 -686)"><rect x="2906" y="1210" width="87" height="729" stroke="#404040" stroke-width="10.3125" stroke-miterlimit="8" fill="#BFBFBF"/><path d="M0 0 185.263 270.594" stroke="#BFBFBF" stroke-width="6.875" stroke-linecap="square" stroke-miterlimit="8" stroke-dasharray="20.625 6.875" fill="none" fill-rule="evenodd" transform="matrix(-1 0 0 1 4753.76 1622.5)"/><path d="M0 0 185.263 210.592" stroke="#BFBFBF" stroke-width="6.875" stroke-linecap="square" stroke-miterlimit="8" stroke-dasharray="20.625 6.875" fill="none" fill-rule="evenodd" transform="matrix(-1 0 0 1 4480.76 1893.5)"/><path d="M4568.5 1246.5 4753.76 1517.09" stroke="#BFBFBF" stroke-width="6.875" stroke-linecap="square" stroke-miterlimit="8" stroke-dasharray="20.625 6.875" fill="none" fill-rule="evenodd"/><path d="M4295.5 1035.5 4480.76 1246.09" stroke="#BFBFBF" stroke-width="6.875" stroke-linecap="square" stroke-miterlimit="8" stroke-dasharray="20.625 6.875" fill="none" fill-rule="evenodd"/><path d="M0 0 190.137 229.717" stroke="#BFBFBF" stroke-width="6.875" stroke-linecap="square" stroke-miterlimit="8" stroke-dasharray="20.625 6.875" fill="none" fill-rule="evenodd" transform="matrix(-1 0 0 1 4207.64 1035.5)"/><path d="M4017.5 1877.5 4207.64 2104.19" stroke="#BFBFBF" stroke-width="6.875" stroke-linecap="square" stroke-miterlimit="8" stroke-dasharray="20.625 6.875" fill="none" fill-rule="evenodd"/><rect x="4207" y="1035" width="88" height="1068" stroke="#404040" stroke-width="10.3125" stroke-miterlimit="8" fill="#BFBFBF"/><rect x="4480" y="1246" width="88" height="647" stroke="#404040" stroke-width="10.3125" stroke-miterlimit="8" fill="#BFBFBF"/><rect x="4753" y="1516" width="88" height="106" stroke="#404040" stroke-width="10.3125" stroke-miterlimit="8" fill="#BFBFBF"/><text fill="#D9D9D9" font-family="Arial,Arial_MSFontService,sans-serif" font-weight="700" font-size="64" transform="matrix(1 0 0 1 4190.79 2228)">FC1</text><text fill="#D9D9D9" font-family="Arial,Arial_MSFontService,sans-serif" font-weight="700" font-size="64" transform="matrix(1 0 0 1 4223.72 2305)">+ </text><text fill="#D9D9D9" font-family="Arial,Arial_MSFontService,sans-serif" font-weight="700" font-size="64" transform="matrix(1 0 0 1 4167.58 2382)">ReLU</text><text fill="#D9D9D9" font-family="Arial,Arial_MSFontService,sans-serif" font-weight="700" font-size="64" transform="matrix(1 0 0 1 4463.61 2018)">FC2</text><text fill="#D9D9D9" font-family="Arial,Arial_MSFontService,sans-serif" font-weight="700" font-size="64" transform="matrix(1 0 0 1 4505.43 2095)">+</text><text fill="#D9D9D9" font-family="Arial,Arial_MSFontService,sans-serif" font-weight="700" font-size="64" transform="matrix(1 0 0 1 4440.4 2172)">ReLU</text><text fill="#D9D9D9" font-family="Arial,Arial_MSFontService,sans-serif" font-weight="700" font-size="64" transform="matrix(1 0 0 1 4736.42 1735)">FC3</text><text fill="#D9D9D9" font-family="Arial,Arial_MSFontService,sans-serif" font-weight="400" font-size="55" transform="matrix(1 0 0 1 4220.86 1005)">64</text><text fill="#D9D9D9" font-family="Arial,Arial_MSFontService,sans-serif" font-weight="400" font-size="55" transform="matrix(1 0 0 1 4493.68 1216)">32</text><text fill="#D9D9D9" font-family="Arial,Arial_MSFontService,sans-serif" font-weight="400" font-size="55" transform="matrix(1 0 0 1 4781.68 1486)">1</text><rect x="2926" y="1230" width="45" height="128" stroke="#404040" stroke-width="10.3125" stroke-miterlimit="8" fill="#D9D9D9"/><rect x="2927" y="1635" width="45" height="128" stroke="#404040" stroke-width="10.3125" stroke-miterlimit="8" fill="#D9D9D9"/><rect x="2927" y="1787" width="45" height="128" stroke="#404040" stroke-width="10.3125" stroke-miterlimit="8" fill="#D9D9D9"/><path d="M5.15625-2.51828e-05 5.1563 10.3125-5.1562 10.3125-5.15625 2.51828e-05ZM5.15635 20.625 5.1564 30.9375-5.1561 30.9375-5.15615 20.625ZM5.15645 41.25 5.1565 51.5625-5.156 51.5625-5.15605 41.25ZM5.15655 61.875 5.1566 72.1875-5.1559 72.1875-5.15595 61.875ZM5.15665 82.5 5.1567 92.8125-5.1558 92.8125-5.15585 82.5ZM5.15675 103.125 5.1568 113.437-5.1557 113.438-5.15575 103.125ZM15.4693 116.85 0.000721785 147.787-15.4682 116.85Z" fill="#BF9000" transform="matrix(-1 0 0 1 2949 1028)"/><path d="M5.15609-0.0401947 5.23648 10.272-5.0757 10.3524-5.15609 0.0401947ZM5.31687 20.5842 5.39726 30.8964-4.91492 30.9768-4.99531 20.6646ZM5.47765 41.2086 5.55804 51.5207-4.75415 51.6011-4.83454 41.2889ZM5.63843 61.8329 5.71882 72.1451-4.59337 72.2255-4.67376 61.9133ZM5.79921 82.4573 5.8796 92.7695-4.43259 92.8499-4.51298 82.5377ZM5.95999 103.082 6.04038 113.394-4.27181 113.474-4.3522 103.162ZM16.3791 116.715 1.15197 147.772-14.5575 116.956Z" fill="#BF9000" transform="matrix(-1 0 0 1 2949.15 1973)"/><rect x="2522" y="1438" width="88" height="270" stroke="#548235" stroke-width="10.3125" stroke-miterlimit="8" fill="#A9D18E"/><rect x="2390" y="1436" width="87" height="271" stroke="#548235" stroke-width="10.3125" stroke-miterlimit="8" fill="#A9D18E"/><rect x="2628" y="1438" width="88" height="270" stroke="#548235" stroke-width="10.3125" stroke-miterlimit="8" fill="#A9D18E"/><text fill="#70AD47" font-family="Calibri,Calibri_MSFontService,sans-serif" font-weight="400" font-size="83" transform="matrix(6.12323e-17 1 -1 6.12323e-17 2495.41 1543)">…</text><rect x="3930" y="1265" width="87" height="340" stroke="#404040" stroke-width="10.3125" stroke-linecap="square" stroke-miterlimit="8" stroke-dasharray="30.9375 10.3125" fill="#BFBFBF"/><rect x="3930" y="1606" width="87" height="271" stroke="#7030A0" stroke-width="10.3125" stroke-miterlimit="8" fill="#CC99FF"/><text fill="#CC99FF" font-family="Arial,Arial_MSFontService,sans-serif" font-weight="700" font-size="64" transform="matrix(1 0 0 1 3892.13 1997)">taken</text><text fill="#CC99FF" font-family="Arial,Arial_MSFontService,sans-serif" font-weight="700" font-size="64" transform="matrix(1 0 0 1 3864.93 2074)">actions</text><rect x="2927" y="1483" width="45" height="128" stroke="#404040" stroke-width="10.3125" stroke-miterlimit="8" fill="#D9D9D9"/><text fill="#595959" font-family="Calibri,Calibri_MSFontService,sans-serif" font-weight="400" font-size="83" transform="matrix(6.12323e-17 1 -1 6.12323e-17 2943.29 1392)">…</text><rect x="2814" y="906" width="271" height="87" stroke="#BF9000" stroke-width="10.3125" stroke-miterlimit="8" fill="#FFE699"/><rect x="2813" y="2156" width="271" height="87" stroke="#BF9000" stroke-width="10.3125" stroke-miterlimit="8" fill="#FFE699"/><text fill="#70AD47" font-family="Arial,Arial_MSFontService,sans-serif" font-weight="700" font-size="64" transform="matrix(1 0 0 1 1701.65 1599)">states</text><path d="M2060 1572.84 2070.31 1572.84 2070.31 1583.16 2060 1583.16ZM2080.62 1572.84 2090.94 1572.84 2090.94 1583.16 2080.62 1583.16ZM2101.25 1572.84 2111.56 1572.84 2111.56 1583.16 2101.25 1583.16ZM2121.88 1572.84 2132.19 1572.84 2132.19 1583.16 2121.88 1583.16ZM2142.5 1572.84 2152.81 1572.84 2152.81 1583.16 2142.5 1583.16ZM2163.12 1572.84 2173.44 1572.84 2173.44 1583.16 2163.12 1583.16ZM2183.75 1572.84 2194.06 1572.84 2194.06 1583.16 2183.75 1583.16ZM2204.38 1572.84 2214.69 1572.84 2214.69 1583.16 2204.38 1583.16ZM2225 1572.84 2235.31 1572.84 2235.31 1583.16 2225 1583.16ZM2245.62 1572.84 2255.94 1572.84 2255.94 1583.16 2245.62 1583.16ZM2266.25 1572.84 2276.56 1572.84 2276.56 1583.16 2266.25 1583.16ZM2286.88 1572.84 2297.19 1572.84 2297.19 1583.16 2286.88 1583.16ZM2307.5 1572.84 2317.81 1572.84 2317.81 1583.16 2307.5 1583.16ZM2319.4 1562.53 2350.33 1578 2319.4 1593.47Z" fill="#BFBFBF"/><text fill="#D9D9D9" font-family="Arial,Arial_MSFontService,sans-serif" font-weight="400" font-size="64" transform="matrix(1 0 0 1 2082.39 1524)">reshape</text><text fill="#D9D9D9" font-family="Arial,Arial_MSFontService,sans-serif" font-weight="400" font-size="64" transform="matrix(1 0 0 1 2112.48 1678)">(view)</text><rect x="1926" y="1442" width="88" height="270" stroke="#548235" stroke-width="10.3125" stroke-miterlimit="8" fill="#A9D18E"/><text fill="#D9D9D9" font-family="Arial,Arial_MSFontService,sans-serif" font-style="italic" font-weight="400" font-size="55" transform="matrix(1 0 0 1 1849.58 1405)">(N*L, </text><text fill="#D9D9D9" font-family="Arial,Arial_MSFontService,sans-serif" font-style="italic" font-weight="400" font-size="55" transform="matrix(1 0 0 1 1989.95 1405)">Hin</text><text fill="#D9D9D9" font-family="Arial,Arial_MSFontService,sans-serif" font-style="italic" font-weight="400" font-size="55" transform="matrix(1 0 0 1 2071.88 1405)">)</text><text fill="#D9D9D9" font-family="Arial,Arial_MSFontService,sans-serif" font-style="italic" font-weight="400" font-size="55" transform="matrix(1 0 0 1 2428.97 1405)">(N, L, </text><text fill="#D9D9D9" font-family="Arial,Arial_MSFontService,sans-serif" font-style="italic" font-weight="400" font-size="55" transform="matrix(1 0 0 1 2579.07 1405)">Hin</text><text fill="#D9D9D9" font-family="Arial,Arial_MSFontService,sans-serif" font-style="italic" font-weight="400" font-size="55" transform="matrix(1 0 0 1 2661 1405)">)</text><text fill="#BF9000" font-family="Arial,Arial_MSFontService,sans-serif" font-weight="700" font-size="64" transform="matrix(1 0 0 1 2882.71 2352)">final</text><text fill="#BF9000" font-family="Arial,Arial_MSFontService,sans-serif" font-weight="700" font-size="64" transform="matrix(1 0 0 1 2856.08 2429)">states</text><text fill="#BF9000" font-family="Arial,Arial_MSFontService,sans-serif" font-weight="700" font-size="64" transform="matrix(1 0 0 1 2864.95 767)">initial</text><text fill="#BF9000" font-family="Arial,Arial_MSFontService,sans-serif" font-weight="700" font-size="64" transform="matrix(1 0 0 1 2856.08 844)">states</text><rect x="3310" y="1438" width="88" height="271" stroke="#404040" stroke-width="10.3125" stroke-linecap="square" stroke-miterlimit="8" stroke-dasharray="30.9375 10.3125" fill="#BFBFBF"/><rect x="3178" y="1437" width="87" height="270" stroke="#404040" stroke-width="10.3125" stroke-linecap="square" stroke-miterlimit="8" stroke-dasharray="30.9375 10.3125" fill="#BFBFBF"/><rect x="3416" y="1438" width="88" height="271" stroke="#404040" stroke-width="10.3125" stroke-linecap="square" stroke-miterlimit="8" stroke-dasharray="30.9375 10.3125" fill="#BFBFBF"/><text fill="#BFBFBF" font-family="Calibri,Calibri_MSFontService,sans-serif" font-weight="400" font-size="83" transform="matrix(6.12323e-17 1 -1 6.12323e-17 3283.31 1544)">…</text><text fill="#D9D9D9" font-family="Arial,Arial_MSFontService,sans-serif" font-style="italic" font-weight="400" font-size="55" transform="matrix(1 0 0 1 3169.61 1405)">(N, L, D*</text><text fill="#D9D9D9" font-family="Arial,Arial_MSFontService,sans-serif" font-style="italic" font-weight="400" font-size="55" transform="matrix(1 0 0 1 3380.44 1405)">Hout</text><text fill="#D9D9D9" font-family="Arial,Arial_MSFontService,sans-serif" font-style="italic" font-weight="400" font-size="55" transform="matrix(1 0 0 1 3496.17 1405)">)</text><path d="M3025 1569.84 3035.31 1569.84 3035.31 1580.16 3025 1580.16ZM3045.62 1569.84 3055.94 1569.84 3055.94 1580.16 3045.62 1580.16ZM3066.25 1569.84 3076.56 1569.84 3076.56 1580.16 3066.25 1580.16ZM3086.88 1569.84 3097.19 1569.84 3097.19 1580.16 3086.88 1580.16ZM3107.5 1569.84 3117.81 1569.84 3117.81 1580.16 3107.5 1580.16ZM3116.55 1559.53 3147.49 1575 3116.55 1590.47Z" fill="#BFBFBF"/><path d="M3537 1568.84 3547.31 1568.84 3547.31 1579.16 3537 1579.16ZM3557.62 1568.84 3567.94 1568.84 3567.94 1579.16 3557.62 1579.16ZM3578.25 1568.84 3588.56 1568.84 3588.56 1579.16 3578.25 1579.16ZM3598.87 1568.84 3609.19 1568.84 3609.19 1579.16 3598.87 1579.16ZM3619.5 1568.84 3629.81 1568.84 3629.81 1579.16 3619.5 1579.16ZM3640.12 1568.84 3650.44 1568.84 3650.44 1579.16 3640.12 1579.16ZM3660.75 1568.84 3671.06 1568.84 3671.06 1579.16 3660.75 1579.16ZM3669.95 1558.53 3700.89 1574 3669.95 1589.47Z" fill="#BFBFBF"/><text fill="#D9D9D9" font-family="Arial,Arial_MSFontService,sans-serif" font-weight="700" font-size="64" transform="matrix(1 0 0 1 3639.32 1869)">flatten</text><rect x="3728" y="1404" width="16.0002" height="341" stroke="#595959" stroke-width="10.3125" stroke-miterlimit="8" fill="#595959"/><text fill="#D9D9D9" font-family="Arial,Arial_MSFontService,sans-serif" font-weight="700" font-size="64" transform="matrix(1 0 0 1 3034.49 1943)">RNN</text><path d="M0-2.29167 36.6667-2.29167 36.6667 2.29167 0 2.29167ZM50.4167-2.29167 55-2.29167 55 2.29167 50.4167 2.29167ZM64.6847 6.35694 64.6847 43.0236 60.1014 43.0236 60.1014 6.35694ZM64.6847 56.7736 64.6847 61.3569 60.1014 61.3569 60.1014 56.7736ZM64.6847 75.1069 64.6847 111.774 60.1014 111.774 60.1014 75.1069ZM64.6847 125.524 64.6847 130.107 60.1014 130.107 60.1014 125.524ZM69.5627 134.396 101.869 134.396 101.869 138.979 69.5627 138.979ZM97.2861 122.937 124.786 136.687 97.2861 150.437Z" fill="#BFBFBF" transform="matrix(1 0 0 -1 3774.5 1574.19)"/><text fill="#D9D9D9" font-family="Arial,Arial_MSFontService,sans-serif" font-style="italic" font-weight="400" font-size="55" transform="matrix(1 0 0 1 3646.22 1371)">D*</text><text fill="#D9D9D9" font-family="Arial,Arial_MSFontService,sans-serif" font-style="italic" font-weight="400" font-size="55" transform="matrix(1 0 0 1 3706.95 1371)">Hout</text><path d="M3025 1645.84 3035.31 1645.84 3035.31 1656.16 3025 1656.16ZM3045.62 1645.84 3055.94 1645.84 3055.94 1656.16 3045.62 1656.16ZM3066.25 1645.84 3076.56 1645.84 3076.56 1656.16 3066.25 1656.16ZM3086.88 1645.84 3097.19 1645.84 3097.19 1656.16 3086.88 1656.16ZM3107.5 1645.84 3117.81 1645.84 3117.81 1656.16 3107.5 1656.16ZM3116.55 1635.53 3147.49 1651 3116.55 1666.47Z" fill="#BFBFBF"/><path d="M3025 1499.84 3035.31 1499.84 3035.31 1510.16 3025 1510.16ZM3045.62 1499.84 3055.94 1499.84 3055.94 1510.16 3045.62 1510.16ZM3066.25 1499.84 3076.56 1499.84 3076.56 1510.16 3066.25 1510.16ZM3086.88 1499.84 3097.19 1499.84 3097.19 1510.16 3086.88 1510.16ZM3107.5 1499.84 3117.81 1499.84 3117.81 1510.16 3107.5 1510.16ZM3116.55 1489.53 3147.49 1505 3116.55 1520.47Z" fill="#BFBFBF"/><path d="M2752 1568.84 2762.31 1568.84 2762.31 1579.16 2752 1579.16ZM2772.62 1568.84 2782.94 1568.84 2782.94 1579.16 2772.62 1579.16ZM2793.25 1568.84 2803.56 1568.84 2803.56 1579.16 2793.25 1579.16ZM2813.88 1568.84 2824.19 1568.84 2824.19 1579.16 2813.88 1579.16ZM2834.5 1568.84 2844.81 1568.84 2844.81 1579.16 2834.5 1579.16ZM2843.55 1558.53 2874.49 1574 2843.55 1589.47Z" fill="#BFBFBF"/><path d="M2752 1645.84 2762.31 1645.84 2762.31 1656.16 2752 1656.16ZM2772.62 1645.84 2782.94 1645.84 2782.94 1656.16 2772.62 1656.16ZM2793.25 1645.84 2803.56 1645.84 2803.56 1656.16 2793.25 1656.16ZM2813.88 1645.84 2824.19 1645.84 2824.19 1656.16 2813.88 1656.16ZM2834.5 1645.84 2844.81 1645.84 2844.81 1656.16 2834.5 1656.16ZM2843.55 1635.53 2874.49 1651 2843.55 1666.47Z" fill="#BFBFBF"/><path d="M2752 1498.84 2762.31 1498.84 2762.31 1509.16 2752 1509.16ZM2772.62 1498.84 2782.94 1498.84 2782.94 1509.16 2772.62 1509.16ZM2793.25 1498.84 2803.56 1498.84 2803.56 1509.16 2793.25 1509.16ZM2813.88 1498.84 2824.19 1498.84 2824.19 1509.16 2813.88 1509.16ZM2834.5 1498.84 2844.81 1498.84 2844.81 1509.16 2834.5 1509.16ZM2843.55 1488.53 2874.49 1504 2843.55 1519.47Z" fill="#BFBFBF"/></g></svg>
