<svg width="4300" height="2180" xmlns="http://www.w3.org/2000/svg" xmlns:xlink="http://www.w3.org/1999/xlink" xml:space="preserve" overflow="hidden"><g transform="translate(-1067 -547)"><path d="M1771 1604.5C1771 1303.78 2014.78 1060 2315.5 1060 2616.22 1060 2860 1303.78 2860 1604.5 2860 1905.22 2616.22 2149 2315.5 2149 2014.78 2149 1771 1905.22 1771 1604.5Z" fill="#FFC000" fill-rule="evenodd"/><path d="M3996 1608.5C3996 1307.78 4239.78 1064 4540.5 1064 4841.22 1064 5085 1307.78 5085 1608.5 5085 1909.22 4841.22 2153 4540.5 2153 4239.78 2153 3996 1909.22 3996 1608.5Z" fill="#BDD7EE" fill-rule="evenodd"/><path d="M4047 1604C4047 1330.62 4268.62 1109 4542 1109 4815.38 1109 5037 1330.62 5037 1604 5037 1877.38 4815.38 2099 4542 2099 4268.62 2099 4047 1877.38 4047 1604Z" stroke="#404040" stroke-width="13.75" stroke-miterlimit="8" fill="#BDD7EE" fill-rule="evenodd"/><path d="M4158.5 1604.5C4158.5 1331.12 4330.42 1109.5 4542.5 1109.5 4754.58 1109.5 4926.5 1331.12 4926.5 1604.5 4926.5 1877.88 4754.58 2099.5 4542.5 2099.5 4330.42 2099.5 4158.5 1877.88 4158.5 1604.5Z" stroke="#404040" stroke-width="4.58333" stroke-miterlimit="8" fill="none" fill-rule="evenodd"/><path d="M4297.5 1604.5C4297.5 1331.12 4407.19 1109.5 4542.5 1109.5 4677.81 1109.5 4787.5 1331.12 4787.5 1604.5 4787.5 1877.88 4677.81 2099.5 4542.5 2099.5 4407.19 2099.5 4297.5 1877.88 4297.5 1604.5Z" stroke="#404040" stroke-width="4.58333" stroke-miterlimit="8" fill="none" fill-rule="evenodd"/><path d="M4456.5 1604.5C4456.5 1331.12 4495 1109.5 4542.5 1109.5 4590 1109.5 4628.5 1331.12 4628.5 1604.5 4628.5 1877.88 4590 2099.5 4542.5 2099.5 4495 2099.5 4456.5 1877.88 4456.5 1604.5Z" stroke="#404040" stroke-width="4.58333" stroke-miterlimit="8" fill="none" fill-rule="evenodd"/><path d="M4542.5 1220.5C4815.88 1220.5 5037.5 1392.42 5037.5 1604.5 5037.5 1816.58 4815.88 1988.5 4542.5 1988.5 4269.12 1988.5 4047.5 1816.58 4047.5 1604.5 4047.5 1392.42 4269.12 1220.5 4542.5 1220.5Z" stroke="#404040" stroke-width="4.58333" stroke-miterlimit="8" fill="none" fill-rule="evenodd"/><path d="M4542.5 1359.5C4815.88 1359.5 5037.5 1469.19 5037.5 1604.5 5037.5 1739.81 4815.88 1849.5 4542.5 1849.5 4269.12 1849.5 4047.5 1739.81 4047.5 1604.5 4047.5 1469.19 4269.12 1359.5 4542.5 1359.5Z" stroke="#404040" stroke-width="4.58333" stroke-miterlimit="8" fill="none" fill-rule="evenodd"/><path d="M4542.5 1518.5C4815.88 1518.5 5037.5 1557 5037.5 1604.5 5037.5 1652 4815.88 1690.5 4542.5 1690.5 4269.12 1690.5 4047.5 1652 4047.5 1604.5 4047.5 1557 4269.12 1518.5 4542.5 1518.5Z" stroke="#404040" stroke-width="4.58333" stroke-miterlimit="8" fill="none" fill-rule="evenodd"/><path d="M4672.2 1128.93C4937.44 1225.75 4966.38 1367.93 4976.02 1364.4 5033.28 1466.82 5055.76 1614.69 5022.52 1719.37 5006.63 1807.64 5001.24 1781.58 4990.69 1789.82 4982.42 1790.79 4965.63 1796.29 4952.44 1792.92 4939.25 1789.54 4935.9 1784.4 4911.57 1769.55 4887.25 1754.7 4827.16 1722.82 4806.48 1703.83 4785.81 1684.85 4788.73 1669.03 4787.51 1655.64 4786.29 1642.26 4790.43 1638.36 4799.19 1623.52 4807.94 1608.67 4829.35 1587.98 4840.05 1566.56 4850.76 1545.15 4864.87 1513.02 4863.41 1495.01 4861.95 1477 4844.19 1469.45 4831.3 1458.5 4818.4 1447.55 4801.38 1439.27 4786.05 1429.29 4770.72 1419.31 4750.29 1408.6 4739.34 1398.62 4728.4 1388.64 4727.89 1380.9 4720.37 1369.42 4714.82 1360.94 4713.56 1360.9 4702.85 1344.59 4692.15 1328.28 4665.88 1288.85 4656.15 1271.57 4646.17 1253.08 4642.77 1246.02 4643.01 1233.61 4643.26 1221.19 4654.69 1205.86 4657.61 1197.1 4662.23 1179.33 4668.55 1138.68 4670.74 1127L4670.74 1127" fill="#70AD47" fill-rule="evenodd"/><path d="M5002.5 1787.54 5002.5 1787.54C4981.85 1793.18 4967.96 1796.31 4952.88 1793.39 4937.8 1790.47 4936.35 1784.87 4912.02 1770.02 4887.7 1755.18 4827.63 1723.29 4806.95 1704.31 4786.28 1685.33 4789.2 1669.51 4787.98 1656.12 4786.77 1642.73 4790.9 1638.84 4799.66 1623.99 4808.41 1609.15 4829.82 1588.46 4840.52 1567.04 4851.22 1545.63 4865.33 1513.5 4863.87 1495.49 4862.41 1477.48 4844.65 1469.93 4831.76 1458.98 4818.87 1448.03 4801.85 1439.76 4786.52 1429.78 4771.2 1419.8 4750.77 1409.09 4739.83 1399.11 4728.88 1389.13 4728.38 1381.39 4720.86 1369.91 4715.31 1361.43 4714.04 1361.39 4703.34 1345.08 4692.64 1328.78 4666.37 1289.35 4656.65 1272.07 4646.67 1253.57 4643.27 1246.51 4643.51 1234.1 4643.76 1221.69 4655.19 1206.35 4658.1 1197.59 4662.73 1179.83 4669.05 1139.18 4671.24 1127.5L4671.24 1127.5" stroke="#385723" stroke-width="20.625" stroke-linecap="round" stroke-miterlimit="8" fill="none" fill-rule="evenodd"/><path d="M4048.9 1658.34C4050.22 1657.6 4013.53 1393.27 4228.11 1225.64 4231.09 1225.1 4238.26 1213.46 4238.09 1226.86 4237.91 1240.26 4221.05 1286.15 4227.07 1306.04 4233.09 1325.93 4240.77 1357.4 4274.22 1346.22 4307.68 1335.04 4399.15 1246.62 4427.79 1238.97 4492.21 1221.76 4457.74 1278.99 4447.48 1305.91 4437.97 1330.87 4394.54 1345.72 4404.96 1397.55 4415.39 1449.39 4514.18 1556.15 4510.02 1616.9 4505.86 1677.65 4420.77 1725.93 4380 1762.03 4339.24 1798.13 4297.41 1843.6 4265.43 1833.52 4233.44 1823.43 4223.35 1729.11 4188.09 1701.52 4152.83 1673.92 4088.39 1668.59 4053.89 1667.93" fill="#70AD47" fill-rule="evenodd"/><path d="M4238.27 1220.68C4239.42 1233.33 4221.23 1279.96 4227.25 1299.86 4233.28 1319.75 4240.95 1351.21 4274.41 1340.03 4307.86 1328.85 4399.34 1240.43 4427.98 1232.78 4492.4 1215.57 4457.92 1272.81 4447.67 1299.73 4438.16 1324.68 4394.73 1339.54 4405.15 1391.37 4415.57 1443.2 4514.37 1549.97 4510.21 1610.71 4506.04 1671.46 4420.95 1719.74 4380.19 1755.84 4339.42 1791.95 4297.6 1837.42 4265.61 1827.33 4233.63 1817.25 4223.54 1722.93 4188.28 1695.33 4153.02 1667.73 4088.57 1662.4 4054.07 1661.75" stroke="#385723" stroke-width="20.625" stroke-linecap="round" stroke-miterlimit="8" fill="none" fill-rule="evenodd"/><path d="M4589.23 2095.01C4592.57 2086.67 4594.98 2082.27 4593.61 2073.13 4592.24 2063.98 4582.89 2047.64 4581 2040.12 4588.97 2005.67 4597.6 2022.4 4603.85 2013.31 4610.09 2004.22 4613.11 1993.37 4618.47 1985.59 4623.83 1977.81 4628.95 1970.03 4636.01 1966.62 4643.08 1963.22 4652.58 1965.65 4660.87 1965.17 4664.28 1962.73 4667.58 1960.13 4671.1 1957.87 4700.72 1938.87 4700.72 1952.75 4760.29 1954.95 4769.06 1957.38 4776.13 1962.98 4786.61 1962.25 4797.08 1961.52 4808.67 1951.76 4823.16 1950.58L4873.56 1955.14C4877.03 1958.76 4895.61 1954.68 4872.87 1971.62 4758.11 2076.26 4645.41 2086.1 4592.6 2098" fill="#70AD47" fill-rule="evenodd"/><path d="M4590.7 2095.5C4594.03 2087.16 4596.43 2082.77 4595.07 2073.62 4593.7 2064.47 4584.38 2048.14 4582.5 2040.61 4590.44 2006.16 4599.04 2022.89 4605.26 2013.81 4611.48 2004.72 4614.49 1993.87 4619.83 1986.09 4625.17 1978.31 4630.27 1970.53 4637.31 1967.12 4644.35 1963.72 4653.82 1966.15 4662.08 1965.66 4665.47 1963.23 4668.76 1960.63 4672.27 1958.37 4701.79 1939.37 4701.78 1953.25 4761.13 1955.45 4769.87 1957.88 4776.92 1963.48 4787.35 1962.75 4797.79 1962.02 4814.79 1952.54 4823.77 1951.08L4883.5 1958.37" stroke="#385723" stroke-width="20.625" stroke-linecap="round" stroke-miterlimit="8" fill="none" fill-rule="evenodd"/><path d="M4046.5 1606.5C4046.5 1333.12 4268.12 1111.5 4541.5 1111.5 4814.88 1111.5 5036.5 1333.12 5036.5 1606.5 5036.5 1879.88 4814.88 2101.5 4541.5 2101.5 4268.12 2101.5 4046.5 1879.88 4046.5 1606.5Z" stroke="#404040" stroke-width="20.625" stroke-miterlimit="8" fill="none" fill-rule="evenodd"/><path d="M1870 1603C1870 1356.68 2069.68 1157 2316 1157 2562.32 1157 2762 1356.68 2762 1603 2762 1849.32 2562.32 2049 2316 2049 2069.68 2049 1870 1849.32 1870 1603Z" fill="#EF7F1A" fill-rule="evenodd"/><path d="M1821.5 1603.5C1821.5 1330.12 2043.12 1108.5 2316.5 1108.5 2589.88 1108.5 2811.5 1330.12 2811.5 1603.5 2811.5 1876.88 2589.88 2098.5 2316.5 2098.5 2043.12 2098.5 1821.5 1876.88 1821.5 1603.5Z" stroke="#404040" stroke-width="20.625" stroke-miterlimit="8" fill="none" fill-rule="evenodd"/><path d="M0 6.875-189.063 6.875-182.188 0-182.188 2228.27-189.063 2221.39-30.6076 2221.39-30.6076 2235.14-195.938 2235.14-195.938-6.875 0-6.875ZM-37.4826 2207.64 3.76736 2228.27-37.4826 2248.89Z" fill="#404040" transform="matrix(1.83697e-16 1 1 -1.83697e-16 2314 1033)"/><path d="M4514.32 2175 4514.32 2372.3 3523 2372.3" stroke="#404040" stroke-width="13.75" stroke-miterlimit="8" fill="none" fill-rule="evenodd"/><text fill="#404040" font-family="Arial,Arial_MSFontService,sans-serif" font-weight="700" font-size="92" transform="matrix(1 0 0 1 3289.97 790)">actions (</text><path d="M3697.91 749.236C3695.13 749.236 3692.66 750.636 3690.5 753.436 3688.34 756.236 3686.61 760.002 3685.29 764.734 3683.97 769.466 3683.31 773.703 3683.31 777.447 3683.31 779.633 3683.63 781.265 3684.28 782.343 3684.92 783.421 3685.92 783.96 3687.26 783.96 3689.24 783.96 3691.26 782.995 3693.31 781.063 3695.36 779.131 3697.01 776.863 3698.27 774.257 3699.53 771.652 3700.65 768.088 3701.64 763.566L3702 761.904C3702.48 759.688 3702.72 757.471 3702.72 755.255 3702.72 753.279 3702.34 751.781 3701.59 750.763 3700.85 749.745 3699.62 749.236 3697.91 749.236ZM3697.37 744.564C3701.83 744.564 3705.64 745.642 3708.78 747.798L3713.14 744.564 3718.17 745.283 3710.89 775.829C3710.44 777.716 3710.22 779.423 3710.22 780.951 3710.22 781.939 3710.38 782.703 3710.71 783.242 3711.04 783.781 3711.61 784.05 3712.42 784.05 3713.35 784.05 3714.35 783.631 3715.43 782.792 3716.51 781.954 3717.77 780.711 3719.2 779.064L3722.44 782.298C3719.29 785.443 3716.58 787.607 3714.31 788.789 3712.03 789.972 3709.64 790.564 3707.12 790.564 3704.6 790.564 3702.61 789.868 3701.15 788.475 3699.68 787.082 3698.94 785.248 3698.94 782.972 3698.94 782.223 3699.03 781.505 3699.21 780.816L3698.59 780.726C3696.4 783.301 3694.52 785.241 3692.95 786.543 3691.38 787.846 3689.71 788.842 3687.94 789.531 3686.17 790.219 3684.21 790.564 3682.05 790.564 3678.46 790.564 3675.73 789.343 3673.88 786.903 3672.02 784.462 3671.09 780.906 3671.09 776.234 3671.09 772.191 3671.68 768.178 3672.84 764.195 3674.01 760.212 3675.69 756.775 3677.88 753.885 3680.06 750.995 3682.81 748.719 3686.12 747.057 3689.43 745.395 3693.18 744.564 3697.37 744.564Z" fill="#404040" fill-rule="evenodd"/><text fill="#000000" fill-opacity="0" font-family="Arial,Arial_MSFontService,sans-serif" font-size="46" x="3671.09" y="784.814">𝒂</text><path d="M3736.31 767.913 3744.16 767.913 3742.27 776.092 3750.22 776.092 3749.33 780.181 3741.32 780.181 3738.14 793.267C3737.6 795.514 3737.22 797.22 3737.02 798.387 3736.81 799.554 3736.7 800.541 3736.7 801.348 3736.7 802.373 3736.89 803.12 3737.26 803.589 3737.63 804.058 3738.18 804.292 3738.9 804.292 3739.88 804.292 3740.89 803.943 3741.92 803.245 3742.96 802.547 3744.08 801.468 3745.28 800.006L3747.79 802.591C3745.59 805.012 3743.57 806.697 3741.73 807.645 3739.88 808.594 3737.71 809.068 3735.2 809.068 3732.71 809.068 3730.8 808.431 3729.47 807.155 3728.14 805.879 3727.48 804.118 3727.48 801.871 3727.48 800.846 3727.56 799.87 3727.71 798.943 3727.86 798.016 3728.18 796.495 3728.66 794.38L3732.03 780.181 3726.92 780.181 3727.54 777.531C3729.07 777.531 3730.23 777.39 3731.01 777.106 3731.8 776.823 3732.46 776.397 3732.99 775.83 3733.53 775.263 3734.04 774.402 3734.55 773.246 3735.05 772.09 3735.64 770.312 3736.31 767.913Z" fill="#404040" fill-rule="evenodd"/><text fill="#000000" fill-opacity="0" font-family="Arial,Arial_MSFontService,sans-serif" font-size="41.1553" x="3726.92" y="803.924">𝒕</text><text fill="#404040" font-family="Arial,Arial_MSFontService,sans-serif" font-weight="700" font-size="92" transform="matrix(1 0 0 1 3754.97 790)">)</text><text fill="#404040" font-family="Arial,Arial_MSFontService,sans-serif" font-weight="700" font-size="92" transform="matrix(1 0 0 1 3824.61 2320)">rewards (</text><path d="M4247.73 2275.05C4250.21 2275.05 4252.2 2275.75 4253.68 2277.14 4255.16 2278.54 4255.9 2280.37 4255.9 2282.65 4255.9 2283.45 4255.74 2284.47 4255.41 2285.7L4255.77 2285.84C4258.28 2282.3 4260.92 2279.62 4263.68 2277.79 4266.43 2275.97 4269.49 2275.05 4272.84 2275.05 4274.82 2275.05 4276.91 2275.34 4279.13 2275.91L4276.48 2287.99 4268.44 2287.99C4268.44 2285.99 4268.22 2284.59 4267.79 2283.81 4267.35 2283.04 4266.61 2282.65 4265.56 2282.65 4264.75 2282.65 4263.87 2282.93 4262.91 2283.5 4261.95 2284.07 4260.81 2285.18 4259.48 2286.82 4258.14 2288.47 4257.14 2290.04 4256.47 2291.54 4255.79 2293.04 4255.2 2294.95 4254.69 2297.29L4249.61 2320.34 4236.72 2320.34 4243.95 2289.11C4244.4 2287.17 4244.63 2285.69 4244.63 2284.67 4244.63 2283.68 4244.46 2282.92 4244.13 2282.38 4243.8 2281.84 4243.24 2281.57 4242.43 2281.57 4241.5 2281.57 4240.5 2281.99 4239.42 2282.83 4238.34 2283.66 4237.08 2284.91 4235.64 2286.55L4232.41 2283.32C4235.4 2280.27 4238.06 2278.12 4240.38 2276.9 4242.7 2275.67 4245.15 2275.05 4247.73 2275.05Z" fill="#404040" fill-rule="evenodd"/><text fill="#000000" fill-opacity="0" font-family="Arial,Arial_MSFontService,sans-serif" font-size="45.2812" x="4232.41" y="2314.68">𝒓</text><path d="M4293.86 2298.4 4301.72 2298.4 4299.82 2306.58 4307.77 2306.58 4306.88 2310.67 4298.87 2310.67 4295.7 2323.76C4295.15 2326 4294.77 2327.71 4294.57 2328.88 4294.36 2330.04 4294.26 2331.03 4294.26 2331.84 4294.26 2332.86 4294.44 2333.61 4294.81 2334.08 4295.18 2334.55 4295.73 2334.78 4296.45 2334.78 4297.43 2334.78 4298.44 2334.43 4299.47 2333.74 4300.51 2333.04 4301.63 2331.96 4302.83 2330.5L4305.35 2333.08C4303.14 2335.5 4301.12 2337.19 4299.28 2338.14 4297.44 2339.08 4295.26 2339.56 4292.75 2339.56 4290.27 2339.56 4288.36 2338.92 4287.03 2337.65 4285.7 2336.37 4285.03 2334.61 4285.03 2332.36 4285.03 2331.34 4285.11 2330.36 4285.26 2329.43 4285.41 2328.51 4285.73 2326.99 4286.21 2324.87L4289.58 2310.67 4284.48 2310.67 4285.1 2308.02C4286.62 2308.02 4287.78 2307.88 4288.56 2307.6 4289.35 2307.31 4290.01 2306.89 4290.54 2306.32 4291.08 2305.75 4291.6 2304.89 4292.1 2303.74 4292.6 2302.58 4293.19 2300.8 4293.86 2298.4Z" fill="#404040" fill-rule="evenodd"/><text fill="#000000" fill-opacity="0" font-family="Arial,Arial_MSFontService,sans-serif" font-size="41.1553" x="4284.48" y="2334.41">𝒕</text><path d="M4330.44 2300.17 4335.74 2300.17 4335.74 2317.38 4351.94 2317.38 4351.94 2322.38 4335.74 2322.38 4335.74 2339.59 4330.44 2339.59 4330.44 2322.38 4314.25 2322.38 4314.25 2317.38 4330.44 2317.38Z" fill="#404040" fill-rule="evenodd"/><text fill="#000000" fill-opacity="0" font-family="Arial,Arial_MSFontService,sans-serif" font-size="39.4214" x="4314.25" y="2334.66">+</text><path d="M4379.86 2293.86 4384.05 2293.86C4383.92 2295.95 4383.85 2298.85 4383.85 2302.56L4383.85 2329.91C4383.85 2331.17 4383.92 2332.13 4384.06 2332.77 4384.21 2333.41 4384.46 2333.94 4384.82 2334.34 4385.18 2334.74 4385.69 2335.06 4386.37 2335.29 4387.05 2335.52 4387.9 2335.69 4388.92 2335.81 4389.95 2335.93 4391.3 2336.01 4392.98 2336.06L4392.98 2339.04 4364.75 2339.04 4364.75 2336.06C4367.17 2335.95 4368.9 2335.8 4369.93 2335.62 4370.97 2335.43 4371.76 2335.15 4372.3 2334.78 4372.85 2334.41 4373.25 2333.89 4373.5 2333.21 4373.75 2332.54 4373.87 2331.43 4373.87 2329.91L4373.87 2306.26C4373.87 2305.36 4373.7 2304.72 4373.37 2304.32 4373.03 2303.93 4372.56 2303.74 4371.98 2303.74 4371.43 2303.74 4370.66 2303.99 4369.67 2304.49 4368.68 2304.99 4367.05 2306.02 4364.78 2307.56L4362.78 2304.1Z" fill="#404040" fill-rule="evenodd"/><text fill="#000000" fill-opacity="0" font-family="Arial,Arial_MSFontService,sans-serif" font-size="45.1792" x="4362.78" y="2333.39">𝟏</text><text fill="#404040" font-family="Arial,Arial_MSFontService,sans-serif" font-weight="700" font-size="92" transform="matrix(1 0 0 1 4401.33 2320)">)</text><text fill="#404040" font-family="Arial,Arial_MSFontService,sans-serif" font-weight="700" font-size="92" transform="matrix(1 0 0 1 3713.18 2540)">observations (</text><path d="M4369.71 2499.73C4367.19 2499.73 4365.01 2500.95 4363.17 2503.39 4361.33 2505.83 4359.74 2509.6 4358.41 2514.71 4357.07 2519.81 4356.41 2524.24 4356.41 2527.98 4356.41 2530.8 4356.86 2532.9 4357.78 2534.29 4358.69 2535.69 4360.14 2536.38 4362.11 2536.38 4364.66 2536.38 4366.87 2535.15 4368.74 2532.68 4370.61 2530.21 4372.18 2526.47 4373.43 2521.47 4374.69 2516.47 4375.32 2512.12 4375.32 2508.44 4375.32 2505.45 4374.86 2503.24 4373.95 2501.84 4373.04 2500.43 4371.62 2499.73 4369.71 2499.73ZM4370.74 2495.05C4374.45 2495.05 4377.57 2495.74 4380.08 2497.1 4382.6 2498.46 4384.46 2500.35 4385.67 2502.78 4386.89 2505.21 4387.49 2508.02 4387.49 2511.23 4387.49 2515.18 4386.84 2519.15 4385.52 2523.13 4384.2 2527.11 4382.38 2530.45 4380.06 2533.15 4377.74 2535.84 4374.99 2537.83 4371.82 2539.12 4368.64 2540.41 4365.05 2541.05 4361.04 2541.05 4357.74 2541.05 4354.84 2540.46 4352.34 2539.28 4349.84 2538.1 4347.88 2536.3 4346.46 2533.89 4345.04 2531.48 4344.32 2528.54 4344.32 2525.06 4344.32 2521.53 4344.88 2517.82 4345.99 2513.94 4347.09 2510.07 4348.82 2506.65 4351.15 2503.7 4353.49 2500.75 4356.31 2498.57 4359.62 2497.17 4362.93 2495.76 4366.64 2495.05 4370.74 2495.05Z" fill="#404040" fill-rule="evenodd"/><text fill="#000000" fill-opacity="0" font-family="Arial,Arial_MSFontService,sans-serif" font-size="46" x="4344.32" y="2535.3">𝒐</text><path d="M4405.31 2518.4 4413.16 2518.4 4411.26 2526.58 4419.21 2526.58 4418.33 2530.67 4410.31 2530.67 4407.14 2543.76C4406.59 2546 4406.22 2547.71 4406.01 2548.88 4405.8 2550.04 4405.7 2551.03 4405.7 2551.84 4405.7 2552.86 4405.89 2553.61 4406.26 2554.08 4406.63 2554.55 4407.17 2554.78 4407.89 2554.78 4408.87 2554.78 4409.88 2554.43 4410.92 2553.74 4411.95 2553.04 4413.07 2551.96 4414.27 2550.5L4416.79 2553.08C4414.59 2555.5 4412.56 2557.19 4410.72 2558.14 4408.88 2559.08 4406.7 2559.56 4404.2 2559.56 4401.71 2559.56 4399.8 2558.92 4398.47 2557.65 4397.14 2556.37 4396.47 2554.61 4396.47 2552.36 4396.47 2551.34 4396.55 2550.36 4396.7 2549.43 4396.86 2548.51 4397.17 2546.99 4397.65 2544.87L4401.02 2530.67 4395.92 2530.67 4396.54 2528.02C4398.07 2528.02 4399.22 2527.88 4400.01 2527.6 4400.79 2527.31 4401.45 2526.89 4401.99 2526.32 4402.52 2525.75 4403.04 2524.89 4403.54 2523.74 4404.04 2522.58 4404.63 2520.8 4405.31 2518.4Z" fill="#404040" fill-rule="evenodd"/><text fill="#000000" fill-opacity="0" font-family="Arial,Arial_MSFontService,sans-serif" font-size="41.1553" x="4395.92" y="2554.41">𝒕</text><path d="M4441.89 2520.17 4447.19 2520.17 4447.19 2537.38 4463.38 2537.38 4463.38 2542.38 4447.19 2542.38 4447.19 2559.59 4441.89 2559.59 4441.89 2542.38 4425.69 2542.38 4425.69 2537.38 4441.89 2537.38Z" fill="#404040" fill-rule="evenodd"/><text fill="#000000" fill-opacity="0" font-family="Arial,Arial_MSFontService,sans-serif" font-size="39.4214" x="4425.69" y="2554.66">+</text><path d="M4491.3 2513.86 4495.49 2513.86C4495.36 2515.95 4495.3 2518.85 4495.3 2522.56L4495.3 2549.91C4495.3 2551.17 4495.37 2552.13 4495.51 2552.77 4495.65 2553.41 4495.9 2553.94 4496.26 2554.34 4496.62 2554.74 4497.14 2555.06 4497.81 2555.29 4498.49 2555.52 4499.34 2555.69 4500.37 2555.81 4501.39 2555.93 4502.74 2556.01 4504.42 2556.06L4504.42 2559.04 4476.19 2559.04 4476.19 2556.06C4478.61 2555.95 4480.34 2555.8 4481.38 2555.62 4482.41 2555.43 4483.2 2555.15 4483.75 2554.78 4484.29 2554.41 4484.69 2553.89 4484.94 2553.21 4485.19 2552.54 4485.32 2551.43 4485.32 2549.91L4485.32 2526.26C4485.32 2525.36 4485.15 2524.72 4484.81 2524.32 4484.47 2523.93 4484.01 2523.74 4483.42 2523.74 4482.87 2523.74 4482.11 2523.99 4481.11 2524.49 4480.12 2524.99 4478.49 2526.02 4476.22 2527.56L4474.23 2524.1Z" fill="#404040" fill-rule="evenodd"/><text fill="#000000" fill-opacity="0" font-family="Arial,Arial_MSFontService,sans-serif" font-size="45.1792" x="4474.23" y="2553.39">𝟏</text><text fill="#404040" font-family="Arial,Arial_MSFontService,sans-serif" font-weight="700" font-size="92" transform="matrix(1 0 0 1 4512.77 2540)">) </text><text fill="#404040" font-family="Arial,Arial_MSFontService,sans-serif" font-weight="700" font-size="92" transform="matrix(1 0 0 1 3869.59 2650)">states (</text><path d="M4218.38 2605.05C4220.68 2605.05 4223.16 2605.24 4225.81 2605.62 4228.46 2605.99 4230.88 2606.49 4233.07 2607.12L4230.73 2617.86 4225.03 2617.86C4224.76 2615.07 4224.04 2613.02 4222.89 2611.7 4221.74 2610.39 4220.08 2609.73 4217.93 2609.73 4215.92 2609.73 4214.31 2610.24 4213.1 2611.28 4211.89 2612.31 4211.28 2613.71 4211.28 2615.48 4211.28 2617.03 4211.79 2618.4 4212.81 2619.56 4213.82 2620.73 4215.8 2622.2 4218.74 2623.97 4221.91 2625.85 4224.19 2627.8 4225.56 2629.81 4226.94 2631.81 4227.63 2634.16 4227.63 2636.86 4227.63 2639.91 4226.81 2642.52 4225.18 2644.68 4223.55 2646.83 4221.32 2648.43 4218.49 2649.48 4215.66 2650.53 4212.43 2651.05 4208.81 2651.05 4203 2651.05 4197.43 2650.34 4192.1 2648.9L4194.61 2637.76 4200.32 2637.76C4200.47 2640.45 4201.16 2642.56 4202.41 2644.09 4203.65 2645.62 4205.56 2646.38 4208.13 2646.38 4210.5 2646.38 4212.33 2645.81 4213.62 2644.65 4214.9 2643.5 4215.55 2641.88 4215.55 2639.78 4215.55 2638.52 4215.34 2637.46 4214.92 2636.59 4214.5 2635.72 4213.81 2634.87 4212.85 2634.05 4211.89 2633.23 4210.34 2632.16 4208.18 2630.84 4205.19 2629.04 4203.01 2627.18 4201.64 2625.25 4200.28 2623.31 4199.6 2621.15 4199.6 2618.76 4199.6 2614.35 4201.25 2610.97 4204.54 2608.6 4207.84 2606.24 4212.45 2605.05 4218.38 2605.05Z" fill="#404040" fill-rule="evenodd"/><text fill="#000000" fill-opacity="0" font-family="Arial,Arial_MSFontService,sans-serif" font-size="46" x="4192.1" y="2645.3">𝒔</text><path d="M4248.9 2628.4 4256.75 2628.4 4254.86 2636.58 4262.81 2636.58 4261.92 2640.67 4253.91 2640.67 4250.73 2653.76C4250.19 2656 4249.81 2657.71 4249.6 2658.88 4249.4 2660.04 4249.29 2661.03 4249.29 2661.84 4249.29 2662.86 4249.48 2663.61 4249.85 2664.08 4250.22 2664.55 4250.77 2664.78 4251.49 2664.78 4252.47 2664.78 4253.48 2664.43 4254.51 2663.74 4255.55 2663.04 4256.67 2661.96 4257.87 2660.5L4260.38 2663.08C4258.18 2665.5 4256.16 2667.19 4254.32 2668.14 4252.47 2669.08 4250.3 2669.56 4247.79 2669.56 4245.3 2669.56 4243.39 2668.92 4242.06 2667.65 4240.73 2666.37 4240.07 2664.61 4240.07 2662.36 4240.07 2661.34 4240.14 2660.36 4240.3 2659.43 4240.45 2658.51 4240.77 2656.99 4241.25 2654.87L4244.62 2640.67 4239.51 2640.67 4240.13 2638.02C4241.66 2638.02 4242.82 2637.88 4243.6 2637.6 4244.39 2637.31 4245.05 2636.89 4245.58 2636.32 4246.12 2635.75 4246.63 2634.89 4247.13 2633.74 4247.64 2632.58 4248.23 2630.8 4248.9 2628.4Z" fill="#404040" fill-rule="evenodd"/><text fill="#000000" fill-opacity="0" font-family="Arial,Arial_MSFontService,sans-serif" font-size="41.1553" x="4239.51" y="2664.41">𝒕</text><path d="M4285.48 2630.17 4290.78 2630.17 4290.78 2647.38 4306.97 2647.38 4306.97 2652.38 4290.78 2652.38 4290.78 2669.59 4285.48 2669.59 4285.48 2652.38 4269.29 2652.38 4269.29 2647.38 4285.48 2647.38Z" fill="#404040" fill-rule="evenodd"/><text fill="#000000" fill-opacity="0" font-family="Arial,Arial_MSFontService,sans-serif" font-size="39.4214" x="4269.29" y="2664.66">+</text><path d="M4334.9 2623.86 4339.09 2623.86C4338.95 2625.95 4338.89 2628.85 4338.89 2632.56L4338.89 2659.91C4338.89 2661.17 4338.96 2662.13 4339.1 2662.77 4339.24 2663.41 4339.49 2663.94 4339.85 2664.34 4340.21 2664.74 4340.73 2665.06 4341.41 2665.29 4342.08 2665.52 4342.94 2665.69 4343.96 2665.81 4344.98 2665.93 4346.34 2666.01 4348.02 2666.06L4348.02 2669.04 4319.78 2669.04 4319.78 2666.06C4322.2 2665.95 4323.93 2665.8 4324.97 2665.62 4326 2665.43 4326.8 2665.15 4327.34 2664.78 4327.89 2664.41 4328.28 2663.89 4328.53 2663.21 4328.79 2662.54 4328.91 2661.43 4328.91 2659.91L4328.91 2636.26C4328.91 2635.36 4328.74 2634.72 4328.4 2634.32 4328.07 2633.93 4327.6 2633.74 4327.01 2633.74 4326.47 2633.74 4325.7 2633.99 4324.71 2634.49 4323.71 2634.99 4322.08 2636.02 4319.82 2637.56L4317.82 2634.1Z" fill="#404040" fill-rule="evenodd"/><text fill="#000000" fill-opacity="0" font-family="Arial,Arial_MSFontService,sans-serif" font-size="45.1792" x="4317.82" y="2663.39">𝟏</text><text fill="#404040" font-family="Arial,Arial_MSFontService,sans-serif" font-weight="700" font-size="92" transform="matrix(1 0 0 1 4356.36 2650)">)</text><path d="M3301.07 2378.7 2278.12 2378.7 2278.12 2209.38 2291.87 2209.38 2291.87 2371.83 2285 2364.95 3301.07 2364.95ZM2264.37 2216.25 2285 2175 2305.62 2216.25Z" fill="#404040"/><path d="M3364.04 2440.68 2335.12 2440.68 2335.12 2209.38 2348.88 2209.38 2348.88 2433.81 2342 2426.93 3364.04 2426.93ZM2321.38 2216.25 2342 2175 2362.62 2216.25Z" fill="#404040"/><path d="M4572.17 2176 4572.17 2433.91 3579 2433.91" stroke="#404040" stroke-width="13.75" stroke-miterlimit="8" fill="none" fill-rule="evenodd"/><path d="M3364 2434 3578.96 2434" stroke="#404040" stroke-width="13.75" stroke-miterlimit="8" stroke-dasharray="13.75 13.75" fill="none" fill-rule="evenodd"/><text fill="#404040" font-family="Arial,Arial_MSFontService,sans-serif" font-weight="700" font-size="92" transform="matrix(1 0 0 1 2454.54 2318)">rewards (</text><path d="M2877.66 2272.5C2880.15 2272.5 2882.13 2273.19 2883.61 2274.59 2885.1 2275.98 2885.84 2277.81 2885.84 2280.09 2885.84 2280.9 2885.67 2281.92 2885.34 2283.14L2885.7 2283.28C2888.22 2279.74 2890.85 2277.06 2893.61 2275.24 2896.36 2273.41 2899.42 2272.5 2902.77 2272.5 2904.75 2272.5 2906.84 2272.78 2909.06 2273.35L2906.41 2285.43 2898.37 2285.43C2898.37 2283.43 2898.15 2282.04 2897.72 2281.26 2897.28 2280.48 2896.54 2280.09 2895.49 2280.09 2894.69 2280.09 2893.8 2280.37 2892.84 2280.94 2891.89 2281.51 2890.74 2282.62 2889.41 2284.27 2888.07 2285.91 2887.07 2287.49 2886.4 2288.98 2885.72 2290.48 2885.13 2292.4 2884.62 2294.73L2879.55 2317.78 2866.65 2317.78 2873.89 2286.56C2874.34 2284.61 2874.56 2283.13 2874.56 2282.11 2874.56 2281.12 2874.4 2280.36 2874.07 2279.82 2873.74 2279.28 2873.17 2279.01 2872.36 2279.01 2871.43 2279.01 2870.43 2279.43 2869.35 2280.27 2868.27 2281.11 2867.01 2282.35 2865.58 2284L2862.34 2280.76C2865.34 2277.71 2867.99 2275.57 2870.32 2274.34 2872.64 2273.11 2875.09 2272.5 2877.66 2272.5Z" fill="#404040" fill-rule="evenodd"/><text fill="#000000" fill-opacity="0" font-family="Arial,Arial_MSFontService,sans-serif" font-size="45.2812" x="2862.34" y="2312.12">𝒓</text><path d="M2923.8 2295.85 2931.65 2295.85 2929.75 2304.03 2937.7 2304.03 2936.82 2308.11 2928.8 2308.11 2925.63 2321.2C2925.08 2323.45 2924.71 2325.15 2924.5 2326.32 2924.29 2327.49 2924.19 2328.47 2924.19 2329.28 2924.19 2330.31 2924.37 2331.05 2924.75 2331.52 2925.12 2331.99 2925.66 2332.23 2926.38 2332.23 2927.36 2332.23 2928.37 2331.88 2929.41 2331.18 2930.44 2330.48 2931.56 2329.4 2932.76 2327.94L2935.28 2330.52C2933.08 2332.95 2931.05 2334.63 2929.21 2335.58 2927.37 2336.53 2925.19 2337 2922.68 2337 2920.2 2337 2918.29 2336.36 2916.96 2335.09 2915.63 2333.81 2914.96 2332.05 2914.96 2329.8 2914.96 2328.78 2915.04 2327.8 2915.19 2326.88 2915.35 2325.95 2915.66 2324.43 2916.14 2322.31L2919.51 2308.11 2914.41 2308.11 2915.03 2305.46C2916.56 2305.46 2917.71 2305.32 2918.5 2305.04 2919.28 2304.76 2919.94 2304.33 2920.48 2303.76 2921.01 2303.2 2921.53 2302.34 2922.03 2301.18 2922.53 2300.02 2923.12 2298.25 2923.8 2295.85Z" fill="#404040" fill-rule="evenodd"/><text fill="#000000" fill-opacity="0" font-family="Arial,Arial_MSFontService,sans-serif" font-size="41.1553" x="2914.41" y="2331.86">𝒕</text><text fill="#404040" font-family="Arial,Arial_MSFontService,sans-serif" font-weight="700" font-size="92" transform="matrix(1 0 0 1 2942.46 2318)">)</text><text fill="#404040" font-family="Arial,Arial_MSFontService,sans-serif" font-weight="700" font-size="92" transform="matrix(1 0 0 1 2343.12 2538)">observations (</text><path d="M2999.64 2497.17C2997.12 2497.17 2994.94 2498.39 2993.1 2500.83 2991.26 2503.27 2989.67 2507.04 2988.34 2512.15 2987.01 2517.26 2986.34 2521.68 2986.34 2525.43 2986.34 2528.24 2986.8 2530.34 2987.71 2531.74 2988.62 2533.13 2990.07 2533.83 2992.05 2533.83 2994.59 2533.83 2996.8 2532.59 2998.67 2530.12 3000.54 2527.65 3002.11 2523.91 3003.37 2518.91 3004.62 2513.91 3005.25 2509.57 3005.25 2505.88 3005.25 2502.89 3004.8 2500.69 3003.88 2499.28 3002.97 2497.87 3001.55 2497.17 2999.64 2497.17ZM3000.67 2492.5C3004.38 2492.5 3007.5 2493.18 3010.01 2494.54 3012.53 2495.9 3014.39 2497.8 3015.61 2500.22 3016.82 2502.65 3017.43 2505.46 3017.43 2508.67 3017.43 2512.62 3016.77 2516.59 3015.45 2520.57 3014.13 2524.56 3012.31 2527.9 3009.99 2530.59 3007.67 2533.29 3004.92 2535.28 3001.75 2536.57 2998.57 2537.85 2994.98 2538.5 2990.97 2538.5 2987.67 2538.5 2984.78 2537.91 2982.28 2536.72 2979.77 2535.54 2977.81 2533.74 2976.39 2531.33 2974.97 2528.92 2974.26 2525.98 2974.26 2522.51 2974.26 2518.97 2974.81 2515.27 2975.92 2511.39 2977.03 2507.51 2978.75 2504.09 2981.08 2501.14 2983.42 2498.19 2986.24 2496.02 2989.55 2494.61 2992.86 2493.2 2996.57 2492.5 3000.67 2492.5Z" fill="#404040" fill-rule="evenodd"/><text fill="#000000" fill-opacity="0" font-family="Arial,Arial_MSFontService,sans-serif" font-size="46" x="2974.26" y="2532.75">𝒐</text><path d="M3035.24 2515.85 3043.09 2515.85 3041.19 2524.03 3049.14 2524.03 3048.26 2528.11 3040.25 2528.11 3037.07 2541.2C3036.53 2543.45 3036.15 2545.15 3035.94 2546.32 3035.74 2547.49 3035.63 2548.47 3035.63 2549.28 3035.63 2550.31 3035.82 2551.05 3036.19 2551.52 3036.56 2551.99 3037.11 2552.23 3037.82 2552.23 3038.81 2552.23 3039.82 2551.88 3040.85 2551.18 3041.89 2550.48 3043 2549.4 3044.2 2547.94L3046.72 2550.52C3044.52 2552.95 3042.5 2554.63 3040.65 2555.58 3038.81 2556.53 3036.64 2557 3034.13 2557 3031.64 2557 3029.73 2556.36 3028.4 2555.09 3027.07 2553.81 3026.41 2552.05 3026.41 2549.8 3026.41 2548.78 3026.48 2547.8 3026.64 2546.88 3026.79 2545.95 3027.11 2544.43 3027.59 2542.31L3030.95 2528.11 3025.85 2528.11 3026.47 2525.46C3028 2525.46 3029.16 2525.32 3029.94 2525.04 3030.73 2524.76 3031.39 2524.33 3031.92 2523.76 3032.45 2523.2 3032.97 2522.34 3033.47 2521.18 3033.98 2520.02 3034.56 2518.25 3035.24 2515.85Z" fill="#404040" fill-rule="evenodd"/><text fill="#000000" fill-opacity="0" font-family="Arial,Arial_MSFontService,sans-serif" font-size="41.1553" x="3025.85" y="2551.86">𝒕</text><text fill="#404040" font-family="Arial,Arial_MSFontService,sans-serif" font-weight="700" font-size="92" transform="matrix(1 0 0 1 3053.9 2538)">) </text><text fill="#404040" font-family="Arial,Arial_MSFontService,sans-serif" font-weight="700" font-size="92" transform="matrix(1 0 0 1 2499.52 2648)">states (</text><path d="M2848.31 2602.5C2850.62 2602.5 2853.09 2602.68 2855.74 2603.06 2858.39 2603.43 2860.81 2603.93 2863 2604.56L2860.66 2615.3 2854.96 2615.3C2854.69 2612.51 2853.98 2610.46 2852.82 2609.15 2851.67 2607.83 2850.02 2607.17 2847.86 2607.17 2845.85 2607.17 2844.24 2607.69 2843.03 2608.72 2841.82 2609.75 2841.21 2611.15 2841.21 2612.92 2841.21 2614.48 2841.72 2615.84 2842.74 2617.01 2843.76 2618.18 2845.73 2619.64 2848.67 2621.41 2851.84 2623.3 2854.12 2625.24 2855.5 2627.25 2856.87 2629.26 2857.56 2631.61 2857.56 2634.3 2857.56 2637.36 2856.75 2639.96 2855.11 2642.12 2853.48 2644.27 2851.25 2645.88 2848.42 2646.93 2845.59 2647.97 2842.36 2648.5 2838.74 2648.5 2832.93 2648.5 2827.36 2647.78 2822.03 2646.34L2824.55 2635.2 2830.25 2635.2C2830.4 2637.9 2831.1 2640.01 2832.34 2641.53 2833.58 2643.06 2835.49 2643.83 2838.07 2643.83 2840.43 2643.83 2842.26 2643.25 2843.55 2642.1 2844.84 2640.94 2845.48 2639.32 2845.48 2637.22 2845.48 2635.96 2845.27 2634.9 2844.85 2634.03 2844.43 2633.16 2843.74 2632.32 2842.78 2631.49 2841.83 2630.67 2840.27 2629.6 2838.11 2628.28 2835.12 2626.49 2832.94 2624.62 2831.58 2622.69 2830.21 2620.76 2829.53 2618.59 2829.53 2616.2 2829.53 2611.8 2831.18 2608.41 2834.47 2606.05 2837.77 2603.68 2842.38 2602.5 2848.31 2602.5Z" fill="#404040" fill-rule="evenodd"/><text fill="#000000" fill-opacity="0" font-family="Arial,Arial_MSFontService,sans-serif" font-size="46" x="2822.03" y="2642.75">𝒔</text><path d="M2878.83 2625.85 2886.69 2625.85 2884.79 2634.03 2892.74 2634.03 2891.85 2638.11 2883.84 2638.11 2880.67 2651.2C2880.12 2653.45 2879.74 2655.15 2879.54 2656.32 2879.33 2657.49 2879.23 2658.47 2879.23 2659.28 2879.23 2660.31 2879.41 2661.05 2879.78 2661.52 2880.15 2661.99 2880.7 2662.23 2881.42 2662.23 2882.4 2662.23 2883.41 2661.88 2884.44 2661.18 2885.48 2660.48 2886.6 2659.4 2887.8 2657.94L2890.32 2660.52C2888.11 2662.95 2886.09 2664.63 2884.25 2665.58 2882.41 2666.53 2880.23 2667 2877.72 2667 2875.24 2667 2873.33 2666.36 2872 2665.09 2870.67 2663.81 2870 2662.05 2870 2659.8 2870 2658.78 2870.08 2657.8 2870.23 2656.88 2870.38 2655.95 2870.7 2654.43 2871.18 2652.31L2874.55 2638.11 2869.45 2638.11 2870.07 2635.46C2871.59 2635.46 2872.75 2635.32 2873.53 2635.04 2874.32 2634.76 2874.98 2634.33 2875.51 2633.76 2876.05 2633.2 2876.57 2632.34 2877.07 2631.18 2877.57 2630.02 2878.16 2628.25 2878.83 2625.85Z" fill="#404040" fill-rule="evenodd"/><text fill="#000000" fill-opacity="0" font-family="Arial,Arial_MSFontService,sans-serif" font-size="41.1553" x="2869.45" y="2661.86">𝒕</text><text fill="#404040" font-family="Arial,Arial_MSFontService,sans-serif" font-weight="700" font-size="92" transform="matrix(1 0 0 1 2897.49 2648)">)</text><path d="M3302 2372 3523.76 2372" stroke="#404040" stroke-width="13.75" stroke-miterlimit="8" stroke-dasharray="13.75 13.75" fill="none" fill-rule="evenodd"/><text fill="#404040" font-family="Arial,Arial_MSFontService,sans-serif" font-weight="700" font-size="147" transform="matrix(1 0 0 1 2816.15 1989)">agent</text><text fill="#404040" font-family="Arial,Arial_MSFontService,sans-serif" font-weight="700" font-size="147" transform="matrix(1 0 0 1 5024.28 1993)">env</text><rect x="4963" y="1520" width="145" height="145" fill="#C00000"/><text fill="#FFFFFF" font-family="Arial,Arial_MSFontService,sans-serif" font-weight="700" font-size="110" transform="matrix(1 0 0 1 5005.07 1633)">1</text><rect x="2730" y="1530" width="145" height="146" fill="#C00000"/><text fill="#FFFFFF" font-family="Arial,Arial_MSFontService,sans-serif" font-weight="700" font-size="110" transform="matrix(1 0 0 1 2771.99 1644)">7</text><path d="M1683.5 770.5C1683.5 652.863 1778.86 557.5 1896.5 557.5 2014.14 557.5 2109.5 652.863 2109.5 770.5 2109.5 888.137 2014.14 983.5 1896.5 983.5 1778.86 983.5 1683.5 888.137 1683.5 770.5Z" stroke="#404040" stroke-width="20.625" stroke-miterlimit="8" fill="#EF7F1A" fill-rule="evenodd"/><path d="M1811 793.581 1811 749C1811 753.927 1848.64 763.119 1895.85 763.119 1943.06 763.119 1982 753.927 1982 749L1982 793.581C1982 798.509 1945.01 809 1897.8 809 1850.59 809 1811 798.509 1811 793.581Z" fill="#FFFFFF" fill-rule="evenodd"/><path d="M1811 855.582 1811 811C1811 815.927 1848.64 825.119 1895.85 825.119 1943.06 825.119 1982 815.927 1982 811L1982 855.582C1982 860.509 1945.01 871 1897.8 871 1850.59 871 1811 860.509 1811 855.582Z" fill="#FFFFFF" fill-rule="evenodd"/><path d="M1811 731.581 1811 687C1811 691.927 1848.64 701.119 1895.85 701.119 1943.06 701.119 1982 691.927 1982 687L1982 731.581C1982 736.509 1945.01 747 1897.8 747 1850.59 747 1811 736.509 1811 731.581Z" fill="#FFFFFF" fill-rule="evenodd"/><path d="M1811 681C1811 672.716 1849.28 666 1896.5 666 1943.72 666 1982 672.716 1982 681 1982 689.284 1943.72 696 1896.5 696 1849.28 696 1811 689.284 1811 681Z" fill="#FFFFFF" fill-rule="evenodd"/><rect x="1599" y="692" width="146" height="145" fill="#C00000"/><text fill="#FFFFFF" font-family="Arial,Arial_MSFontService,sans-serif" font-weight="700" font-size="110" transform="matrix(1 0 0 1 1641.23 806)">2</text><path d="M1310.5 1117.5C1310.5 999.863 1405.64 904.5 1523 904.5 1640.36 904.5 1735.5 999.863 1735.5 1117.5 1735.5 1235.14 1640.36 1330.5 1523 1330.5 1405.64 1330.5 1310.5 1235.14 1310.5 1117.5Z" stroke="#404040" stroke-width="20.625" stroke-miterlimit="8" fill="#EF7F1A" fill-rule="evenodd"/><path d="M1393 1063C1393 1042.57 1409.79 1026 1430.5 1026 1451.21 1026 1468 1042.57 1468 1063 1468 1083.43 1451.21 1100 1430.5 1100 1409.79 1100 1393 1083.43 1393 1063Z" fill="#FFFFFF" fill-rule="evenodd"/><path d="M1393 1185.5C1393 1164.79 1409.79 1148 1430.5 1148 1451.21 1148 1468 1164.79 1468 1185.5 1468 1206.21 1451.21 1223 1430.5 1223 1409.79 1223 1393 1206.21 1393 1185.5Z" fill="#FFFFFF" fill-rule="evenodd"/><path d="M1508 1219.5C1508 1203.21 1521.21 1190 1537.5 1190 1553.79 1190 1567 1203.21 1567 1219.5 1567 1235.79 1553.79 1249 1537.5 1249 1521.21 1249 1508 1235.79 1508 1219.5Z" fill="#FFFFFF" fill-rule="evenodd"/><path d="M1507 1113.5C1507 1097.21 1520.21 1084 1536.5 1084 1552.79 1084 1566 1097.21 1566 1113.5 1566 1129.79 1552.79 1143 1536.5 1143 1520.21 1143 1507 1129.79 1507 1113.5Z" fill="#FFFFFF" fill-rule="evenodd"/><path d="M1508 1006.5C1508 990.208 1520.98 977 1537 977 1553.02 977 1566 990.208 1566 1006.5 1566 1022.79 1553.02 1036 1537 1036 1520.98 1036 1508 1022.79 1508 1006.5Z" fill="#FFFFFF" fill-rule="evenodd"/><path d="M1609 1141C1609 1118.36 1627.36 1100 1650 1100 1672.64 1100 1691 1118.36 1691 1141 1691 1163.64 1672.64 1182 1650 1182 1627.36 1182 1609 1163.64 1609 1141Z" fill="#FFFFFF" fill-rule="evenodd"/><path d="M0 0 105.534 56.5998" stroke="#FFFFFF" stroke-width="10.3125" stroke-miterlimit="8" fill="#FFFFFF" fill-rule="evenodd" transform="matrix(1 0 0 -1 1431 1063.6)"/><path d="M1431 1060 1536.53 1113.41" stroke="#FFFFFF" stroke-width="10.3125" stroke-miterlimit="8" fill="#FFFFFF" fill-rule="evenodd"/><path d="M1430 1063 1536.11 1223.65" stroke="#FFFFFF" stroke-width="10.3125" stroke-miterlimit="8" fill="#FFFFFF" fill-rule="evenodd"/><path d="M1432 1187 1539.52 1218.95" stroke="#FFFFFF" stroke-width="10.3125" stroke-miterlimit="8" fill="#FFFFFF" fill-rule="evenodd"/><path d="M0 0 99.9935 72.9613" stroke="#FFFFFF" stroke-width="10.3125" stroke-miterlimit="8" fill="#FFFFFF" fill-rule="evenodd" transform="matrix(1 0 0 -1 1434 1186.96)"/><path d="M1648.93 1142.6 1534 1011" stroke="#FFFFFF" stroke-width="10.3125" stroke-miterlimit="8" fill="#FFFFFF" fill-rule="evenodd"/><path d="M0 0 116.809 78.7063" stroke="#FFFFFF" stroke-width="10.3125" stroke-miterlimit="8" fill="#FFFFFF" fill-rule="evenodd" transform="matrix(1 0 0 -1 1536 1219.71)"/><path d="M1649.88 1142.38 1533 1113" stroke="#FFFFFF" stroke-width="10.3125" stroke-miterlimit="8" fill="#FFFFFF" fill-rule="evenodd"/><path d="M0 0 98.1548 170.678" stroke="#FFFFFF" stroke-width="10.3125" stroke-miterlimit="8" fill="#FFFFFF" fill-rule="evenodd" transform="matrix(1 0 0 -1 1432 1182.68)"/><rect x="1228" y="1041" width="145" height="145" fill="#C00000"/><text fill="#FFFFFF" font-family="Arial,Arial_MSFontService,sans-serif" font-weight="700" font-size="110" transform="matrix(1 0 0 1 1269.75 1155)">3</text><path d="M1174.5 1595C1174.5 1477.64 1269.86 1382.5 1387.5 1382.5 1505.14 1382.5 1600.5 1477.64 1600.5 1595 1600.5 1712.36 1505.14 1807.5 1387.5 1807.5 1269.86 1807.5 1174.5 1712.36 1174.5 1595Z" stroke="#404040" stroke-width="20.625" stroke-miterlimit="8" fill="#EF7F1A" fill-rule="evenodd"/><path d="M1235 1598 1246 1563 1257 1598 1246 1633Z" fill="#FFFFFF" fill-rule="evenodd"/><path d="M1257 1598 1267.5 1523 1278 1598 1267.5 1673Z" fill="#FFFFFF" fill-rule="evenodd"/><path d="M1278 1598 1289 1498 1300 1598 1289 1698Z" fill="#FFFFFF" fill-rule="evenodd"/><path d="M1298 1598 1309 1465 1320 1598 1309 1731Z" fill="#FFFFFF" fill-rule="evenodd"/><path d="M1320 1598.5 1331 1560 1342 1598.5 1331 1637Z" fill="#FFFFFF" fill-rule="evenodd"/><path d="M1342 1598 1353 1507 1364 1598 1353 1689Z" fill="#FFFFFF" fill-rule="evenodd"/><path d="M1364 1598 1375 1465 1386 1598 1375 1731Z" fill="#FFFFFF" fill-rule="evenodd"/><path d="M1386 1598 1396.5 1465 1407 1598 1396.5 1731Z" fill="#FFFFFF" fill-rule="evenodd"/><path d="M1407 1598 1418 1498 1429 1598 1418 1698Z" fill="#FFFFFF" fill-rule="evenodd"/><path d="M1427 1598 1438 1498 1449 1598 1438 1698Z" fill="#FFFFFF" fill-rule="evenodd"/><path d="M1449 1598 1460 1465 1471 1598 1460 1731Z" fill="#FFFFFF" fill-rule="evenodd"/><path d="M1471 1598 1482 1507 1493 1598 1482 1689Z" fill="#FFFFFF" fill-rule="evenodd"/><path d="M1493 1598 1504 1523 1515 1598 1504 1673Z" fill="#FFFFFF" fill-rule="evenodd"/><path d="M1515 1598 1526 1563 1537 1598 1526 1633Z" fill="#FFFFFF" fill-rule="evenodd"/><rect x="1091" y="1525" width="146" height="146" fill="#C00000"/><text fill="#FFFFFF" font-family="Arial,Arial_MSFontService,sans-serif" font-weight="700" font-size="110" transform="matrix(1 0 0 1 1133.28 1639)">4</text><path d="M1316.5 2085C1316.5 1967.64 1411.64 1872.5 1529 1872.5 1646.36 1872.5 1741.5 1967.64 1741.5 2085 1741.5 2202.36 1646.36 2297.5 1529 2297.5 1411.64 2297.5 1316.5 2202.36 1316.5 2085Z" stroke="#404040" stroke-width="20.625" stroke-miterlimit="8" fill="#EF7F1A" fill-rule="evenodd"/><path d="M1390 2064.5 1533.5 2026 1677 2064.5 1533.5 2103Z" fill="#FFFFFF" fill-rule="evenodd"/><path d="M1453 2139.12 1453 2099C1453 2103.43 1488 2111.71 1531.9 2111.71 1575.8 2111.71 1612 2103.43 1612 2099L1612 2139.12C1612 2143.56 1577.61 2153 1533.71 2153 1489.81 2153 1453 2143.56 1453 2139.12Z" fill="#FFFFFF" fill-rule="evenodd"/><path d="M1453 2113 1453 2093 1533 2113Z" fill="#FFFFFF" fill-rule="evenodd"/><path d="M0 19.9999 0 0 80.9998 19.9999Z" fill="#FFFFFF" fill-rule="evenodd" transform="matrix(-1 0 0 1 1612 2093)"/><path d="M1620 2164 1626.25 2071 1638.75 2071 1645 2164Z" fill="#FFFFFF" fill-rule="evenodd"/><rect x="1234" y="2016" width="145" height="145" fill="#C00000"/><text fill="#FFFFFF" font-family="Arial,Arial_MSFontService,sans-serif" font-weight="700" font-size="110" transform="matrix(1 0 0 1 1275.9 2129)">5</text><rect x="3376" y="2330" width="146" height="146" fill="#C00000"/><text fill="#FFFFFF" font-family="Arial,Arial_MSFontService,sans-serif" font-weight="700" font-size="110" transform="matrix(1 0 0 1 3418.36 2444)">8</text><path d="M2108.45 1513.22 2108.45 1513.22C2106.88 1511.65 2106.88 1511.65 2106.88 1510.08L2106.88 1510.08 2106.88 1506.94 2106.88 1506.94 2106.88 1506.94 2106.88 1506.94C2105.3 1505.38 2105.3 1505.38 2105.3 1503.81L2105.3 1503.81 2105.3 1500.67 2105.3 1500.67C2103.73 1499.1 2103.73 1499.1 2103.73 1497.53L2103.73 1497.53 2103.73 1497.53 2103.73 1494.39 2103.73 1494.39 2103.73 1494.39C2103.73 1492.82 2102.15 1492.82 2102.15 1491.25L2102.15 1491.25 2102.15 1488.11 2102.15 1488.11 2102.15 1484.97 2102.15 1484.97C2102.15 1483.4 2100.57 1483.4 2100.57 1481.83L2100.57 1481.83 2100.57 1478.69 2100.57 1478.69 2100.57 1475.56 2100.57 1475.56 2100.57 1475.56 2100.57 1472.42 2100.57 1472.42C2100.57 1470.85 2099 1469.28 2099 1469.28L2099 1469.28 2099 1466.14 2099 1464.57 2099 1464.57 2099 1461.43 2099 1461.43 2099 1461.43 2099 1458.29 2099 1458.29 2099 1455.15 2099 1455.15 2099 1452.01C2099 1334.31 2195.08 1237 2313.21 1237 2432.92 1237 2529 1332.74 2529 1450.44 2526.38 1471.37 2529.87 1471.7 2521.12 1513.22 2500.65 1593.26 2445.52 1624.65 2442.37 1681.15L2442.37 1685.86C2442.37 1748.64 2390.39 1800.43 2327.39 1802L2325.81 1802 2303.76 1802 2303.76 1802C2240.76 1802 2187.21 1750.21 2187.21 1685.86L2187.21 1681.15C2184.05 1624.65 2128.93 1594.83 2108.45 1514.79L2108.45 1513.22ZM2102.15 1484.97C2102.15 1483.4 2100.57 1483.4 2100.57 1481.83" fill="#FFED00" fill-rule="evenodd"/><path d="M2380.5 1830.97C2396.13 1830.93 2408.82 1839.75 2408.85 1850.67L2408.84 1844.78C2408.86 1855.7 2396.21 1864.58 2380.58 1864.61L2257.33 1864.91C2241.7 1864.95 2229 1856.13 2228.98 1845.22L2228.99 1851.11C2228.96 1840.19 2241.61 1831.31 2257.25 1831.27Z" stroke="#5B5B5B" stroke-width="4.44764" stroke-miterlimit="8" fill="#5B5B5B" fill-rule="evenodd"/><path d="M2374.47 1885.78C2388.54 1885.74 2399.97 1894.56 2399.99 1905.48L2399.98 1899.59C2400 1910.51 2388.62 1919.38 2374.55 1919.42L2263.62 1919.69C2249.56 1919.72 2238.13 1910.9 2238.1 1899.98L2238.12 1905.87C2238.09 1894.96 2249.47 1886.08 2263.54 1886.05Z" stroke="#5B5B5B" stroke-width="4.18599" stroke-miterlimit="8" fill="#5B5B5B" fill-rule="evenodd"/><path d="M2349.95 1940.62C2357.77 1940.61 2364.12 1949.44 2364.15 1960.35L2364.14 1954.47C2364.16 1965.38 2357.85 1974.25 2350.03 1974.27L2288.41 1974.42C2280.59 1974.43 2274.23 1965.6 2274.21 1954.69L2274.22 1960.57C2274.19 1949.66 2280.51 1940.79 2288.33 1940.78Z" stroke="#5B5B5B" stroke-width="3.13868" stroke-miterlimit="8" fill="#5B5B5B" fill-rule="evenodd"/><path d="M2398.02 1293.31C2485.49 1337.94 2520.18 1445.07 2475.52 1532.61 2430.85 1620.14 2323.74 1654.92 2236.28 1610.29 2148.81 1565.66 2114.12 1458.52 2158.78 1370.99 2203.45 1283.46 2310.56 1248.68 2398.02 1293.31Z" fill="#FEC20E" fill-rule="evenodd"/><path d="M2321.82 1434.26C2373.23 1433.32 2415.65 1473.3 2416.57 1523.55L2418.36 1621.91C2419.28 1672.16 2378.36 1713.66 2326.95 1714.6L2310.6 1714.9C2259.19 1715.84 2216.78 1675.87 2215.86 1625.61L2214.06 1527.25C2213.14 1477 2254.07 1435.5 2305.47 1434.56Z" fill="#FEC20E" fill-rule="evenodd"/><path d="M2304.97 1485.04 2323.78 1485.04C2373.94 1483.48 2414.7 1524.24 2416.27 1574.41L2417.84 1619.88C2420.97 1671.62 2378.65 1713.96 2328.48 1713.96L2309.67 1713.96C2259.5 1715.52 2217.18 1674.76 2215.61 1624.59L2214.04 1579.12C2212.47 1527.38 2254.8 1485.04 2304.97 1485.04Z" fill="#EF7F1A" fill-rule="evenodd"/><path d="M2260.31 1468.62C2231.92 1484.4 2213 1514.39 2213 1549.1L2213 1594.86C2231.92 1609.06 2252.42 1618.53 2274.5 1623.27 2280.81 1624.84 2287.12 1626.42 2295 1628 2301.31 1628 2307.62 1628 2313.92 1628 2313.92 1628 2315.5 1628 2315.5 1628 2353.35 1628 2388.04 1615.38 2418 1594.86L2416.42 1549.1C2416.42 1534.9 2413.27 1520.7 2408.54 1509.65 2392.77 1478.09 2361.23 1456 2324.96 1456L2315.5 1456 2306.04 1456C2288.69 1456 2274.5 1460.73 2260.31 1468.62Z" fill="#E31E24" fill-rule="evenodd"/><path d="M1692.5 2426C1692.5 2308.64 1787.86 2213.5 1905.5 2213.5 2023.14 2213.5 2118.5 2308.64 2118.5 2426 2118.5 2543.36 2023.14 2638.5 1905.5 2638.5 1787.86 2638.5 1692.5 2543.36 1692.5 2426Z" stroke="#404040" stroke-width="20.625" stroke-miterlimit="8" fill="#EF7F1A" fill-rule="evenodd"/><rect x="1610" y="2356" width="145" height="146" fill="#C00000"/><text fill="#FFFFFF" font-family="Arial,Arial_MSFontService,sans-serif" font-weight="700" font-size="110" transform="matrix(1 0 0 1 1652.13 2470)">6</text><path d="M2019 2400 1910.5 2505 1802 2400Z" fill="#FFFFFF" fill-rule="evenodd"/><path d="M1893 2455 1928 2455 1928 2534.04 1893 2559 1893 2455Z" fill="#FFFFFF" fill-rule="evenodd"/><path d="M1826 2348C1826 2335.3 1835.63 2325 1847.5 2325 1859.37 2325 1869 2335.3 1869 2348 1869 2360.7 1859.37 2371 1847.5 2371 1835.63 2371 1826 2360.7 1826 2348Z" fill="#FFFFFF" fill-rule="evenodd"/><path d="M1923 2338.5C1923 2318.34 1937.77 2302 1956 2302 1974.23 2302 1989 2318.34 1989 2338.5 1989 2358.66 1974.23 2375 1956 2375 1937.77 2375 1923 2358.66 1923 2338.5Z" fill="#FFFFFF" fill-rule="evenodd"/><path d="M1886 2372C1886 2364.82 1891.37 2359 1898 2359 1904.63 2359 1910 2364.82 1910 2372 1910 2379.18 1904.63 2385 1898 2385 1891.37 2385 1886 2379.18 1886 2372Z" fill="#FFFFFF" fill-rule="evenodd"/></g></svg>
