<svg width="5564" height="2342" xmlns="http://www.w3.org/2000/svg" xmlns:xlink="http://www.w3.org/1999/xlink" xml:space="preserve" overflow="hidden"><defs><clipPath id="clip0"><rect x="151" y="479" width="5564" height="2342"/></clipPath><clipPath id="clip1"><rect x="294" y="622" width="387" height="387"/></clipPath><clipPath id="clip2"><rect x="294" y="622" width="387" height="387"/></clipPath><clipPath id="clip3"><rect x="294" y="622" width="387" height="387"/></clipPath><clipPath id="clip4"><rect x="297" y="1459" width="381" height="382"/></clipPath><clipPath id="clip5"><rect x="297" y="1459" width="381" height="382"/></clipPath><clipPath id="clip6"><rect x="297" y="1459" width="381" height="382"/></clipPath><clipPath id="clip7"><rect x="1628" y="1472" width="689" height="363"/></clipPath><clipPath id="clip8"><rect x="1628" y="1472" width="689" height="363"/></clipPath><clipPath id="clip9"><rect x="1628" y="1472" width="689" height="363"/></clipPath><clipPath id="clip10"><rect x="253" y="2282" width="490" height="362"/></clipPath><clipPath id="clip11"><rect x="253" y="2282" width="490" height="362"/></clipPath><clipPath id="clip12"><rect x="253" y="2282" width="490" height="362"/></clipPath></defs><g clip-path="url(#clip0)" transform="translate(-151 -479)"><path d="M158 816C158 633.746 305.746 486 488 486 670.254 486 818 633.746 818 816 818 998.254 670.254 1146 488 1146 305.746 1146 158 998.254 158 816Z" stroke="#404040" stroke-width="13.75" stroke-miterlimit="8" fill="none" fill-rule="evenodd"/><g clip-path="url(#clip1)"><g clip-path="url(#clip2)"><g clip-path="url(#clip3)"><path d="M550.052 1005.17C536.763 997.282 523.475 989.35 510.187 981.457 503.06 977.189 495.892 972.961 488.765 968.693L488.04 968.25 487.315 968.693C479.141 973.525 470.967 978.357 462.793 983.189 450.672 990.397 438.149 997.806 425.828 1005.13 413.063 997.524 400.016 989.873 387.413 982.464 377.507 976.625 367.239 970.625 357.172 964.666 357.172 952.264 357.132 939.861 357.132 927.459 357.132 915.661 357.132 903.863 357.092 892.064L357.092 891.259 356.407 890.856C340.663 881.514 324.677 872.011 309.214 862.83L295.926 854.938C295.765 847.448 295.684 839.838 295.644 832.469 295.604 825.745 295.523 818.819 295.403 812.013 295.362 810 295.362 807.946 295.362 805.973 295.362 804.524 295.362 803.034 295.362 801.584 295.242 797.195 295.201 792.806 295.161 788.497 295.121 784.753 295.121 780.927 295.04 777.142 303.456 772.069 311.872 766.995 320.328 761.921 332.287 754.713 344.649 747.304 356.77 739.935L357.414 739.533 357.414 738.768C357.535 734.379 357.535 729.869 357.575 725.56 357.575 722.782 357.615 719.882 357.655 717.064 357.776 713.118 357.776 709.051 357.817 705.145 357.817 700.876 357.857 696.447 357.978 692.098L357.978 692.058C357.937 687.025 358.018 681.951 358.098 676.998 358.139 673.535 358.219 669.951 358.219 666.408 364.581 662.663 370.903 658.918 377.266 655.173 393.01 645.912 409.238 636.328 425.224 626.825 428.123 628.798 438.27 634.959 474.39 656.502 479.181 659.361 483.651 662.019 487.315 664.233L488.04 664.676 488.765 664.233C492.47 662.019 496.939 659.361 501.771 656.462 537.77 634.959 547.958 628.798 550.857 626.825 567.608 636.771 584.681 646.838 601.191 656.583 606.748 659.844 612.304 663.146 617.861 666.408 617.861 669.549 617.901 672.689 617.982 675.75 618.022 678.327 618.063 680.984 618.103 683.602 618.103 687.951 618.143 692.38 618.224 696.648 618.304 701.36 618.385 706.192 618.344 710.983L618.344 711.024C618.465 715.775 618.505 720.648 618.546 725.359 618.586 729.748 618.586 734.298 618.707 738.768L618.707 739.533 619.351 739.935C632.8 748.069 646.451 756.284 659.699 764.257 666.826 768.525 673.953 772.834 681.081 777.142 681 780.968 680.96 784.873 680.96 788.618 680.96 791.558 680.919 794.578 680.879 797.558 680.758 800.779 680.758 804.081 680.758 807.262 680.758 810.04 680.758 812.859 680.678 815.678 680.557 818.819 680.557 822 680.557 825.1 680.557 827.677 680.557 830.335 680.477 832.952 680.356 836.456 680.356 840.039 680.356 843.502 680.356 847.247 680.315 851.113 680.195 854.898 661.068 866.253 640.532 878.454 619.633 890.856L618.948 891.259 618.948 892.064C618.948 902.494 618.948 912.923 618.908 923.352 618.908 937.123 618.908 950.895 618.868 964.666 606.345 972.075 593.62 979.565 581.299 986.813 571.232 992.732 560.843 998.853 550.615 1004.89 550.535 1004.93 550.494 1004.97 550.414 1005.01 550.253 1005.05 550.132 1005.13 550.052 1005.17ZM366.595 899.514C366.393 909.581 366.273 919.768 366.112 929.674 365.951 939.539 365.83 949.727 365.628 959.753L365.628 960.559 366.353 960.961C383.708 971.27 401.104 981.578 418.459 991.846L420.553 993.094 420.593 990.638C420.714 981.296 420.794 971.833 420.875 962.653 420.996 951.78 421.076 940.546 421.237 929.513L421.237 928.748 420.593 928.305C419.385 927.54 418.177 926.815 416.969 926.13 416.284 925.728 415.6 925.325 414.915 924.922 409.56 921.822 404.204 918.721 398.849 915.621 388.782 909.903 378.755 904.104 368.689 898.306L366.635 897.098 366.595 899.514ZM607.311 898.306C601.473 901.688 595.674 905.03 589.835 908.413 578.561 914.896 566.923 921.62 555.488 928.345L554.763 928.748 554.763 929.553C554.924 940.667 555.004 951.982 555.125 962.934 555.206 972.035 555.286 981.457 555.407 990.678L555.447 993.135 557.541 991.886C572.963 982.746 591.245 971.914 609.647 961.002L610.372 960.599 610.372 959.794C610.17 949.526 610.009 939.096 609.888 929.03 609.768 919.365 609.606 909.379 609.405 899.554L609.365 897.178 607.311 898.306ZM464.846 906.883C453.411 913.527 441.612 920.412 430.015 927.177L429.331 927.58 429.331 928.385C429.411 938.291 429.411 948.358 429.411 958.102L429.411 963.055C429.532 971.914 429.572 980.652 429.613 990.316L429.613 992.772 431.707 991.564C441.21 986.048 450.713 980.531 460.175 974.974 469.437 969.578 478.698 964.183 487.96 958.787 496.818 963.941 505.677 969.095 514.536 974.249 524.442 980.008 534.307 985.766 544.213 991.524L546.307 992.732 546.307 990.316C546.307 988.262 546.307 986.168 546.347 984.115 546.347 980.37 546.387 976.545 546.427 972.76 546.548 964.706 546.548 956.532 546.548 948.599 546.548 941.996 546.548 935.15 546.629 928.426L546.629 927.62 545.904 927.218C533.542 920.01 521.18 912.802 508.818 905.594 502.093 901.688 487.919 893.393 487.919 893.393 487.919 893.393 472.336 902.534 464.846 906.883ZM419.304 786.847C418.58 787.249 417.855 787.652 417.09 788.095 414.19 789.706 411.211 791.356 408.311 793.128L392.809 802.47C384.473 807.463 376.178 812.456 367.843 817.49L367.159 817.892 367.159 818.698C367.159 822.12 367.159 825.503 367.118 828.926L367.118 831.865C366.997 842.939 366.957 854.213 366.957 865.126 366.957 872.414 366.917 879.904 366.877 887.313L366.877 888.158 367.601 888.561C375.695 893.031 383.789 897.5 391.923 901.97 402.956 908.05 414.392 914.372 425.626 920.533L426.351 920.936 427.036 920.533C435.572 915.419 444.149 910.346 452.726 905.232 460.336 900.682 481.114 889.085 481.114 889.085L478.537 887.595C469.558 882.36 460.417 876.964 451.558 871.81 441.33 865.81 430.78 859.609 420.392 853.569 420.512 842.536 420.714 831.382 420.915 820.55 421.116 809.96 421.277 799.007 421.398 788.256L421.439 785.8 419.304 786.847ZM519.771 903.057C529.354 908.735 539.22 914.654 548.964 920.453L549.649 920.855 550.374 920.453C562.051 914.05 573.93 907.487 585.406 901.165 593.057 896.937 600.707 892.709 608.398 888.481L609.123 888.078 609.123 887.232C609.123 884.816 609.123 882.441 609.083 880.025 609.083 876.28 609.043 872.535 609.043 868.83 609.083 859.649 609.002 850.348 608.962 841.328 608.922 833.878 608.841 826.188 608.841 818.658L608.841 817.852 608.157 817.45C601.03 813.141 593.902 808.873 586.775 804.564 582.265 801.866 577.755 799.128 573.245 796.43 567.326 792.806 561.93 789.706 556.736 786.847L554.642 785.679 554.682 788.095C554.803 798.605 555.004 809.275 555.165 819.624 555.367 830.697 555.568 842.173 555.689 853.448 546.387 858.844 536.965 864.401 527.824 869.756 522.146 873.099 516.429 876.441 510.751 879.783 509.06 880.749 507.368 881.756 505.717 882.722 503.06 884.293 500.281 885.944 497.503 887.393L494.684 888.883C494.644 888.843 513.851 899.514 519.771 903.057ZM471.41 757.129C457.719 765.223 443.545 773.558 429.653 781.813L428.968 782.216 428.968 783.021C428.968 794.497 428.968 805.973 428.968 817.49 428.968 828 428.968 838.509 428.968 849.019L428.968 849.824 429.693 850.227C440.364 856.307 451.075 862.388 461.746 868.468 470.282 873.34 478.819 878.213 487.396 883.045L488.081 883.447 488.765 883.045C494.966 879.541 501.167 876.038 507.328 872.535 520.173 865.287 533.461 857.757 546.427 850.267L547.152 849.865 547.152 849.059C547.152 838.992 547.152 828.885 547.152 818.819 547.152 806.9 547.152 794.98 547.152 783.021L547.152 782.216 546.468 781.813C530.562 772.391 514.375 762.847 498.711 753.586L488.121 747.345C488 747.304 476.685 753.989 471.41 757.129ZM301.523 788.055C301.725 808.55 301.886 829.409 302.047 849.542L302.047 850.63 302.731 851.032C312.516 856.629 322.462 862.347 332.046 867.864 340.019 872.454 348.032 877.045 356.005 881.595L358.098 882.803 358.098 880.387C358.098 874.709 358.139 868.911 358.219 863.314 358.3 856.831 358.34 850.106 358.34 843.543 358.3 839.798 358.38 836.013 358.421 832.348 358.461 828 358.541 823.53 358.501 819.1L358.501 818.295 357.817 817.892C348.233 812.416 338.488 806.819 329.066 801.383 322.059 797.356 301.523 786.041 301.523 786.041L301.523 788.055ZM647.216 801.182C637.713 806.658 627.888 812.336 618.183 817.852L617.459 818.255 617.459 819.06C617.459 824.094 617.499 829.167 617.539 834.12 617.62 841.408 617.66 848.938 617.62 856.347 617.74 863.314 617.781 870.924 617.821 880.347L617.821 882.763 619.915 881.555C627.566 877.166 635.176 872.776 642.827 868.428 652.773 862.71 663.081 856.79 673.188 850.992L673.873 850.589 673.873 849.784C673.994 831.342 674.195 809.557 674.396 788.055L674.436 785.92C674.517 785.88 653.337 797.638 647.216 801.182ZM366.031 743.358C356.89 748.754 347.75 754.15 338.649 759.505 328.18 765.706 317.711 771.867 307.241 778.028L304.785 779.478C304.785 779.478 331.643 793.853 340.623 798.846 347.911 802.873 355.199 806.94 362.488 811.007L363.212 811.409 363.897 810.966C384.876 798.001 402.473 787.128 420.15 776.135L420.835 775.733 420.835 774.968C420.835 767.921 420.875 760.713 420.915 753.787L420.915 752.136C420.996 743.439 420.996 734.58 420.996 726.043 420.996 720.366 420.996 714.446 421.036 708.648L421.036 707.843 420.311 707.44C411.774 702.568 403.278 697.655 394.741 692.783 386.285 687.951 366.192 676.837 366.192 676.837L366.192 679.011C366.152 689.602 366.152 700.192 366.112 710.782 366.071 721.372 366.071 732.446 366.031 743.358ZM578.681 694.232C571.031 698.621 563.38 702.97 555.729 707.359L555.004 707.762 555.004 708.567C555.045 719.882 555.045 731.318 555.045 741.989 555.125 752.62 555.206 763.894 555.206 774.927L555.206 775.693 555.89 776.095C571.917 786.041 588.225 796.148 604.009 805.893L612.828 811.369 613.553 810.966C618.183 808.389 622.814 805.812 627.445 803.235 636.706 798.081 671.094 779.317 671.094 779.317L668.799 777.988C657.565 771.384 646.169 764.659 635.176 758.176 626.801 753.224 618.385 748.271 610.009 743.318 609.969 732.687 609.969 722.017 609.929 711.386 609.929 700.554 609.888 689.722 609.848 678.891L609.848 676.716C609.848 676.756 586.332 689.843 578.681 694.232ZM488 737.479C498.188 743.479 508.496 749.599 518.482 755.559 526.858 760.552 535.555 765.706 544.092 770.74L546.186 771.988 546.226 769.572C546.427 758.619 546.589 747.465 546.75 736.674 546.87 727.251 547.031 717.547 547.193 707.963L547.193 707.158 546.508 706.755C543.81 705.064 540.951 703.534 538.213 702.044 536.522 701.118 534.79 700.192 533.099 699.225L517.959 690.81C508.174 685.374 498.429 679.978 488.644 674.542L487.96 674.179 487.275 674.542C476.806 680.34 466.296 686.179 455.827 691.977L439.76 700.917C438.471 701.682 437.143 702.366 435.854 703.091 433.72 704.259 431.505 705.427 429.452 706.755L428.767 707.198 428.767 708.004C428.928 717.466 429.089 727.13 429.21 736.432 429.371 747.304 429.532 758.539 429.734 769.612L429.774 772.028 431.868 770.82C440.445 765.747 449.142 760.592 457.598 755.559 467.585 749.559 477.853 743.439 488 737.479ZM549.649 636.489C543.689 640.033 537.73 643.617 531.73 647.16 520.495 653.844 508.858 660.77 497.463 667.616L495.409 668.824 497.463 670.032C507.006 675.629 516.549 681.266 526.093 686.904 533.945 691.534 541.797 696.165 549.649 700.796L550.374 701.198 551.098 700.756C557.904 696.729 605.66 668.461 605.66 668.461L603.607 667.253C593.258 661.133 582.748 654.972 572.561 649.012 565.514 644.945 558.226 640.677 551.098 636.489L550.374 636.046 549.649 636.489ZM424.942 636.489C417.774 640.677 410.607 644.905 403.439 649.093 393.252 655.012 382.742 661.173 372.393 667.294L370.34 668.502C370.34 668.502 394.741 682.917 405.654 689.36 412.097 693.185 418.499 696.97 424.942 700.796L425.667 701.239 426.391 700.836C434.243 696.205 442.096 691.575 449.948 686.944 459.491 681.307 469.034 675.709 478.577 670.072L480.631 668.864 478.577 667.656C467.262 660.891 455.746 654.005 444.592 647.361 438.512 643.737 432.431 640.113 426.391 636.489L425.667 636.046 424.942 636.489Z"/></g></g></g><path d="M158 1650C158 1467.75 305.746 1320 488 1320 670.254 1320 818 1467.75 818 1650 818 1832.25 670.254 1980 488 1980 305.746 1980 158 1832.25 158 1650Z" stroke="#404040" stroke-width="13.75" stroke-miterlimit="8" fill="none" fill-rule="evenodd"/><g clip-path="url(#clip4)"><g clip-path="url(#clip5)"><g clip-path="url(#clip6)"><path d="M67.7707 133.121C62.93 67.7707 111.338 0 191.21 0 217.835 0 246.879 7.26115 271.083 16.9427 334.013 48.4077 380 113.758 380 188.79 380 258.981 341.274 321.911 285.605 353.376 312.229 326.752 329.172 288.026 324.331 246.879 319.491 176.688 254.14 118.599 193.631 118.599 137.962 118.599 116.178 167.006 123.44 200.892 123.44 212.994 130.701 225.096 137.962 234.777 128.28 227.516 118.599 222.675 108.917 212.994 84.7134 191.21 70.1911 162.166 67.7707 133.121ZM312.229 246.879C317.07 312.229 268.663 380 188.79 380 159.745 380 133.121 372.739 108.917 360.637 43.5669 331.593 0 266.242 0 188.79 0 118.599 38.7261 58.0892 94.395 26.6242 67.7707 53.2484 50.8281 91.9746 55.6688 133.121 60.5096 203.312 125.86 261.401 186.37 261.401 242.038 261.401 263.822 212.994 256.561 179.108 254.14 167.006 249.299 154.905 242.038 145.223 251.72 152.484 261.401 157.325 271.083 167.006 295.287 188.79 309.809 217.835 312.229 246.879Z" fill="#0053D6" fill-rule="evenodd" transform="matrix(1.00263 0 0 1 297 1460)"/></g></g></g><path d="M158 2484C158 2301.75 305.746 2154 488 2154 670.254 2154 818 2301.75 818 2484 818 2666.25 670.254 2814 488 2814 305.746 2814 158 2666.25 158 2484Z" stroke="#404040" stroke-width="13.75" stroke-miterlimit="8" fill="none" fill-rule="evenodd"/><path d="M818.041 1643.13 1425.64 1646.7 1425.56 1660.45 817.96 1656.87ZM1387.99 1623.35 1439.25 1653.65 1387.64 1683.35C1384.35 1685.25 1380.15 1684.11 1378.25 1680.82 1376.36 1677.53 1377.49 1673.33 1380.78 1671.43L1422.17 1647.61 1422.1 1659.49 1381 1635.19C1377.73 1633.25 1376.64 1629.04 1378.58 1625.77 1380.51 1622.5 1384.73 1621.42 1387.99 1623.35Z" fill="#404040"/><text fill="#404040" font-family="Arial,Arial_MSFontService,sans-serif" font-weight="400" font-size="101" transform="matrix(1 0 0 1 866.683 1795)">DeepMind<tspan font-size="101" x="-0.000366211" y="838">Isaac Gym</tspan></text><path d="M818 2484 1376.92 2484" stroke="#404040" stroke-width="13.75" stroke-miterlimit="8" fill="none" fill-rule="evenodd"/><path d="M818 816 1374.97 816" stroke="#404040" stroke-width="13.75" stroke-miterlimit="8" fill="none" fill-rule="evenodd"/><path d="M13.7798 6.5339 308.413 385.884C310.742 388.883 310.199 393.202 307.201 395.531 304.202 397.86 299.883 397.317 297.554 394.318L2.92042 14.9682C0.591363 11.9694 1.13424 7.6504 4.13298 5.32134 7.13171 2.99229 11.4507 3.53517 13.7798 6.5339ZM7.83382 58.9956-0.0195453-0.0251645 55.2217 22.1904C58.7445 23.6071 60.4518 27.6113 59.0351 31.1341 57.6184 34.6569 53.6142 36.3642 50.0914 34.9475L5.78475 17.1293 15.1648 9.84398 21.4637 57.182C21.9645 60.9458 19.3193 64.4029 15.5556 64.9038 11.7918 65.4046 8.33464 62.7594 7.83382 58.9956Z" fill="#404040" transform="matrix(-1 0 0 1 1679.98 2094)"/><path d="M1663.75 1206.78 1369.53 820.164C1367.23 817.142 1367.82 812.828 1370.84 810.529 1373.86 808.23 1378.17 808.815 1380.47 811.837L1674.69 1198.45C1676.99 1201.47 1676.4 1205.79 1673.38 1208.09 1670.36 1210.39 1666.05 1209.8 1663.75 1206.78ZM1670.21 1154.38 1677.48 1213.47 1622.46 1190.71C1618.95 1189.26 1617.28 1185.24 1618.73 1181.73 1620.19 1178.22 1624.21 1176.56 1627.72 1178.01L1671.84 1196.26 1662.39 1203.45 1656.56 1156.06C1656.1 1152.29 1658.78 1148.86 1662.54 1148.39 1666.31 1147.93 1669.74 1150.61 1670.21 1154.38Z" fill="#404040"/><text fill="#404040" font-family="Arial,Arial_MSFontService,sans-serif" font-weight="400" font-size="101" transform="matrix(1 0 0 1 856.532 963)">Gym</text><path d="M1477 1654C1477 1380.62 1698.62 1159 1972 1159 2245.38 1159 2467 1380.62 2467 1654 2467 1927.38 2245.38 2149 1972 2149 1698.62 2149 1477 1927.38 1477 1654Z" stroke="#404040" stroke-width="13.75" stroke-miterlimit="8" fill="none" fill-rule="evenodd"/><path d="M1566 1653.5C1566 1429.55 1747.77 1248 1972 1248 2196.23 1248 2378 1429.55 2378 1653.5 2378 1877.45 2196.23 2059 1972 2059 1747.77 2059 1566 1877.45 1566 1653.5Z" fill="#343131" fill-rule="evenodd"/><g clip-path="url(#clip7)"><g clip-path="url(#clip8)"><g clip-path="url(#clip9)"><path d="M0 0 688.094 0 688.094 361.883 0 361.883Z" fill="#343131" fill-rule="evenodd" transform="matrix(1 0 0 1.00032 1628.45 1473)"/><path d="M400.841 322.221 401.075 322.221C401.545 322.221 402.249 322.221 402.718 322.221L402.953 322.221C403.657 322.221 404.126 322.221 404.83 322.221L404.83 322.221 404.83 322.221 404.83 322.221C405.534 322.221 406.004 322.221 406.708 321.987L406.708 321.987C407.412 321.987 407.881 321.987 408.585 321.987L408.585 321.987C409.289 321.987 409.993 321.752 410.463 321.752L410.463 321.752 410.697 321.752C411.167 321.752 411.636 321.752 412.34 321.517L412.34 321.517 412.575 321.517C413.044 321.517 413.748 321.517 414.218 321.283L414.452 321.283C414.922 321.283 415.626 321.283 416.095 321.048L416.33 321.048C417.034 321.048 417.503 321.048 418.207 320.813L418.207 320.813C418.911 320.813 419.381 320.579 420.085 320.579L420.085 320.579C420.789 320.344 421.258 320.344 421.962 320.109L421.962 320.109C422.666 320.109 423.37 319.875 423.84 319.875L423.84 319.875 423.84 319.875C424.544 319.64 425.248 319.64 425.717 319.405L425.952 319.405C426.421 319.17 427.125 319.17 427.829 318.936L427.829 318.936C428.299 318.936 429.003 318.701 429.707 318.466L429.707 318.466 429.707 318.466C430.411 318.466 430.88 318.232 431.584 317.997L431.584 317.997 431.584 317.997C432.288 317.762 432.758 317.762 433.462 317.528L433.462 317.528C434.166 317.293 434.635 317.058 435.339 317.058L435.339 316.824C436.043 316.824 436.747 316.589 437.217 316.354 505.04 294.998 542.59 222.715 521.234 155.126 499.877 87.3025 427.595 49.753 360.005 71.1093 359.301 71.1093 358.832 71.344 358.128 71.5787L357.893 71.5787C357.424 71.8134 356.72 72.048 356.251 72.2827L356.251 72.2827C355.547 72.5174 355.077 72.7521 354.373 72.9868L354.373 72.9868 354.138 72.9868C353.669 73.2215 353.2 73.4561 352.496 73.6908L352.496 73.6908 352.496 73.6908C351.792 73.9255 351.322 74.1602 350.618 74.3949L350.618 74.3949C349.914 74.6296 349.445 74.8642 348.975 75.0989L348.741 75.0989C348.271 75.3336 347.567 75.5683 347.098 75.803L347.098 75.803 346.863 75.803C346.394 76.0377 345.924 76.2723 345.22 76.7417L345.22 76.7417C344.516 76.9764 344.047 77.2111 343.578 77.4458L343.343 77.4458C342.874 77.6805 342.404 77.9151 341.7 78.3845L341.7 78.3845C341.231 78.6192 340.527 78.8539 340.057 79.0886L339.823 79.0886C339.353 79.5579 338.884 79.7926 338.415 80.0273L338.18 80.0273C337.711 80.4967 337.241 80.7313 336.537 80.966L336.537 80.966 336.537 80.966C336.068 81.2007 335.364 81.6701 334.894 81.9048L334.894 81.9048 334.894 81.9048C334.425 82.1395 333.721 82.6088 333.251 82.8435L333.251 82.8435C332.782 83.3129 332.078 83.5476 331.609 83.7822L331.609 83.7822C331.139 84.2516 330.435 84.4863 329.966 84.721L329.966 84.9557 329.966 84.9557 329.966 84.9557C329.497 85.1903 329.027 85.425 328.323 85.8944L328.323 85.8944C327.854 86.3638 327.384 86.5984 326.915 86.8331L326.68 87.0678 326.211 87.3025C283.733 113.587 276.223 150.667 244.541 162.636L241.725 163.34C205.583 174.84 185.166 214.032 196.665 250.173L196.665 250.408 200.655 263.081 200.655 263.316C212.154 299.457 251.112 319.875 287.488 308.375L290.304 307.436C322.925 298.988 350.383 325.038 400.136 322.456L400.841 322.221ZM418.207 320.813C418.911 320.813 419.381 320.579 420.085 320.579" fill="#FFED00" fill-rule="evenodd" transform="matrix(1 0 0 1.00032 1628.45 1473)"/><path d="M63.141 0C69.753-2.33062e-15 75.1131 4.51572 75.1131 10.0862L75.1131 10.0862C75.1131 15.6566 69.753 20.1723 63.141 20.1723L11.9722 20.1723C5.36013 20.1723 0 15.6566 0 10.0862L0 10.0862C-2.33062e-15 4.51572 5.36013-3.49592e-15 11.9722-4.66123e-15Z" stroke="#D9DADA" stroke-width="0.317515" fill="#D9DADA" fill-rule="evenodd" transform="matrix(-0.430234 -1.36521 -0.953705 0.300745 1826.29 1785.99)"/><path d="M63.141 0C69.753-2.33062e-15 75.1131 4.51572 75.1131 10.0862L75.1131 10.0862C75.1131 15.6566 69.753 20.1723 63.141 20.1723L11.9722 20.1723C5.36013 20.1723 0 15.6566 0 10.0862L0 10.0862C-2.33062e-15 4.51572 5.36013-3.49592e-15 11.9722-4.66123e-15Z" stroke="#D9DADA" stroke-width="0.317515" fill="#D9DADA" fill-rule="evenodd" transform="matrix(-0.387212 -1.2287 -0.953705 0.300745 1793.39 1790.72)"/><path d="M45.1902 0C49.9225-1.66803e-15 53.7588 3.23192 53.7588 7.2187L53.7588 7.2187C53.7588 11.2055 49.9225 14.4374 45.1902 14.4374L8.56854 14.4374C3.83627 14.4374 0 11.2055 0 7.2187L0 7.2187C-1.66803e-15 3.23192 3.83627-2.50205e-15 8.56854-3.33606e-15Z" stroke="#D9DADA" stroke-width="0.227247" fill="#D9DADA" fill-rule="evenodd" transform="matrix(-0.300568 -0.95376 -1.33254 0.420208 1755.65 1780.05)"/><path d="M381.831 135.178C387.933 133.066 399.667 126.495 405.3 130.719 404.83 139.872 395.677 147.616 403.891 159.82 415.156 176.482 446.135 169.207 447.073 146.208 447.543 132.362 431.349 130.719 429.003 123.209 432.054 115.23 456.93 111.71 465.144 109.363L472.419 108.659 478.756 107.485C479.46 104.669 478.756 98.3327 477.582 91.9962 497.53 107.485 513.02 129.076 521.234 155.126 542.59 222.715 505.04 294.998 437.217 316.354L435.339 316.824 435.339 317.058 433.462 317.528 433.462 317.528 431.584 317.997 431.584 317.997 431.584 317.997 429.707 318.466 429.707 318.466 429.707 318.466 427.829 318.936 427.829 318.936 425.952 319.405 425.717 319.405 423.84 319.875 423.84 319.875 423.84 319.875 421.962 320.109 421.962 320.109 420.085 320.579 420.085 320.579 418.207 320.813 418.207 320.813 416.33 321.048 416.095 321.048 414.452 321.283 414.218 321.283 412.575 321.517 412.34 321.517 412.34 321.517 410.697 321.752 410.463 321.752 410.463 321.752 408.585 321.987 408.585 321.987 406.708 321.987 406.708 321.987 404.83 322.221 404.83 322.221 404.83 322.221 404.83 322.221 402.953 322.221 402.718 322.221 401.075 322.221 400.841 322.221 400.136 322.456C350.383 325.038 322.925 298.988 290.304 307.436L287.488 308.375C251.112 319.875 212.154 299.457 200.655 263.316L200.655 263.081 196.665 250.408 196.665 250.173C185.166 214.032 205.583 174.84 241.725 163.34L244.541 162.636C276.223 150.667 283.733 113.587 326.211 87.3025L326.68 87.0678 326.915 86.8331 328.323 85.8944 328.323 85.8944 329.966 84.9557 329.966 84.9557 329.966 84.9557 329.966 84.721 331.609 83.7822 331.609 83.7822 333.251 82.8435 333.251 82.8435 334.894 81.9048 334.894 81.9048 334.894 81.9048 336.537 80.966 336.537 80.966 336.537 80.966 338.18 80.0273 338.415 80.0273 339.823 79.0886 340.057 79.0886 341.7 78.3845 341.7 78.3845 343.343 77.4458 343.578 77.4458 345.22 76.7417 345.22 76.7417 346.863 75.803 347.098 75.803 347.098 75.803 348.741 75.0989 348.975 75.0989 350.618 74.3949 350.618 74.3949 352.496 73.6908 352.496 73.6908 352.496 73.6908 354.138 72.9868 354.373 72.9868 354.373 72.9868 356.251 72.2827 356.251 72.2827 357.893 71.5787 358.128 71.5787 360.005 71.1093C364.464 69.4665 369.158 68.2931 373.617 67.589 375.26 71.344 376.433 73.9255 377.137 79.0886 377.607 87.5372 373.382 95.7511 365.403 98.5673 354.373 102.557 349.679 92.9349 340.292 95.5164 329.497 101.149 352.026 143.861 355.312 146.912L360.24 145.035C367.515 141.28 374.087 137.994 381.831 135.178Z" fill="#FFED00" fill-rule="evenodd" transform="matrix(1 0 0 1.00032 1628.45 1473)"/><path d="M106.749 0C106.749 58.9559 58.9559 106.749-1.94799e-14 106.749-58.9559 106.749-106.749 58.9559-106.749 9.73994e-15-106.749-58.9559-58.9559-106.749-9.73994e-15-106.749 58.9559-106.749 106.749-58.9559 106.749 0Z" fill="#FEC20E" fill-rule="evenodd" transform="matrix(0.711057 -0.703134 -0.702907 -0.711287 2026.77 1666.86)"/><path d="M64.6547 0C94.5803-1.04409e-14 118.84 24.2595 118.84 54.185L118.84 113.513C118.84 143.439 94.5803 167.698 64.6547 167.698L54.185 167.698C24.2595 167.698 0 143.439 0 113.513L0 54.185C-1.04409e-14 24.2595 24.2595 0 54.185 0Z" fill="#FEC20E" fill-rule="evenodd" transform="matrix(-0.291826 -0.979926 -0.958353 0.285588 2054.65 1723.75)"/><path d="M382.066 206.522 378.78 196.196C370.097 167.095 339.353 150.902 310.018 158.881L283.733 166.391C254.398 174.37 237.97 206.053 246.653 235.154L249.704 245.48C258.387 274.58 289.131 291.008 318.466 282.794L344.751 275.519C374.087 267.305 390.749 235.858 382.066 206.522Z" fill="#EF7F1A" fill-rule="evenodd" transform="matrix(1 0 0 1.00032 1628.45 1473)"/><path d="M397.79 228.348C393.565 247.122 379.954 263.316 360.24 269.417L333.956 277.866C323.395 270.121 314.007 260.265 306.967 248.531 304.855 245.01 302.977 241.49 301.334 237.5 299.692 234.215 298.284 230.695 297.11 226.94 296.875 226.705 296.875 226.236 296.641 225.766 289.835 204.175 290.539 181.88 297.345 161.932L323.864 153.483C331.609 151.137 339.823 150.433 347.567 151.606 368.219 154.187 386.525 168.503 393.331 189.625L394.973 195.023 396.382 199.951C399.432 209.573 399.667 219.195 397.79 228.348Z" fill="#E31E24" fill-rule="evenodd" transform="matrix(1 0 0 1.00032 1628.45 1473)"/><path d="M468.899 26.5193 471.715 37.5495C475.47 45.0594 483.449 52.5693 492.367 50.2224 501.755 47.6409 511.142 19.0094 520.06 39.8963 521.938 44.3553 523.815 50.2224 524.988 54.9161 526.397 60.7832 530.621 78.1498 528.978 83.3129L522.876 84.4863 515.366 85.1903C507.387 87.5372 482.276 91.0574 479.46 99.0367 481.572 106.547 498 108.189 497.53 122.036 496.592 145.035 465.379 152.31 454.114 135.647 445.9 123.444 455.053 115.934 455.522 106.547 450.124 102.322 438.39 108.893 432.288 111.006 424.544 113.822 417.738 117.107 410.697 120.862L405.769 122.74C402.483 119.689 379.719 76.9764 390.749 71.344 400.136 68.7625 404.83 78.6192 415.626 74.6296 423.84 71.5787 428.064 63.3647 427.595 54.9161 426.656 48.5796 425.013 45.9981 423.136 40.6004 418.442 33.5598 409.054 29.3355 400.841 32.3864 390.984 36.1414 391.688 48.5796 381.831 48.8143 333.251 32.8558 464.44-11.2648 468.899 26.5193Z" fill="#343131" fill-rule="evenodd" transform="matrix(1 0 0 1.00032 1628.45 1473)"/><path d="M250.877 264.724 239.847 267.54C232.337 271.295 225.062 279.274 227.409 288.192 229.99 297.345 258.622 306.732 237.735 315.65 233.041 317.528 227.409 319.64 222.481 320.813 216.848 322.221 205.349 326.446 200.186 324.803L199.012 318.466 198.308 311.191C195.961 302.977 192.441 278.101 184.462 275.285 176.952 277.397 175.309 293.825 161.463 293.121 138.464 292.182 131.188 261.203 147.851 249.939 160.055 241.725 167.799 250.877 176.952 251.347 181.176 245.949 174.605 233.98 172.493 227.878 169.677 220.368 166.391 213.563 162.636 206.522L160.759 201.359C163.81 198.308 200.42 175.544 206.287 186.339 208.869 195.961 199.012 200.42 203.002 211.45 206.053 219.43 214.267 223.654 222.715 223.419 228.817 222.246 231.399 220.603 237.031 218.726 243.837 214.267 248.296 204.645 245.245 196.431 241.49 186.809 229.052 187.278 228.817 177.656 232.103 167.564 269.887 161.463 279.978 162.401 282.794 173.197 284.437 206.522 294.294 212.624 299.926 210.042 300.865 200.89 310.722 196.431 319.875 192.206 326.211 196.196 332.547 200.655 345.455 210.512 342.639 235.388 324.568 240.317 317.058 241.021 311.426 237.266 304.855 235.154 296.406 239.143 303.916 253.459 306.497 259.795 308.375 264.489 310.018 269.417 312.13 273.876 314.007 277.866 317.058 281.621 317.762 286.08 313.773 290.304 297.814 296.641 291.712 298.753 285.141 301.1 269.183 308.844 265.897 299.222 263.785 292.651 271.764 283.968 270.121 276.223 268.244 268.009 258.622 264.254 250.877 264.724Z" stroke="#343131" stroke-width="9.99114" fill="none" fill-rule="evenodd" transform="matrix(1 0 0 1.00032 1628.45 1473)"/><path d="M330.435 313.538C327.854 305.793 324.568 299.222 320.579 291.947L318.701 287.019C321.987 283.733 364.464 261.203 370.332 271.999 372.913 281.386 363.056 286.08 367.046 297.11 370.097 305.089 378.311 309.314 386.759 308.844 392.861 307.906 395.443 306.263 401.075 304.385 407.881 299.926 412.34 290.304 409.289 282.09 405.534 272.468 393.096 272.938 392.861 263.316 396.147 253.224 433.931 246.888 444.022 248.061 446.839 258.857 448.481 292.182 458.338 298.284 463.971 295.702 464.909 286.549 474.766 282.09 483.919 277.866 490.255 281.621 496.592 286.315 509.499 295.937 506.683 320.813 488.612 325.976 478.052 310.957 367.75 382.3 330.435 313.538Z" stroke="#343131" stroke-width="9.99114" fill="none" fill-rule="evenodd" transform="matrix(1 0 0 1.00032 1628.45 1473)"/><path d="M501.285 186.339 490.255 189.155C482.745 192.91 475.235 200.89 477.817 209.808 480.398 219.195 509.03 228.348 487.908 237.5 483.449 239.378 477.582 241.255 472.889 242.429 467.021 243.837 449.655 248.061 444.492 246.418L443.318 240.082 442.614 232.807C440.267 224.827 436.747 199.716 428.768 196.9 421.493 199.012 419.615 215.44 405.769 214.736 382.77 214.032 375.495 182.819 392.157 171.554 404.361 163.34 412.105 172.493 421.258 172.962 425.482 167.564 418.911 155.83 416.799 149.494 413.983 141.984 410.932 135.178 406.942 128.138L405.065 123.209C408.116 119.924 450.828 97.1592 456.695 108.189 459.042 117.577 449.42 122.27 453.41 133.066 456.226 141.28 464.44 145.269 472.889 145.035 479.225 144.096 481.807 142.453 487.204 140.341 494.245 135.882 498.704 126.26 495.418 118.281 491.898 108.424 479.225 108.893 478.99 99.2714 482.276 89.4147 520.06 83.0782 530.151 84.0169 533.202 94.8124 534.61 128.372 544.467 134.474 550.1 131.893 551.038 122.505 560.895 118.046 570.282 113.822 576.619 117.811 582.721 122.505 595.628 132.127 592.812 157.004 574.976 161.932 567.466 162.636 561.834 158.881 555.263 157.004 546.579 160.993 554.324 175.074 556.906 181.646 558.783 186.105 560.191 191.033 562.303 195.492 564.415 199.482 567.232 203.471 568.17 207.695 564.181 211.92 548.222 218.256 542.12 220.603 535.315 222.95 519.591 230.46 516.305 220.838 513.958 214.267 522.172 205.583 520.295 197.839 518.417 189.625 509.03 185.87 501.285 186.339Z" stroke="#343131" stroke-width="9.99114" fill="none" fill-rule="evenodd" transform="matrix(1 0 0 1.00032 1628.45 1473)"/><path d="M337.006 100.914 325.976 103.73C318.466 107.485 310.957 115.465 313.538 124.383 316.12 133.77 344.751 142.923 323.629 151.841 319.17 153.718 313.303 155.83 308.61 157.004 302.977 158.412 285.376 162.636 280.213 160.993L279.039 154.657 278.335 147.382C276.223 139.402 272.468 114.291 264.489 111.475 115.465 154.187 394.269 33.7945 396.616 32.6211 406.004 28.3968 412.34 32.3864 418.442 36.8454 431.349 46.7021 428.768 71.5787 410.697 76.507 403.187 77.2111 397.555 73.4561 390.984 71.5787 382.3 75.3336 390.045 89.6493 392.627 96.2205 394.504 100.68 395.912 105.608 398.259 110.067 400.136 114.056 402.953 117.811 403.891 122.27 399.902 126.495 383.943 132.831 377.841 134.943 371.036 137.29 355.312 145.035 352.026 135.413 349.679 128.842 357.893 120.158 356.016 112.414 354.138 104.2 344.751 100.445 337.006 100.914Z" stroke="#343131" stroke-width="9.99114" fill="none" fill-rule="evenodd" transform="matrix(1 0 0 1.00032 1628.45 1473)"/><path d="M536.957 46.2328C561.13 56.3242 581.547 75.5683 592.812 100.68 594.69 104.904 596.332 109.128 597.741 113.587 600.087 121.801 601.73 130.015 602.2 138.229 601.261 138.464 600.087 138.698 599.149 138.698 593.282 137.994 590.465 138.229 584.364 136.117 576.619 132.597 571.456 125.087 572.629 116.403 574.037 106.312 582.486 105.373 586.006 98.802 586.476 98.098 586.71 96.9246 587.18 95.9858 586.945 83.5476 538.835 83.7822 534.376 85.1903L533.672 84.9557 533.672 84.0169C535.08 79.5579 534.376 74.8642 534.376 70.4052 534.61 65.4769 535.549 60.3138 536.019 55.3855 536.253 53.0386 536.488 49.753 536.957 46.2328Z" stroke="#FECC00" stroke-width="0.454358" fill="#FEC20E" fill-rule="evenodd" transform="matrix(1 0 0 1.00032 1628.45 1473)"/><path d="M612.995 91.2921C613.934 93.1696 614.638 94.8124 615.342 96.6899 613.464 96.9246 612.056 97.6286 611.118 98.5673 606.659 107.251 618.158 112.648 616.75 122.974 615.811 130.484 609.24 136.351 602.2 138.229 601.73 130.015 600.087 121.801 597.741 113.587 596.332 109.128 594.69 104.904 592.812 100.68 581.547 75.5683 561.13 56.3242 536.957 46.2328 537.661 39.4269 539.774 32.6211 546.11 32.8558 551.038 37.7841 554.089 43.6513 561.13 46.4675 566.762 47.6409 571.925 46.7021 576.15 44.1206 592.108 56.7936 604.781 72.9868 612.995 91.2921Z" stroke="#FFED00" stroke-width="0.454358" fill="#FFED00" fill-rule="evenodd" transform="matrix(1 0 0 1.00032 1628.45 1473)"/><path d="M602.2 138.229C601.261 138.464 600.087 138.698 599.149 138.698 593.282 137.994 590.465 138.229 584.364 136.117 576.619 132.597 571.456 125.087 572.629 116.403 574.037 106.312 582.486 105.373 586.006 98.802 586.476 98.098 586.71 96.9246 587.18 95.9858 586.945 83.5476 538.835 83.7822 534.376 85.1903L533.672 84.9557 533.672 84.0169C535.08 79.5579 534.376 74.8642 534.376 70.4052 534.61 65.4769 535.549 60.3138 536.019 55.3855 536.253 53.0386 536.488 49.753 536.957 46.2328 537.661 39.4269 539.774 32.6211 546.11 32.8558 551.038 37.7841 554.089 43.6513 561.13 46.4675 566.762 47.6409 571.925 46.7021 576.15 44.1206 592.108 56.7936 604.781 72.9868 612.995 91.2921 613.934 93.1696 614.638 94.8124 615.342 96.6899 613.464 96.9246 612.056 97.6286 611.118 98.5673 606.659 107.251 618.158 112.648 616.75 122.974 615.811 130.484 609.24 136.351 602.2 138.229Z" stroke="#343131" stroke-width="9.99114" fill="none" fill-rule="evenodd" transform="matrix(1 0 0 1.00032 1628.45 1473)"/></g></g></g><rect x="2943" y="1980" width="2765" height="764" stroke="#7F7F7F" stroke-width="13.75" stroke-miterlimit="8" stroke-dasharray="41.25 13.75" fill="none"/><text fill="#404040" font-family="Consolas,Consolas_MSFontService,sans-serif" font-weight="700" font-size="92" transform="matrix(1 0 0 1 3014.78 846)">num_envs<tspan font-weight="400" font-size="92" x="453.75" y="0">: </tspan><tspan font-weight="400" font-size="92" x="554.583" y="0">int</tspan><tspan font-size="92" x="0" y="165">device</tspan><tspan font-weight="400" font-size="92" x="352.917" y="165">: </tspan><tspan font-weight="400" font-size="92" x="453.75" y="165">ML framework specific device</tspan><tspan font-size="92" x="0" y="330">state_space</tspan><tspan font-weight="400" font-size="92" x="605" y="330">: </tspan><tspan font-weight="400" font-size="92" x="705.833" y="330">gym.Space</tspan><tspan font-size="92" x="0" y="495">observation_space</tspan><tspan font-weight="400" font-size="92" x="907.5" y="495">: </tspan><tspan font-weight="400" font-size="92" x="1008.33" y="495">gym.Space</tspan><tspan font-size="92" x="0" y="660">action_space</tspan><tspan font-weight="400" font-size="92" x="655.417" y="660">: </tspan><tspan font-weight="400" font-size="92" x="756.25" y="660">gym.Space</tspan><tspan font-size="92" x="0" y="1309">reset()</tspan><tspan font-weight="400" font-size="92" x="403.333" y="1309">-</tspan><tspan font-weight="400" font-size="92" x="453.75" y="1309">&gt; </tspan><tspan font-weight="400" font-size="92" x="554.583" y="1309">observations</tspan><tspan font-size="92" x="0" y="1474">step(</tspan><tspan font-weight="400" font-size="92" x="252.083" y="1474">actions</tspan><tspan font-size="92" x="605" y="1474">)</tspan><tspan font-weight="400" font-size="92" x="705.833" y="1474">-</tspan><tspan font-weight="400" font-size="92" x="756.25" y="1474">&gt; </tspan><tspan font-weight="400" font-size="92" x="857.083" y="1474">observations</tspan><tspan font-weight="400" font-size="92" x="1462.08" y="1474">, </tspan><tspan font-weight="400" font-size="92" x="1562.92" y="1474">rewards, </tspan><tspan font-weight="400" font-size="92" x="2016.67" y="1474">dones</tspan><tspan font-weight="400" font-size="92" x="2268.75" y="1474">, </tspan><tspan font-weight="400" font-size="92" x="2369.58" y="1474">infos</tspan><tspan font-size="92" x="0" y="1639">render()</tspan><tspan font-size="92" x="0" y="1804">close</tspan><tspan font-size="92" x="252.083" y="1804">()</tspan><tspan font-family="Arial,Arial_MSFontService,sans-serif" font-size="101" x="1072.58" y="-224">properties</tspan><tspan font-family="Arial,Arial_MSFontService,sans-serif" font-size="101" x="1113.41" y="1058">methods</tspan></text><rect x="2943" y="694" width="2765" height="905" stroke="#7F7F7F" stroke-width="13.75" stroke-miterlimit="8" stroke-dasharray="41.25 13.75" fill="none"/><text fill="#404040" font-family="Consolas,Consolas_MSFontService,sans-serif" font-weight="700" font-size="92" transform="matrix(1 0 0 1 1712.62 2294)">wrap_env<tspan font-size="92" x="403.333" y="0">(</tspan><tspan font-weight="400" font-size="92" x="453.75" y="0">…</tspan><tspan font-size="92" x="504.167" y="0">)</tspan></text><path d="M0-6.875 213.016-6.875 213.016 507.573 206.141 500.698 398.669 500.698 398.669 514.448 199.266 514.448 199.266 0 206.141 6.875 0 6.875ZM360.883 477.572 412.313 507.573 360.883 537.574C357.603 539.487 353.393 538.379 351.48 535.099 349.567 531.82 350.675 527.61 353.955 525.697L395.205 501.634 395.205 513.511 353.955 489.449C350.675 487.536 349.567 483.326 351.48 480.046 353.393 476.766 357.603 475.659 360.883 477.572Z" fill="#404040" transform="matrix(1 0 0 -1 2467 1653.57)"/><path d="M2467 1647.13 2680.02 1647.13 2680.02 2362.23 2673.14 2355.36 2865.67 2355.36 2865.67 2369.11 2666.27 2369.11 2666.27 1654 2673.14 1660.88 2467 1660.88ZM2827.88 2332.23 2879.31 2362.23 2827.88 2392.23C2824.6 2394.14 2820.39 2393.04 2818.48 2389.76 2816.57 2386.48 2817.68 2382.27 2820.95 2380.35L2862.2 2356.29 2862.2 2368.17 2820.95 2344.11C2817.68 2342.19 2816.57 2337.98 2818.48 2334.7 2820.39 2331.42 2824.6 2330.32 2827.88 2332.23Z" fill="#404040"/><text fill="#404040" font-family="Arial,Arial_MSFontService,sans-serif" font-weight="400" font-size="101" transform="matrix(1 0 0 1 866.425 2413)">Omniverse</text><g clip-path="url(#clip10)"><g clip-path="url(#clip11)"><g clip-path="url(#clip12)"><path d="M534.799 392.695C534.799 397.944 530.944 401.467 526.381 401.467L526.381 401.435C521.689 401.467 517.905 397.944 517.905 392.696 517.905 387.45 521.689 383.937 526.381 383.937 530.946 383.935 534.799 387.449 534.799 392.695ZM538.213 392.695C538.213 385.492 532.617 381.31 526.381 381.31 520.102 381.31 514.506 385.492 514.506 392.695 514.506 399.895 520.103 404.093 526.381 404.093 532.619 404.093 538.213 399.895 538.213 392.695M524.418 393.658 525.685 393.658 528.621 398.813 531.845 398.813 528.593 393.441C530.273 393.322 531.655 392.521 531.655 390.259 531.655 387.449 529.718 386.545 526.435 386.545L521.687 386.545 521.687 398.813 524.417 398.813 524.417 393.658M524.418 391.582 524.418 388.628 526.317 388.628C527.35 388.628 528.757 388.711 528.757 389.971 528.757 391.342 528.029 391.582 526.811 391.582L524.418 391.582" transform="matrix(1.00157 0 0 1 203.941 2238.52)"/><path d="M458.532 329.941 473.285 370.299 443.323 370.299 458.532 329.941ZM442.733 314.227 408.736 400.364 432.743 400.364 438.12 385.144 478.353 385.144 483.442 400.364 509.503 400.364 475.253 314.216 442.733 314.227ZM374.479 400.396 398.835 400.396 398.835 314.2 374.475 314.195 374.479 400.396ZM205.398 314.195 185.077 382.511 165.612 314.2 139.332 314.195 167.133 400.396 202.221 400.396 230.246 314.195 205.398 314.195ZM303.847 332.964 314.314 332.964C329.501 332.964 339.323 339.783 339.323 357.476 339.323 375.174 329.501 381.993 314.314 381.993L303.847 381.993 303.847 332.964ZM279.696 314.195 279.696 400.396 319.181 400.396C340.218 400.396 347.088 396.899 354.515 389.054 359.762 383.546 363.156 371.457 363.156 358.243 363.156 346.123 360.284 335.32 355.277 328.588 346.255 316.549 333.26 314.195 313.865 314.195L279.696 314.195ZM48.9816 314.075 48.9816 400.396 73.5434 400.396 73.5434 334.852 92.5748 334.858C98.8764 334.858 103.368 336.428 106.403 339.67 110.252 343.769 111.823 350.387 111.823 362.492L111.823 400.396 135.624 400.396 135.624 352.703C135.624 318.664 113.928 314.075 92.7001 314.075L48.9816 314.075ZM240.497 314.195 240.507 400.396 264.851 400.396 264.851 314.195 240.497 314.195Z" transform="matrix(1.00157 0 0 1 203.941 2238.52)"/><path d="M114.438 142.56C114.438 142.56 145.763 96.3416 208.31 91.5601L208.31 74.792C139.031 80.3559 79.039 139.031 79.039 139.031 79.039 139.031 113.018 237.258 208.31 246.251L208.31 228.428C138.38 219.631 114.438 142.56 114.438 142.56ZM208.31 192.982 208.31 209.305C155.458 199.883 140.788 144.943 140.788 144.943 140.788 144.943 166.164 116.832 208.31 112.273L208.31 130.184C208.278 130.184 208.255 130.174 208.229 130.174 186.109 127.52 168.828 148.184 168.828 148.184 168.828 148.184 178.514 182.971 208.31 192.982M208.31 43.8646 208.31 74.792C210.343 74.6361 212.377 74.5039 214.422 74.4343 293.184 71.7798 344.503 139.031 344.503 139.031 344.503 139.031 285.561 210.703 224.155 210.703 218.527 210.703 213.258 210.181 208.31 209.304L208.31 228.428C212.541 228.966 216.929 229.282 221.507 229.282 278.65 229.282 319.974 200.098 359.989 165.559 366.623 170.872 393.784 183.798 399.367 189.456 361.321 221.31 272.652 246.986 222.383 246.986 217.537 246.986 212.884 246.693 208.31 246.251L208.31 273.125 425.506 273.125 425.506 43.8646 208.31 43.8646ZM208.31 112.273 208.31 91.5614C210.323 91.4209 212.351 91.3123 214.422 91.2468 271.06 89.4679 308.218 139.918 308.218 139.918 308.218 139.918 268.083 195.658 225.051 195.658 218.858 195.658 213.306 194.663 208.308 192.982L208.308 130.184C230.358 132.848 234.795 142.588 248.051 164.686L277.534 139.826C277.534 139.826 256.012 111.601 219.732 111.601 215.789 111.599 212.015 111.876 208.31 112.273" fill="#77B900" transform="matrix(1.00157 0 0 1 203.941 2238.52)"/></g></g></g></g></svg>
