<svg width="6062" height="3006" xmlns="http://www.w3.org/2000/svg" xmlns:xlink="http://www.w3.org/1999/xlink" xml:space="preserve" overflow="hidden"><defs><clipPath id="clip0"><rect x="194" y="145" width="6062" height="3006"/></clipPath><clipPath id="clip1"><rect x="341" y="1019" width="380" height="382"/></clipPath><clipPath id="clip2"><rect x="341" y="1019" width="380" height="382"/></clipPath><clipPath id="clip3"><rect x="341" y="1019" width="380" height="382"/></clipPath><clipPath id="clip4"><rect x="1628" y="1472" width="689" height="363"/></clipPath><clipPath id="clip5"><rect x="1628" y="1472" width="689" height="363"/></clipPath><clipPath id="clip6"><rect x="1628" y="1472" width="689" height="363"/></clipPath></defs><g clip-path="url(#clip0)" transform="translate(-194 -145)"><path d="M692 482C692 299.746 839.746 152 1022 152 1204.25 152 1352 299.746 1352 482 1352 664.254 1204.25 812 1022 812 839.746 812 692 664.254 692 482Z" stroke="#BFBFBF" stroke-width="13.75" stroke-miterlimit="8" fill="none" fill-rule="evenodd"/><path d="M201 1208C201 1025.75 348.746 878 531 878 713.254 878 861 1025.75 861 1208 861 1390.25 713.254 1538 531 1538 348.746 1538 201 1390.25 201 1208Z" stroke="#BFBFBF" stroke-width="13.75" stroke-miterlimit="8" fill="none" fill-rule="evenodd"/><g clip-path="url(#clip1)"><g clip-path="url(#clip2)"><g clip-path="url(#clip3)"><path d="M67.7707 133.121C62.9299 67.7707 111.338 0 191.21 0 217.834 0 246.879 7.26114 271.083 16.9427 334.013 48.4076 380 113.758 380 188.79 380 258.981 341.274 321.911 285.605 353.376 312.229 326.751 329.172 288.025 324.331 246.879 319.49 176.688 254.14 118.599 193.63 118.599 137.962 118.599 116.178 167.006 123.439 200.892 123.439 212.994 130.701 225.095 137.962 234.777 128.28 227.516 118.599 222.675 108.917 212.994 84.7133 191.21 70.191 162.166 67.7707 133.121ZM312.229 246.879C317.07 312.229 268.662 380 188.79 380 159.745 380 133.121 372.739 108.917 360.637 43.5669 331.592 0 266.242 0 188.79 0 118.599 38.7261 58.0891 94.3949 26.6242 67.7707 53.2484 50.828 91.9745 55.6688 133.121 60.5095 203.312 125.86 261.401 186.369 261.401 242.038 261.401 263.822 212.994 256.56 179.108 254.14 167.006 249.299 154.904 242.038 145.223 251.72 152.484 261.401 157.325 271.083 167.006 295.286 188.79 309.809 217.834 312.229 246.879Z" fill="#0053D6" fill-rule="evenodd" transform="matrix(1 0 0 1 341 1020)"/></g></g></g><path d="M201 2084C201 1901.75 348.746 1754 531 1754 713.254 1754 861 1901.75 861 2084 861 2266.25 713.254 2414 531 2414 348.746 2414 201 2266.25 201 2084Z" stroke="#BFBFBF" stroke-width="13.75" stroke-miterlimit="8" fill="none" fill-rule="evenodd"/><path d="M1894.82 481.157 1972.21 1107.39C1972.67 1111.16 1970 1114.59 1966.23 1115.06 1962.46 1115.52 1959.03 1112.85 1958.56 1109.08L1881.18 482.843C1880.71 479.075 1883.39 475.642 1887.16 475.177 1890.93 474.711 1894.36 477.388 1894.82 481.157ZM1990.53 1067.05 1967.06 1121.78 1930.98 1074.41C1928.68 1071.39 1929.26 1067.08 1932.28 1064.78 1935.3 1062.48 1939.61 1063.06 1941.91 1066.08L1970.85 1104.07 1959.07 1105.52 1977.89 1061.63C1979.39 1058.14 1983.43 1056.53 1986.92 1058.03 1990.41 1059.52 1992.02 1063.56 1990.53 1067.05Z" fill="#BFBFBF"/><text fill="#D9D9D9" font-family="Arial,Arial_MSFontService,sans-serif" font-weight="400" font-size="101" transform="matrix(1 0 0 1 901.76 1138)">DeepMind</text><text fill="#D9D9D9" font-family="Arial,Arial_MSFontService,sans-serif" font-weight="400" font-size="101" transform="matrix(1 0 0 1 888.683 2231)">Omniverse</text><text fill="#D9D9D9" font-family="Arial,Arial_MSFontService,sans-serif" font-weight="400" font-size="101" transform="matrix(1 0 0 1 888.683 2352)">Isaac Gym</text><path d="M861 1208 1393.11 1208" stroke="#BFBFBF" stroke-width="13.75" stroke-linecap="round" stroke-miterlimit="8" fill="none" fill-rule="evenodd"/><path d="M14.9053 3.22566 154.116 115.984C157.067 118.373 157.521 122.703 155.131 125.653 152.742 128.604 148.412 129.058 145.462 126.668L6.2509 13.9104C3.30039 11.5206 2.84588 7.19134 5.23573 4.24083 7.62558 1.29032 11.9548 0.835815 14.9053 3.22566ZM21.0573 55.6637-0.0247599-0.0200556 58.8232 9.03782C62.576 9.61544 65.1499 13.1259 64.5723 16.8787 63.9947 20.6314 60.4842 23.2054 56.7315 22.6278L9.53201 15.3628 17.0075 6.13359 33.9165 50.7951C35.2609 54.3461 33.4722 58.3146 29.9212 59.659 26.3702 61.0034 22.4017 59.2146 21.0573 55.6637Z" fill="#BFBFBF" transform="matrix(-1 0 0 1 1544.79 1963)"/><path d="M1527.98 1332.58 1388.53 1213.22C1385.64 1210.75 1385.31 1206.41 1387.78 1203.53 1390.25 1200.64 1394.59 1200.31 1397.47 1202.78L1536.92 1322.13C1539.8 1324.6 1540.14 1328.94 1537.67 1331.82 1535.2 1334.71 1530.86 1335.04 1527.98 1332.58ZM1523.25 1279.99 1542.81 1336.23 1484.23 1325.58C1480.5 1324.9 1478.02 1321.32 1478.7 1317.58 1479.38 1313.85 1482.96 1311.37 1486.69 1312.05L1533.68 1320.59 1525.95 1329.61 1510.26 1284.51C1509.01 1280.92 1510.91 1277 1514.5 1275.76 1518.08 1274.51 1522 1276.4 1523.25 1279.99Z" fill="#BFBFBF"/><text fill="#D9D9D9" font-family="Arial,Arial_MSFontService,sans-serif" font-weight="400" font-size="101" transform="matrix(1 0 0 1 1389.71 628)">Gym</text><path d="M1477 1654C1477 1380.62 1698.62 1159 1972 1159 2245.38 1159 2467 1380.62 2467 1654 2467 1927.38 2245.38 2149 1972 2149 1698.62 2149 1477 1927.38 1477 1654Z" stroke="#BFBFBF" stroke-width="13.75" stroke-miterlimit="8" fill="none" fill-rule="evenodd"/><path d="M1566 1653.5C1566 1429.55 1747.77 1248 1972 1248 2196.23 1248 2378 1429.55 2378 1653.5 2378 1877.45 2196.23 2059 1972 2059 1747.77 2059 1566 1877.45 1566 1653.5Z" fill="#343131" fill-rule="evenodd"/><g clip-path="url(#clip4)"><g clip-path="url(#clip5)"><g clip-path="url(#clip6)"><path d="M0 0 688.094 0 688.094 361.883 0 361.883Z" fill="#343131" fill-rule="evenodd" transform="matrix(1 0 0 1.00032 1628.45 1473)"/><path d="M400.841 322.221 401.075 322.221C401.545 322.221 402.249 322.221 402.718 322.221L402.953 322.221C403.657 322.221 404.126 322.221 404.83 322.221L404.83 322.221 404.83 322.221 404.83 322.221C405.534 322.221 406.004 322.221 406.708 321.987L406.708 321.987C407.412 321.987 407.881 321.987 408.585 321.987L408.585 321.987C409.289 321.987 409.993 321.752 410.463 321.752L410.463 321.752 410.697 321.752C411.167 321.752 411.636 321.752 412.34 321.517L412.34 321.517 412.575 321.517C413.044 321.517 413.748 321.517 414.218 321.283L414.452 321.283C414.922 321.283 415.626 321.283 416.095 321.048L416.33 321.048C417.034 321.048 417.503 321.048 418.207 320.813L418.207 320.813C418.911 320.813 419.381 320.579 420.085 320.579L420.085 320.579C420.789 320.344 421.258 320.344 421.962 320.109L421.962 320.109C422.666 320.109 423.37 319.875 423.84 319.875L423.84 319.875 423.84 319.875C424.544 319.64 425.248 319.64 425.717 319.405L425.952 319.405C426.421 319.17 427.125 319.17 427.829 318.936L427.829 318.936C428.299 318.936 429.003 318.701 429.707 318.466L429.707 318.466 429.707 318.466C430.411 318.466 430.88 318.232 431.584 317.997L431.584 317.997 431.584 317.997C432.288 317.762 432.758 317.762 433.462 317.528L433.462 317.528C434.166 317.293 434.635 317.058 435.339 317.058L435.339 316.824C436.043 316.824 436.747 316.589 437.217 316.354 505.04 294.998 542.59 222.715 521.234 155.126 499.877 87.3025 427.595 49.753 360.005 71.1093 359.301 71.1093 358.832 71.344 358.128 71.5787L357.893 71.5787C357.424 71.8134 356.72 72.048 356.251 72.2827L356.251 72.2827C355.547 72.5174 355.077 72.7521 354.373 72.9868L354.373 72.9868 354.138 72.9868C353.669 73.2215 353.2 73.4561 352.496 73.6908L352.496 73.6908 352.496 73.6908C351.792 73.9255 351.322 74.1602 350.618 74.3949L350.618 74.3949C349.914 74.6296 349.445 74.8642 348.975 75.0989L348.741 75.0989C348.271 75.3336 347.567 75.5683 347.098 75.803L347.098 75.803 346.863 75.803C346.394 76.0377 345.924 76.2723 345.22 76.7417L345.22 76.7417C344.516 76.9764 344.047 77.2111 343.578 77.4458L343.343 77.4458C342.874 77.6805 342.404 77.9151 341.7 78.3845L341.7 78.3845C341.231 78.6192 340.527 78.8539 340.057 79.0886L339.823 79.0886C339.353 79.5579 338.884 79.7926 338.415 80.0273L338.18 80.0273C337.711 80.4967 337.241 80.7313 336.537 80.966L336.537 80.966 336.537 80.966C336.068 81.2007 335.364 81.6701 334.894 81.9048L334.894 81.9048 334.894 81.9048C334.425 82.1395 333.721 82.6088 333.251 82.8435L333.251 82.8435C332.782 83.3129 332.078 83.5476 331.609 83.7822L331.609 83.7822C331.139 84.2516 330.435 84.4863 329.966 84.721L329.966 84.9557 329.966 84.9557 329.966 84.9557C329.497 85.1903 329.027 85.425 328.323 85.8944L328.323 85.8944C327.854 86.3638 327.384 86.5984 326.915 86.8331L326.68 87.0678 326.211 87.3025C283.733 113.587 276.223 150.667 244.541 162.636L241.725 163.34C205.583 174.84 185.166 214.032 196.665 250.173L196.665 250.408 200.655 263.081 200.655 263.316C212.154 299.457 251.112 319.875 287.488 308.375L290.304 307.436C322.925 298.988 350.383 325.038 400.136 322.456L400.841 322.221ZM418.207 320.813C418.911 320.813 419.381 320.579 420.085 320.579" fill="#FFED00" fill-rule="evenodd" transform="matrix(1 0 0 1.00032 1628.45 1473)"/><path d="M63.141 0C69.753-2.33062e-15 75.1131 4.51572 75.1131 10.0862L75.1131 10.0862C75.1131 15.6566 69.753 20.1723 63.141 20.1723L11.9722 20.1723C5.36013 20.1723 0 15.6566 0 10.0862L0 10.0862C-2.33062e-15 4.51572 5.36013-3.49592e-15 11.9722-4.66123e-15Z" stroke="#D9DADA" stroke-width="0.317515" fill="#D9DADA" fill-rule="evenodd" transform="matrix(-0.430234 -1.36521 -0.953705 0.300745 1826.29 1785.99)"/><path d="M63.141 0C69.753-2.33062e-15 75.1131 4.51572 75.1131 10.0862L75.1131 10.0862C75.1131 15.6566 69.753 20.1723 63.141 20.1723L11.9722 20.1723C5.36013 20.1723 0 15.6566 0 10.0862L0 10.0862C-2.33062e-15 4.51572 5.36013-3.49592e-15 11.9722-4.66123e-15Z" stroke="#D9DADA" stroke-width="0.317515" fill="#D9DADA" fill-rule="evenodd" transform="matrix(-0.387212 -1.2287 -0.953705 0.300745 1793.39 1790.72)"/><path d="M45.1902 0C49.9225-1.66803e-15 53.7588 3.23192 53.7588 7.2187L53.7588 7.2187C53.7588 11.2055 49.9225 14.4374 45.1902 14.4374L8.56854 14.4374C3.83627 14.4374 0 11.2055 0 7.2187L0 7.2187C-1.66803e-15 3.23192 3.83627-2.50205e-15 8.56854-3.33606e-15Z" stroke="#D9DADA" stroke-width="0.227247" fill="#D9DADA" fill-rule="evenodd" transform="matrix(-0.300568 -0.95376 -1.33254 0.420208 1755.65 1780.05)"/><path d="M381.831 135.178C387.933 133.066 399.667 126.495 405.3 130.719 404.83 139.872 395.677 147.616 403.891 159.82 415.156 176.482 446.135 169.207 447.073 146.208 447.543 132.362 431.349 130.719 429.003 123.209 432.054 115.23 456.93 111.71 465.144 109.363L472.419 108.659 478.756 107.485C479.46 104.669 478.756 98.3327 477.582 91.9962 497.53 107.485 513.02 129.076 521.234 155.126 542.59 222.715 505.04 294.998 437.217 316.354L435.339 316.824 435.339 317.058 433.462 317.528 433.462 317.528 431.584 317.997 431.584 317.997 431.584 317.997 429.707 318.466 429.707 318.466 429.707 318.466 427.829 318.936 427.829 318.936 425.952 319.405 425.717 319.405 423.84 319.875 423.84 319.875 423.84 319.875 421.962 320.109 421.962 320.109 420.085 320.579 420.085 320.579 418.207 320.813 418.207 320.813 416.33 321.048 416.095 321.048 414.452 321.283 414.218 321.283 412.575 321.517 412.34 321.517 412.34 321.517 410.697 321.752 410.463 321.752 410.463 321.752 408.585 321.987 408.585 321.987 406.708 321.987 406.708 321.987 404.83 322.221 404.83 322.221 404.83 322.221 404.83 322.221 402.953 322.221 402.718 322.221 401.075 322.221 400.841 322.221 400.136 322.456C350.383 325.038 322.925 298.988 290.304 307.436L287.488 308.375C251.112 319.875 212.154 299.457 200.655 263.316L200.655 263.081 196.665 250.408 196.665 250.173C185.166 214.032 205.583 174.84 241.725 163.34L244.541 162.636C276.223 150.667 283.733 113.587 326.211 87.3025L326.68 87.0678 326.915 86.8331 328.323 85.8944 328.323 85.8944 329.966 84.9557 329.966 84.9557 329.966 84.9557 329.966 84.721 331.609 83.7822 331.609 83.7822 333.251 82.8435 333.251 82.8435 334.894 81.9048 334.894 81.9048 334.894 81.9048 336.537 80.966 336.537 80.966 336.537 80.966 338.18 80.0273 338.415 80.0273 339.823 79.0886 340.057 79.0886 341.7 78.3845 341.7 78.3845 343.343 77.4458 343.578 77.4458 345.22 76.7417 345.22 76.7417 346.863 75.803 347.098 75.803 347.098 75.803 348.741 75.0989 348.975 75.0989 350.618 74.3949 350.618 74.3949 352.496 73.6908 352.496 73.6908 352.496 73.6908 354.138 72.9868 354.373 72.9868 354.373 72.9868 356.251 72.2827 356.251 72.2827 357.893 71.5787 358.128 71.5787 360.005 71.1093C364.464 69.4665 369.158 68.2931 373.617 67.589 375.26 71.344 376.433 73.9255 377.137 79.0886 377.607 87.5372 373.382 95.7511 365.403 98.5673 354.373 102.557 349.679 92.9349 340.292 95.5164 329.497 101.149 352.026 143.861 355.312 146.912L360.24 145.035C367.515 141.28 374.087 137.994 381.831 135.178Z" fill="#FFED00" fill-rule="evenodd" transform="matrix(1 0 0 1.00032 1628.45 1473)"/><path d="M106.749 0C106.749 58.9559 58.9559 106.749-1.94799e-14 106.749-58.9559 106.749-106.749 58.9559-106.749 9.73994e-15-106.749-58.9559-58.9559-106.749-9.73994e-15-106.749 58.9559-106.749 106.749-58.9559 106.749 0Z" fill="#FEC20E" fill-rule="evenodd" transform="matrix(0.711057 -0.703134 -0.702907 -0.711287 2026.77 1666.86)"/><path d="M64.6547 0C94.5803-1.04409e-14 118.84 24.2595 118.84 54.185L118.84 113.513C118.84 143.439 94.5803 167.698 64.6547 167.698L54.185 167.698C24.2595 167.698 0 143.439 0 113.513L0 54.185C-1.04409e-14 24.2595 24.2595 0 54.185 0Z" fill="#FEC20E" fill-rule="evenodd" transform="matrix(-0.291826 -0.979926 -0.958353 0.285588 2054.65 1723.75)"/><path d="M382.066 206.522 378.78 196.196C370.097 167.095 339.353 150.902 310.018 158.881L283.733 166.391C254.398 174.37 237.97 206.053 246.653 235.154L249.704 245.48C258.387 274.58 289.131 291.008 318.466 282.794L344.751 275.519C374.087 267.305 390.749 235.858 382.066 206.522Z" fill="#EF7F1A" fill-rule="evenodd" transform="matrix(1 0 0 1.00032 1628.45 1473)"/><path d="M397.79 228.348C393.565 247.122 379.954 263.316 360.24 269.417L333.956 277.866C323.395 270.121 314.007 260.265 306.967 248.531 304.855 245.01 302.977 241.49 301.334 237.5 299.692 234.215 298.284 230.695 297.11 226.94 296.875 226.705 296.875 226.236 296.641 225.766 289.835 204.175 290.539 181.88 297.345 161.932L323.864 153.483C331.609 151.137 339.823 150.433 347.567 151.606 368.219 154.187 386.525 168.503 393.331 189.625L394.973 195.023 396.382 199.951C399.432 209.573 399.667 219.195 397.79 228.348Z" fill="#E31E24" fill-rule="evenodd" transform="matrix(1 0 0 1.00032 1628.45 1473)"/><path d="M468.899 26.5193 471.715 37.5495C475.47 45.0594 483.449 52.5693 492.367 50.2224 501.755 47.6409 511.142 19.0094 520.06 39.8963 521.938 44.3553 523.815 50.2224 524.988 54.9161 526.397 60.7832 530.621 78.1498 528.978 83.3129L522.876 84.4863 515.366 85.1903C507.387 87.5372 482.276 91.0574 479.46 99.0367 481.572 106.547 498 108.189 497.53 122.036 496.592 145.035 465.379 152.31 454.114 135.647 445.9 123.444 455.053 115.934 455.522 106.547 450.124 102.322 438.39 108.893 432.288 111.006 424.544 113.822 417.738 117.107 410.697 120.862L405.769 122.74C402.483 119.689 379.719 76.9764 390.749 71.344 400.136 68.7625 404.83 78.6192 415.626 74.6296 423.84 71.5787 428.064 63.3647 427.595 54.9161 426.656 48.5796 425.013 45.9981 423.136 40.6004 418.442 33.5598 409.054 29.3355 400.841 32.3864 390.984 36.1414 391.688 48.5796 381.831 48.8143 333.251 32.8558 464.44-11.2648 468.899 26.5193Z" fill="#343131" fill-rule="evenodd" transform="matrix(1 0 0 1.00032 1628.45 1473)"/><path d="M250.877 264.724 239.847 267.54C232.337 271.295 225.062 279.274 227.409 288.192 229.99 297.345 258.622 306.732 237.735 315.65 233.041 317.528 227.409 319.64 222.481 320.813 216.848 322.221 205.349 326.446 200.186 324.803L199.012 318.466 198.308 311.191C195.961 302.977 192.441 278.101 184.462 275.285 176.952 277.397 175.309 293.825 161.463 293.121 138.464 292.182 131.188 261.203 147.851 249.939 160.055 241.725 167.799 250.877 176.952 251.347 181.176 245.949 174.605 233.98 172.493 227.878 169.677 220.368 166.391 213.563 162.636 206.522L160.759 201.359C163.81 198.308 200.42 175.544 206.287 186.339 208.869 195.961 199.012 200.42 203.002 211.45 206.053 219.43 214.267 223.654 222.715 223.419 228.817 222.246 231.399 220.603 237.031 218.726 243.837 214.267 248.296 204.645 245.245 196.431 241.49 186.809 229.052 187.278 228.817 177.656 232.103 167.564 269.887 161.463 279.978 162.401 282.794 173.197 284.437 206.522 294.294 212.624 299.926 210.042 300.865 200.89 310.722 196.431 319.875 192.206 326.211 196.196 332.547 200.655 345.455 210.512 342.639 235.388 324.568 240.317 317.058 241.021 311.426 237.266 304.855 235.154 296.406 239.143 303.916 253.459 306.497 259.795 308.375 264.489 310.018 269.417 312.13 273.876 314.007 277.866 317.058 281.621 317.762 286.08 313.773 290.304 297.814 296.641 291.712 298.753 285.141 301.1 269.183 308.844 265.897 299.222 263.785 292.651 271.764 283.968 270.121 276.223 268.244 268.009 258.622 264.254 250.877 264.724Z" stroke="#343131" stroke-width="9.99114" fill="none" fill-rule="evenodd" transform="matrix(1 0 0 1.00032 1628.45 1473)"/><path d="M330.435 313.538C327.854 305.793 324.568 299.222 320.579 291.947L318.701 287.019C321.987 283.733 364.464 261.203 370.332 271.999 372.913 281.386 363.056 286.08 367.046 297.11 370.097 305.089 378.311 309.314 386.759 308.844 392.861 307.906 395.443 306.263 401.075 304.385 407.881 299.926 412.34 290.304 409.289 282.09 405.534 272.468 393.096 272.938 392.861 263.316 396.147 253.224 433.931 246.888 444.022 248.061 446.839 258.857 448.481 292.182 458.338 298.284 463.971 295.702 464.909 286.549 474.766 282.09 483.919 277.866 490.255 281.621 496.592 286.315 509.499 295.937 506.683 320.813 488.612 325.976 478.052 310.957 367.75 382.3 330.435 313.538Z" stroke="#343131" stroke-width="9.99114" fill="none" fill-rule="evenodd" transform="matrix(1 0 0 1.00032 1628.45 1473)"/><path d="M501.285 186.339 490.255 189.155C482.745 192.91 475.235 200.89 477.817 209.808 480.398 219.195 509.03 228.348 487.908 237.5 483.449 239.378 477.582 241.255 472.889 242.429 467.021 243.837 449.655 248.061 444.492 246.418L443.318 240.082 442.614 232.807C440.267 224.827 436.747 199.716 428.768 196.9 421.493 199.012 419.615 215.44 405.769 214.736 382.77 214.032 375.495 182.819 392.157 171.554 404.361 163.34 412.105 172.493 421.258 172.962 425.482 167.564 418.911 155.83 416.799 149.494 413.983 141.984 410.932 135.178 406.942 128.138L405.065 123.209C408.116 119.924 450.828 97.1592 456.695 108.189 459.042 117.577 449.42 122.27 453.41 133.066 456.226 141.28 464.44 145.269 472.889 145.035 479.225 144.096 481.807 142.453 487.204 140.341 494.245 135.882 498.704 126.26 495.418 118.281 491.898 108.424 479.225 108.893 478.99 99.2714 482.276 89.4147 520.06 83.0782 530.151 84.0169 533.202 94.8124 534.61 128.372 544.467 134.474 550.1 131.893 551.038 122.505 560.895 118.046 570.282 113.822 576.619 117.811 582.721 122.505 595.628 132.127 592.812 157.004 574.976 161.932 567.466 162.636 561.834 158.881 555.263 157.004 546.579 160.993 554.324 175.074 556.906 181.646 558.783 186.105 560.191 191.033 562.303 195.492 564.415 199.482 567.232 203.471 568.17 207.695 564.181 211.92 548.222 218.256 542.12 220.603 535.315 222.95 519.591 230.46 516.305 220.838 513.958 214.267 522.172 205.583 520.295 197.839 518.417 189.625 509.03 185.87 501.285 186.339Z" stroke="#343131" stroke-width="9.99114" fill="none" fill-rule="evenodd" transform="matrix(1 0 0 1.00032 1628.45 1473)"/><path d="M337.006 100.914 325.976 103.73C318.466 107.485 310.957 115.465 313.538 124.383 316.12 133.77 344.751 142.923 323.629 151.841 319.17 153.718 313.303 155.83 308.61 157.004 302.977 158.412 285.376 162.636 280.213 160.993L279.039 154.657 278.335 147.382C276.223 139.402 272.468 114.291 264.489 111.475 115.465 154.187 394.269 33.7945 396.616 32.6211 406.004 28.3968 412.34 32.3864 418.442 36.8454 431.349 46.7021 428.768 71.5787 410.697 76.507 403.187 77.2111 397.555 73.4561 390.984 71.5787 382.3 75.3336 390.045 89.6493 392.627 96.2205 394.504 100.68 395.912 105.608 398.259 110.067 400.136 114.056 402.953 117.811 403.891 122.27 399.902 126.495 383.943 132.831 377.841 134.943 371.036 137.29 355.312 145.035 352.026 135.413 349.679 128.842 357.893 120.158 356.016 112.414 354.138 104.2 344.751 100.445 337.006 100.914Z" stroke="#343131" stroke-width="9.99114" fill="none" fill-rule="evenodd" transform="matrix(1 0 0 1.00032 1628.45 1473)"/><path d="M536.957 46.2328C561.13 56.3242 581.547 75.5683 592.812 100.68 594.69 104.904 596.332 109.128 597.741 113.587 600.087 121.801 601.73 130.015 602.2 138.229 601.261 138.464 600.087 138.698 599.149 138.698 593.282 137.994 590.465 138.229 584.364 136.117 576.619 132.597 571.456 125.087 572.629 116.403 574.037 106.312 582.486 105.373 586.006 98.802 586.476 98.098 586.71 96.9246 587.18 95.9858 586.945 83.5476 538.835 83.7822 534.376 85.1903L533.672 84.9557 533.672 84.0169C535.08 79.5579 534.376 74.8642 534.376 70.4052 534.61 65.4769 535.549 60.3138 536.019 55.3855 536.253 53.0386 536.488 49.753 536.957 46.2328Z" stroke="#FECC00" stroke-width="0.454358" fill="#FEC20E" fill-rule="evenodd" transform="matrix(1 0 0 1.00032 1628.45 1473)"/><path d="M612.995 91.2921C613.934 93.1696 614.638 94.8124 615.342 96.6899 613.464 96.9246 612.056 97.6286 611.118 98.5673 606.659 107.251 618.158 112.648 616.75 122.974 615.811 130.484 609.24 136.351 602.2 138.229 601.73 130.015 600.087 121.801 597.741 113.587 596.332 109.128 594.69 104.904 592.812 100.68 581.547 75.5683 561.13 56.3242 536.957 46.2328 537.661 39.4269 539.774 32.6211 546.11 32.8558 551.038 37.7841 554.089 43.6513 561.13 46.4675 566.762 47.6409 571.925 46.7021 576.15 44.1206 592.108 56.7936 604.781 72.9868 612.995 91.2921Z" stroke="#FFED00" stroke-width="0.454358" fill="#FFED00" fill-rule="evenodd" transform="matrix(1 0 0 1.00032 1628.45 1473)"/><path d="M602.2 138.229C601.261 138.464 600.087 138.698 599.149 138.698 593.282 137.994 590.465 138.229 584.364 136.117 576.619 132.597 571.456 125.087 572.629 116.403 574.037 106.312 582.486 105.373 586.006 98.802 586.476 98.098 586.71 96.9246 587.18 95.9858 586.945 83.5476 538.835 83.7822 534.376 85.1903L533.672 84.9557 533.672 84.0169C535.08 79.5579 534.376 74.8642 534.376 70.4052 534.61 65.4769 535.549 60.3138 536.019 55.3855 536.253 53.0386 536.488 49.753 536.957 46.2328 537.661 39.4269 539.774 32.6211 546.11 32.8558 551.038 37.7841 554.089 43.6513 561.13 46.4675 566.762 47.6409 571.925 46.7021 576.15 44.1206 592.108 56.7936 604.781 72.9868 612.995 91.2921 613.934 93.1696 614.638 94.8124 615.342 96.6899 613.464 96.9246 612.056 97.6286 611.118 98.5673 606.659 107.251 618.158 112.648 616.75 122.974 615.811 130.484 609.24 136.351 602.2 138.229Z" stroke="#343131" stroke-width="9.99114" fill="none" fill-rule="evenodd" transform="matrix(1 0 0 1.00032 1628.45 1473)"/></g></g></g><rect x="2943" y="1980" width="3274" height="764" stroke="#BFBFBF" stroke-width="13.75" stroke-linecap="square" stroke-miterlimit="8" stroke-dasharray="41.25 13.75" fill="none"/><text fill="#D9D9D9" font-family="Consolas,Consolas_MSFontService,sans-serif" font-weight="700" font-size="92" transform="matrix(1 0 0 1 3014.78 846)">num_envs</text><text fill="#D9D9D9" font-family="Consolas,Consolas_MSFontService,sans-serif" font-weight="400" font-size="92" transform="matrix(1 0 0 1 3468.53 846)">: </text><text fill="#D9D9D9" font-family="Consolas,Consolas_MSFontService,sans-serif" font-weight="400" font-size="92" transform="matrix(1 0 0 1 3569.37 846)">int</text><text fill="#D9D9D9" font-family="Consolas,Consolas_MSFontService,sans-serif" font-weight="700" font-size="92" transform="matrix(1 0 0 1 3014.78 1011)">device</text><text fill="#D9D9D9" font-family="Consolas,Consolas_MSFontService,sans-serif" font-weight="400" font-size="92" transform="matrix(1 0 0 1 3367.7 1011)">: </text><text fill="#D9D9D9" font-family="Consolas,Consolas_MSFontService,sans-serif" font-weight="400" font-size="92" transform="matrix(1 0 0 1 3468.53 1011)">ML framework specific device</text><text fill="#D9D9D9" font-family="Consolas,Consolas_MSFontService,sans-serif" font-weight="700" font-size="92" transform="matrix(1 0 0 1 3014.78 1176)">state_space</text><text fill="#D9D9D9" font-family="Consolas,Consolas_MSFontService,sans-serif" font-weight="400" font-size="92" transform="matrix(1 0 0 1 3619.78 1176)">: </text><text fill="#D9D9D9" font-family="Consolas,Consolas_MSFontService,sans-serif" font-weight="400" font-size="92" transform="matrix(1 0 0 1 3720.62 1176)">gym</text><text fill="#D9D9D9" font-family="Consolas,Consolas_MSFontService,sans-serif" font-weight="400" font-size="92" transform="matrix(1 0 0 1 3871.87 1176)">/</text><text fill="#D9D9D9" font-family="Consolas,Consolas_MSFontService,sans-serif" font-weight="400" font-size="92" transform="matrix(1 0 0 1 3922.28 1176)">gymnasium</text><text fill="#D9D9D9" font-family="Consolas,Consolas_MSFontService,sans-serif" font-weight="400" font-size="92" transform="matrix(1 0 0 1 4426.45 1176)">space</text><text fill="#D9D9D9" font-family="Consolas,Consolas_MSFontService,sans-serif" font-weight="700" font-size="92" transform="matrix(1 0 0 1 3014.78 1341)">observation_space</text><text fill="#D9D9D9" font-family="Consolas,Consolas_MSFontService,sans-serif" font-weight="400" font-size="92" transform="matrix(1 0 0 1 3922.28 1341)">: </text><text fill="#D9D9D9" font-family="Consolas,Consolas_MSFontService,sans-serif" font-weight="400" font-size="92" transform="matrix(1 0 0 1 4023.12 1341)">gym</text><text fill="#D9D9D9" font-family="Consolas,Consolas_MSFontService,sans-serif" font-weight="400" font-size="92" transform="matrix(1 0 0 1 4174.37 1341)">/</text><text fill="#D9D9D9" font-family="Consolas,Consolas_MSFontService,sans-serif" font-weight="400" font-size="92" transform="matrix(1 0 0 1 4224.78 1341)">gymnasium</text><text fill="#D9D9D9" font-family="Consolas,Consolas_MSFontService,sans-serif" font-weight="400" font-size="92" transform="matrix(1 0 0 1 4728.95 1341)">space</text><text fill="#D9D9D9" font-family="Consolas,Consolas_MSFontService,sans-serif" font-weight="700" font-size="92" transform="matrix(1 0 0 1 3014.78 1506)">action_space</text><text fill="#D9D9D9" font-family="Consolas,Consolas_MSFontService,sans-serif" font-weight="400" font-size="92" transform="matrix(1 0 0 1 3670.2 1506)">: </text><text fill="#D9D9D9" font-family="Consolas,Consolas_MSFontService,sans-serif" font-weight="400" font-size="92" transform="matrix(1 0 0 1 3771.03 1506)">gym</text><text fill="#D9D9D9" font-family="Consolas,Consolas_MSFontService,sans-serif" font-weight="400" font-size="92" transform="matrix(1 0 0 1 3922.28 1506)">/</text><text fill="#D9D9D9" font-family="Consolas,Consolas_MSFontService,sans-serif" font-weight="400" font-size="92" transform="matrix(1 0 0 1 3972.7 1506)">gymnasium</text><text fill="#D9D9D9" font-family="Consolas,Consolas_MSFontService,sans-serif" font-weight="400" font-size="92" transform="matrix(1 0 0 1 4476.87 1506)">space</text><text fill="#D9D9D9" font-family="Consolas,Consolas_MSFontService,sans-serif" font-weight="700" font-size="92" transform="matrix(1 0 0 1 3014.78 2155)">reset()</text><text fill="#D9D9D9" font-family="Consolas,Consolas_MSFontService,sans-serif" font-weight="400" font-size="92" transform="matrix(1 0 0 1 3418.12 2155)">-</text><text fill="#D9D9D9" font-family="Consolas,Consolas_MSFontService,sans-serif" font-weight="400" font-size="92" transform="matrix(1 0 0 1 3468.53 2155)">&gt; </text><text fill="#D9D9D9" font-family="Consolas,Consolas_MSFontService,sans-serif" font-weight="400" font-size="92" transform="matrix(1 0 0 1 3569.37 2155)">states</text><text fill="#D9D9D9" font-family="Consolas,Consolas_MSFontService,sans-serif" font-weight="400" font-size="92" transform="matrix(1 0 0 1 3871.87 2155)">, </text><text fill="#D9D9D9" font-family="Consolas,Consolas_MSFontService,sans-serif" font-weight="400" font-size="92" transform="matrix(1 0 0 1 3972.7 2155)">infos</text><text fill="#D9D9D9" font-family="Consolas,Consolas_MSFontService,sans-serif" font-weight="700" font-size="92" transform="matrix(1 0 0 1 3014.78 2320)">step(</text><text fill="#D9D9D9" font-family="Consolas,Consolas_MSFontService,sans-serif" font-weight="400" font-size="92" transform="matrix(1 0 0 1 3266.87 2320)">actions</text><text fill="#D9D9D9" font-family="Consolas,Consolas_MSFontService,sans-serif" font-weight="700" font-size="92" transform="matrix(1 0 0 1 3619.78 2320)">)</text><text fill="#D9D9D9" font-family="Consolas,Consolas_MSFontService,sans-serif" font-weight="400" font-size="92" transform="matrix(1 0 0 1 3720.62 2320)">-</text><text fill="#D9D9D9" font-family="Consolas,Consolas_MSFontService,sans-serif" font-weight="400" font-size="92" transform="matrix(1 0 0 1 3771.03 2320)">&gt; </text><text fill="#D9D9D9" font-family="Consolas,Consolas_MSFontService,sans-serif" font-weight="400" font-size="92" transform="matrix(1 0 0 1 3871.87 2320)">states</text><text fill="#D9D9D9" font-family="Consolas,Consolas_MSFontService,sans-serif" font-weight="400" font-size="92" transform="matrix(1 0 0 1 4174.37 2320)">, </text><text fill="#D9D9D9" font-family="Consolas,Consolas_MSFontService,sans-serif" font-weight="400" font-size="92" transform="matrix(1 0 0 1 4275.2 2320)">rewards, terminated, truncated, </text><text fill="#D9D9D9" font-family="Consolas,Consolas_MSFontService,sans-serif" font-weight="400" font-size="92" transform="matrix(1 0 0 1 5888.53 2320)">infos</text><text fill="#D9D9D9" font-family="Consolas,Consolas_MSFontService,sans-serif" font-weight="700" font-size="92" transform="matrix(1 0 0 1 3014.78 2485)">render()</text><text fill="#D9D9D9" font-family="Consolas,Consolas_MSFontService,sans-serif" font-weight="700" font-size="92" transform="matrix(1 0 0 1 3014.78 2650)">close</text><text fill="#D9D9D9" font-family="Consolas,Consolas_MSFontService,sans-serif" font-weight="700" font-size="92" transform="matrix(1 0 0 1 3266.87 2650)">()</text><text fill="#D9D9D9" font-family="Arial,Arial_MSFontService,sans-serif" font-weight="700" font-size="101" transform="matrix(1 0 0 1 4333.49 616)">properties</text><text fill="#D9D9D9" font-family="Arial,Arial_MSFontService,sans-serif" font-weight="700" font-size="101" transform="matrix(1 0 0 1 4369.87 1901)">methods</text><rect x="2943" y="694" width="3274" height="905" stroke="#BFBFBF" stroke-width="13.75" stroke-linecap="square" stroke-miterlimit="8" stroke-dasharray="41.25 13.75" fill="none"/><path d="M0-6.875 213.016-6.875 213.016 507.573 206.141 500.698 398.669 500.698 398.669 514.448 199.266 514.448 199.266 0 206.141 6.875 0 6.875ZM360.883 477.572 412.313 507.573 360.883 537.574C357.603 539.487 353.393 538.379 351.48 535.099 349.567 531.82 350.675 527.61 353.955 525.697L395.205 501.634 395.205 513.511 353.955 489.449C350.675 487.536 349.567 483.326 351.48 480.046 353.393 476.766 357.603 475.659 360.883 477.572Z" fill="#BFBFBF" transform="matrix(1 0 0 -1 2467 1653.57)"/><path d="M2467 1647.13 2680.02 1647.13 2680.02 2362.23 2673.14 2355.36 2865.67 2355.36 2865.67 2369.11 2666.27 2369.11 2666.27 1654 2673.14 1660.88 2467 1660.88ZM2827.88 2332.23 2879.31 2362.23 2827.88 2392.23C2824.6 2394.14 2820.39 2393.04 2818.48 2389.76 2816.57 2386.48 2817.68 2382.27 2820.95 2380.35L2862.2 2356.29 2862.2 2368.17 2820.95 2344.11C2817.68 2342.19 2816.57 2337.98 2818.48 2334.7 2820.39 2331.42 2824.6 2330.32 2827.88 2332.23Z" fill="#BFBFBF"/><text fill="#D9D9D9" font-family="Arial,Arial_MSFontService,sans-serif" font-weight="400" font-size="101" transform="matrix(1 0 0 1 888.425 2011)">Isaac Orbit</text><path d="M778.688 2237.99C778.688 2243.06 774.948 2246.47 770.521 2246.47L770.521 2246.43C765.968 2246.47 762.298 2243.06 762.298 2238 762.298 2232.93 765.968 2229.54 770.521 2229.54 774.949 2229.54 778.688 2232.93 778.688 2237.99ZM782 2237.99C782 2231.04 776.571 2227 770.521 2227 764.429 2227 759 2231.04 759 2237.99 759 2244.95 764.43 2249 770.521 2249 776.573 2249 782 2244.95 782 2237.99M768.617 2238.92 769.846 2238.92 772.694 2243.9 775.822 2243.9 772.667 2238.71C774.297 2238.6 775.638 2237.83 775.638 2235.64 775.638 2232.93 773.758 2232.06 770.574 2232.06L765.967 2232.06 765.967 2243.9 768.616 2243.9 768.616 2238.92M768.617 2236.92 768.617 2234.07 770.459 2234.07C771.461 2234.07 772.826 2234.15 772.826 2235.36 772.826 2236.69 772.12 2236.92 770.938 2236.92L768.617 2236.92" fill="#D9D9D9" fill-rule="evenodd"/><path d="M705.301 2178.26 719.396 2217.06 690.769 2217.06 705.301 2178.26ZM690.206 2163.15 657.724 2245.97 680.66 2245.97 685.798 2231.33 724.238 2231.33 729.1 2245.97 754 2245.97 721.276 2163.14 690.206 2163.15ZM624.993 2246 648.263 2246 648.263 2163.12 624.989 2163.11 624.993 2246ZM463.446 2163.11 444.031 2228.8 425.433 2163.12 400.324 2163.11 426.886 2246 460.411 2246 487.187 2163.11 463.446 2163.11ZM557.508 2181.16 567.509 2181.16C582.019 2181.16 591.404 2187.72 591.404 2204.73 591.404 2221.75 582.019 2228.31 567.509 2228.31L557.508 2228.31 557.508 2181.16ZM534.433 2163.11 534.433 2246 572.159 2246C592.259 2246 598.822 2242.64 605.919 2235.09 610.931 2229.8 614.174 2218.18 614.174 2205.47 614.174 2193.81 611.43 2183.43 606.646 2176.95 598.027 2165.38 585.61 2163.11 567.08 2163.11L534.433 2163.11ZM314 2163 314 2246 337.467 2246 337.467 2182.98 355.651 2182.98C361.671 2182.98 365.963 2184.49 368.862 2187.61 372.54 2191.55 374.041 2197.91 374.041 2209.55L374.041 2246 396.781 2246 396.781 2200.14C396.781 2167.41 376.052 2163 355.77 2163L314 2163ZM496.981 2163.11 496.99 2246 520.25 2246 520.25 2163.11 496.981 2163.11Z" fill="#D9D9D9" fill-rule="evenodd"/><path d="M375.92 1998.71C375.92 1998.71 405.938 1954.36 465.873 1949.77L465.873 1933.68C399.487 1939.02 342 1995.32 342 1995.32 342 1995.32 374.56 2089.58 465.873 2098.21L465.873 2081.11C398.863 2072.67 375.92 1998.71 375.92 1998.71ZM465.873 2047.09 465.873 2062.76C415.228 2053.72 401.171 2001 401.171 2001 401.171 2001 425.487 1974.02 465.873 1969.65L465.873 1986.83C465.842 1986.83 465.821 1986.82 465.796 1986.82 444.599 1984.28 428.04 2004.11 428.04 2004.11 428.04 2004.11 437.321 2037.49 465.873 2047.09M465.873 1904 465.873 1933.68C467.822 1933.53 469.771 1933.4 471.73 1933.33 547.204 1930.79 596.379 1995.32 596.379 1995.32 596.379 1995.32 539.899 2064.1 481.057 2064.1 475.664 2064.1 470.615 2063.6 465.873 2062.76L465.873 2081.11C469.928 2081.62 474.132 2081.93 478.52 2081.93 533.276 2081.93 572.875 2053.92 611.219 2020.78 617.576 2025.88 643.603 2038.28 648.953 2043.71 612.495 2074.28 527.529 2098.92 479.359 2098.92 474.715 2098.92 470.256 2098.64 465.873 2098.21L465.873 2124 674 2124 674 1904 465.873 1904ZM465.873 1969.65 465.873 1949.77C467.802 1949.64 469.745 1949.53 471.73 1949.47 526.003 1947.76 561.609 1996.17 561.609 1996.17 561.609 1996.17 523.151 2049.66 481.916 2049.66 475.981 2049.66 470.66 2048.71 465.872 2047.09L465.872 1986.83C487 1989.39 491.253 1998.74 503.955 2019.94L532.207 1996.09C532.207 1996.09 511.584 1969 476.819 1969 473.04 1969 469.424 1969.26 465.873 1969.65" fill="#77B900" fill-rule="evenodd"/><text fill="#D9D9D9" font-family="Arial,Arial_MSFontService,sans-serif" font-weight="400" font-size="101" transform="matrix(1 0 0 1 1389.71 411)">Gymnasium</text><text fill="#D9D9D9" font-family="Arial,Arial_MSFontService,sans-serif" font-weight="400" font-size="101" transform="matrix(1 0 0 1 888.425 1839)">Isaac Gym</text><path d="M1227 437 1227 514.646" stroke="#404040" stroke-width="2.29167" stroke-linecap="round" stroke-miterlimit="8" fill="none" fill-rule="evenodd"/><path d="M689 2814C689 2631.75 836.746 2484 1019 2484 1201.25 2484 1349 2631.75 1349 2814 1349 2996.25 1201.25 3144 1019 3144 836.746 3144 689 2996.25 689 2814Z" stroke="#BFBFBF" stroke-width="13.75" stroke-linecap="square" stroke-miterlimit="8" stroke-dasharray="41.25 13.75" fill="none" fill-rule="evenodd"/><path d="M1352 482 1888.45 482" stroke="#BFBFBF" stroke-width="13.75" stroke-linecap="round" stroke-miterlimit="8" fill="none" fill-rule="evenodd"/><path d="M861 2084 1393.11 2084" stroke="#BFBFBF" stroke-width="13.75" stroke-linecap="round" stroke-miterlimit="8" fill="none" fill-rule="evenodd"/><path d="M1349 2814 1888.22 2818.21" stroke="#BFBFBF" stroke-width="13.75" stroke-linecap="round" stroke-miterlimit="8" fill="none" fill-rule="evenodd"/><text fill="#D9D9D9" font-family="Consolas,Consolas_MSFontService,sans-serif" font-weight="700" font-size="92" transform="matrix(1 0 0 1 1712.62 2286)">wrap_env</text><text fill="#D9D9D9" font-family="Consolas,Consolas_MSFontService,sans-serif" font-weight="700" font-size="92" transform="matrix(1 0 0 1 2115.96 2286)">(</text><text fill="#D9D9D9" font-family="Consolas,Consolas_MSFontService,sans-serif" font-weight="400" font-size="92" transform="matrix(1 0 0 1 2166.37 2286)">…</text><text fill="#D9D9D9" font-family="Consolas,Consolas_MSFontService,sans-serif" font-weight="700" font-size="92" transform="matrix(1 0 0 1 2216.79 2286)">)</text><path d="M6.82015-0.866716 61.9404 432.872C62.4191 436.639 59.7536 440.08 55.987 440.559 52.2203 441.037 48.7788 438.372 48.3001 434.605L-6.82015 0.866716C-7.29882-2.89995-4.63338-6.34147-0.866716-6.82015 2.89995-7.29882 6.34147-4.63338 6.82015-0.866716ZM80.1182 392.471 56.8402 447.273 20.5949 400.035C18.2836 397.023 18.8518 392.707 21.8642 390.396 24.8766 388.085 29.1923 388.653 31.5037 391.665L60.5745 429.553 48.7923 431.05 67.4626 387.096C68.947 383.601 72.9834 381.971 76.4782 383.456 79.973 384.94 81.6026 388.976 80.1182 392.471Z" fill="#BFBFBF" transform="matrix(1 0 0 -1 1888 2815.24)"/><text fill="#D9D9D9" font-family="Arial,Arial_MSFontService,sans-serif" font-weight="400" font-size="101" transform="matrix(1 0 0 1 870.113 2789)">Others</text><text fill="#D9D9D9" font-family="Arial,Arial_MSFontService,sans-serif" font-weight="400" font-size="101" transform="matrix(1 0 0 1 785.894 2910)">Interfaces </text><path d="M1091.17 673.5C1077.33 665.257 1063.54 657.014 1049.71 648.771 1042.29 644.345 1034.82 639.96 1027.4 635.494L1026.67 635.047 1025.9 635.494C1017.38 640.529 1008.9 645.564 1000.39 650.599 987.771 658.111 974.75 665.826 961.932 673.459 948.668 665.541 935.079 657.542 921.977 649.827 911.674 643.736 900.965 637.523 890.5 631.311 890.5 628.672 890.5 626.032 890.5 623.393L899.505 614.379C899.424 618.317 899.384 622.256 899.302 626.195L899.302 627.007 900.033 627.453C918.124 638.173 936.215 648.934 954.266 659.613L956.456 660.912 956.497 658.354C956.618 648.609 956.7 638.782 956.781 629.2 956.902 617.871 956.983 606.176 957.146 594.685L957.146 593.873 956.497 593.426C955.239 592.614 953.982 591.883 952.724 591.153 951.994 590.746 951.305 590.34 950.574 589.894 945.017 586.686 939.42 583.437 933.862 580.23L933.7 580.148 940.312 573.53C947.41 577.469 954.631 581.448 961.729 585.346L962.459 585.752 963.19 585.346C972.073 580.027 980.997 574.707 989.921 569.388 997.831 564.678 1019.45 552.577 1019.45 552.577L1016.77 551.034C1007.44 545.593 997.912 539.949 988.704 534.589L982.741 531.057 988.704 525.088C992.233 527.077 995.762 529.108 999.291 531.097 1008.17 536.173 1017.06 541.248 1025.98 546.284L1026.71 546.73 1027.4 546.284C1033.85 542.629 1040.3 538.975 1046.71 535.361 1060.1 527.808 1073.93 519.971 1087.39 512.134L1088.17 511.729 1088.17 510.876C1088.17 500.4 1088.17 489.883 1088.17 479.407 1088.17 466.982 1088.17 454.556 1088.17 442.131L1088.17 441.278 1087.44 440.872C1084.39 439.045 1081.35 437.218 1078.27 435.431L1084.6 429.097 1084.96 429.341 1087.15 430.64 1087.19 428.122 1087.23 426.458 1096.48 417.199C1096.52 422.681 1096.52 428.204 1096.52 433.685L1096.52 434.497 1097.25 434.903C1113.92 445.258 1130.88 455.775 1147.31 465.926L1156.51 471.651 1157.24 471.205C1162.07 468.525 1166.9 465.845 1171.69 463.165 1181.34 457.805 1217.12 438.274 1217.12 438.274L1214.72 436.853C1203.04 429.99 1191.2 423.006 1179.76 416.225 1171.04 411.068 1162.27 405.911 1153.55 400.754 1153.51 389.669 1153.51 378.584 1153.47 367.499 1153.47 365.062 1153.47 362.585 1153.47 360.149L1162.11 351.5 1162.11 352.15C1162.19 357.063 1162.27 362.098 1162.23 367.093L1162.23 367.133C1162.36 372.087 1162.4 377.163 1162.44 382.076 1162.48 386.624 1162.48 391.375 1162.6 396.044L1162.6 396.816 1163.29 397.262C1177.28 405.708 1191.48 414.276 1205.27 422.559 1212.69 427.026 1220.08 431.493 1227.5 436 1227.42 439.979 1227.38 444.039 1227.38 447.938 1227.38 451.024 1227.34 454.15 1227.3 457.277 1227.18 460.607 1227.18 464.058 1227.18 467.347 1227.18 470.27 1227.18 473.194 1227.09 476.118 1226.97 479.407 1226.97 482.696 1226.97 485.944 1226.97 488.624 1226.97 491.385 1226.89 494.106 1226.77 497.76 1226.77 501.496 1226.77 505.11 1226.77 509.008 1226.73 513.028 1226.61 516.967 1206.69 528.823 1185.31 541.492 1163.57 554.445L1162.88 554.851 1162.88 555.704C1162.88 566.546 1162.88 577.428 1162.84 588.269 1162.84 602.603 1162.84 616.977 1162.76 631.311 1149.74 639.026 1136.52 646.822 1123.7 654.375 1113.23 660.547 1102.4 666.922 1091.78 673.216 1091.69 673.256 1091.65 673.297 1091.57 673.338 1091.37 673.378 1091.25 673.459 1091.17 673.5ZM1150.75 562.201C1144.67 565.693 1138.67 569.185 1132.58 572.718 1120.86 579.458 1108.73 586.483 1096.85 593.467L1096.08 593.873 1096.08 594.726C1096.24 606.298 1096.32 618.074 1096.44 629.484 1096.56 638.985 1096.64 648.771 1096.76 658.395L1096.81 660.953 1098.95 659.654C1115.02 650.152 1134.04 638.863 1153.19 627.494L1153.96 627.047 1153.96 626.235C1153.72 615.516 1153.55 604.674 1153.43 594.198 1153.31 584.128 1153.15 573.733 1152.94 563.5L1152.9 561.023 1150.75 562.201ZM1002.54 571.134C990.651 578.037 978.36 585.224 966.272 592.249L965.583 592.655 965.583 593.508C965.664 603.821 965.664 614.297 965.664 624.449L965.664 629.606C965.786 638.863 965.826 647.959 965.867 658.029L965.867 660.587 968.057 659.329C977.955 653.563 987.812 647.837 997.669 642.031 1007.32 636.427 1016.94 630.783 1026.59 625.18 1035.8 630.54 1045.01 635.899 1054.21 641.3 1064.52 647.269 1074.78 653.279 1085.12 659.288L1087.27 660.547 1087.27 658.029C1087.27 655.877 1087.27 653.685 1087.31 651.573 1087.31 647.675 1087.35 643.655 1087.39 639.716 1087.52 631.352 1087.52 622.825 1087.52 614.582 1087.52 607.679 1087.52 600.573 1087.64 593.548L1087.64 592.736 1086.87 592.289C1074.01 584.777 1061.15 577.266 1048.29 569.794 1041.27 565.693 1026.55 557.085 1026.55 557.085 1026.55 557.085 1010.32 566.586 1002.54 571.134ZM1059.69 567.114C1069.63 573.042 1079.89 579.214 1090.03 585.265L1090.76 585.671 1091.53 585.265C1103.66 578.565 1116.03 571.743 1127.96 565.165 1135.91 560.739 1143.9 556.354 1151.89 551.928L1152.62 551.522 1152.62 550.629C1152.62 548.111 1152.62 545.675 1152.58 543.157 1152.58 539.259 1152.54 535.32 1152.54 531.463 1152.58 521.921 1152.5 512.216 1152.46 502.836 1152.42 495.081 1152.34 487.081 1152.34 479.204L1152.34 478.392 1151.65 477.945C1144.22 473.479 1136.8 469.052 1129.38 464.545 1124.67 461.743 1120.01 458.901 1115.3 456.059 1109.14 452.282 1103.54 449.075 1098.14 446.11L1095.95 444.892 1095.99 447.41C1096.12 458.333 1096.32 469.458 1096.48 480.219 1096.72 491.751 1096.93 503.729 1097.05 515.464 1087.35 521.068 1077.58 526.874 1068.05 532.437 1062.12 535.929 1056.2 539.422 1050.28 542.873 1048.53 543.888 1046.75 544.944 1045.05 545.959 1042.29 547.583 1039.41 549.288 1036.49 550.832L1033.57 552.374C1033.53 552.334 1053.52 563.46 1059.69 567.114ZM1192.29 461.013C1182.39 466.738 1172.17 472.626 1162.07 478.392L1161.3 478.798 1161.3 479.65C1161.3 484.889 1161.34 490.167 1161.38 495.324 1161.46 502.917 1161.54 510.754 1161.46 518.469 1161.63 525.737 1161.67 533.655 1161.71 543.482L1161.71 545.999 1163.86 544.741C1171.85 540.152 1179.76 535.605 1187.71 531.057 1198.05 525.128 1208.8 518.956 1219.31 512.906L1220 512.5 1220 511.647C1220.16 492.441 1220.36 469.743 1220.56 447.369L1220.6 445.136C1220.69 445.095 1198.66 457.318 1192.29 461.013Z" stroke="#BFBFBF" stroke-width="0.119816" stroke-miterlimit="8" fill="#BFBFBF" fill-rule="evenodd"/><path d="M988.117 497.347C938.634 405.281 987.669 335.58 1020.22 313.053 1047.37 294.232 1105.52 278.549 1148 337.332M883.576 602C866.119 550.916 888.785 507.49 915.683 480.563 942.541 453.677 994.669 429.642 1045.37 440.071M939.814 456.936C906.649 439.704 891.023 419.091 884.878 399.008 865.264 335.295 928.339 285.392 986.774 298.265 996.662 300.424 1006.75 304.09 1016.48 310.649 1039.55 326.211 1069.58 354.727 1073.37 412.043M916.701 568.881C807.521 551.69 811.875 461.539 832.873 428.012 853.911 394.404 903.841 370.899 963.945 420.272" stroke="#BFBFBF" stroke-width="9.98337" stroke-linejoin="round" stroke-miterlimit="10" fill="none" fill-rule="evenodd"/><path d="M1163 336 876 623" stroke="#BFBFBF" stroke-width="9.98337" stroke-miterlimit="8" fill="none" fill-rule="evenodd"/></g></svg>
