<svg width="6305" height="3498" xmlns="http://www.w3.org/2000/svg" xmlns:xlink="http://www.w3.org/1999/xlink" xml:space="preserve" overflow="hidden"><defs><linearGradient x1="738" y1="2084" x2="328" y2="2084" gradientUnits="userSpaceOnUse" spreadMethod="reflect" id="fill0"><stop offset="0" stop-color="#10214E"/><stop offset="0.00787402" stop-color="#10224F"/><stop offset="0.015748" stop-color="#112351"/><stop offset="0.023622" stop-color="#112453"/><stop offset="0.0314961" stop-color="#122555"/><stop offset="0.0393701" stop-color="#132657"/><stop offset="0.0472441" stop-color="#132759"/><stop offset="0.0551181" stop-color="#14285A"/><stop offset="0.0629921" stop-color="#14295C"/><stop offset="0.0708661" stop-color="#152B5E"/><stop offset="0.0787402" stop-color="#152C60"/><stop offset="0.0866142" stop-color="#162D61"/><stop offset="0.0944882" stop-color="#172E63"/><stop offset="0.102362" stop-color="#172F65"/><stop offset="0.110236" stop-color="#183067"/><stop offset="0.11811" stop-color="#183168"/><stop offset="0.125984" stop-color="#19326A"/><stop offset="0.133858" stop-color="#19336C"/><stop offset="0.141732" stop-color="#1A346D"/><stop offset="0.149606" stop-color="#1B356F"/><stop offset="0.15748" stop-color="#1B3671"/><stop offset="0.165354" stop-color="#1C3772"/><stop offset="0.173228" stop-color="#1C3874"/><stop offset="0.181102" stop-color="#1D3975"/><stop offset="0.188976" stop-color="#1D3A77"/><stop offset="0.19685" stop-color="#1E3B79"/><stop offset="0.204724" stop-color="#1E3C7A"/><stop offset="0.212598" stop-color="#1F3D7C"/><stop offset="0.220472" stop-color="#1F3E7D"/><stop offset="0.228346" stop-color="#203F7F"/><stop offset="0.23622" stop-color="#203F80"/><stop offset="0.244094" stop-color="#214082"/><stop offset="0.251969" stop-color="#214183"/><stop offset="0.259843" stop-color="#224285"/><stop offset="0.267717" stop-color="#224386"/><stop offset="0.275591" stop-color="#234488"/><stop offset="0.283465" stop-color="#234589"/><stop offset="0.291339" stop-color="#23468A"/><stop offset="0.299213" stop-color="#24468C"/><stop offset="0.307087" stop-color="#24478D"/><stop offset="0.314961" stop-color="#25488F"/><stop offset="0.322835" stop-color="#254990"/><stop offset="0.330709" stop-color="#264A91"/><stop offset="0.338583" stop-color="#264B93"/><stop offset="0.346457" stop-color="#274B94"/><stop offset="0.354331" stop-color="#274C95"/><stop offset="0.362205" stop-color="#274D96"/><stop offset="0.370079" stop-color="#284E98"/><stop offset="0.377953" stop-color="#284E99"/><stop offset="0.385827" stop-color="#294F9A"/><stop offset="0.393701" stop-color="#29509B"/><stop offset="0.401575" stop-color="#29519D"/><stop offset="0.409449" stop-color="#2A519E"/><stop offset="0.417323" stop-color="#2A529F"/><stop offset="0.425197" stop-color="#2B53A0"/><stop offset="0.433071" stop-color="#2B54A1"/><stop offset="0.440945" stop-color="#2B54A2"/><stop offset="0.448819" stop-color="#2C55A4"/><stop offset="0.456693" stop-color="#2C56A5"/><stop offset="0.464567" stop-color="#2C56A6"/><stop offset="0.472441" stop-color="#2D57A7"/><stop offset="0.480315" stop-color="#2D58A8"/><stop offset="0.488189" stop-color="#2E58A9"/><stop offset="0.496063" stop-color="#2E59AA"/><stop offset="0.503937" stop-color="#2E5AAB"/><stop offset="0.511811" stop-color="#2F5AAC"/><stop offset="0.519685" stop-color="#2F5BAD"/><stop offset="0.527559" stop-color="#2F5BAE"/><stop offset="0.535433" stop-color="#305CAF"/><stop offset="0.543307" stop-color="#305DB0"/><stop offset="0.551181" stop-color="#305DB1"/><stop offset="0.559055" stop-color="#305EB2"/><stop offset="0.566929" stop-color="#315EB3"/><stop offset="0.574803" stop-color="#315FB4"/><stop offset="0.582677" stop-color="#315FB5"/><stop offset="0.590551" stop-color="#3260B6"/><stop offset="0.598425" stop-color="#3260B6"/><stop offset="0.606299" stop-color="#3261B7"/><stop offset="0.614173" stop-color="#3261B8"/><stop offset="0.622047" stop-color="#3362B9"/><stop offset="0.629921" stop-color="#3362BA"/><stop offset="0.637795" stop-color="#3363BA"/><stop offset="0.645669" stop-color="#3363BB"/><stop offset="0.653543" stop-color="#3464BC"/><stop offset="0.661417" stop-color="#3464BD"/><stop offset="0.669291" stop-color="#3465BD"/><stop offset="0.677165" stop-color="#3465BE"/><stop offset="0.685039" stop-color="#3566BF"/><stop offset="0.692913" stop-color="#3566C0"/><stop offset="0.700787" stop-color="#3566C0"/><stop offset="0.708661" stop-color="#3567C1"/><stop offset="0.716535" stop-color="#3667C1"/><stop offset="0.724409" stop-color="#3668C2"/><stop offset="0.732283" stop-color="#3668C3"/><stop offset="0.740157" stop-color="#3668C3"/><stop offset="0.748031" stop-color="#3669C4"/><stop offset="0.755906" stop-color="#3769C4"/><stop offset="0.76378" stop-color="#3769C5"/><stop offset="0.771654" stop-color="#376AC5"/><stop offset="0.779528" stop-color="#376AC6"/><stop offset="0.787402" stop-color="#376AC6"/><stop offset="0.795276" stop-color="#376BC7"/><stop offset="0.80315" stop-color="#386BC7"/><stop offset="0.811024" stop-color="#386BC8"/><stop offset="0.818898" stop-color="#386BC8"/><stop offset="0.826772" stop-color="#386CC9"/><stop offset="0.834646" stop-color="#386CC9"/><stop offset="0.84252" stop-color="#386CCA"/><stop offset="0.850394" stop-color="#386CCA"/><stop offset="0.858268" stop-color="#386CCA"/><stop offset="0.866142" stop-color="#396DCB"/><stop offset="0.874016" stop-color="#396DCB"/><stop offset="0.88189" stop-color="#396DCB"/><stop offset="0.889764" stop-color="#396DCB"/><stop offset="0.897638" stop-color="#396DCC"/><stop offset="0.905512" stop-color="#396ECC"/><stop offset="0.913386" stop-color="#396ECC"/><stop offset="0.92126" stop-color="#396ECC"/><stop offset="0.929134" stop-color="#396ECD"/><stop offset="0.937008" stop-color="#396ECD"/><stop offset="0.944882" stop-color="#396ECD"/><stop offset="0.952756" stop-color="#396ECD"/><stop offset="0.96063" stop-color="#396ECD"/><stop offset="0.968504" stop-color="#396ECD"/><stop offset="0.976378" stop-color="#396ECD"/><stop offset="0.984252" stop-color="#396ECD"/><stop offset="0.992126" stop-color="#396ECD"/><stop offset="1" stop-color="#3A6FCE"/></linearGradient></defs><g transform="translate(-194 347)"><path d="M692 482C692 299.746 839.746 152 1022 152 1204.25 152 1352 299.746 1352 482 1352 664.254 1204.25 812 1022 812 839.746 812 692 664.254 692 482Z" stroke="#404040" stroke-width="13.75" stroke-miterlimit="8" fill="none" fill-rule="evenodd"/><path d="M201 1208C201 1025.75 348.746 878 531 878 713.254 878 861 1025.75 861 1208 861 1390.25 713.254 1538 531 1538 348.746 1538 201 1390.25 201 1208Z" stroke="#404040" stroke-width="13.75" stroke-miterlimit="8" fill="none" fill-rule="evenodd"/><path d="M201 2084C201 1901.75 348.746 1754 531 1754 713.254 1754 861 1901.75 861 2084 861 2266.25 713.254 2414 531 2414 348.746 2414 201 2266.25 201 2084Z" stroke="#404040" stroke-width="13.75" stroke-miterlimit="8" fill="none" fill-rule="evenodd"/><path d="M1894.82 481.157 1972.21 1107.39C1972.67 1111.16 1970 1114.59 1966.23 1115.06 1962.46 1115.52 1959.03 1112.85 1958.56 1109.08L1881.18 482.843C1880.71 479.075 1883.39 475.642 1887.16 475.177 1890.93 474.711 1894.36 477.388 1894.82 481.157ZM1990.53 1067.05 1967.06 1121.78 1930.98 1074.41C1928.68 1071.39 1929.26 1067.08 1932.28 1064.78 1935.3 1062.48 1939.61 1063.06 1941.91 1066.08L1970.85 1104.07 1959.07 1105.52 1977.89 1061.63C1979.39 1058.14 1983.43 1056.53 1986.92 1058.03 1990.41 1059.52 1992.02 1063.56 1990.53 1067.05Z" fill="#404040"/><path d="M861 1208 1393.11 1208" stroke="#404040" stroke-width="13.75" stroke-linecap="round" stroke-miterlimit="8" fill="none" fill-rule="evenodd"/><path d="M14.9053 3.22566 154.116 115.984C157.067 118.373 157.521 122.703 155.131 125.653 152.742 128.604 148.412 129.058 145.462 126.668L6.2509 13.9104C3.30039 11.5206 2.84588 7.19134 5.23573 4.24083 7.62558 1.29032 11.9548 0.835815 14.9053 3.22566ZM21.0573 55.6637-0.0247599-0.0200556 58.8232 9.03782C62.576 9.61544 65.1499 13.1259 64.5723 16.8787 63.9947 20.6314 60.4842 23.2054 56.7315 22.6278L9.53201 15.3628 17.0075 6.13359 33.9165 50.7951C35.2609 54.3461 33.4722 58.3146 29.9212 59.659 26.3702 61.0034 22.4017 59.2146 21.0573 55.6637Z" fill="#404040" transform="matrix(-1 0 0 1 1544.79 1963)"/><path d="M1527.98 1332.58 1388.53 1213.22C1385.64 1210.75 1385.31 1206.41 1387.78 1203.53 1390.25 1200.64 1394.59 1200.31 1397.47 1202.78L1536.92 1322.13C1539.8 1324.6 1540.14 1328.94 1537.67 1331.82 1535.2 1334.71 1530.86 1335.04 1527.98 1332.58ZM1523.25 1279.99 1542.81 1336.23 1484.23 1325.58C1480.5 1324.9 1478.02 1321.32 1478.7 1317.58 1479.38 1313.85 1482.96 1311.37 1486.69 1312.05L1533.68 1320.59 1525.95 1329.61 1510.26 1284.51C1509.01 1280.92 1510.91 1277 1514.5 1275.76 1518.08 1274.51 1522 1276.4 1523.25 1279.99Z" fill="#404040"/><text fill="#404040" font-family="Arial,Arial_MSFontService,sans-serif" font-weight="400" font-size="101" transform="matrix(1 0 0 1 1389.71 628)">Gym</text><path d="M1477 1654C1477 1380.62 1698.62 1159 1972 1159 2245.38 1159 2467 1380.62 2467 1654 2467 1927.38 2245.38 2149 1972 2149 1698.62 2149 1477 1927.38 1477 1654Z" stroke="#404040" stroke-width="13.75" stroke-miterlimit="8" fill="none" fill-rule="evenodd"/><path d="M1566 1653.5C1566 1429.55 1747.77 1248 1972 1248 2196.23 1248 2378 1429.55 2378 1653.5 2378 1877.45 2196.23 2059 1972 2059 1747.77 2059 1566 1877.45 1566 1653.5Z" fill="#343131" fill-rule="evenodd"/><g><g><g><path d="M0 0 688.094 0 688.094 361.883 0 361.883Z" fill="#343131" fill-rule="evenodd" transform="matrix(1 0 0 1.00032 1628.45 1473)"/><path d="M400.841 322.221 401.075 322.221C401.545 322.221 402.249 322.221 402.718 322.221L402.953 322.221C403.657 322.221 404.126 322.221 404.83 322.221L404.83 322.221 404.83 322.221 404.83 322.221C405.534 322.221 406.004 322.221 406.708 321.987L406.708 321.987C407.412 321.987 407.881 321.987 408.585 321.987L408.585 321.987C409.289 321.987 409.993 321.752 410.463 321.752L410.463 321.752 410.697 321.752C411.167 321.752 411.636 321.752 412.34 321.517L412.34 321.517 412.575 321.517C413.044 321.517 413.748 321.517 414.218 321.283L414.452 321.283C414.922 321.283 415.626 321.283 416.095 321.048L416.33 321.048C417.034 321.048 417.503 321.048 418.207 320.813L418.207 320.813C418.911 320.813 419.381 320.579 420.085 320.579L420.085 320.579C420.789 320.344 421.258 320.344 421.962 320.109L421.962 320.109C422.666 320.109 423.37 319.875 423.84 319.875L423.84 319.875 423.84 319.875C424.544 319.64 425.248 319.64 425.717 319.405L425.952 319.405C426.421 319.17 427.125 319.17 427.829 318.936L427.829 318.936C428.299 318.936 429.003 318.701 429.707 318.466L429.707 318.466 429.707 318.466C430.411 318.466 430.88 318.232 431.584 317.997L431.584 317.997 431.584 317.997C432.288 317.762 432.758 317.762 433.462 317.528L433.462 317.528C434.166 317.293 434.635 317.058 435.339 317.058L435.339 316.824C436.043 316.824 436.747 316.589 437.217 316.354 505.04 294.998 542.59 222.715 521.234 155.126 499.877 87.3025 427.595 49.753 360.005 71.1093 359.301 71.1093 358.832 71.344 358.128 71.5787L357.893 71.5787C357.424 71.8134 356.72 72.048 356.251 72.2827L356.251 72.2827C355.547 72.5174 355.077 72.7521 354.373 72.9868L354.373 72.9868 354.138 72.9868C353.669 73.2215 353.2 73.4561 352.496 73.6908L352.496 73.6908 352.496 73.6908C351.792 73.9255 351.322 74.1602 350.618 74.3949L350.618 74.3949C349.914 74.6296 349.445 74.8642 348.975 75.0989L348.741 75.0989C348.271 75.3336 347.567 75.5683 347.098 75.803L347.098 75.803 346.863 75.803C346.394 76.0377 345.924 76.2723 345.22 76.7417L345.22 76.7417C344.516 76.9764 344.047 77.2111 343.578 77.4458L343.343 77.4458C342.874 77.6805 342.404 77.9151 341.7 78.3845L341.7 78.3845C341.231 78.6192 340.527 78.8539 340.057 79.0886L339.823 79.0886C339.353 79.5579 338.884 79.7926 338.415 80.0273L338.18 80.0273C337.711 80.4967 337.241 80.7313 336.537 80.966L336.537 80.966 336.537 80.966C336.068 81.2007 335.364 81.6701 334.894 81.9048L334.894 81.9048 334.894 81.9048C334.425 82.1395 333.721 82.6088 333.251 82.8435L333.251 82.8435C332.782 83.3129 332.078 83.5476 331.609 83.7822L331.609 83.7822C331.139 84.2516 330.435 84.4863 329.966 84.721L329.966 84.9557 329.966 84.9557 329.966 84.9557C329.497 85.1903 329.027 85.425 328.323 85.8944L328.323 85.8944C327.854 86.3638 327.384 86.5984 326.915 86.8331L326.68 87.0678 326.211 87.3025C283.733 113.587 276.223 150.667 244.541 162.636L241.725 163.34C205.583 174.84 185.166 214.032 196.665 250.173L196.665 250.408 200.655 263.081 200.655 263.316C212.154 299.457 251.112 319.875 287.488 308.375L290.304 307.436C322.925 298.988 350.383 325.038 400.136 322.456L400.841 322.221ZM418.207 320.813C418.911 320.813 419.381 320.579 420.085 320.579" fill="#FFED00" fill-rule="evenodd" transform="matrix(1 0 0 1.00032 1628.45 1473)"/><path d="M63.141 0C69.753-2.33062e-15 75.1131 4.51572 75.1131 10.0862L75.1131 10.0862C75.1131 15.6566 69.753 20.1723 63.141 20.1723L11.9722 20.1723C5.36013 20.1723 0 15.6566 0 10.0862L0 10.0862C-2.33062e-15 4.51572 5.36013-3.49592e-15 11.9722-4.66123e-15Z" stroke="#D9DADA" stroke-width="0.317515" fill="#D9DADA" fill-rule="evenodd" transform="matrix(-0.430234 -1.36521 -0.953705 0.300745 1826.29 1785.99)"/><path d="M63.141 0C69.753-2.33062e-15 75.1131 4.51572 75.1131 10.0862L75.1131 10.0862C75.1131 15.6566 69.753 20.1723 63.141 20.1723L11.9722 20.1723C5.36013 20.1723 0 15.6566 0 10.0862L0 10.0862C-2.33062e-15 4.51572 5.36013-3.49592e-15 11.9722-4.66123e-15Z" stroke="#D9DADA" stroke-width="0.317515" fill="#D9DADA" fill-rule="evenodd" transform="matrix(-0.387212 -1.2287 -0.953705 0.300745 1793.39 1790.72)"/><path d="M45.1902 0C49.9225-1.66803e-15 53.7588 3.23192 53.7588 7.2187L53.7588 7.2187C53.7588 11.2055 49.9225 14.4374 45.1902 14.4374L8.56854 14.4374C3.83627 14.4374 0 11.2055 0 7.2187L0 7.2187C-1.66803e-15 3.23192 3.83627-2.50205e-15 8.56854-3.33606e-15Z" stroke="#D9DADA" stroke-width="0.227247" fill="#D9DADA" fill-rule="evenodd" transform="matrix(-0.300568 -0.95376 -1.33254 0.420208 1755.65 1780.05)"/><path d="M381.831 135.178C387.933 133.066 399.667 126.495 405.3 130.719 404.83 139.872 395.677 147.616 403.891 159.82 415.156 176.482 446.135 169.207 447.073 146.208 447.543 132.362 431.349 130.719 429.003 123.209 432.054 115.23 456.93 111.71 465.144 109.363L472.419 108.659 478.756 107.485C479.46 104.669 478.756 98.3327 477.582 91.9962 497.53 107.485 513.02 129.076 521.234 155.126 542.59 222.715 505.04 294.998 437.217 316.354L435.339 316.824 435.339 317.058 433.462 317.528 433.462 317.528 431.584 317.997 431.584 317.997 431.584 317.997 429.707 318.466 429.707 318.466 429.707 318.466 427.829 318.936 427.829 318.936 425.952 319.405 425.717 319.405 423.84 319.875 423.84 319.875 423.84 319.875 421.962 320.109 421.962 320.109 420.085 320.579 420.085 320.579 418.207 320.813 418.207 320.813 416.33 321.048 416.095 321.048 414.452 321.283 414.218 321.283 412.575 321.517 412.34 321.517 412.34 321.517 410.697 321.752 410.463 321.752 410.463 321.752 408.585 321.987 408.585 321.987 406.708 321.987 406.708 321.987 404.83 322.221 404.83 322.221 404.83 322.221 404.83 322.221 402.953 322.221 402.718 322.221 401.075 322.221 400.841 322.221 400.136 322.456C350.383 325.038 322.925 298.988 290.304 307.436L287.488 308.375C251.112 319.875 212.154 299.457 200.655 263.316L200.655 263.081 196.665 250.408 196.665 250.173C185.166 214.032 205.583 174.84 241.725 163.34L244.541 162.636C276.223 150.667 283.733 113.587 326.211 87.3025L326.68 87.0678 326.915 86.8331 328.323 85.8944 328.323 85.8944 329.966 84.9557 329.966 84.9557 329.966 84.9557 329.966 84.721 331.609 83.7822 331.609 83.7822 333.251 82.8435 333.251 82.8435 334.894 81.9048 334.894 81.9048 334.894 81.9048 336.537 80.966 336.537 80.966 336.537 80.966 338.18 80.0273 338.415 80.0273 339.823 79.0886 340.057 79.0886 341.7 78.3845 341.7 78.3845 343.343 77.4458 343.578 77.4458 345.22 76.7417 345.22 76.7417 346.863 75.803 347.098 75.803 347.098 75.803 348.741 75.0989 348.975 75.0989 350.618 74.3949 350.618 74.3949 352.496 73.6908 352.496 73.6908 352.496 73.6908 354.138 72.9868 354.373 72.9868 354.373 72.9868 356.251 72.2827 356.251 72.2827 357.893 71.5787 358.128 71.5787 360.005 71.1093C364.464 69.4665 369.158 68.2931 373.617 67.589 375.26 71.344 376.433 73.9255 377.137 79.0886 377.607 87.5372 373.382 95.7511 365.403 98.5673 354.373 102.557 349.679 92.9349 340.292 95.5164 329.497 101.149 352.026 143.861 355.312 146.912L360.24 145.035C367.515 141.28 374.087 137.994 381.831 135.178Z" fill="#FFED00" fill-rule="evenodd" transform="matrix(1 0 0 1.00032 1628.45 1473)"/><path d="M106.749 0C106.749 58.9559 58.9559 106.749-1.94799e-14 106.749-58.9559 106.749-106.749 58.9559-106.749 9.73994e-15-106.749-58.9559-58.9559-106.749-9.73994e-15-106.749 58.9559-106.749 106.749-58.9559 106.749 0Z" fill="#FEC20E" fill-rule="evenodd" transform="matrix(0.711057 -0.703134 -0.702907 -0.711287 2026.77 1666.86)"/><path d="M64.6547 0C94.5803-1.04409e-14 118.84 24.2595 118.84 54.185L118.84 113.513C118.84 143.439 94.5803 167.698 64.6547 167.698L54.185 167.698C24.2595 167.698 0 143.439 0 113.513L0 54.185C-1.04409e-14 24.2595 24.2595 0 54.185 0Z" fill="#FEC20E" fill-rule="evenodd" transform="matrix(-0.291826 -0.979926 -0.958353 0.285588 2054.65 1723.75)"/><path d="M382.066 206.522 378.78 196.196C370.097 167.095 339.353 150.902 310.018 158.881L283.733 166.391C254.398 174.37 237.97 206.053 246.653 235.154L249.704 245.48C258.387 274.58 289.131 291.008 318.466 282.794L344.751 275.519C374.087 267.305 390.749 235.858 382.066 206.522Z" fill="#EF7F1A" fill-rule="evenodd" transform="matrix(1 0 0 1.00032 1628.45 1473)"/><path d="M397.79 228.348C393.565 247.122 379.954 263.316 360.24 269.417L333.956 277.866C323.395 270.121 314.007 260.265 306.967 248.531 304.855 245.01 302.977 241.49 301.334 237.5 299.692 234.215 298.284 230.695 297.11 226.94 296.875 226.705 296.875 226.236 296.641 225.766 289.835 204.175 290.539 181.88 297.345 161.932L323.864 153.483C331.609 151.137 339.823 150.433 347.567 151.606 368.219 154.187 386.525 168.503 393.331 189.625L394.973 195.023 396.382 199.951C399.432 209.573 399.667 219.195 397.79 228.348Z" fill="#E31E24" fill-rule="evenodd" transform="matrix(1 0 0 1.00032 1628.45 1473)"/><path d="M468.899 26.5193 471.715 37.5495C475.47 45.0594 483.449 52.5693 492.367 50.2224 501.755 47.6409 511.142 19.0094 520.06 39.8963 521.938 44.3553 523.815 50.2224 524.988 54.9161 526.397 60.7832 530.621 78.1498 528.978 83.3129L522.876 84.4863 515.366 85.1903C507.387 87.5372 482.276 91.0574 479.46 99.0367 481.572 106.547 498 108.189 497.53 122.036 496.592 145.035 465.379 152.31 454.114 135.647 445.9 123.444 455.053 115.934 455.522 106.547 450.124 102.322 438.39 108.893 432.288 111.006 424.544 113.822 417.738 117.107 410.697 120.862L405.769 122.74C402.483 119.689 379.719 76.9764 390.749 71.344 400.136 68.7625 404.83 78.6192 415.626 74.6296 423.84 71.5787 428.064 63.3647 427.595 54.9161 426.656 48.5796 425.013 45.9981 423.136 40.6004 418.442 33.5598 409.054 29.3355 400.841 32.3864 390.984 36.1414 391.688 48.5796 381.831 48.8143 333.251 32.8558 464.44-11.2648 468.899 26.5193Z" fill="#343131" fill-rule="evenodd" transform="matrix(1 0 0 1.00032 1628.45 1473)"/><path d="M250.877 264.724 239.847 267.54C232.337 271.295 225.062 279.274 227.409 288.192 229.99 297.345 258.622 306.732 237.735 315.65 233.041 317.528 227.409 319.64 222.481 320.813 216.848 322.221 205.349 326.446 200.186 324.803L199.012 318.466 198.308 311.191C195.961 302.977 192.441 278.101 184.462 275.285 176.952 277.397 175.309 293.825 161.463 293.121 138.464 292.182 131.188 261.203 147.851 249.939 160.055 241.725 167.799 250.877 176.952 251.347 181.176 245.949 174.605 233.98 172.493 227.878 169.677 220.368 166.391 213.563 162.636 206.522L160.759 201.359C163.81 198.308 200.42 175.544 206.287 186.339 208.869 195.961 199.012 200.42 203.002 211.45 206.053 219.43 214.267 223.654 222.715 223.419 228.817 222.246 231.399 220.603 237.031 218.726 243.837 214.267 248.296 204.645 245.245 196.431 241.49 186.809 229.052 187.278 228.817 177.656 232.103 167.564 269.887 161.463 279.978 162.401 282.794 173.197 284.437 206.522 294.294 212.624 299.926 210.042 300.865 200.89 310.722 196.431 319.875 192.206 326.211 196.196 332.547 200.655 345.455 210.512 342.639 235.388 324.568 240.317 317.058 241.021 311.426 237.266 304.855 235.154 296.406 239.143 303.916 253.459 306.497 259.795 308.375 264.489 310.018 269.417 312.13 273.876 314.007 277.866 317.058 281.621 317.762 286.08 313.773 290.304 297.814 296.641 291.712 298.753 285.141 301.1 269.183 308.844 265.897 299.222 263.785 292.651 271.764 283.968 270.121 276.223 268.244 268.009 258.622 264.254 250.877 264.724Z" stroke="#343131" stroke-width="9.99114" fill="none" fill-rule="evenodd" transform="matrix(1 0 0 1.00032 1628.45 1473)"/><path d="M330.435 313.538C327.854 305.793 324.568 299.222 320.579 291.947L318.701 287.019C321.987 283.733 364.464 261.203 370.332 271.999 372.913 281.386 363.056 286.08 367.046 297.11 370.097 305.089 378.311 309.314 386.759 308.844 392.861 307.906 395.443 306.263 401.075 304.385 407.881 299.926 412.34 290.304 409.289 282.09 405.534 272.468 393.096 272.938 392.861 263.316 396.147 253.224 433.931 246.888 444.022 248.061 446.839 258.857 448.481 292.182 458.338 298.284 463.971 295.702 464.909 286.549 474.766 282.09 483.919 277.866 490.255 281.621 496.592 286.315 509.499 295.937 506.683 320.813 488.612 325.976 478.052 310.957 367.75 382.3 330.435 313.538Z" stroke="#343131" stroke-width="9.99114" fill="none" fill-rule="evenodd" transform="matrix(1 0 0 1.00032 1628.45 1473)"/><path d="M501.285 186.339 490.255 189.155C482.745 192.91 475.235 200.89 477.817 209.808 480.398 219.195 509.03 228.348 487.908 237.5 483.449 239.378 477.582 241.255 472.889 242.429 467.021 243.837 449.655 248.061 444.492 246.418L443.318 240.082 442.614 232.807C440.267 224.827 436.747 199.716 428.768 196.9 421.493 199.012 419.615 215.44 405.769 214.736 382.77 214.032 375.495 182.819 392.157 171.554 404.361 163.34 412.105 172.493 421.258 172.962 425.482 167.564 418.911 155.83 416.799 149.494 413.983 141.984 410.932 135.178 406.942 128.138L405.065 123.209C408.116 119.924 450.828 97.1592 456.695 108.189 459.042 117.577 449.42 122.27 453.41 133.066 456.226 141.28 464.44 145.269 472.889 145.035 479.225 144.096 481.807 142.453 487.204 140.341 494.245 135.882 498.704 126.26 495.418 118.281 491.898 108.424 479.225 108.893 478.99 99.2714 482.276 89.4147 520.06 83.0782 530.151 84.0169 533.202 94.8124 534.61 128.372 544.467 134.474 550.1 131.893 551.038 122.505 560.895 118.046 570.282 113.822 576.619 117.811 582.721 122.505 595.628 132.127 592.812 157.004 574.976 161.932 567.466 162.636 561.834 158.881 555.263 157.004 546.579 160.993 554.324 175.074 556.906 181.646 558.783 186.105 560.191 191.033 562.303 195.492 564.415 199.482 567.232 203.471 568.17 207.695 564.181 211.92 548.222 218.256 542.12 220.603 535.315 222.95 519.591 230.46 516.305 220.838 513.958 214.267 522.172 205.583 520.295 197.839 518.417 189.625 509.03 185.87 501.285 186.339Z" stroke="#343131" stroke-width="9.99114" fill="none" fill-rule="evenodd" transform="matrix(1 0 0 1.00032 1628.45 1473)"/><path d="M337.006 100.914 325.976 103.73C318.466 107.485 310.957 115.465 313.538 124.383 316.12 133.77 344.751 142.923 323.629 151.841 319.17 153.718 313.303 155.83 308.61 157.004 302.977 158.412 285.376 162.636 280.213 160.993L279.039 154.657 278.335 147.382C276.223 139.402 272.468 114.291 264.489 111.475 115.465 154.187 394.269 33.7945 396.616 32.6211 406.004 28.3968 412.34 32.3864 418.442 36.8454 431.349 46.7021 428.768 71.5787 410.697 76.507 403.187 77.2111 397.555 73.4561 390.984 71.5787 382.3 75.3336 390.045 89.6493 392.627 96.2205 394.504 100.68 395.912 105.608 398.259 110.067 400.136 114.056 402.953 117.811 403.891 122.27 399.902 126.495 383.943 132.831 377.841 134.943 371.036 137.29 355.312 145.035 352.026 135.413 349.679 128.842 357.893 120.158 356.016 112.414 354.138 104.2 344.751 100.445 337.006 100.914Z" stroke="#343131" stroke-width="9.99114" fill="none" fill-rule="evenodd" transform="matrix(1 0 0 1.00032 1628.45 1473)"/><path d="M536.957 46.2328C561.13 56.3242 581.547 75.5683 592.812 100.68 594.69 104.904 596.332 109.128 597.741 113.587 600.087 121.801 601.73 130.015 602.2 138.229 601.261 138.464 600.087 138.698 599.149 138.698 593.282 137.994 590.465 138.229 584.364 136.117 576.619 132.597 571.456 125.087 572.629 116.403 574.037 106.312 582.486 105.373 586.006 98.802 586.476 98.098 586.71 96.9246 587.18 95.9858 586.945 83.5476 538.835 83.7822 534.376 85.1903L533.672 84.9557 533.672 84.0169C535.08 79.5579 534.376 74.8642 534.376 70.4052 534.61 65.4769 535.549 60.3138 536.019 55.3855 536.253 53.0386 536.488 49.753 536.957 46.2328Z" stroke="#FECC00" stroke-width="0.454358" fill="#FEC20E" fill-rule="evenodd" transform="matrix(1 0 0 1.00032 1628.45 1473)"/><path d="M612.995 91.2921C613.934 93.1696 614.638 94.8124 615.342 96.6899 613.464 96.9246 612.056 97.6286 611.118 98.5673 606.659 107.251 618.158 112.648 616.75 122.974 615.811 130.484 609.24 136.351 602.2 138.229 601.73 130.015 600.087 121.801 597.741 113.587 596.332 109.128 594.69 104.904 592.812 100.68 581.547 75.5683 561.13 56.3242 536.957 46.2328 537.661 39.4269 539.774 32.6211 546.11 32.8558 551.038 37.7841 554.089 43.6513 561.13 46.4675 566.762 47.6409 571.925 46.7021 576.15 44.1206 592.108 56.7936 604.781 72.9868 612.995 91.2921Z" stroke="#FFED00" stroke-width="0.454358" fill="#FFED00" fill-rule="evenodd" transform="matrix(1 0 0 1.00032 1628.45 1473)"/><path d="M602.2 138.229C601.261 138.464 600.087 138.698 599.149 138.698 593.282 137.994 590.465 138.229 584.364 136.117 576.619 132.597 571.456 125.087 572.629 116.403 574.037 106.312 582.486 105.373 586.006 98.802 586.476 98.098 586.71 96.9246 587.18 95.9858 586.945 83.5476 538.835 83.7822 534.376 85.1903L533.672 84.9557 533.672 84.0169C535.08 79.5579 534.376 74.8642 534.376 70.4052 534.61 65.4769 535.549 60.3138 536.019 55.3855 536.253 53.0386 536.488 49.753 536.957 46.2328 537.661 39.4269 539.774 32.6211 546.11 32.8558 551.038 37.7841 554.089 43.6513 561.13 46.4675 566.762 47.6409 571.925 46.7021 576.15 44.1206 592.108 56.7936 604.781 72.9868 612.995 91.2921 613.934 93.1696 614.638 94.8124 615.342 96.6899 613.464 96.9246 612.056 97.6286 611.118 98.5673 606.659 107.251 618.158 112.648 616.75 122.974 615.811 130.484 609.24 136.351 602.2 138.229Z" stroke="#343131" stroke-width="9.99114" fill="none" fill-rule="evenodd" transform="matrix(1 0 0 1.00032 1628.45 1473)"/></g></g></g><rect x="2943" y="1879" width="3549" height="928" stroke="#7F7F7F" stroke-width="13.75" stroke-linecap="square" stroke-miterlimit="8" stroke-dasharray="41.25 13.75" fill="none"/><text fill="#404040" font-family="Consolas,Consolas_MSFontService,sans-serif" font-weight="700" font-size="92" transform="matrix(1 0 0 1 2996.45 745)">num_envs</text><text fill="#404040" font-family="Consolas,Consolas_MSFontService,sans-serif" font-weight="400" font-size="92" transform="matrix(1 0 0 1 3399.78 745)">: </text><text fill="#404040" font-family="Consolas,Consolas_MSFontService,sans-serif" font-weight="400" font-size="92" transform="matrix(1 0 0 1 3500.62 745)">int</text><text fill="#404040" font-family="Consolas,Consolas_MSFontService,sans-serif" font-weight="700" font-size="92" transform="matrix(1 0 0 1 2996.45 910)">device</text><text fill="#404040" font-family="Consolas,Consolas_MSFontService,sans-serif" font-weight="400" font-size="92" transform="matrix(1 0 0 1 3298.95 910)">: </text><text fill="#404040" font-family="Consolas,Consolas_MSFontService,sans-serif" font-weight="400" font-size="92" transform="matrix(1 0 0 1 3399.78 910)">ML framework specific device</text><text fill="#404040" font-family="Consolas,Consolas_MSFontService,sans-serif" font-weight="700" font-size="92" transform="matrix(1 0 0 1 2996.45 1075)">state_space</text><text fill="#404040" font-family="Consolas,Consolas_MSFontService,sans-serif" font-weight="400" font-size="92" transform="matrix(1 0 0 1 3551.03 1075)">: </text><text fill="#404040" font-family="Consolas,Consolas_MSFontService,sans-serif" font-weight="400" font-size="92" transform="matrix(1 0 0 1 3651.87 1075)">gymnasium</text><text fill="#404040" font-family="Consolas,Consolas_MSFontService,sans-serif" font-weight="400" font-size="92" transform="matrix(1 0 0 1 4156.03 1075)">space</text><text fill="#404040" font-family="Consolas,Consolas_MSFontService,sans-serif" font-weight="700" font-size="92" transform="matrix(1 0 0 1 2996.45 1240)">observation_space</text><text fill="#404040" font-family="Consolas,Consolas_MSFontService,sans-serif" font-weight="400" font-size="92" transform="matrix(1 0 0 1 3853.53 1240)">: </text><text fill="#404040" font-family="Consolas,Consolas_MSFontService,sans-serif" font-weight="400" font-size="92" transform="matrix(1 0 0 1 3954.37 1240)">gymnasium</text><text fill="#404040" font-family="Consolas,Consolas_MSFontService,sans-serif" font-weight="400" font-size="92" transform="matrix(1 0 0 1 4458.53 1240)">space</text><text fill="#404040" font-family="Consolas,Consolas_MSFontService,sans-serif" font-weight="700" font-size="92" transform="matrix(1 0 0 1 2996.45 1405)">action_space</text><text fill="#404040" font-family="Consolas,Consolas_MSFontService,sans-serif" font-weight="400" font-size="92" transform="matrix(1 0 0 1 3601.45 1405)">: </text><text fill="#404040" font-family="Consolas,Consolas_MSFontService,sans-serif" font-weight="400" font-size="92" transform="matrix(1 0 0 1 3702.28 1405)">gymnasium</text><text fill="#404040" font-family="Consolas,Consolas_MSFontService,sans-serif" font-weight="400" font-size="92" transform="matrix(1 0 0 1 4206.45 1405)">space</text><text fill="#404040" font-family="Consolas,Consolas_MSFontService,sans-serif" font-weight="700" font-size="92" transform="matrix(1 0 0 1 2996.45 2054)">reset()</text><text fill="#404040" font-family="Consolas,Consolas_MSFontService,sans-serif" font-weight="400" font-size="92" transform="matrix(1 0 0 1 3399.78 2054)">-</text><text fill="#404040" font-family="Consolas,Consolas_MSFontService,sans-serif" font-weight="400" font-size="92" transform="matrix(1 0 0 1 3450.2 2054)">&gt; </text><text fill="#404040" font-family="Consolas,Consolas_MSFontService,sans-serif" font-weight="400" font-size="92" transform="matrix(1 0 0 1 3551.03 2054)">observations</text><text fill="#404040" font-family="Consolas,Consolas_MSFontService,sans-serif" font-weight="400" font-size="92" transform="matrix(1 0 0 1 4156.03 2054)">, </text><text fill="#404040" font-family="Consolas,Consolas_MSFontService,sans-serif" font-weight="400" font-size="92" transform="matrix(1 0 0 1 4256.87 2054)">infos</text><text fill="#404040" font-family="Consolas,Consolas_MSFontService,sans-serif" font-weight="700" font-size="92" transform="matrix(1 0 0 1 2996.45 2219)">step(</text><text fill="#404040" font-family="Consolas,Consolas_MSFontService,sans-serif" font-weight="400" font-size="92" transform="matrix(1 0 0 1 3248.53 2219)">actions</text><text fill="#404040" font-family="Consolas,Consolas_MSFontService,sans-serif" font-weight="700" font-size="92" transform="matrix(1 0 0 1 3601.45 2219)">)</text><text fill="#404040" font-family="Consolas,Consolas_MSFontService,sans-serif" font-weight="400" font-size="92" transform="matrix(1 0 0 1 3702.28 2219)">-</text><text fill="#404040" font-family="Consolas,Consolas_MSFontService,sans-serif" font-weight="400" font-size="92" transform="matrix(1 0 0 1 3752.7 2219)">&gt; </text><text fill="#404040" font-family="Consolas,Consolas_MSFontService,sans-serif" font-weight="400" font-size="92" transform="matrix(1 0 0 1 3853.53 2219)">observations</text><text fill="#404040" font-family="Consolas,Consolas_MSFontService,sans-serif" font-weight="400" font-size="92" transform="matrix(1 0 0 1 4458.53 2219)">, </text><text fill="#404040" font-family="Consolas,Consolas_MSFontService,sans-serif" font-weight="400" font-size="92" transform="matrix(1 0 0 1 4559.37 2219)">rewards, terminated, truncated, </text><text fill="#404040" font-family="Consolas,Consolas_MSFontService,sans-serif" font-weight="400" font-size="92" transform="matrix(1 0 0 1 6172.7 2219)">infos</text><text fill="#404040" font-family="Consolas,Consolas_MSFontService,sans-serif" font-weight="700" font-size="92" transform="matrix(1 0 0 1 2996.45 2384)">state</text><text fill="#404040" font-family="Consolas,Consolas_MSFontService,sans-serif" font-weight="700" font-size="92" transform="matrix(1 0 0 1 3248.53 2384)">()</text><text fill="#404040" font-family="Consolas,Consolas_MSFontService,sans-serif" font-weight="400" font-size="92" transform="matrix(1 0 0 1 3399.78 2384)">-</text><text fill="#404040" font-family="Consolas,Consolas_MSFontService,sans-serif" font-weight="400" font-size="92" transform="matrix(1 0 0 1 3450.2 2384)">&gt; </text><text fill="#404040" font-family="Consolas,Consolas_MSFontService,sans-serif" font-weight="400" font-size="92" transform="matrix(1 0 0 1 3551.03 2384)">states</text><text fill="#404040" font-family="Consolas,Consolas_MSFontService,sans-serif" font-weight="700" font-size="92" transform="matrix(1 0 0 1 2996.45 2549)">render()</text><text fill="#404040" font-family="Consolas,Consolas_MSFontService,sans-serif" font-weight="400" font-size="92" transform="matrix(1 0 0 1 3450.2 2549)">-</text><text fill="#404040" font-family="Consolas,Consolas_MSFontService,sans-serif" font-weight="400" font-size="92" transform="matrix(1 0 0 1 3500.62 2549)">&gt; </text><text fill="#404040" font-family="Consolas,Consolas_MSFontService,sans-serif" font-weight="400" font-size="92" transform="matrix(1 0 0 1 3601.45 2549)">any</text><text fill="#404040" font-family="Consolas,Consolas_MSFontService,sans-serif" font-weight="700" font-size="92" transform="matrix(1 0 0 1 2996.45 2714)">close</text><text fill="#404040" font-family="Consolas,Consolas_MSFontService,sans-serif" font-weight="700" font-size="92" transform="matrix(1 0 0 1 3248.53 2714)">()</text><text fill="#404040" font-family="Arial,Arial_MSFontService,sans-serif" font-weight="700" font-size="101" transform="matrix(1 0 0 1 4333.49 516)">properties</text><text fill="#404040" font-family="Arial,Arial_MSFontService,sans-serif" font-weight="700" font-size="101" transform="matrix(1 0 0 1 4369.87 1800)">methods</text><rect x="2943" y="594" width="3549" height="904" stroke="#7F7F7F" stroke-width="13.75" stroke-linecap="square" stroke-miterlimit="8" stroke-dasharray="41.25 13.75" fill="none"/><path d="M0-6.875 216.613-6.875 216.613 607.629 209.738 600.754 405.863 600.754 405.863 614.504 202.863 614.504 202.863 0 209.738 6.875 0 6.875ZM368.077 577.628 419.508 607.629 368.077 637.63C364.798 639.543 360.588 638.435 358.675 635.156 356.762 631.876 357.869 627.666 361.149 625.753L402.399 601.691 402.399 613.568 361.149 589.505C357.869 587.592 356.762 583.382 358.675 580.102 360.588 576.823 364.798 575.715 368.077 577.628Z" fill="#404040" transform="matrix(1 0 0 -1 2467 1653.63)"/><path d="M2467 1647.13 2683.61 1647.13 2683.61 2343.58 2676.74 2336.7 2872.86 2336.7 2872.86 2350.45 2669.86 2350.45 2669.86 1654 2676.74 1660.88 2467 1660.88ZM2835.08 2313.57 2886.51 2343.58 2835.08 2373.58C2831.8 2375.49 2827.59 2374.38 2825.68 2371.1 2823.76 2367.82 2824.87 2363.61 2828.15 2361.7L2869.4 2337.64 2869.4 2349.51 2828.15 2325.45C2824.87 2323.54 2823.76 2319.33 2825.68 2316.05 2827.59 2312.77 2831.8 2311.66 2835.08 2313.57Z" fill="#404040"/><text fill="#404040" font-family="Arial,Arial_MSFontService,sans-serif" font-weight="400" font-size="101" transform="matrix(1 0 0 1 898.868 1896)">MuJoCo</text><text fill="#404040" font-family="Arial,Arial_MSFontService,sans-serif" font-weight="400" font-size="101" transform="matrix(1 0 0 1 898.868 2017)">Playground</text><g><g><g><path d="M511.096 375.291C511.096 380.307 507.412 383.674 503.052 383.674L503.052 383.644C498.567 383.674 494.951 380.307 494.951 375.292 494.951 370.278 498.567 366.92 503.052 366.92 507.414 366.919 511.096 370.277 511.096 375.291ZM514.359 375.291C514.359 368.406 509.011 364.41 503.052 364.41 497.051 364.41 491.703 368.406 491.703 375.291 491.703 382.171 497.052 386.183 503.052 386.183 509.013 386.183 514.359 382.171 514.359 375.291M501.176 376.211 502.386 376.211 505.192 381.137 508.273 381.137 505.165 376.004C506.771 375.889 508.092 375.124 508.092 372.963 508.092 370.277 506.24 369.413 503.103 369.413L498.566 369.413 498.566 381.137 501.175 381.137 501.175 376.211M501.176 374.226 501.176 371.403 502.99 371.403C503.977 371.403 505.322 371.483 505.322 372.687 505.322 373.997 504.627 374.226 503.463 374.226L501.176 374.226" transform="matrix(1.00097 0 0 1 264.144 981.448)"/><path d="M438.21 315.318 452.308 353.887 423.675 353.887 438.21 315.318ZM423.111 300.3 390.621 382.619 413.563 382.619 418.702 368.074 457.152 368.074 462.016 382.619 486.922 382.619 454.19 300.289 423.111 300.3ZM357.882 382.65 381.159 382.65 381.159 300.275 357.878 300.269 357.882 382.65ZM196.294 300.269 176.874 365.558 158.272 300.275 133.157 300.269 159.726 382.65 193.258 382.65 220.042 300.269 196.294 300.269ZM290.38 318.207 300.384 318.207C314.897 318.207 324.284 324.723 324.284 341.633 324.284 358.546 314.897 365.063 300.384 365.063L290.38 365.063 290.38 318.207ZM267.299 300.269 267.299 382.65 305.035 382.65C325.139 382.65 331.704 379.308 338.803 371.811 343.817 366.547 347.06 354.994 347.06 342.366 347.06 330.783 344.316 320.458 339.531 314.025 330.909 302.519 318.489 300.269 299.954 300.269L267.299 300.269ZM46.8107 300.155 46.8107 382.65 70.2839 382.65 70.2839 320.011 88.4718 320.016C94.4941 320.016 98.787 321.517 101.687 324.615 105.365 328.533 106.867 334.857 106.867 346.426L106.867 382.65 129.613 382.65 129.613 337.071C129.613 304.541 108.879 300.155 88.5916 300.155L46.8107 300.155ZM229.838 300.269 229.847 382.65 253.113 382.65 253.113 300.269 229.838 300.269Z" transform="matrix(1.00097 0 0 1 264.144 981.448)"/><path d="M109.366 136.242C109.366 136.242 139.303 92.0716 199.077 87.502L199.077 71.4772C132.869 76.7944 75.536 132.869 75.536 132.869 75.536 132.869 108.009 226.742 199.077 235.337L199.077 218.304C132.247 209.897 109.366 136.242 109.366 136.242ZM199.077 184.429 199.077 200.028C148.568 191.024 134.548 138.519 134.548 138.519 134.548 138.519 158.8 111.654 199.077 107.297L199.077 124.414C199.047 124.414 199.025 124.405 199 124.405 177.86 121.868 161.346 141.616 161.346 141.616 161.346 141.616 170.602 174.862 199.077 184.429M199.077 41.9205 199.077 71.4772C201.021 71.3282 202.964 71.2018 204.919 71.1353 280.19 68.5984 329.234 132.869 329.234 132.869 329.234 132.869 272.905 201.364 214.22 201.364 208.842 201.364 203.806 200.865 199.077 200.027L199.077 218.304C203.121 218.818 207.314 219.12 211.69 219.12 266.3 219.12 305.793 191.23 344.034 158.221 350.374 163.299 376.331 175.652 381.667 181.06 345.307 211.501 260.568 236.04 212.527 236.04 207.896 236.04 203.449 235.759 199.077 235.337L199.077 261.02 406.647 261.02 406.647 41.9205 199.077 41.9205ZM199.077 107.297 199.077 87.5034C201.001 87.369 202.939 87.2652 204.919 87.2027 259.046 85.5026 294.557 133.717 294.557 133.717 294.557 133.717 256.202 186.986 215.077 186.986 209.158 186.986 203.852 186.035 199.076 184.429L199.076 124.414C220.148 126.96 224.389 136.268 237.057 157.387L265.233 133.629C265.233 133.629 244.665 106.654 209.994 106.654 206.225 106.653 202.619 106.918 199.077 107.297" fill="#77B900" transform="matrix(1.00097 0 0 1 264.144 981.448)"/></g></g></g><text fill="#404040" font-family="Arial,Arial_MSFontService,sans-serif" font-weight="400" font-size="101" transform="matrix(1 0 0 1 1389.71 411)">Gymnasium</text><g><g><g><path d="M274.447 381.521C260.6 373.278 246.795 365.035 232.949 356.793 225.518 352.367 218.047 347.981 210.616 343.515L209.885 343.068 209.114 343.515C200.587 348.55 192.1 353.585 183.573 358.62 170.945 366.132 157.911 373.847 145.08 381.48 131.803 373.562 118.2 365.563 105.085 357.848 94.7711 351.758 84.0515 345.545 73.5755 339.333 73.5755 336.693 73.5755 334.054 73.5755 331.415L82.5898 322.401C82.5086 326.339 82.4679 330.278 82.3867 334.216L82.3867 335.029 83.1176 335.475C101.227 346.195 119.337 356.955 137.406 367.634L139.599 368.933 139.639 366.375C139.761 356.63 139.842 346.804 139.923 337.221 140.045 325.893 140.126 314.198 140.289 302.707L140.289 301.895 139.639 301.449C138.38 300.636 137.122 299.906 135.863 299.175 135.132 298.769 134.442 298.363 133.711 297.916 128.148 294.708 122.545 291.46 116.982 288.252L116.819 288.171 123.438 281.552C130.544 285.491 137.771 289.47 144.877 293.368L145.608 293.774 146.339 293.368C155.231 288.049 164.164 282.73 173.097 277.411 181.015 272.701 202.658 260.6 202.658 260.6L199.978 259.057C190.639 253.616 181.097 247.972 171.879 242.613L165.91 239.08 171.879 233.111C175.412 235.101 178.944 237.131 182.477 239.12 191.369 244.196 200.262 249.272 209.195 254.307L209.926 254.753 210.616 254.307C217.072 250.652 223.528 246.998 229.944 243.384 243.343 235.832 257.19 227.995 270.67 220.158L271.442 219.752 271.442 218.899C271.442 208.423 271.442 197.907 271.442 187.431 271.442 175.006 271.442 162.581 271.442 150.156L271.442 149.303 270.711 148.897C267.666 147.07 264.62 145.243 261.534 143.456L267.869 137.122 268.234 137.365 270.427 138.665 270.467 136.147 270.508 134.482 279.766 125.225C279.806 130.706 279.806 136.228 279.806 141.71L279.806 142.522 280.537 142.928C297.226 153.282 314.198 163.799 330.643 173.95L339.861 179.675 340.591 179.229C345.423 176.549 350.255 173.869 355.047 171.189 364.711 165.829 400.524 146.298 400.524 146.298L398.128 144.877C386.434 138.015 374.577 131.031 363.127 124.25 354.397 119.093 345.626 113.937 336.896 108.78 336.856 97.6947 336.856 86.6096 336.815 75.5246 336.815 73.0883 336.815 70.6114 336.815 68.1751L345.464 59.5263 345.464 60.176C345.545 65.0892 345.626 70.1241 345.586 75.1185L345.586 75.1591C345.708 80.1129 345.748 85.1885 345.789 90.1016 345.829 94.6493 345.829 99.4001 345.951 104.07L345.951 104.841 346.641 105.288C360.65 113.733 374.862 122.301 388.667 130.584 396.098 135.051 403.488 139.517 410.919 144.025 410.837 148.004 410.797 152.064 410.797 155.962 410.797 159.048 410.756 162.175 410.716 165.301 410.594 168.631 410.594 172.082 410.594 175.371 410.594 178.295 410.594 181.218 410.513 184.142 410.391 187.431 410.391 190.72 410.391 193.968 410.391 196.648 410.391 199.409 410.31 202.13 410.188 205.784 410.188 209.52 410.188 213.134 410.188 217.032 410.147 221.051 410.025 224.99 390.088 236.847 368.69 249.515 346.926 262.468L346.235 262.874 346.235 263.727C346.235 274.568 346.235 285.45 346.195 296.292 346.195 310.625 346.195 324.999 346.114 339.333 333.08 347.048 319.842 354.844 307.011 362.396 296.535 368.568 285.694 374.943 275.056 381.237 274.974 381.277 274.934 381.318 274.853 381.358 274.65 381.399 274.528 381.48 274.447 381.521ZM334.095 270.224C328.004 273.716 321.995 277.208 315.904 280.74 304.169 287.481 292.028 294.505 280.131 301.489L279.36 301.895 279.36 302.748C279.522 314.32 279.603 326.096 279.725 337.505 279.847 347.007 279.928 356.793 280.05 366.416L280.091 368.974 282.243 367.675C298.322 358.173 317.366 346.885 336.531 335.516L337.302 335.069 337.302 334.257C337.059 323.537 336.896 312.696 336.775 302.22 336.653 292.15 336.49 281.755 336.287 271.523L336.247 269.046 334.095 270.224ZM185.725 279.157C173.828 286.059 161.525 293.246 149.425 300.271L148.735 300.677 148.735 301.53C148.816 311.843 148.816 322.319 148.816 332.47L148.816 337.627C148.938 346.885 148.978 355.981 149.019 366.051L149.019 368.609 151.212 367.35C161.119 361.584 170.986 355.859 180.853 350.052 190.517 344.449 200.14 338.805 209.804 333.201 219.021 338.561 228.238 343.921 237.456 349.321 247.769 355.29 258.042 361.3 268.396 367.309L270.548 368.568 270.548 366.051C270.548 363.898 270.548 361.706 270.589 359.594 270.589 355.696 270.63 351.676 270.67 347.738 270.792 339.373 270.792 330.846 270.792 322.604 270.792 315.701 270.792 308.595 270.914 301.57L270.914 300.758 270.142 300.312C257.271 292.8 244.399 285.288 231.527 277.817 224.503 273.716 209.763 265.107 209.763 265.107 209.763 265.107 193.522 274.609 185.725 279.157ZM242.937 275.137C252.885 281.065 263.158 287.237 273.31 293.287L274.04 293.693 274.812 293.287C286.953 286.587 299.337 279.766 311.275 273.188 319.233 268.762 327.232 264.377 335.232 259.951L335.962 259.545 335.962 258.651C335.962 256.134 335.962 253.698 335.922 251.18 335.922 247.282 335.881 243.343 335.881 239.486 335.922 229.944 335.841 220.239 335.8 210.86 335.759 203.104 335.678 195.105 335.678 187.228L335.678 186.416 334.988 185.969C327.557 181.503 320.127 177.077 312.696 172.57 307.986 169.768 303.316 166.926 298.606 164.083 292.434 160.307 286.831 157.099 281.431 154.135L279.238 152.917 279.278 155.434C279.4 166.357 279.603 177.483 279.766 188.243 280.009 199.775 280.212 211.753 280.334 223.488 270.63 229.091 260.844 234.898 251.302 240.46 245.374 243.952 239.445 247.444 233.517 250.896 231.771 251.911 229.984 252.967 228.279 253.982 225.518 255.606 222.635 257.311 219.712 258.854L216.788 260.397C216.747 260.357 236.765 271.482 242.937 275.137ZM375.674 169.037C365.766 174.762 355.534 180.65 345.423 186.416L344.652 186.822 344.652 187.674C344.652 192.912 344.692 198.191 344.733 203.348 344.814 210.941 344.896 218.778 344.814 226.492 344.977 233.761 345.017 241.679 345.058 251.505L345.058 254.022 347.21 252.764C355.209 248.175 363.127 243.628 371.085 239.08 381.44 233.152 392.2 226.98 402.716 220.93L403.407 220.524 403.407 219.671C403.569 200.465 403.772 177.767 403.975 155.394L404.016 153.161C404.097 153.12 382.049 165.342 375.674 169.037Z" stroke="#404040" stroke-width="0.120369" fill="#404040" fill-rule="evenodd" transform="matrix(1 0 0 1.0007 816 291.086)"/><path d="M171.757 205.703C122.382 113.937 171.311 44.462 203.794 22.0077 230.878 3.24837 288.902-12.3844 331.293 46.208M67.4442 310.016C50.0249 259.098 72.6416 215.813 99.4813 188.974 126.28 162.175 178.295 138.218 228.888 148.613M123.56 165.423C90.4671 148.247 74.8749 127.701 68.7436 107.683 49.1722 44.1778 112.109-5.56283 170.418 7.26822 180.284 9.42027 190.354 13.0747 200.059 19.612 223.082 35.123 253.048 63.5462 256.824 120.677M100.496 277.005C-8.44576 259.869-4.10106 170.011 16.8509 136.594 37.8435 103.095 87.6653 79.6662 147.638 128.879" stroke="#404040" stroke-width="10.0308" stroke-linejoin="round" fill="none" fill-rule="evenodd" transform="matrix(1 0 0 1.0007 816 291.086)"/><path d="M346.845 44.7463 60.379 331.171" stroke="#404040" stroke-width="10.0308" fill="none" fill-rule="evenodd" transform="matrix(1 0 0 1.0007 816 291.086)"/></g></g></g><path d="M1227 437 1227 514.646" stroke="#404040" stroke-width="2.29167" stroke-linecap="round" stroke-miterlimit="8" fill="none" fill-rule="evenodd"/><path d="M689 2814C689 2631.75 836.746 2484 1019 2484 1201.25 2484 1349 2631.75 1349 2814 1349 2996.25 1201.25 3144 1019 3144 836.746 3144 689 2996.25 689 2814Z" stroke="#404040" stroke-width="13.75" stroke-linecap="square" stroke-miterlimit="8" stroke-dasharray="41.25 13.75" fill="none" fill-rule="evenodd"/><path d="M1352 482 1888.45 482" stroke="#404040" stroke-width="13.75" stroke-linecap="round" stroke-miterlimit="8" fill="none" fill-rule="evenodd"/><path d="M861 2084 1393.11 2084" stroke="#404040" stroke-width="13.75" stroke-linecap="round" stroke-miterlimit="8" fill="none" fill-rule="evenodd"/><path d="M1349 2814 1888.22 2818.21" stroke="#404040" stroke-width="13.75" stroke-linecap="round" stroke-miterlimit="8" fill="none" fill-rule="evenodd"/><text fill="#404040" font-family="Consolas,Consolas_MSFontService,sans-serif" font-weight="700" font-size="92" transform="matrix(1 0 0 1 1712.62 2286)">wrap_env</text><text fill="#404040" font-family="Consolas,Consolas_MSFontService,sans-serif" font-weight="700" font-size="92" transform="matrix(1 0 0 1 2115.96 2286)">(</text><text fill="#404040" font-family="Consolas,Consolas_MSFontService,sans-serif" font-weight="400" font-size="92" transform="matrix(1 0 0 1 2166.37 2286)">…</text><text fill="#404040" font-family="Consolas,Consolas_MSFontService,sans-serif" font-weight="700" font-size="92" transform="matrix(1 0 0 1 2216.79 2286)">)</text><path d="M6.82015-0.866716 61.9404 432.872C62.4191 436.639 59.7536 440.08 55.987 440.559 52.2203 441.037 48.7788 438.372 48.3001 434.605L-6.82015 0.866716C-7.29882-2.89995-4.63338-6.34147-0.866716-6.82015 2.89995-7.29882 6.34147-4.63338 6.82015-0.866716ZM80.1182 392.471 56.8402 447.273 20.5949 400.035C18.2836 397.023 18.8518 392.707 21.8642 390.396 24.8766 388.085 29.1923 388.653 31.5037 391.665L60.5745 429.553 48.7923 431.05 67.4626 387.096C68.947 383.601 72.9834 381.971 76.4782 383.456 79.973 384.94 81.6026 388.976 80.1182 392.471Z" fill="#404040" transform="matrix(1 0 0 -1 1888 2815.24)"/><text fill="#404040" font-family="Arial,Arial_MSFontService,sans-serif" font-weight="400" font-size="101" transform="matrix(1 0 0 1 870.113 2789)">Others</text><text fill="#404040" font-family="Arial,Arial_MSFontService,sans-serif" font-weight="400" font-size="101" transform="matrix(1 0 0 1 785.894 2910)">Interfaces </text><path d="M341-9.99997C341-192.254 488.746-340 671-340 853.254-340 1001-192.254 1001-9.99997 1001 172.254 853.254 320 671 320 488.746 320 341 172.254 341-9.99997Z" stroke="#404040" stroke-width="13.75" stroke-miterlimit="8" fill="none" fill-rule="evenodd"/><text fill="#404040" font-family="Arial,Arial_MSFontService,sans-serif" font-weight="400" font-size="101" transform="matrix(1 0 0 1 1044.35 -5)">Shimmy</text><g><g><g><path d="M758.799-153.667C755.47-149.289 754.351-145.652 754.471-139.802" stroke="#404040" stroke-width="11.3561" stroke-linecap="round" stroke-linejoin="round" fill="none"/><path d="M750.141-178.147C747.06-172.873 746.659-170.389 746.572-163.499" stroke="#404040" stroke-width="11.3561" stroke-linecap="round" stroke-linejoin="round" fill="none"/><path d="M649.599-53.9756C639.237-34.2326 647.621-15.048 663.281-14.4591 678.941-13.8682 687.53-26.2115 683.322-50.1494" stroke="#404040" stroke-width="11.3561" stroke-linecap="round" stroke-linejoin="round" fill="none"/><path d="M657.046 31.1008C646.685 49.628 639.702 59.5812 631.448 73.4177 625.235 81.8701 626.426 84.7882 635.051 88.6962 658.736 99.3181 703.715 95.3057 717.732 89.4656" stroke="#404040" stroke-width="11.3561" stroke-linecap="round" stroke-linejoin="round" fill="none"/><path d="M644.557 92.152 570.199 221.23" stroke="#404040" stroke-width="11.3561" stroke-linecap="round" stroke-linejoin="round" fill="none"/><path d="M722.36-207.55C715.359-196.021 715.133-181.403 728.647-164.702 742.162-148 751.313-123.867 731.557-111.869 720.686-105.267 707.57-104.45 691.697-109.368M660.572-124.044C638.116-138.57 622.457-160.254 624.873-187.304 629.456-238.639 662.107-233.858 677.18-215.039 692.253-196.22 692.715-166.515 692.318-153.232" stroke="#404040" stroke-width="11.3561" stroke-linecap="round" stroke-linejoin="round" fill="none"/><path d="M682.372-127.247C659.782-140.738 640.76-92.9431 659.336-85.6801 677.913-78.417 704.961-113.757 682.372-127.247Z" stroke="#404040" stroke-width="11.3561" stroke-linecap="round" stroke-linejoin="round" fill="none"/><path d="M623.317-56.9584C606.172-35.2281 590.061-15.6807 583.289-15.8517 577.989-15.9865 578.411-28.2006 588.539-60.9043" stroke="#404040" stroke-width="11.3561" stroke-linecap="round" stroke-linejoin="round" fill="none"/><path d="M704.357-47.7613C714.656-23.8633 731.344-1.37683 745.287-5.13281 759.23-8.89069 756.34-31.871 753.115-42.229" stroke="#404040" stroke-width="11.3561" stroke-linecap="round" stroke-linejoin="round" fill="none"/><path d="M589.401-63.2069C599.378-55.543 616.526-77.3512 606.638-83.8619 596.751-90.3745 579.424-70.8689 589.401-63.2069Z" stroke="#404040" stroke-width="11.3561" stroke-linecap="round" stroke-linejoin="round" fill="none"/><path d="M749.695-45.8234C759.671-38.1595 776.422-60.3648 766.535-66.8755 756.646-73.3881 739.717-53.4855 749.695-45.8234Z" stroke="#404040" stroke-width="11.3561" stroke-linecap="round" stroke-linejoin="round" fill="none"/><path d="M736.932-193.889C734.542-189.265 733.531-183.97 734.272-178.204" stroke="#404040" stroke-width="11.3561" stroke-linecap="round" stroke-linejoin="round" fill="none"/><path d="M780.111-103.292C790.938-95.8195 797.122-80.8317 790.784-64.8009" stroke="#404040" stroke-width="11.3561" stroke-linecap="round" stroke-linejoin="round" fill="none"/><path d="M793.566-114.128C808.922-101.803 812.194-79.6994 805.856-63.6686" stroke="#404040" stroke-width="11.3561" stroke-linecap="round" stroke-linejoin="round" fill="none"/><path d="M551.108-16.9308C560.562 6.94632 577.612 13.7307 597.362 14.4431" stroke="#404040" stroke-width="11.3561" stroke-linecap="round" stroke-linejoin="round" fill="none"/><path d="M542.052 4.09277C549.618 19.5175 568.241 29.769 581.836 30.2934" stroke="#404040" stroke-width="11.3561" stroke-linecap="round" stroke-linejoin="round" fill="none"/><path d="M653.032-18.1431C703.539 26.0509 709.552 49.6126 717.732 89.4654 726.622 132.778 731.801 221.23 731.801 221.23" stroke="#404040" stroke-width="11.3561" stroke-linecap="round" stroke-linejoin="round" fill="none"/></g></g></g><text fill="#404040" font-family="Arial,Arial_MSFontService,sans-serif" font-weight="400" font-size="101" transform="matrix(1 0 0 1 889.122 1147)">Isaac </text><text fill="#404040" font-family="Arial,Arial_MSFontService,sans-serif" font-weight="400" font-size="101" transform="matrix(1 0 0 1 1158.39 1147)">Lab</text><path d="M328 2084C328 1969.12 419.782 1876 533 1876 646.218 1876 738 1969.12 738 2084 738 2198.88 646.218 2292 533 2292 419.782 2292 328 2198.88 328 2084Z" stroke="#4472C4" stroke-width="10.3125" stroke-miterlimit="8" fill="url(#fill0)" fill-rule="evenodd"/><path d="M388 1937 677.858 1937" stroke="#4472C4" stroke-width="10.3125" stroke-linecap="round" stroke-linejoin="round" stroke-miterlimit="10" fill="none" fill-rule="evenodd"/><path d="M328 2084 737.921 2084" stroke="#4472C4" stroke-width="10.3125" stroke-linecap="round" stroke-linejoin="round" stroke-miterlimit="10" fill="none" fill-rule="evenodd"/><path d="M388 2231 677.858 2231" stroke="#4472C4" stroke-width="10.3125" stroke-linecap="round" stroke-linejoin="round" stroke-miterlimit="10" fill="none" fill-rule="evenodd"/><path d="M0 0 0.000360892 415.465" stroke="#4472C4" stroke-width="10.3125" stroke-linecap="round" stroke-linejoin="round" stroke-miterlimit="10" fill="none" fill-rule="evenodd" transform="matrix(1 0 0 -1 533 2291.46)"/><path d="M0 0 0.000360892 293.778" stroke="#4472C4" stroke-width="10.3125" stroke-linecap="round" stroke-linejoin="round" stroke-miterlimit="10" fill="none" fill-rule="evenodd" transform="matrix(1 0 0 -1 678 2230.78)"/><path d="M0 0 0.000360892 293.778" stroke="#4472C4" stroke-width="10.3125" stroke-linecap="round" stroke-linejoin="round" stroke-miterlimit="10" fill="none" fill-rule="evenodd" transform="matrix(1 0 0 -1 388 2230.78)"/></g></svg>
